<svg viewBox="0 0 282 383" fill="none" xmlns="http://www.w3.org/2000/svg">
<path d="M50.6381 349.049C50.6381 350.33 50.7299 351.519 50.8217 352.896C50.8217 354.269 65.8376 355.641 66.0213 357.111L68.5876 371.58L70.6031 382.295H210.899L212.914 370.938L215.659 355.554C215.843 354.366 230.68 353.263 230.772 352.075V351.524C230.772 350.61 230.864 349.692 230.864 348.87C230.864 348.044 230.772 347.131 230.772 346.304C230.588 342.732 229.951 339.253 229.032 335.957C228.757 335.038 228.481 334.125 228.119 333.212C228.119 333.12 228.027 333.028 228.027 332.936C227.66 331.931 227.292 331.013 226.93 330.007C226.93 330.007 226.838 330.008 226.838 329.916C226.471 329.002 226.017 327.992 225.466 327.079C225.007 326.166 224.456 325.247 223.91 324.334C223.726 324.058 223.542 323.783 223.267 323.507C223.267 323.415 223.267 323.324 223.175 323.232C223.175 323.14 223.175 323.14 223.083 323.048C222.991 322.956 222.899 322.864 222.899 322.773C222.165 321.767 221.527 320.757 220.792 319.936V319.844C220.149 319.109 219.603 318.471 218.96 317.737C218.042 316.731 217.037 315.721 216.032 314.808C215.027 313.895 214.016 313.068 213.011 312.242C213.011 312.242 213.011 312.242 212.919 312.242C212.827 312.15 212.828 312.058 212.736 312.058C212.46 311.874 212.093 311.691 211.817 311.415C211.088 310.864 210.353 310.41 209.618 309.951H209.526C209.159 309.767 208.797 309.492 208.429 309.308C202.934 306.196 196.526 304.456 189.842 304.456H91.6702C84.4352 304.456 77.7513 306.471 71.9807 309.951C71.5215 310.318 71.0622 310.594 70.6081 310.864C68.6846 312.053 67.0366 313.339 65.3886 314.803C63.7406 316.267 62.1844 318.007 60.8119 319.747C60.169 320.482 59.6231 321.211 59.072 321.946C59.072 322.038 59.072 322.038 59.072 322.038C56.6893 325.334 54.8576 328.997 53.4851 332.936C53.3933 333.12 53.3933 333.212 53.3014 333.395C53.3014 333.487 53.3014 333.579 53.2096 333.671C53.2096 333.671 53.2096 333.763 53.2096 333.855V333.946C53.1177 334.13 53.0259 334.406 52.934 334.589C52.7504 335.14 52.5667 335.594 52.4749 336.145C52.1075 337.242 51.832 338.344 51.6483 339.441C50.9136 342.544 50.6381 345.748 50.6381 349.049Z" fill="#00092B"/>
<path d="M262.13 143.66C262.13 143.66 268.814 213.112 243.681 254.827C224.308 286.982 201.475 289.742 209.782 295.252C218.083 300.763 194.097 293.415 185.796 286.063C177.495 278.716 179.658 297.089 181.806 304.436C183.954 311.783 156.275 310.865 147.05 298.008C137.825 285.145 141.514 169.38 141.514 169.38L262.13 143.66Z" fill="#000516"/>
<path d="M9.34058 150.093L140.049 169.384C140.049 169.384 143.738 285.149 134.514 298.011C125.289 310.874 97.6091 311.792 99.7571 304.44C101.905 297.093 104.068 278.715 95.7671 286.067C87.4607 293.419 63.4752 300.767 71.7765 295.256C80.0829 289.746 20.4125 266.776 29.6373 227.269C37.8621 192.048 9.34058 150.093 9.34058 150.093Z" fill="#000516"/>
<path d="M140.549 331.084H141.003C153.361 331.084 163.382 321.104 163.382 308.797V252.989H118.176V308.797C118.171 321.109 128.192 331.084 140.549 331.084Z" fill="#FFD7A6"/>
<path d="M139.794 274.431H141.764C196.857 274.431 242.772 232.424 247.431 177.759L251.563 129.272C256.819 67.6425 208.001 14.7324 145.896 14.7324H135.661C73.5519 14.7324 24.739 67.6425 29.9943 129.272L34.1271 177.759C38.7854 232.424 84.7003 274.431 139.794 274.431Z" fill="#FFE7C7"/>
<path d="M43.9031 151.931C43.9031 151.931 29.1424 130.798 16.2236 130.798C3.30984 130.798 0.539307 152.85 0.539307 166.631C0.539307 180.412 14.3766 204.3 24.5249 204.3C34.6732 204.3 42.9796 185.927 42.9796 185.927L43.9031 151.931Z" fill="#FFE7C7"/>
<path d="M237.65 151.931C237.65 151.931 252.41 130.798 265.329 130.798C278.243 130.798 281.013 152.85 281.013 166.631C281.013 180.412 267.176 204.3 257.028 204.3C246.879 204.3 238.573 185.927 238.573 185.927L237.65 151.931Z" fill="#FFE7C7"/>
<path d="M229.057 335.974C227.95 331.856 226.18 327.963 223.965 324.361C226.108 327.892 227.879 331.862 229.057 335.974Z" fill="white"/>
<path d="M223.965 324.288C222.562 321.935 220.94 319.731 219.021 317.747C220.792 319.731 222.414 321.935 223.965 324.288Z" fill="white"/>
<path d="M216.067 314.803C214.072 312.895 211.863 311.278 209.572 309.951C211.863 311.349 214.077 312.967 216.067 314.803Z" fill="white"/>
<path d="M51.699 339.428C52.0663 337.224 52.7296 335.019 53.4694 332.887C52.7296 334.948 52.0663 337.152 51.699 339.428Z" fill="white"/>
<path d="M212.914 370.933C213.19 374.689 213.827 378.536 214.654 382.291H248.63C242.313 363.79 234.068 345.478 228.302 333.386C228.211 333.386 228.211 333.294 228.211 333.294C228.211 333.202 228.119 333.202 228.119 333.202C228.119 333.11 228.027 333.019 228.027 332.927C226.103 328.988 224.547 325.784 223.266 323.493C223.266 323.401 223.266 323.309 223.175 323.217C223.175 323.125 223.175 323.125 223.083 323.034V322.942C222.991 322.85 222.899 322.758 222.899 322.758C222.807 322.666 222.807 322.574 222.807 322.483C221.894 320.743 221.343 319.554 221.159 319.186C221.159 319.095 221.159 319.095 221.067 319.095L220.884 319.646C220.884 319.738 220.792 319.738 220.792 319.829V319.921C213.644 336.228 210.991 353.81 212.914 370.933Z" fill="#FFE7C7"/>
<path d="M32.9637 382.291H66.8476C67.669 378.72 68.3119 375.148 68.5874 371.576C70.6028 354.178 68.0364 336.228 60.8014 319.743L60.7096 319.651L60.526 319.192C60.526 319.192 59.9749 320.197 59.0616 321.937C59.0616 322.029 59.0616 322.029 59.0616 322.029C57.7809 324.498 55.7656 328.345 53.291 333.386C53.291 333.478 53.291 333.57 53.1992 333.662C53.1992 333.662 53.1992 333.754 53.1992 333.846V333.937H53.1073C47.3418 346.025 39.1885 363.974 32.9637 382.291Z" fill="#FFE7C7"/>
<path d="M103.293 128.501H64.0821V128.695C64.0821 139.247 72.6691 147.798 83.2614 147.798H84.1084C94.7006 147.798 103.288 139.247 103.288 128.695V128.501H103.293Z" fill="#9CD2FF"/>
<path d="M59.7964 121.849L64.1026 122.125C70.6028 122.492 77.2 123.038 83.7003 123.956C86.9963 124.507 90.2004 124.87 93.5016 125.696C96.7976 126.431 100.002 127.069 103.303 128.171L103.579 128.263L103.67 128.538C103.946 129.819 104.221 131.196 104.405 132.569C104.313 134.033 104.129 135.406 103.946 136.875C103.67 138.247 103.119 139.712 102.665 141.181C102.022 142.462 101.201 143.84 100.282 145.12C98.3589 147.503 95.9762 149.605 92.9557 151.075C91.3995 151.717 89.476 152.539 88.0116 152.906L86.1799 153.274L85.2615 153.457L84.7105 153.549L83.7003 153.641C82.3278 153.641 80.4043 153.549 78.8481 153.457C77.1083 153.274 75.5521 152.728 73.9041 152.36C70.6999 151.171 67.766 149.248 65.2047 146.957C64.8374 146.59 64.5618 146.222 64.1945 145.86C64.1026 145.86 64.1026 145.768 64.1026 145.768C63.3679 144.942 62.6383 144.028 61.9036 143.11C60.9903 141.554 60.1638 140.089 59.5209 138.533C58.878 136.702 58.332 134.594 58.0565 132.946L57.6892 128.548L57.2299 121.772L59.7964 121.849ZM64.1026 129.171H64.8374L65.1128 132.283C65.3884 133.472 65.8424 134.574 66.2098 135.671L67.9497 138.967L70.3325 141.804C72.0723 143.452 74.1796 144.824 76.4705 145.835C78.7614 146.748 81.139 147.115 83.7054 147.207C86.18 147.115 88.7413 146.748 91.0322 145.926C93.3231 145.013 95.4302 143.635 97.2619 141.896L99.6447 139.054L101.476 135.85C101.844 134.661 102.298 133.467 102.573 132.186L102.941 128.89L64.8425 129.166L64.7507 128.523L64.1026 129.171Z" fill="#231F20"/>
<path d="M180.326 128.501H219.537V128.695C219.537 139.247 210.95 147.798 200.358 147.798H199.511C188.918 147.798 180.331 139.247 180.331 128.695V128.501H180.326Z" fill="#002047"/>
<path d="M56.3933 43.52C56.3933 43.52 62.8527 68.3271 66.5416 84.8634C72.5112 111.619 57.3168 117.018 59.1587 128.043C61.0057 139.069 70.2306 150.095 70.2306 150.095C70.2306 150.095 50.8574 138.151 49.9339 128.043C49.0104 117.936 49.0104 117.936 49.0104 117.936C49.0104 117.936 45.7909 139.268 48.0869 150.09C51.0717 164.152 67.4601 173.06 67.4601 173.06C67.4601 173.06 52.3218 176.219 43.097 168.866C33.8722 161.514 33.6732 147.84 33.6732 147.84C33.6732 147.84 38.1376 171.749 44.1837 183.362C48.2808 191.235 76.6849 207.051 76.6849 207.051C76.6849 207.051 60.0771 206.133 52.6993 203.378C45.3164 200.623 39.7805 198.786 39.7805 198.786C39.7805 198.786 43.4694 216.241 60.0771 233.7C74.5623 248.925 81.2972 244.726 81.2972 244.726C81.2972 244.726 45.893 261.844 31.1323 248.981C2.56491 224.088 -29.4108 106.915 56.3933 43.52Z" fill="#000516"/>
<path d="M35.4844 213.091C34.4487 209.632 22.0707 173.942 24.9738 154.002L41.6479 188.799C41.0254 187.095 30.7751 166.324 31.0659 153.706C31.3822 140.16 31.1832 119.414 31.8057 115.333L39.8366 139.864C40.8825 136.981 45.8929 110.327 46.9644 108.281C49.8115 102.868 51.8574 98.9595 49.5563 88.6479C48.6991 84.8008 47.6788 80.4691 46.6277 76.1016C25.2443 101.011 13.5193 123.338 12.6519 144.941C12.3458 152.615 17.9277 181.202 20.2645 188.075C22.6166 195.014 35.4844 213.091 35.4844 213.091Z" fill="#00092B"/>
<path d="M174.908 353.261L195.97 382.293H251.466L244.048 356.925C239.747 342.547 231.869 329.546 221.154 319.194C221.154 319.102 221.154 319.102 221.062 319.102C218.68 316.811 216.21 314.617 213.552 312.602L213.46 312.51C213.276 312.418 213.184 312.326 213.001 312.234C213.001 312.234 213.001 312.234 212.909 312.234C212.817 312.142 212.817 312.05 212.725 312.05C212.633 311.959 212.542 311.867 212.45 311.775C212.358 311.683 212.358 311.683 212.266 311.683C212.174 311.591 212.082 311.499 211.991 311.499C211.899 311.408 211.899 311.408 211.807 311.408C210.894 310.581 209.883 309.943 208.878 309.208L208.603 309.025L208.419 309.3L174.908 353.261Z" fill="#00092B"/>
<path d="M29.025 382.292H84.7923L105.395 353.903L71.9704 309.948L71.6949 309.58L71.5112 309.764C54.48 321.121 42.0256 337.969 36.3468 357.475L29.025 382.292Z" fill="#00092B"/>
<g opacity="0.75">
<path d="M108.212 227.026C108.212 227.026 109.155 227.583 110.803 228.246C112.451 228.782 114.809 229.925 117.63 230.624C120.457 231.435 123.753 232.103 127.284 232.542C130.814 233.073 134.585 233.159 138.35 233.287C142.116 233.154 145.886 233.057 149.417 232.527C152.948 232.083 156.244 231.414 159.07 230.608C161.897 229.904 164.249 228.777 165.897 228.241C167.545 227.577 168.489 227.026 168.489 227.026V226.292C168.489 226.292 153.417 226.108 138.35 225.924C123.283 226.108 108.212 226.292 108.212 226.292V227.026Z" fill="#F4D1A6"/>
</g>
<path d="M162.029 241.965C164.323 241.965 166.183 240.115 166.183 237.832C166.183 235.55 164.323 233.7 162.029 233.7C159.736 233.7 157.876 235.55 157.876 237.832C157.876 240.115 159.736 241.965 162.029 241.965Z" fill="#687986"/>
<g opacity="0.75">
<path d="M125.13 202.132C130.544 202.132 134.932 197.744 134.932 192.351C134.932 191.519 134.258 190.846 133.432 190.846C132.6 190.846 131.932 191.519 131.932 192.351C131.932 196.081 128.881 199.116 125.136 199.116C121.391 199.116 118.329 196.081 118.329 192.351C118.329 188.621 121.386 185.59 125.136 185.59C125.967 185.59 126.636 184.917 126.636 184.085C126.636 183.254 125.962 182.58 125.136 182.58C119.727 182.58 115.324 186.968 115.324 192.356C115.319 197.749 119.717 202.132 125.13 202.132Z" fill="#191D33"/>
</g>
<path d="M133.172 194.653H143.524C149.07 194.653 153.57 190.174 153.57 184.648V184.546H123.125V184.648C123.125 190.174 127.625 194.653 133.172 194.653Z" fill="#F4D1A6"/>
<path d="M150.499 0.33841C199.388 1.32314 247.594 39.4776 260.232 69.9073C329.755 237.337 208.929 250.541 208.929 250.541C208.929 250.541 221.537 217.162 225.226 199.703C228.496 184.233 218.766 155.604 218.766 155.604C218.766 155.604 223.323 175.753 218.766 186.84C210.465 207.055 195.699 209.81 195.699 209.81C195.699 209.81 200.312 201.54 200.312 184.085C200.312 176.289 193.852 145.497 193.852 145.497C193.852 145.497 194.087 157.66 190.163 169.385C187.393 177.656 168.02 185.003 168.02 185.003C168.02 185.003 177.24 170.406 178.168 150.089C179.092 129.879 177.245 116.093 177.245 116.093C177.245 116.093 178.168 127.118 172.632 144.573C167.096 162.028 156.948 166.625 156.948 166.625C156.948 166.625 163.356 113.307 139.417 98.6379C115.431 83.9384 142.182 144.573 142.182 144.573L117.207 132.139C85.9965 116.598 62.4445 89.1171 51.934 55.9781L51.7656 55.4526C51.7656 55.4526 52.2248 51.8913 54.3473 46.5799C60.7149 30.6558 81.9912 -1.03919 150.499 0.33841Z" fill="#00092B"/>
<path d="M191.265 47.6169C202.863 57.8775 220.899 78.067 227.425 97.9146C233.951 117.762 232.864 137.334 232.048 137.61C231.231 137.88 229.598 119.936 221.445 107.16C213.292 94.3838 208.123 86.4958 208.123 86.4958C208.123 86.4958 219.272 117.216 218.185 127.548C217.098 137.88 215.465 147.12 215.465 147.12C215.465 147.12 212.475 113.68 205.133 103.619C197.791 93.5624 186.102 82.1436 186.102 82.1436C186.102 82.1436 193.169 102.532 193.169 113.951C193.169 125.37 190.995 129.176 190.995 129.176C190.995 129.176 184.469 93.5624 174.137 84.0467C163.805 74.5311 145.05 42.7239 145.05 42.7239C145.05 42.7239 155.652 54.6834 162.178 59.852C168.703 65.0154 175.77 68.2809 175.77 68.2809C175.77 68.2809 169.52 57.6785 167.612 51.9691C165.708 46.2597 164.622 35.6572 164.622 35.6572C164.622 35.6572 170.061 47.3464 174.408 53.3313C178.76 59.3112 192.082 67.7401 192.082 67.7401C192.082 67.7401 188.005 56.5917 182.025 47.8924C177.949 41.9585 176.586 36.4736 176.586 36.4736C176.586 36.4736 187.811 44.5658 191.265 47.6169Z" fill="#314368"/>
</svg>
