<svg viewBox="0 0 292 516" fill="none" xmlns="http://www.w3.org/2000/svg">
<path d="M170.215 447.221H171.225L171.582 448.721V448.859C170.894 448.507 170.45 447.976 170.215 447.221Z" fill="#010C2B"/>
<path d="M125.366 491.953L126.239 492.999C126.856 493.811 126.831 494.882 126.504 495.877L126.208 495.632C125.826 495.168 125.147 495.127 124.693 495.535L124.678 495.55C124.224 495.959 124.193 496.704 124.616 497.209L124.989 497.52C123.912 497.974 122.657 497.897 121.785 496.79L120.708 495.489C119.723 494.428 119.871 492.948 120.611 491.979C120.703 492.142 120.851 492.402 120.851 492.402C121.152 492.994 121.851 493.147 122.377 492.78L122.397 492.765C122.877 492.428 123.014 491.739 122.749 491.198C122.749 491.198 122.683 491.081 122.667 491.055C123.683 490.974 124.652 491.234 125.366 491.953Z" fill="#010C2B"/>
<path d="M116.432 470.686V473.742C115.346 473.997 114.422 474.574 113.774 475.441L115.499 467.635C115.79 467.773 116.116 467.803 116.432 467.875V470.686Z" fill="#010C2B"/>
<path d="M117.545 477.192H117.565C118.177 477.192 118.677 476.682 118.677 476.049V475.667C119.672 476.156 120.33 477.207 120.468 478.238L120.611 479.59C120.713 480.6 120.04 481.473 119.157 482.106C119.142 481.973 119.08 481.728 119.121 481.718C119.065 481.121 118.519 480.697 117.912 480.769L117.892 480.774C117.284 480.845 116.846 481.437 116.912 482.095C116.846 482.111 116.907 482.442 116.983 482.81C115.851 482.585 114.937 481.565 114.789 480.126L114.626 478.447C114.468 477.014 115.32 475.993 116.432 475.585V476.049C116.432 476.677 116.927 477.192 117.545 477.192Z" fill="#010C2B"/>
<path d="M145.709 467.89H146.178C157.531 467.89 166.939 459.757 168.945 449.037C169.567 449.996 170.47 450.685 171.577 450.991V454.073V456.936C169.587 457.492 168.087 459.288 168.087 461.512V463.038C168.087 465.262 169.587 467.058 171.577 467.614V470.696V473.548C169.587 474.105 168.138 475.992 168.011 477.997L167.873 479.253C167.822 481.038 168.929 482.855 170.684 483.845C170.281 485.186 169.792 486.646 169.792 486.646C169.945 486.712 169.317 487.942 168.679 489.115C166.643 488.651 164.705 489.36 163.577 490.738L162.766 491.707C161.75 493.182 161.511 495.197 162.383 497.029L160.123 498.917L157.73 500.223C156.332 498.723 154.393 498.299 152.628 498.651L151.424 499.024C149.765 499.733 148.377 501.131 148.061 503.162L145.122 503.442L142.393 503.182C142.061 501.151 140.668 499.718 138.995 499.08L137.79 498.702C136.03 498.345 134.081 498.82 132.698 500.325L130.122 498.917L128.025 497.161C128.887 495.32 128.601 493.33 127.596 491.845L126.79 490.876C125.606 489.534 123.698 488.819 121.672 489.294C120.999 488.064 120.295 486.707 120.458 486.641C120.458 486.641 120.009 485.324 119.621 484.044C121.377 483.038 122.433 481.222 122.392 479.426L122.254 478.176C122.096 476.237 120.662 474.324 118.667 473.763V470.691V467.829C120.657 467.278 122.157 465.477 122.157 463.252V461.726C122.157 459.502 120.657 457.706 118.667 457.15V454.068V453.236L119.137 451.114C120.718 450.491 121.82 449.007 122.045 447.226H122.754C123.994 458.818 133.734 467.89 145.709 467.89Z" fill="#010C2B"/>
<path d="M151.903 500.744L153.204 500.341C154.204 500.107 155.189 500.51 155.985 501.173L155.638 501.362C155.072 501.551 154.776 502.148 154.985 502.729L154.99 502.75C155.199 503.321 155.888 503.642 156.51 503.428L157.143 503.081C157.225 504.306 156.48 505.52 155.061 505.882L153.449 506.382C152.077 506.888 150.776 506.255 150.158 505.199L150.648 505.153C151.316 505.132 151.689 504.377 151.551 503.816L151.546 503.795C151.398 503.163 150.842 502.943 150.235 502.949L150.071 502.964C150.367 501.964 150.959 501.117 151.903 500.744Z" fill="#010C2B"/>
<path d="M109.473 491.064L109.463 490.819L110.32 491.064L109.59 491.467L109.473 491.064Z" fill="#010C2B"/>
<path d="M112.912 479.335L113.004 480.284C113.141 483.07 115.284 484.718 117.473 484.647C117.892 486.024 118.366 487.438 118.366 487.438C118.198 487.509 118.958 488.979 119.682 490.305C118.07 491.739 117.524 494.453 119.274 496.56L120.412 497.938C122.081 500.188 124.907 500.198 126.632 498.887L128.872 500.76L131.642 502.27C131.101 504.392 132.173 506.979 134.867 507.653L136.576 508.178C139.214 509.066 141.551 507.423 142.229 505.392L145.122 505.668L148.255 505.372C148.974 507.423 151.316 509.066 153.918 508.107L155.628 507.581C158.342 506.908 159.378 504.239 158.817 502.163L161.378 500.765L163.801 498.744C165.582 500.056 168.348 499.979 170.006 497.744L171.138 496.367C172.837 494.203 172.286 491.484 170.679 490.101C171.363 488.831 172.036 487.509 171.878 487.443C171.878 487.443 172.404 485.876 172.837 484.427C175.072 484.473 177.128 482.8 177.271 480.034L177.44 478.254C177.577 475.733 175.909 473.993 173.817 473.514V470.692V467.646C174.588 467.468 175.276 467.146 175.848 466.641L181.675 491.071L174.639 515.709H160.5C156.163 513.546 151.347 512.214 146.183 512.214C141.02 512.214 136.204 513.546 131.872 515.709H117.346L110.31 491.071L112.912 479.335Z" fill="#010C2B"/>
<path d="M138.545 500.8C139.494 501.188 140.107 502.009 140.408 502.979L140.02 502.943C139.413 502.938 138.857 503.157 138.709 503.79L138.704 503.81C138.571 504.372 138.943 505.127 139.607 505.147L140.326 505.214C139.714 506.275 138.408 506.959 137.04 506.448L135.428 505.953C134.025 505.566 133.249 504.397 133.316 503.188L133.749 503.423C134.372 503.637 135.061 503.315 135.27 502.744L135.275 502.724C135.489 502.142 135.188 501.545 134.622 501.356L134.469 501.275C135.275 500.576 136.26 500.142 137.244 500.397L138.545 500.8Z" fill="#010C2B"/>
<path d="M173.822 465.586V465.326C173.822 464.693 173.327 464.183 172.71 464.183H172.689C172.077 464.183 171.577 464.693 171.577 465.326V465.479C170.628 464.984 169.878 464.177 169.878 463.029V461.504C169.878 460.341 170.628 459.529 171.577 459.039V459.427C171.577 460.06 172.077 460.57 172.689 460.57H172.71C173.322 460.57 173.822 460.06 173.822 459.427V458.948C173.899 458.978 173.97 459.004 174.042 459.039L175.266 464.172C174.96 464.861 174.501 465.305 173.822 465.586Z" fill="#010C2B"/>
<path d="M164.148 492.852L165.021 491.806C165.751 491.082 166.705 490.796 167.705 490.868C167.638 490.98 167.511 491.204 167.511 491.204C167.246 491.745 167.383 492.434 167.863 492.771L167.883 492.786C168.409 493.153 169.113 493 169.409 492.408C169.409 492.408 169.577 492.112 169.761 491.786C170.506 492.75 170.695 494.25 169.71 495.301L168.638 496.602C167.751 497.689 166.531 497.796 165.46 497.373L165.648 497.215C166.072 496.71 166.041 495.965 165.587 495.557L165.572 495.541C165.113 495.133 164.434 495.174 164.057 495.638L163.929 495.745C163.567 494.72 163.516 493.633 164.148 492.852Z" fill="#010C2B"/>
<path d="M117.565 460.575C118.177 460.575 118.677 460.065 118.677 459.432V459.279C119.626 459.774 120.371 460.58 120.371 461.728V463.254C120.371 464.417 119.621 465.228 118.677 465.718V465.33C118.677 464.698 118.182 464.188 117.565 464.188H117.545C116.932 464.188 116.432 464.698 116.432 465.33V465.81C116.264 465.744 116.096 465.698 115.948 465.601L117.101 460.386C117.249 460.458 117.371 460.575 117.545 460.575H117.565Z" fill="#010C2B"/>
<path d="M120.004 447.221H120.137C120.075 447.487 119.968 447.711 119.846 447.941L120.004 447.221Z" fill="#010C2B"/>
<path d="M169.664 479.391L169.807 478.039C169.919 476.963 170.593 475.901 171.577 475.422V476.044C171.577 476.677 172.077 477.187 172.69 477.187H172.71C173.322 477.187 173.822 476.677 173.822 476.044V475.355C174.935 475.764 175.771 476.794 175.654 478.197L175.491 479.876C175.348 481.315 174.429 482.34 173.297 482.575C173.322 482.386 173.394 482.096 173.348 482.085C173.414 481.427 172.975 480.835 172.368 480.764L172.343 480.759C171.735 480.687 171.195 481.111 171.133 481.708C171.149 481.713 171.113 481.845 171.118 481.871C170.23 481.248 169.567 480.386 169.664 479.391Z" fill="#010C2B"/>
<path d="M168.883 429.603V427.185H168.572V429.603H122.509V406.812C129.764 408.312 137.244 409.159 144.923 409.159H146.964C154.643 409.159 162.123 408.312 169.378 406.812V423.761V429.603H168.883Z" fill="#EFD0AB"/>
<path d="M146.178 467.89H145.709C133.734 467.89 123.994 458.824 122.754 447.221H168.245C168.358 447.89 168.592 448.492 168.944 449.032C166.939 459.757 157.531 467.89 146.178 467.89Z" fill="#EFD0AB"/>
<path d="M144.923 409.154C137.244 409.154 129.764 408.306 122.509 406.806C81.8188 398.393 49.1391 367.565 38.6183 327.319C42.2613 322.426 44.5573 317.4 44.5573 317.4L45.5165 282.159C45.5165 282.159 39.5571 273.628 31.8221 267.215L31.0926 258.669C26.1536 200.723 67.3745 150.354 123.116 141.46L120.259 161.665C120.096 163.558 120.233 165.39 120.519 167.176L120.259 168.859C120.04 170.691 120.376 172.446 120.978 174.125L120.259 176.686C119.137 181.814 129.555 186.217 142.816 186.217H143.316C156.577 186.217 166.995 181.814 165.873 176.686L165.153 174.125C165.756 172.446 166.097 170.691 165.873 168.859L165.613 167.176C165.898 165.39 166.036 163.558 165.873 161.665L162.888 140.542C221.61 146.675 265.912 198.682 260.795 258.669L260.065 267.215C252.33 273.628 246.371 282.159 246.371 282.159L247.325 317.4C247.325 317.4 249.626 322.426 253.264 327.319C242.743 367.565 210.063 398.393 169.373 406.806C162.123 408.306 154.638 409.154 146.959 409.154H144.923ZM107.08 257.878H66.4305V258.077C66.4305 269.011 75.3339 277.878 86.3139 277.878H87.1965C98.1765 277.878 107.08 269.011 107.08 258.077V257.878ZM159.209 315.972H127.647V316.079C127.647 320.482 130.423 324.191 134.305 325.697C133.907 325.788 133.499 325.85 133.188 326.151C129.377 329.952 123.183 329.952 119.371 326.151C115.56 322.339 115.56 316.14 119.371 312.329C123.183 308.527 129.377 308.527 133.188 312.329C134.076 313.211 135.499 313.191 136.377 312.329C137.26 311.446 137.26 310.022 136.377 309.14C130.805 303.578 121.759 303.578 116.182 309.14C110.616 314.711 110.616 323.768 116.182 329.339C118.968 332.12 122.621 333.513 126.28 333.513C129.938 333.513 133.591 332.12 136.377 329.339C137.26 328.457 137.26 327.033 136.377 326.151C136.326 326.1 136.244 326.12 136.193 326.074C136.821 326.191 137.397 326.452 138.066 326.452H148.796C154.546 326.452 159.209 321.809 159.209 316.079V315.972ZM186.945 258.077C186.945 269.011 195.848 277.878 206.828 277.878H207.711C218.691 277.878 227.594 269.011 227.594 258.077V257.878H186.945V258.077ZM174.669 357.468V356.703C174.669 356.703 159.046 356.514 143.423 356.32C127.8 356.509 112.177 356.703 112.177 356.703V357.468C112.177 357.468 113.152 358.045 114.861 358.733C116.57 359.289 119.009 360.473 121.938 361.198C124.866 362.034 128.285 362.734 131.948 363.188C135.606 363.739 139.515 363.825 143.418 363.958C147.321 363.82 151.23 363.723 154.888 363.172C158.551 362.713 161.965 362.019 164.898 361.182C167.827 360.453 170.271 359.284 171.975 358.728C173.695 358.04 174.669 357.468 174.669 357.468Z" fill="#FFE7C7"/>
<path d="M45.5167 282.164L44.5575 317.405C44.5575 317.405 42.2563 322.431 38.6185 327.324C35.1796 331.946 30.5417 336.451 25.4293 336.451C14.9085 336.451 0.560989 311.69 0.560989 297.399C0.560989 283.113 3.42842 260.255 16.8218 260.255C21.8576 260.255 27.1589 263.352 31.8172 267.219C39.5573 273.633 45.5167 282.164 45.5167 282.164Z" fill="#FFE7C7"/>
<path d="M246.371 282.164C246.371 282.164 252.33 273.633 260.065 267.219C264.724 263.352 270.03 260.255 275.066 260.255C288.454 260.255 291.326 283.113 291.326 297.399C291.326 310.532 279.214 332.456 269.086 335.931V329.201H262.32V335.457C258.856 333.895 255.754 330.661 253.269 327.324C249.626 322.431 247.33 317.405 247.33 317.405L246.371 282.164Z" fill="#FFE7C7"/>
<path d="M87.1966 277.879H86.314C75.334 277.879 66.4306 269.011 66.4306 258.077V257.878H107.08V258.077C107.08 269.011 98.1766 277.879 87.1966 277.879Z" fill="#002047"/>
<path d="M227.595 258.077C227.595 269.011 218.691 277.879 207.711 277.879H206.829C195.849 277.879 186.945 269.011 186.945 258.077V257.878H227.595V258.077Z" fill="#002047"/>
<path d="M148.791 326.453H138.061C137.397 326.453 136.821 326.193 136.188 326.075C135.632 325.626 134.969 325.545 134.3 325.698C130.418 324.193 127.642 320.483 127.642 316.08V315.973H159.204V316.08C159.209 321.81 154.546 326.453 148.791 326.453Z" fill="#F4D1A6"/>
<path d="M160.51 515.71H131.882C136.214 513.547 141.03 512.215 146.194 512.215C151.362 512.215 156.179 513.547 160.51 515.71Z" fill="#CC301C"/>
<path d="M154.898 363.172C151.24 363.723 147.331 363.82 143.428 363.958C139.52 363.825 135.617 363.738 131.958 363.187C128.295 362.733 124.877 362.039 121.948 361.198C119.019 360.473 116.58 359.289 114.871 358.733C113.162 358.044 112.187 357.468 112.187 357.468V356.703C112.187 356.703 127.81 356.514 143.433 356.32C159.056 356.509 174.679 356.703 174.679 356.703V357.468C174.679 357.468 173.705 358.039 171.996 358.723C170.286 359.279 167.847 360.448 164.919 361.177C161.98 362.014 158.561 362.708 154.898 363.172Z" fill="#F4D1A6"/>
<path d="M165.613 167.181L143.066 21.2425L120.519 167.181C120.234 165.396 120.096 163.564 120.259 161.671L123.116 141.466L143.066 0.318359L162.888 140.553L165.873 161.676C166.031 163.559 165.898 165.396 165.613 167.181Z" fill="#D32911"/>
<path d="M143.066 21.2422L165.613 167.181L165.873 168.865C166.092 170.697 165.756 172.452 165.154 174.13L143.071 95.6428L120.984 174.13C120.382 172.452 120.045 170.697 120.264 168.865L120.524 167.181L143.066 21.2422Z" fill="#E24333"/>
<path d="M143.066 95.6479L165.148 174.135L165.868 176.697C166.99 181.825 156.572 186.228 143.311 186.228H142.811C129.55 186.228 119.132 181.825 120.254 176.697L120.973 174.135L143.066 95.6479Z" fill="#F26F68"/>
<path d="M109.585 491.474L109.473 491.066L109.59 491.469L109.585 491.474Z" fill="#DB513E"/>
<path d="M197.527 515.709L197.093 512.117L205.114 503.928L181.68 491.071L211.808 482.499C211.808 482.499 214.298 481.836 203.68 450.115C201.828 444.589 198.644 440.181 194.95 436.65C194.971 436.65 194.996 436.65 195.017 436.656L197.201 437.819C198.384 438.406 199.731 438.329 200.803 437.707C202.344 437.707 206.522 437.727 217.211 438.681C227.727 439.615 237.049 443.743 243.62 447.482C244.034 447.819 244.427 448.054 244.845 448.411C258.846 460.417 268.075 477.024 272.086 494.984L276.708 515.714L197.527 515.709ZM231.875 464.009C231.875 459.962 228.594 456.682 224.548 456.682C220.502 456.682 217.222 459.962 217.222 464.009C217.222 468.055 220.502 471.335 224.548 471.335C228.594 471.335 231.875 468.055 231.875 464.009ZM219.477 504.597C223.523 504.597 226.804 501.316 226.804 497.27C226.804 493.224 223.523 489.943 219.477 489.943C215.431 489.943 212.15 493.224 212.15 497.27C212.15 501.316 215.431 504.597 219.477 504.597ZM259.499 489.285C259.499 485.239 256.218 481.958 252.172 481.958C248.126 481.958 244.845 485.239 244.845 489.285C244.845 493.331 248.126 496.612 252.172 496.612C256.218 496.612 259.499 493.331 259.499 489.285Z" fill="#3E5868"/>
<path d="M197.527 515.709H193.573L197.093 512.117L197.527 515.709Z" fill="#687986"/>
<path d="M258.198 431.538L255.167 445.758C253.254 444.37 250.509 442.554 247.085 440.625L258.198 431.538Z" fill="#CFFFF6"/>
<path d="M199.313 430.15L205.66 417.609L208.344 430.314C204.139 430.038 201.19 429.956 199.313 430.15Z" fill="#CFFFF6"/>
<path d="M215.686 430.886L221.441 419.513L224.089 432.044C222.059 431.651 220.023 431.258 217.89 431.074C217.058 431.003 216.446 430.957 215.686 430.886Z" fill="#CFFFF6"/>
<path d="M235.406 422.522L234.697 434.936C232.085 433.992 229.355 433.135 226.452 432.467L235.406 422.522Z" fill="#CFFFF6"/>
<path d="M244.493 424.904L243.697 438.854C241.131 437.553 238.335 436.303 235.258 435.16L244.493 424.904Z" fill="#CFFFF6"/>
<path d="M200.803 437.701C199.731 438.323 198.389 438.395 197.201 437.813L195.017 436.65L194.864 436.568C194.675 436.39 194.481 436.231 194.292 436.058L195.104 433.185C195.593 431.44 196.252 430.461 199.313 430.144C201.19 429.951 204.14 430.032 208.344 430.313C210.42 430.451 212.849 430.639 215.686 430.884C216.451 430.951 217.064 430.997 217.885 431.068C220.018 431.257 222.054 431.65 224.084 432.037C224.87 432.19 225.681 432.282 226.452 432.461C229.355 433.129 232.084 433.987 234.697 434.93C234.891 435.002 235.064 435.083 235.258 435.155C238.33 436.298 241.131 437.548 243.697 438.849C244.876 439.446 246.034 440.028 247.09 440.619C250.514 442.548 253.259 444.364 255.172 445.752C256.983 447.064 258.121 448.007 258.289 448.15C259.886 449.513 260.08 451.926 258.718 453.528C257.963 454.411 256.886 454.87 255.805 454.87C254.932 454.87 254.055 454.564 253.335 453.962C253.259 453.895 249.549 450.839 243.626 447.467C237.049 443.727 227.727 439.599 217.217 438.665C206.522 437.721 202.344 437.701 200.803 437.701Z" fill="#687986"/>
<path d="M88.3242 450.108C77.7065 481.829 80.1913 482.492 80.1913 482.492L109.458 490.819L109.473 491.064L109.585 491.467L86.8904 503.922L94.9112 512.111L94.4774 515.703H87.717C86.4721 513.432 84.1454 511.83 81.3698 511.83C78.5942 511.83 76.2677 513.432 75.0227 515.703H14.4338L19.0564 494.972C23.0667 477.007 32.2967 460.405 46.2972 448.399C46.7156 448.037 47.1136 447.807 47.5319 447.466C54.1036 443.726 63.4253 439.598 73.9308 438.669C84.6302 437.725 88.8038 437.725 90.3446 437.695C91.4161 438.317 92.758 438.389 93.9469 437.807C94.4622 437.547 94.8755 437.144 95.2326 436.69C95.799 436.659 96.355 436.633 96.8959 436.608C93.2733 440.21 90.1508 444.649 88.3242 450.108ZM75.737 501.687C79.7831 501.687 83.0638 498.406 83.0638 494.36C83.0638 490.314 79.7831 487.033 75.737 487.033C71.691 487.033 68.4102 490.314 68.4102 494.36C68.4102 498.406 71.691 501.687 75.737 501.687ZM45.2971 464.481C41.2511 464.481 37.9703 467.762 37.9703 471.808C37.9703 475.854 41.2511 479.135 45.2971 479.135C49.3432 479.135 52.6239 475.854 52.6239 471.808C52.6239 467.762 49.3432 464.481 45.2971 464.481Z" fill="#3E5868"/>
<path d="M32.96 431.538L44.0726 440.625C40.649 442.554 37.904 444.375 35.9907 445.758L32.96 431.538Z" fill="#CFFFF6"/>
<path d="M82.8138 430.319L85.4976 417.609L91.8448 430.15C89.9723 429.956 87.0181 430.043 82.8138 430.319Z" fill="#CFFFF6"/>
<path d="M67.0735 432.044L69.7165 419.513L75.4719 430.886C74.7065 430.952 74.0942 430.998 73.2677 431.069C71.1349 431.263 69.0991 431.656 67.0735 432.044Z" fill="#CFFFF6"/>
<path d="M55.7517 422.522L64.7062 432.467C61.803 433.135 59.0733 433.987 56.461 434.936L55.7517 422.522Z" fill="#CFFFF6"/>
<path d="M46.6647 424.904L55.8997 435.16C52.8282 436.303 50.0271 437.553 47.4606 438.854L46.6647 424.904Z" fill="#CFFFF6"/>
<path d="M93.9571 437.813C92.7682 438.4 91.4263 438.323 90.3548 437.701C88.8089 437.726 84.6404 437.726 73.941 438.675C63.4304 439.609 54.1138 443.731 47.5421 447.471C41.6134 450.844 37.904 453.905 37.8275 453.972C37.1081 454.574 36.2305 454.88 35.358 454.88C34.2764 454.88 33.1998 454.416 32.4447 453.538C31.0824 451.936 31.2712 449.523 32.8733 448.16C33.0416 448.017 34.1794 447.073 35.9907 445.762C37.904 444.374 40.649 442.558 44.0726 440.629C45.1287 440.032 46.287 439.456 47.4656 438.859C50.032 437.558 52.828 436.308 55.9046 435.165C56.0985 435.093 56.272 435.012 56.4659 434.94C59.0782 433.996 61.8079 433.139 64.7111 432.471C65.4764 432.292 66.2928 432.201 67.0785 432.047C69.1092 431.655 71.1399 431.267 73.2777 431.078C74.1043 431.007 74.7166 430.961 75.4819 430.894C78.3136 430.649 80.7474 430.461 82.824 430.328C87.0282 430.047 89.9824 429.966 91.8549 430.16C94.9163 430.476 95.5693 431.451 96.0591 433.195C96.401 434.41 96.0285 435.721 95.2479 436.706C94.8856 437.15 94.4724 437.553 93.9571 437.813Z" fill="#687986"/>
<path d="M168.888 427.186H168.577V429.604H168.888V427.186Z" fill="#EDF2F2"/>
<path d="M171.582 448.864V450.991C170.475 450.685 169.567 449.996 168.95 449.037C168.597 448.491 168.368 447.894 168.25 447.226H168.577V447.706H168.888V447.226H170.22C170.45 447.976 170.893 448.507 171.582 448.864Z" fill="#AFBCBC"/>
<path d="M171.582 450.991V448.863V448.726L172.317 451.797H172.205V454.032H172.516V452.629L172.858 454.068H171.582V450.991Z" fill="#D1DBDB"/>
<path d="M172.205 454.033V451.798H172.317L172.516 452.629V454.033H172.205Z" fill="#EDF2F2"/>
<path d="M168.888 447.221H168.577V447.701H168.888V447.221Z" fill="#EDF2F2"/>
<path d="M173.822 465.585C174.501 465.3 174.96 464.856 175.266 464.177L175.853 466.636C175.281 467.142 174.588 467.458 173.822 467.642V465.585Z" fill="#AFBCBC"/>
<path d="M173.822 458.125L174.042 459.049C173.97 459.013 173.899 458.988 173.822 458.957V458.125Z" fill="#AFBCBC"/>
<path d="M168.092 463.034V461.509C168.092 459.284 169.592 457.488 171.582 456.932V459.044C170.638 459.534 169.883 460.351 169.883 461.509V463.034C169.883 464.182 170.628 464.989 171.582 465.483V467.611C169.592 467.055 168.092 465.259 168.092 463.034ZM168.883 460.417H168.572V464.32H168.883V460.417Z" fill="#AFBCBC"/>
<path d="M171.582 467.606V465.478V465.325C171.582 464.692 172.082 464.182 172.694 464.182H172.715C173.327 464.182 173.827 464.692 173.827 465.325V465.585V467.641V470.687H171.587V467.606H171.582ZM172.205 470.652H172.516V468.412H172.205V470.652Z" fill="#D1DBDB"/>
<path d="M173.822 459.432C173.822 460.065 173.327 460.575 172.71 460.575H172.69C172.077 460.575 171.577 460.065 171.577 459.432V459.045V456.932V454.07H172.853L173.817 458.121V458.948V459.432H173.822ZM172.516 454.152H172.205V456.391H172.516V454.152Z" fill="#D1DBDB"/>
<path d="M172.516 468.412H172.205V470.652H172.516V468.412Z" fill="#EDF2F2"/>
<path d="M172.516 454.149H172.205V456.389H172.516V454.149Z" fill="#EDF2F2"/>
<path d="M168.888 460.415H168.577V464.318H168.888V460.415Z" fill="#EDF2F2"/>
<path d="M175.491 479.882L175.654 478.203C175.776 476.8 174.934 475.775 173.822 475.361V473.509C175.914 473.994 177.582 475.729 177.445 478.249L177.276 480.03C177.134 482.795 175.077 484.469 172.843 484.423C173.087 483.612 173.235 482.989 173.297 482.581C174.434 482.346 175.348 481.321 175.491 479.882ZM176.031 481.387C176.031 481.387 176.501 476.948 176.419 477.035H176.108C176.184 476.958 175.72 481.351 175.72 481.351L176.031 481.387Z" fill="#AFBCBC"/>
<path d="M169.812 478.039L169.669 479.391C169.567 480.386 170.23 481.249 171.128 481.881C171.174 482.09 170.98 482.881 170.694 483.835C168.944 482.846 167.837 481.029 167.883 479.243L168.021 477.988C168.143 475.988 169.592 474.095 171.587 473.539V475.422C170.592 475.901 169.919 476.963 169.812 478.039ZM168.577 477.034C168.633 477.141 168.256 480.366 168.256 480.366L168.562 480.407C168.562 480.407 168.944 477.136 168.888 477.034H168.577Z" fill="#AFBCBC"/>
<path d="M170.689 483.836C170.975 482.881 171.174 482.091 171.123 481.881C171.118 481.856 171.154 481.723 171.138 481.718C171.195 481.121 171.74 480.698 172.348 480.769L172.373 480.774C172.98 480.846 173.419 481.438 173.353 482.096C173.399 482.106 173.327 482.397 173.302 482.586C173.246 482.999 173.093 483.616 172.848 484.427C172.414 485.876 171.888 487.443 171.888 487.443L169.797 486.637C169.797 486.637 170.286 485.177 170.689 483.836ZM171.332 484.82L171.036 484.734L170.388 486.825L170.679 486.938L171.332 484.82Z" fill="#D1DBDB"/>
<path d="M173.822 476.044C173.822 476.677 173.327 477.187 172.71 477.187H172.69C172.077 477.187 171.577 476.677 171.577 476.044V475.422V473.539V470.687H173.817V473.508V475.361V476.044H173.822ZM172.516 470.763H172.205V473.003H172.516V470.763Z" fill="#D1DBDB"/>
<path d="M171.036 484.733L171.332 484.82L170.674 486.937L170.383 486.825L171.036 484.733Z" fill="#EDF2F2"/>
<path d="M172.516 470.764H172.205V473.004H172.516V470.764Z" fill="#EDF2F2"/>
<path d="M176.424 477.033C176.501 476.946 176.037 481.385 176.037 481.385L175.73 481.344C175.73 481.344 176.195 476.951 176.118 477.028H176.424V477.033Z" fill="#EDF2F2"/>
<path d="M168.25 480.366C168.25 480.366 168.628 477.142 168.572 477.035H168.883C168.939 477.137 168.557 480.407 168.557 480.407L168.25 480.366Z" fill="#EDF2F2"/>
<path d="M165.016 491.804L164.143 492.85C163.511 493.636 163.567 494.723 163.919 495.738L162.383 497.024C161.511 495.192 161.75 493.177 162.766 491.702L163.577 490.733C164.705 489.355 166.649 488.646 168.679 489.11C168.245 489.906 167.893 490.529 167.7 490.865C166.705 490.794 165.745 491.075 165.016 491.804ZM164.562 490.314L162.449 492.845L162.679 493.054L164.822 490.488L164.562 490.314Z" fill="#AFBCBC"/>
<path d="M168.633 496.597L169.705 495.296C170.694 494.239 170.501 492.745 169.756 491.78C170.001 491.347 170.322 490.775 170.684 490.102C172.291 491.484 172.843 494.199 171.143 496.367L170.011 497.745C168.353 499.979 165.587 500.051 163.806 498.745L165.455 497.367C166.526 497.791 167.745 497.684 168.633 496.597ZM168.23 498.158L171.041 494.75L170.786 494.576L168.006 497.949L168.23 498.158Z" fill="#AFBCBC"/>
<path d="M162.388 497.019L163.924 495.733L164.051 495.626C164.429 495.162 165.113 495.121 165.567 495.529L165.582 495.545C166.041 495.953 166.067 496.698 165.643 497.203L165.455 497.361L163.807 498.739L161.383 500.759L160.123 498.902L162.388 497.019ZM162.388 498.249L162.194 498.009L160.505 499.402L160.679 499.657L162.388 498.249Z" fill="#D1DBDB"/>
<path d="M169.409 492.396C169.108 492.988 168.404 493.141 167.883 492.774L167.863 492.759C167.383 492.422 167.245 491.733 167.511 491.192C167.511 491.192 167.638 490.973 167.705 490.856C167.898 490.519 168.25 489.896 168.684 489.1C169.322 487.927 169.95 486.692 169.796 486.631L171.888 487.437C172.046 487.503 171.373 488.83 170.689 490.095C170.327 490.769 170.011 491.335 169.761 491.774C169.577 492.1 169.409 492.396 169.409 492.396ZM170.353 486.932C170.46 486.978 169.516 488.942 169.46 488.917L169.74 489.054C169.796 489.08 170.745 487.09 170.643 487.044L170.353 486.932Z" fill="#D1DBDB"/>
<path d="M162.194 498.009L162.388 498.249L160.679 499.657L160.5 499.402L162.194 498.009Z" fill="#EDF2F2"/>
<path d="M169.46 488.917C169.516 488.943 170.46 486.973 170.353 486.933L170.644 487.045C170.751 487.091 169.797 489.081 169.74 489.055L169.46 488.917Z" fill="#EDF2F2"/>
<path d="M171.041 494.75L168.23 498.158L168.006 497.949L170.786 494.576L171.041 494.75Z" fill="#EDF2F2"/>
<path d="M162.449 492.852L164.562 490.316L164.822 490.495L162.679 493.061L162.449 492.852Z" fill="#EDF2F2"/>
<path d="M153.199 500.341L151.898 500.744C150.954 501.117 150.367 501.969 150.071 502.958L148.066 503.147C148.382 501.117 149.77 499.719 151.428 499.009L152.633 498.637C154.398 498.29 156.342 498.708 157.735 500.208L155.985 501.163C155.184 500.504 154.199 500.106 153.199 500.341ZM153.663 498.831L150.515 499.805L150.582 500.106L153.77 499.117L153.663 498.831Z" fill="#AFBCBC"/>
<path d="M153.449 506.377L155.061 505.877C156.475 505.509 157.225 504.295 157.143 503.076L158.822 502.157C159.383 504.234 158.347 506.907 155.633 507.576L153.924 508.101C151.321 509.061 148.985 507.418 148.26 505.367L150.153 505.188C150.775 506.249 152.076 506.882 153.449 506.377ZM152.235 507.469L156.459 506.167L156.347 505.877L152.168 507.168L152.235 507.469Z" fill="#AFBCBC"/>
<path d="M148.066 503.146L150.071 502.957L150.235 502.942C150.842 502.937 151.398 503.156 151.546 503.789L151.551 503.809C151.689 504.371 151.311 505.126 150.648 505.146L150.158 505.192L148.265 505.371L145.132 505.667V503.422L148.066 503.146ZM145.163 504.36C145.168 504.406 147.372 504.161 147.372 504.161L147.347 503.85C147.347 503.85 145.173 504.095 145.163 504.049V504.36Z" fill="#D1DBDB"/>
<path d="M156.51 503.424C155.888 503.638 155.199 503.316 154.99 502.745L154.985 502.725C154.771 502.143 155.071 501.546 155.638 501.357L155.985 501.168L157.735 500.214L160.128 498.908L161.388 500.765L158.827 502.163L157.148 503.082L156.51 503.424ZM160.419 499.469L158.495 500.515L158.648 500.786L160.592 499.73L160.419 499.469Z" fill="#D1DBDB"/>
<path d="M147.372 504.162C147.372 504.162 145.173 504.407 145.163 504.361V504.05C145.178 504.096 147.347 503.851 147.347 503.851L147.372 504.162Z" fill="#EDF2F2"/>
<path d="M158.495 500.515L160.419 499.469L160.592 499.729L158.643 500.786L158.495 500.515Z" fill="#EDF2F2"/>
<path d="M156.459 506.162L152.235 507.468L152.168 507.162L156.352 505.876L156.459 506.162Z" fill="#EDF2F2"/>
<path d="M150.52 499.811L153.663 498.831L153.775 499.122L150.587 500.112L150.52 499.811Z" fill="#EDF2F2"/>
<path d="M138.546 500.8L137.244 500.397C136.26 500.147 135.275 500.581 134.469 501.274L132.709 500.315C134.091 498.81 136.04 498.336 137.801 498.693L139.005 499.07C140.673 499.708 142.066 501.142 142.403 503.173L140.408 502.984C140.102 502.009 139.495 501.188 138.546 500.8ZM136.612 498.836L136.5 499.127L139.688 500.116L139.755 499.815L136.612 498.836Z" fill="#AFBCBC"/>
<path d="M135.428 505.953L137.04 506.448C138.408 506.953 139.714 506.275 140.326 505.213L142.234 505.397C141.556 507.428 139.219 509.076 136.581 508.183L134.872 507.657C132.178 506.984 131.106 504.402 131.647 502.274L133.321 503.188C133.249 504.397 134.02 505.565 135.428 505.953ZM138.045 507.474L138.112 507.173L133.933 505.887L133.821 506.178L138.045 507.474Z" fill="#AFBCBC"/>
<path d="M132.709 500.316L134.469 501.276L134.622 501.357C135.188 501.546 135.489 502.143 135.275 502.725L135.27 502.745C135.061 503.316 134.372 503.638 133.749 503.424L133.316 503.189L131.642 502.276L128.872 500.765L130.132 498.908L132.709 500.316ZM129.637 499.704L131.576 500.765L131.729 500.495L129.81 499.444L129.637 499.704Z" fill="#D1DBDB"/>
<path d="M139.612 505.146C138.949 505.126 138.571 504.371 138.709 503.809L138.714 503.789C138.862 503.156 139.418 502.937 140.025 502.942L140.413 502.978L142.408 503.167L145.138 503.427V505.672L142.245 505.396L140.336 505.213L139.612 505.146ZM145.051 504.36V504.049L142.867 503.845L142.847 504.156L145.051 504.36Z" fill="#D1DBDB"/>
<path d="M131.576 500.765L129.637 499.704L129.81 499.444L131.729 500.495L131.576 500.765Z" fill="#EDF2F2"/>
<path d="M145.051 504.05V504.362L142.847 504.157L142.867 503.846L145.051 504.05Z" fill="#EDF2F2"/>
<path d="M138.112 507.172L138.045 507.473L133.821 506.172L133.933 505.881L138.112 507.172Z" fill="#EDF2F2"/>
<path d="M136.499 499.127L136.612 498.836L139.76 499.815L139.688 500.117L136.499 499.127Z" fill="#EDF2F2"/>
<path d="M120.703 495.485L121.779 496.786C122.652 497.898 123.902 497.975 124.984 497.515L126.637 498.893C124.907 500.204 122.08 500.194 120.417 497.944L119.279 496.566C117.534 494.459 118.075 491.745 119.688 490.311C120.096 491.056 120.407 491.612 120.611 491.974C119.866 492.944 119.718 494.423 120.703 495.485ZM119.233 494.77L122.045 498.179L122.274 497.969L119.494 494.597L119.233 494.77Z" fill="#AFBCBC"/>
<path d="M126.234 492.998L125.361 491.952C124.647 491.233 123.678 490.973 122.662 491.054C122.565 490.886 122.157 490.167 121.672 489.289C123.698 488.814 125.606 489.529 126.79 490.871L127.596 491.84C128.601 493.325 128.892 495.315 128.025 497.157L126.494 495.876C126.826 494.881 126.851 493.809 126.234 492.998ZM127.821 492.866L125.708 490.335L125.453 490.508L127.596 493.075L127.821 492.866Z" fill="#AFBCBC"/>
<path d="M121.677 489.29C122.157 490.167 122.57 490.887 122.667 491.055C122.683 491.076 122.749 491.198 122.749 491.198C123.014 491.739 122.876 492.428 122.397 492.764L122.376 492.78C121.851 493.147 121.147 492.994 120.851 492.402C120.851 492.402 120.703 492.142 120.611 491.979C120.407 491.616 120.091 491.06 119.688 490.315C118.963 488.984 118.203 487.519 118.371 487.448L120.463 486.642C120.3 486.703 121.004 488.065 121.677 489.29ZM119.601 487.004C119.499 487.05 120.432 489.045 120.494 489.019L120.774 488.881C120.713 488.907 119.785 486.938 119.887 486.892L119.601 487.004Z" fill="#D1DBDB"/>
<path d="M124.611 497.203C124.188 496.698 124.218 495.953 124.672 495.545L124.688 495.529C125.147 495.121 125.826 495.162 126.203 495.626L126.499 495.871L128.03 497.152L130.127 498.907L128.867 500.764L126.627 498.892L124.974 497.514L124.611 497.203ZM129.55 499.632L129.724 499.376L128.035 497.984L127.841 498.223L129.55 499.632Z" fill="#D1DBDB"/>
<path d="M120.499 489.018C120.438 489.043 119.499 487.048 119.606 487.002L119.897 486.89C119.795 486.936 120.718 488.905 120.784 488.88L120.499 489.018Z" fill="#EDF2F2"/>
<path d="M129.724 499.377L129.55 499.632L127.841 498.224L128.035 497.984L129.724 499.377Z" fill="#EDF2F2"/>
<path d="M122.045 498.178L119.233 494.77L119.489 494.596L122.269 497.969L122.045 498.178Z" fill="#EDF2F2"/>
<path d="M125.708 490.331L127.82 492.866L127.591 493.076L125.448 490.509L125.708 490.331Z" fill="#EDF2F2"/>
<path d="M116.432 473.744V475.586C115.32 475.994 114.468 477.014 114.626 478.448L114.789 480.127C114.937 481.565 115.851 482.586 116.983 482.81C117.086 483.295 117.254 483.928 117.478 484.652C115.284 484.724 113.147 483.07 113.009 480.29L112.917 479.341L113.779 475.443C114.422 474.575 115.346 473.999 116.432 473.744ZM114.228 481.417L114.534 481.377C114.534 481.377 114.07 476.989 114.147 477.06H113.835C113.764 476.978 114.228 481.417 114.228 481.417Z" fill="#AFBCBC"/>
<path d="M120.611 479.586L120.468 478.234C120.331 477.203 119.672 476.152 118.677 475.662V473.759C120.667 474.315 122.101 476.233 122.264 478.172L122.402 479.422C122.438 481.218 121.387 483.035 119.632 484.04C119.371 483.178 119.203 482.489 119.162 482.101C120.04 481.473 120.713 480.596 120.611 479.586ZM121.698 480.427L122.004 480.387C122.004 480.387 121.627 477.162 121.678 477.06H121.366C121.32 477.147 121.698 480.427 121.698 480.427Z" fill="#AFBCBC"/>
<path d="M118.677 476.045C118.677 476.677 118.183 477.187 117.565 477.187H117.545C116.933 477.187 116.432 476.677 116.432 476.045V475.58V473.738V470.682H118.677V473.754V475.657V476.045ZM118.055 470.723H117.744V472.963H118.055V470.723Z" fill="#D1DBDB"/>
<path d="M116.907 482.091C116.841 481.432 117.279 480.841 117.887 480.769L117.907 480.764C118.514 480.693 119.06 481.116 119.116 481.713C119.075 481.723 119.142 481.968 119.152 482.101C119.193 482.489 119.361 483.172 119.621 484.04C120.009 485.315 120.458 486.637 120.458 486.637L118.366 487.443C118.366 487.443 117.892 486.03 117.473 484.652C117.254 483.922 117.086 483.295 116.978 482.81C116.902 482.443 116.841 482.106 116.907 482.091ZM119.57 486.897L119.861 486.785L119.208 484.693L118.912 484.78L119.57 486.897Z" fill="#D1DBDB"/>
<path d="M118.055 470.722H117.744V472.962H118.055V470.722Z" fill="#EDF2F2"/>
<path d="M119.861 486.785L119.57 486.897L118.912 484.785L119.208 484.698L119.861 486.785Z" fill="#EDF2F2"/>
<path d="M114.534 481.372L114.228 481.413C114.228 481.413 113.764 476.974 113.835 477.056H114.146C114.075 476.984 114.534 481.372 114.534 481.372Z" fill="#EDF2F2"/>
<path d="M122.009 480.381L121.703 480.422C121.703 480.422 121.325 477.147 121.376 477.055H121.688C121.632 477.157 122.009 480.381 122.009 480.381Z" fill="#EDF2F2"/>
<path d="M116.432 467.87C116.116 467.798 115.79 467.763 115.499 467.63L115.948 465.599C116.096 465.696 116.269 465.737 116.432 465.808V467.87Z" fill="#AFBCBC"/>
<path d="M120.371 463.254V461.729C120.371 460.581 119.627 459.775 118.677 459.28V457.152C120.667 457.703 122.167 459.504 122.167 461.729V463.254C122.167 465.479 120.667 467.275 118.677 467.831V465.719C119.621 465.229 120.371 464.412 120.371 463.254ZM121.371 464.341H121.683V460.438H121.371V464.341Z" fill="#AFBCBC"/>
<path d="M118.677 457.152V459.279V459.432C118.677 460.065 118.182 460.575 117.565 460.575H117.545C117.371 460.575 117.244 460.458 117.101 460.386L117.994 456.345H118.06V456.055L118.499 454.07H118.682L118.677 457.152Z" fill="#D1DBDB"/>
<path d="M116.432 467.871V465.805V465.325C116.432 464.692 116.933 464.182 117.545 464.182H117.565C118.177 464.182 118.677 464.692 118.677 465.325V465.713V467.825V470.687H116.432V467.871ZM117.744 470.611H118.055V468.371H117.744V470.611Z" fill="#D1DBDB"/>
<path d="M117.989 456.344L118.055 456.053V456.344H117.989Z" fill="#EDF2F2"/>
<path d="M118.055 468.37H117.744V470.609H118.055V468.37Z" fill="#EDF2F2"/>
<path d="M121.683 460.443H121.371V464.346H121.683V460.443Z" fill="#EDF2F2"/>
<path d="M119.142 451.114L119.841 447.945C119.963 447.716 120.07 447.486 120.131 447.226H121.371V447.731H121.683V447.226H122.05C121.825 449.007 120.723 450.491 119.142 451.114Z" fill="#AFBCBC"/>
<path d="M118.489 454.069L118.677 453.237V454.069H118.489Z" fill="#D1DBDB"/>
<path d="M121.683 447.221H121.371V447.726H121.683V447.221Z" fill="#EDF2F2"/>
<path d="M118.055 420.873H117.744V423.113H118.055V420.873Z" fill="#EDF2F2"/>
<path d="M194.95 436.646C198.644 440.176 201.833 444.585 203.68 450.11C214.298 481.831 211.808 482.494 211.808 482.494L181.68 491.066L175.853 466.636L175.266 464.177L174.042 459.044L173.822 458.121L172.858 454.07L172.516 452.631L172.317 451.799L171.582 448.728L171.225 447.228H172.485V442.855C174.98 442.6 179.771 439.61 179.771 439.61C179.771 439.61 174.98 436.192 172.485 435.901V429.61H169.378V423.768C169.378 423.768 183.71 426.405 194.292 436.069C194.481 436.243 194.675 436.401 194.864 436.579C194.894 436.595 194.925 436.62 194.95 436.646Z" fill="#A6AAB8"/>
<path d="M205.119 503.924L197.093 512.118L193.573 515.71H174.649L181.685 491.066L205.119 503.924Z" fill="#A6AAB8"/>
<path d="M94.9111 512.112L98.4317 515.709H94.4774L94.9111 512.112Z" fill="#687986"/>
<path d="M119.402 429.603V435.619C119.274 435.608 119.167 435.557 119.034 435.557C116.657 435.557 111.381 439.369 111.381 439.369C111.381 439.369 116.657 442.7 119.034 442.7C119.162 442.7 119.274 442.649 119.402 442.639V447.226H120.004L119.846 447.946L119.147 451.114L118.677 453.237L118.494 454.068L118.055 456.053L117.988 456.344L117.096 460.385L115.942 465.599L115.494 467.63L113.769 475.436L112.907 479.335L110.315 491.064L109.452 490.82L80.1861 482.493C80.1861 482.493 77.6962 481.829 88.319 450.109C90.1456 444.644 93.2682 440.211 96.901 436.614C107.509 426.103 122.494 422.868 122.494 422.868V429.603H119.402Z" fill="#A6AAB8"/>
<path d="M86.8904 503.924L109.585 491.474L109.59 491.469L110.32 491.066L117.361 515.71H98.4317L94.9111 512.113L86.8904 503.924Z" fill="#A6AAB8"/>
<path d="M168.883 429.604H169.373H172.48V435.896C172.373 435.88 172.215 435.799 172.113 435.799C169.735 435.799 167.807 437.396 167.807 439.37C167.807 441.345 169.735 442.942 172.113 442.942C172.21 442.942 172.368 442.865 172.48 442.855V447.228H171.22H170.21H168.878H168.567H168.24H122.749H122.04H121.672H121.361H120.121H119.989H119.387V442.641C121.586 442.482 123.326 440.993 123.326 439.13C123.326 437.268 121.586 435.783 119.387 435.62V429.604H122.484H122.494H168.557H168.883ZM136.535 435.559C134.158 435.559 131.515 439.37 131.515 439.37C131.515 439.37 134.158 442.702 136.535 442.702C138.913 442.702 140.836 441.1 140.836 439.13C140.836 437.156 138.908 435.559 136.535 435.559ZM154.505 435.793C152.128 435.793 150.199 437.39 150.199 439.365C150.199 441.34 152.128 442.937 154.505 442.937C156.883 442.937 159.766 439.605 159.766 439.605C159.766 439.605 156.883 435.793 154.505 435.793Z" fill="#010C2B"/>
<path d="M111.386 439.366C111.386 439.366 116.662 435.554 119.04 435.554C119.167 435.554 119.279 435.605 119.407 435.616C121.606 435.779 123.346 437.264 123.346 439.126C123.346 440.993 121.606 442.478 119.407 442.636C119.279 442.646 119.172 442.697 119.04 442.697C116.662 442.703 111.386 439.366 111.386 439.366Z" fill="#CFFFF6"/>
<path d="M136.535 442.702C134.158 442.702 131.515 439.37 131.515 439.37C131.515 439.37 134.158 435.559 136.535 435.559C138.913 435.559 140.836 437.156 140.836 439.131C140.836 441.1 138.908 442.702 136.535 442.702Z" fill="#CFFFF6"/>
<path d="M167.817 439.365C167.817 437.391 169.746 435.793 172.123 435.793C172.22 435.793 172.378 435.88 172.491 435.89C174.986 436.181 179.776 439.6 179.776 439.6C179.776 439.6 174.986 442.595 172.491 442.845C172.383 442.855 172.225 442.932 172.123 442.932C169.746 442.937 167.817 441.34 167.817 439.365Z" fill="#CFFFF6"/>
<path d="M154.505 442.937C152.127 442.937 150.199 441.34 150.199 439.365C150.199 437.391 152.127 435.793 154.505 435.793C156.883 435.793 159.766 439.605 159.766 439.605C159.766 439.605 156.883 442.937 154.505 442.937Z" fill="#CFFFF6"/>
<path d="M75.7371 487.03C79.7832 487.03 83.0638 490.311 83.0638 494.357C83.0638 498.403 79.7832 501.683 75.7371 501.683C71.691 501.683 68.4103 498.403 68.4103 494.357C68.4103 490.311 71.691 487.03 75.7371 487.03Z" fill="#DD291B"/>
<path d="M217.222 464.007C217.222 459.961 220.502 456.681 224.548 456.681C228.595 456.681 231.875 459.961 231.875 464.007C231.875 468.053 228.595 471.334 224.548 471.334C220.502 471.334 217.222 468.053 217.222 464.007Z" fill="#687986"/>
<path d="M81.375 511.831C84.1506 511.831 86.4772 513.433 87.7222 515.704H75.0278C76.2727 513.433 78.5994 511.831 81.375 511.831Z" fill="#A6AAB8"/>
<path d="M219.477 489.938C223.523 489.938 226.804 493.218 226.804 497.264C226.804 501.31 223.523 504.591 219.477 504.591C215.431 504.591 212.15 501.31 212.15 497.264C212.15 493.218 215.431 489.938 219.477 489.938Z" fill="#A6AAB8"/>
<path d="M45.2972 479.142C41.2511 479.142 37.9704 475.861 37.9704 471.815C37.9704 467.769 41.2511 464.488 45.2972 464.488C49.3432 464.488 52.6239 467.769 52.6239 471.815C52.6239 475.861 49.3432 479.142 45.2972 479.142Z" fill="#687986"/>
<path d="M244.84 489.284C244.84 485.238 248.121 481.958 252.167 481.958C256.213 481.958 259.494 485.238 259.494 489.284C259.494 493.33 256.213 496.611 252.167 496.611C248.121 496.611 244.84 493.33 244.84 489.284Z" fill="#DD291B"/>
<path d="M136.193 326.074C136.249 326.12 136.326 326.1 136.377 326.151C137.26 327.033 137.26 328.462 136.377 329.34C133.591 332.12 129.938 333.513 126.28 333.513C122.621 333.513 118.968 332.12 116.182 329.34C110.616 323.768 110.616 314.711 116.182 309.14C121.754 303.578 130.805 303.578 136.377 309.14C137.26 310.023 137.26 311.446 136.377 312.329C135.499 313.191 134.076 313.211 133.188 312.329C129.377 308.528 123.183 308.528 119.371 312.329C115.56 316.14 115.56 322.339 119.371 326.151C123.183 329.952 129.377 329.952 133.188 326.151C133.494 325.845 133.908 325.783 134.305 325.697C134.974 325.544 135.637 325.625 136.193 326.074Z" fill="#A6AAB8"/>
<path d="M269.081 329.202V335.931V351.182H262.315V335.452V329.202H269.081Z" fill="#A6AAB8"/>
</svg>
