<svg viewBox="0 0 274 371" fill="none" xmlns="http://www.w3.org/2000/svg">
<path d="M161.933 277.695H113.339V296.849H161.933V277.695Z" fill="#A6AAB8"/>
<path d="M29.1629 116.899L33.1478 166.233C37.7296 221.755 82.5117 264.461 136.197 264.461H138.146C191.832 264.461 236.614 221.755 241.114 166.233L244.676 123.354L245.186 116.899C250.273 54.3002 202.695 0.54834 142.136 0.54834H132.212C71.6542 0.54834 24.0709 54.3002 29.1629 116.899Z" fill="#FFE7C7"/>
<path d="M42.7247 139.973C42.7247 139.973 28.3313 118.498 15.739 118.498C3.14676 118.498 0.447632 140.907 0.447632 154.912C0.447632 168.918 13.9379 193.194 23.8312 193.194C33.7244 193.194 41.8216 174.52 41.8216 174.52L42.7247 139.973Z" fill="#FFE7C7"/>
<path d="M231.609 139.973C231.609 139.973 246.003 118.498 258.595 118.498C271.187 118.498 273.886 140.907 273.886 154.912C273.886 168.918 260.396 193.194 250.503 193.194C240.609 193.194 232.512 174.52 232.512 174.52L231.609 139.973Z" fill="#FFE7C7"/>
<path d="M50.3372 330.49C49.6229 333.653 62.3887 331.143 62.3887 334.495C62.3887 335.796 68.2818 356.363 68.4604 357.853L67.3889 370.42H221.129L224.609 346.873C224.787 345.664 224.787 344.546 224.879 343.337V342.781C224.966 341.01 224.966 339.245 224.879 337.572C224.879 337.48 224.879 337.48 224.879 337.48C224.701 333.852 224.165 330.408 223.272 327.056C223.002 326.219 222.736 325.382 222.466 324.546C222.374 324.362 222.374 324.173 222.287 323.989C221.843 322.591 221.308 321.29 220.68 320.081C219.966 318.408 219.165 316.729 218.267 315.244V315.152C217.91 314.596 217.552 314.127 217.195 313.571L217.109 313.479C216.573 312.545 215.945 311.617 215.236 310.78C215.236 310.78 215.236 310.688 215.144 310.688V310.596C214.608 309.851 213.981 309.198 213.45 308.55C212.471 307.433 211.578 306.407 210.593 305.479C208.629 303.616 206.486 302.035 204.256 300.545C198.541 297.009 192.026 294.963 185.061 294.963H89.354C81.767 294.963 74.7106 297.381 68.7308 301.478C66.945 302.688 65.251 303.994 63.7306 305.479C58.5518 310.412 54.5364 316.739 52.0363 323.908C51.322 325.933 50.6944 328.163 50.3372 330.49Z" fill="#010C2B"/>
<path d="M223.236 327.009C222.154 322.825 220.43 318.866 218.272 315.208C220.359 318.789 222.083 322.825 223.236 327.009Z" fill="white"/>
<path d="M218.272 315.131C216.904 312.738 215.323 310.498 213.45 308.483C215.175 310.498 216.757 312.738 218.272 315.131Z" fill="white"/>
<path d="M210.573 305.494C208.629 303.55 206.47 301.907 204.241 300.565C206.47 301.984 208.629 303.627 210.573 305.494Z" fill="white"/>
<path d="M50.3221 330.52C50.6843 328.28 51.3323 326.04 52.0466 323.872C51.3323 325.963 50.6843 328.203 50.3221 330.52Z" fill="white"/>
<path d="M208.542 370.42H241.038C235.058 352.924 227.736 335.985 222.466 324.536C220.323 319.791 218.451 316.066 217.2 313.556L217.114 313.464C217.114 313.372 217.114 313.372 217.114 313.275C216.042 311.137 215.415 309.923 215.415 309.923L215.236 310.387C215.236 310.479 215.144 310.479 215.144 310.571V310.663C207.113 329.75 204.97 350.501 208.542 370.42Z" fill="#FFE7C7"/>
<path d="M136.947 322.04H137.386C149.432 322.04 159.203 311.902 159.203 299.391V242.675H115.13V299.391C115.13 311.902 124.896 322.04 136.947 322.04Z" fill="#FFE7C7"/>
<path d="M100.619 116.161H62.3936V116.355C62.3936 127.074 70.7664 135.768 81.0933 135.768H81.9198C92.2467 135.768 100.619 127.079 100.619 116.355V116.161Z" fill="#002047"/>
<path d="M175.724 116.161H213.95V116.355C213.95 127.074 205.577 135.768 195.251 135.768H194.424C184.097 135.768 175.724 127.079 175.724 116.355V116.161Z" fill="#002047"/>
<path d="M129.753 183.385H139.845C145.254 183.385 149.642 178.834 149.642 173.217V173.115H119.962V173.217C119.962 178.834 124.345 183.385 129.753 183.385Z" fill="#F4D1A6"/>
<g opacity="0.75">
<path d="M105.416 213.797C105.416 213.797 106.334 214.363 107.941 215.037C109.548 215.583 111.844 216.741 114.6 217.45C117.355 218.271 120.569 218.955 124.013 219.399C127.457 219.94 131.131 220.021 134.804 220.154C138.478 220.021 142.152 219.925 145.596 219.384C149.04 218.93 152.254 218.251 155.009 217.435C157.765 216.72 160.06 215.572 161.668 215.032C163.275 214.358 164.193 213.797 164.193 213.797V213.047C164.193 213.047 149.504 212.858 134.81 212.674C120.12 212.858 105.426 213.047 105.426 213.047V213.797H105.416Z" fill="#F4D1A6"/>
</g>
<path d="M170.596 370.418H261.212L256.482 348.362C252.824 331.239 244.517 315.417 231.93 303.783C229.879 301.829 227.823 300.156 225.859 298.85C216.664 292.707 187.735 291.217 177.648 290.936C175.413 290.844 174.168 290.844 174.168 290.844L173.989 294.941L171.489 344.173V344.545L171.403 345.101C170.596 353.571 170.239 362.041 170.596 370.418Z" fill="#B3DAA5"/>
<path d="M104.084 370.418L103.548 344.545V343.708L101.048 294.941L100.87 290.844C100.87 290.844 99.7981 290.844 97.9205 290.936C88.3692 291.217 58.5517 292.518 49.1738 298.85C47.2094 300.151 45.1583 301.829 43.1021 303.783C30.515 315.417 22.2137 331.239 18.5503 348.362L13.8205 370.418H104.084Z" fill="#B3DAA5"/>
<path d="M167.739 370.418H173.362C173.092 369.02 173.005 367.718 173.005 366.417C172.469 353.759 171.398 345.105 171.398 345.105C171.398 345.105 169.704 353.483 168.097 366.417C167.918 367.718 167.831 369.02 167.739 370.418Z" fill="#77C46F"/>
<path d="M101.319 370.418H106.854C106.676 369.02 106.589 367.627 106.411 366.229C105.161 353.198 103.553 344.545 103.553 344.545C103.553 344.545 102.303 353.295 101.589 366.321C101.497 367.627 101.405 369.02 101.319 370.418Z" fill="#77C46F"/>
<path d="M114.931 277.88C114.931 277.88 102.773 274.737 96.0225 295.748C86.0374 326.846 104.365 344.571 104.365 344.571L114.931 295.008V277.88Z" fill="#77C46F"/>
<path d="M160.571 277.88C160.571 277.88 172.729 274.737 179.479 295.748C189.465 326.846 171.137 344.571 171.137 344.571L160.571 295.008V277.88Z" fill="#77C46F"/>
<path d="M136.799 0.54834V51.8308C136.799 51.8308 181.235 55.188 191.75 37.5088C202.439 19.8245 206.679 39.7181 216.18 55.1931C225.68 70.6631 231.614 139.982 231.614 139.982L244.676 123.359L245.186 97.1895C250.273 34.5904 202.695 0.553439 142.136 0.553439L136.799 0.54834Z" fill="#D8BEB2"/>
<path d="M136.8 0.54834V51.8308C136.8 51.8308 92.3642 55.188 81.8486 37.5088C71.1645 19.8245 66.9195 39.7181 57.4243 55.1931C47.924 70.6631 41.9901 139.982 41.9901 139.982L28.9283 123.359L31.7142 93.8731C26.6273 31.2739 70.9146 0.553439 131.473 0.553439L136.8 0.54834Z" fill="#D8BEB2"/>
</svg>
