<svg viewBox="0 0 234 366" fill="none" xmlns="http://www.w3.org/2000/svg">
<path d="M137.893 250.175H95.9889V343.005H137.893V250.175Z" fill="#EFD0AB"/>
<path d="M116.949 314.187V365.291H196.742C192.329 351.709 187.916 338.805 184.859 329.805C182.145 321.825 175.859 315.713 167.798 313.167L145.644 306.207L145.22 306.121L144.542 305.865L138.771 304.085L138.092 303.916H138.006L137.919 303.83L137.582 303.743L131.638 301.875L116.949 314.187Z" fill="#EFD0AB"/>
<path d="M37.1552 365.291H116.949V314.187L102.265 301.88L95.9838 303.835L95.4736 304.003L92.4173 304.937L91.9939 305.105L91.3153 305.273L85.5447 307.141L84.8661 307.309L84.4426 307.478L66.1052 313.167C58.0386 315.713 51.7578 321.825 49.0434 329.805C45.9821 338.805 41.5686 351.709 37.1552 365.291Z" fill="#EFD0AB"/>
<path d="M116.168 270.048H117.719C161.751 270.048 199.069 237.777 205.238 194.357L214.432 129.671C221.963 76.6789 180.655 29.3149 126.913 29.3149H106.979C53.2374 29.3149 11.9298 76.6789 19.4607 129.671L28.6498 194.357C34.8184 237.771 72.136 270.048 116.168 270.048Z" fill="#FFE7C7"/>
<path d="M18.6597 118.477C18.6597 122.156 18.9352 125.835 19.4812 129.651L28.6499 194.378C34.8082 237.777 72.1617 270.074 116.153 270.074H117.724C161.782 270.074 199.074 237.782 205.228 194.378L214.396 129.651C214.942 125.906 215.218 122.156 215.218 118.477C215.422 112.074 214.804 105.803 213.508 99.7418C205.503 60.0874 170.201 29.2954 126.893 29.2954H106.984C63.6103 29.2954 28.4407 60.0925 20.369 99.7418C19.1343 105.737 18.522 112.002 18.6597 118.477Z" fill="#FFE7C7"/>
<path d="M27.2671 154.978C27.2671 154.978 15.5371 136.625 7.27149 137.584C-0.994109 138.549 -0.381882 159.054 1.10797 171.744C2.59782 184.433 14.037 205.393 20.5322 204.638C27.0273 203.882 30.3539 186.346 30.3539 186.346L27.2671 154.978Z" fill="#FFDDCA"/>
<path d="M206.621 154.978C206.621 154.978 218.35 136.625 226.616 137.584C234.882 138.549 234.269 159.054 232.78 171.744C231.29 184.433 219.851 205.393 213.355 204.638C206.86 203.882 203.534 186.346 203.534 186.346L206.621 154.978Z" fill="#FFDDCA"/>
<g opacity="0.75">
<path d="M188.997 152.661C188.997 152.661 189.207 151.743 189.441 150.166C189.599 149.38 189.691 148.426 189.462 147.212C189.349 145.997 189.161 144.569 188.538 143.237C188.104 141.778 187.298 140.365 186.242 138.951C185.263 137.502 183.859 136.211 182.329 135.033C180.696 133.982 178.971 132.849 176.936 132.349C175.027 131.558 172.757 131.609 170.823 131.364C168.236 131.67 167.415 131.471 164.91 132.298C162.639 132.823 160.935 133.987 159.313 135.028C157.782 136.201 156.374 137.492 155.394 138.946C154.343 140.359 153.532 141.773 153.098 143.232C152.465 144.584 152.302 145.952 152.195 147.135C151.976 148.288 152.047 149.309 152.2 150.146C152.43 151.799 152.644 152.661 152.644 152.661C152.644 152.661 153.011 151.758 153.547 150.319C154.006 148.885 155.057 146.946 156.547 145.089C157.221 144.094 158.195 143.252 159.165 142.37C160.109 141.467 161.384 140.839 162.522 140.109C163.797 139.487 165.119 139.012 166.287 138.747C167.053 138.242 169.91 138.313 170.818 138.191C172.374 138.37 173.783 138.155 175.145 138.691C176.548 138.982 177.849 139.497 179.114 140.099C180.257 140.834 181.538 141.456 182.477 142.36C183.446 143.247 184.426 144.089 185.094 145.084C185.921 146.018 186.441 146.926 186.921 147.799C187.472 148.62 187.88 149.518 188.089 150.299C188.635 151.814 188.997 152.661 188.997 152.661Z" fill="#545D95"/>
<path d="M44.8903 152.661C44.8903 152.661 45.2525 151.814 45.7883 150.299C45.9975 149.518 46.4057 148.62 46.9567 147.799C47.4363 146.926 47.9618 146.018 48.7833 145.084C49.4517 144.089 50.4312 143.247 51.4007 142.36C52.3395 141.451 53.6202 140.829 54.7631 140.099C56.0284 139.492 57.3295 138.982 58.7326 138.691C60.1 138.15 61.5031 138.37 63.0593 138.191C63.9624 138.313 66.8247 138.237 67.59 138.747C68.7585 139.012 70.0749 139.487 71.3555 140.109C72.4984 140.839 73.7739 141.472 74.7127 142.37C75.6872 143.252 76.6567 144.099 77.3302 145.089C78.82 146.946 79.8711 148.885 80.3303 150.319C80.8661 151.758 81.2334 152.661 81.2334 152.661C81.2334 152.661 81.4477 151.799 81.6773 150.146C81.8304 149.309 81.9069 148.288 81.6824 147.135C81.5753 145.952 81.412 144.584 80.7793 143.232C80.3456 141.773 79.5344 140.359 78.4833 138.946C77.5088 137.497 76.1006 136.206 74.5648 135.028C72.9423 133.992 71.2433 132.829 68.9677 132.298C66.4625 131.471 65.641 131.67 63.0542 131.364C61.1154 131.609 58.8449 131.558 56.9418 132.349C54.906 132.849 53.1814 133.977 51.5487 135.033C50.018 136.206 48.6149 137.502 47.6353 138.951C46.5842 140.359 45.7781 141.778 45.3393 143.237C44.7168 144.569 44.5229 145.997 44.4158 147.212C44.1862 148.426 44.278 149.38 44.4362 150.166C44.6862 151.743 44.8903 152.661 44.8903 152.661Z" fill="#545D95"/>
</g>
<path d="M112.148 196.097H121.745C126.888 196.097 131.057 191.944 131.057 186.821V186.729H102.836V186.821C102.831 191.944 107.005 196.097 112.148 196.097Z" fill="#F4D1A6"/>
<path d="M117.658 225.94L142.746 222.072L128.791 215.633C124.419 212.378 117.75 215.144 117.658 220.577C117.658 220.618 117.658 220.664 117.658 220.705V225.94Z" fill="#FC5C96"/>
<path d="M117.658 238.819H117.801C126.868 238.819 135.541 230.885 141.261 223.885L142.746 222.069L117.658 225.936V238.819Z" fill="#F769B6"/>
<path d="M117.658 225.94L92.7542 222.072L106.525 215.633C110.898 212.378 117.566 215.144 117.658 220.577C117.658 220.618 117.658 220.664 117.658 220.705V225.94Z" fill="#FC5C96"/>
<path d="M117.658 238.819H117.515C108.454 238.819 99.9636 230.885 94.2389 223.885L92.7542 222.069L117.658 225.936V238.819Z" fill="#F769B6"/>
<path d="M116.229 23.3558V50.6067C116.229 50.6067 93.9224 81.266 75.3299 91.4857C56.7425 101.705 18.3228 139.176 18.3228 139.176C18.3228 139.176 4.68966 59.6887 49.3086 35.846C93.9224 11.9982 116.229 23.3558 116.229 23.3558Z" fill="#FC5C96"/>
<path d="M127.633 42.6577C127.633 42.6577 71.7586 74.4547 54.6559 97.1647C37.5533 119.875 25.0069 189.143 25.0069 189.143C25.0069 189.143 27.2876 134.635 40.9718 106.247C54.6559 77.8579 104.826 25.6264 127.633 42.6577Z" fill="#FC7089"/>
<path d="M116.229 23.3558V50.6067C116.229 50.6067 138.536 81.266 157.129 91.4857C175.721 101.705 214.136 139.176 214.136 139.176C214.136 139.176 227.769 59.6887 183.155 35.846C138.541 11.9982 116.229 23.3558 116.229 23.3558Z" fill="#FC5C96"/>
<path d="M137.899 55.1485C137.899 55.1485 155.001 58.5567 172.109 83.5372C189.217 108.518 203.539 186.342 203.539 186.342C203.539 186.342 213.626 114.099 201.758 91.4864C175.527 41.5204 137.899 55.1485 137.899 55.1485Z" fill="#FC7089"/>
<path d="M116.862 328.79V365.292H201.748C197.248 349.842 182.987 305.106 168.129 305.784C158.706 306.208 150.899 305.274 145.634 304.259C145.552 304.259 145.378 304.172 145.297 304.172C145.042 304.172 144.787 304.085 144.618 304.085C141.817 303.493 139.863 302.897 138.929 302.641C138.419 302.473 138.164 302.386 138.164 302.386C138.164 302.386 138.164 302.978 138.082 303.912C138.082 304.335 138.082 304.759 137.996 305.187C137.996 305.779 137.996 306.29 137.909 306.8C137.909 307.392 137.909 307.902 137.741 308.412C137.654 309.601 137.485 310.79 137.23 312.06C137.23 312.229 137.144 312.315 137.144 312.484C136.123 317.32 134.174 322.418 130.521 323.688L116.939 328.78H116.862V328.79Z" fill="#82DADD"/>
<path d="M31.8898 365.291H116.862V328.79L103.112 323.698C98.785 322.254 96.8309 315.718 95.9788 310.203C95.6421 307.738 95.4686 305.447 95.4686 304.003C95.3818 302.983 95.3819 302.391 95.3819 302.391C95.3819 302.391 94.2798 302.733 92.3256 303.325C92.2389 303.325 92.0705 303.325 91.9021 303.412C91.7337 303.412 91.4786 303.498 91.2235 303.58C89.698 303.917 87.7438 304.345 85.4529 304.682C85.2846 304.682 85.0294 304.769 84.7743 304.769C84.6875 304.769 84.5192 304.855 84.3508 304.855C79.4272 305.621 72.9729 306.131 65.5032 305.789C50.6507 305.106 36.39 349.842 31.8898 365.291Z" fill="#82DADD"/>
<path d="M186.074 57.9027C186.074 57.9027 190.105 61.9335 194.14 62.607C198.171 63.2805 192.125 71.342 217.662 58.5762C229.147 52.8362 242.525 28.3353 206.911 6.15598C190.446 -4.09438 178.686 18.9269 181.375 33.0345C184.064 47.1473 172.64 42.443 172.64 42.443L186.074 57.9027Z" fill="#FC5C96"/>
<path d="M44.9514 55.8874C44.9514 55.8874 40.9207 59.9181 36.8849 60.5916C32.8541 61.2651 38.9002 69.3266 13.3636 56.5608C1.87851 50.8208 -11.4995 33.7132 24.114 4.14067C39.038 -8.24752 52.3395 16.9115 49.6506 31.0191C46.9617 45.1319 58.3856 40.4277 58.3856 40.4277L44.9514 55.8874Z" fill="#FC5C96"/>
<path d="M188.303 40.0754C188.303 42.6623 193.503 44.7541 199.921 44.7541C206.34 44.7541 211.539 42.6572 211.539 40.0754C211.539 37.4886 206.34 35.3916 199.921 35.3916C193.503 35.3916 188.303 37.4886 188.303 40.0754Z" fill="#FDD323"/>
<path d="M187.819 37.4121C189.946 38.8764 194.625 35.7845 198.263 30.4986C201.901 25.2127 203.125 19.743 200.998 18.2736C198.87 16.8093 194.191 19.9013 190.554 25.1872C186.911 30.4731 185.686 35.9477 187.819 37.4121Z" fill="#FDD323"/>
<path d="M185.349 36.3041C187.768 35.3806 187.87 29.7733 185.579 23.7833C183.293 17.7882 179.477 13.6758 177.063 14.5993C174.65 15.5228 174.543 21.1251 176.834 27.1202C179.119 33.1153 182.936 37.2276 185.349 36.3041Z" fill="#FDD323"/>
<path d="M183.038 37.7059C183.65 35.1956 179.089 31.9302 172.854 30.4148C166.619 28.8995 161.068 29.7108 160.461 32.221C159.848 34.7364 164.41 37.9968 170.645 39.5121C176.879 41.0275 182.426 40.2162 183.038 37.7059Z" fill="#FDD323"/>
<path d="M182.885 40.4045C181.16 38.4759 175.885 40.3791 171.104 44.6547C166.318 48.9304 163.838 53.9561 165.563 55.8847C167.287 57.8134 172.563 55.9102 177.344 51.6345C182.125 47.364 184.604 42.3332 182.885 40.4045Z" fill="#FDD323"/>
<path d="M185.018 42.0633C182.451 42.3898 181.028 47.8134 181.834 54.1759C182.64 60.5435 185.375 65.4365 187.941 65.11C190.508 64.7835 191.931 59.3598 191.125 52.9973C190.319 46.6348 187.584 41.7367 185.018 42.0633Z" fill="#FDD323"/>
<path d="M187.594 41.248C186.405 43.544 190.069 47.7942 195.768 50.7382C201.467 53.6822 207.049 54.2077 208.238 51.9117C209.427 49.6157 205.763 45.3655 200.064 42.4215C194.365 39.4775 188.783 38.952 187.594 41.248Z" fill="#FDD323"/>
<path d="M185.528 44.7534C188.782 44.7534 191.421 42.115 191.421 38.8603C191.421 35.6057 188.782 32.9673 185.528 32.9673C182.273 32.9673 179.635 35.6057 179.635 38.8603C179.635 42.115 182.273 44.7534 185.528 44.7534Z" fill="#69D8F3"/>
<path d="M211.667 64.0557C211.667 65.6731 214.917 66.9843 218.932 66.9843C222.942 66.9843 226.198 65.6731 226.198 64.0557C226.198 62.4383 222.942 61.127 218.932 61.127C214.917 61.127 211.667 62.4383 211.667 64.0557Z" fill="#FDD323"/>
<path d="M211.361 62.3929C212.692 63.3113 215.616 61.3725 217.891 58.0714C220.167 54.7651 220.932 51.3415 219.601 50.4282C218.269 49.5098 215.345 51.4487 213.07 54.7498C210.794 58.0561 210.029 61.4745 211.361 62.3929Z" fill="#FDD323"/>
<path d="M209.82 61.6978C211.33 61.1213 211.396 57.616 209.962 53.8659C208.529 50.1157 206.146 47.5443 204.636 48.1208C203.125 48.6974 203.059 52.2026 204.493 55.9527C205.922 59.7029 208.309 62.2744 209.82 61.6978Z" fill="#FDD323"/>
<path d="M208.371 62.5745C208.753 61.003 205.901 58.9621 202.003 58.0131C198.105 57.0641 194.635 57.5693 194.253 59.1408C193.87 60.7122 196.722 62.7531 200.62 63.7021C204.518 64.6511 207.993 64.146 208.371 62.5745Z" fill="#FDD323"/>
<path d="M208.273 64.265C207.197 63.0608 203.896 64.2496 200.906 66.9232C197.916 69.5968 196.36 72.7397 197.441 73.949C198.518 75.1531 201.819 73.9643 204.809 71.2907C207.799 68.6172 209.355 65.4742 208.273 64.265Z" fill="#FDD323"/>
<path d="M209.61 65.3046C208.008 65.5087 207.115 68.9016 207.621 72.8814C208.126 76.8611 209.835 79.9224 211.442 79.7183C213.044 79.5142 213.937 76.1213 213.432 72.1415C212.927 68.1618 211.218 65.1005 209.61 65.3046Z" fill="#FDD323"/>
<path d="M211.223 64.7901C210.478 66.2289 212.769 68.882 216.335 70.7239C219.902 72.5658 223.392 72.8924 224.136 71.4587C224.876 70.0199 222.59 67.3667 219.024 65.5248C215.458 63.6829 211.968 63.3564 211.223 64.7901Z" fill="#FDD323"/>
<path d="M209.932 66.9823C211.969 66.9823 213.621 65.3308 213.621 63.2934C213.621 61.2561 211.969 59.6045 209.932 59.6045C207.895 59.6045 206.243 61.2561 206.243 63.2934C206.243 65.3308 207.895 66.9823 209.932 66.9823Z" fill="#69D8F3"/>
<path d="M52.2782 46.0707C57.0574 46.0707 60.9316 44.5105 60.9316 42.5859C60.9316 40.6613 57.0574 39.1011 52.2782 39.1011C47.4991 39.1011 43.6249 40.6613 43.6249 42.5859C43.6249 44.5105 47.4991 46.0707 52.2782 46.0707Z" fill="#FDD323"/>
<path d="M43.2626 40.605C44.8493 41.6969 48.329 39.3907 51.0434 35.4569C53.7527 31.5231 54.666 27.4463 53.0792 26.3545C51.4924 25.2626 48.0127 27.5688 45.2983 31.5026C42.589 35.4364 41.6758 39.508 43.2626 40.605Z" fill="#FDD323"/>
<path d="M41.4257 39.7801C43.2268 39.0913 43.3033 34.9176 41.5992 30.4532C39.895 25.9888 37.0531 22.9274 35.2571 23.6111C33.4611 24.2948 33.3794 28.4735 35.0836 32.938C36.7877 37.4024 39.6246 40.4638 41.4257 39.7801Z" fill="#FDD323"/>
<path d="M39.7064 40.8257C40.1605 38.9532 36.7675 36.5246 32.1194 35.397C27.4764 34.2694 23.3435 34.8715 22.8894 36.744C22.4353 38.6165 25.8283 41.0451 30.4714 42.1727C35.1144 43.2952 39.2472 42.6931 39.7064 40.8257Z" fill="#FDD323"/>
<path d="M39.5891 42.8354C38.3034 41.4017 34.3747 42.815 30.8133 45.9988C27.252 49.1826 25.3998 52.9276 26.6856 54.3664C27.9713 55.8002 31.8949 54.3869 35.4614 51.2031C39.0279 48.0193 40.8749 44.2692 39.5891 42.8354Z" fill="#FDD323"/>
<path d="M41.1808 44.0702C39.2725 44.3151 38.2113 48.351 38.8133 53.091C39.4154 57.831 41.4512 61.479 43.3594 61.2341C45.2677 60.9892 46.3289 56.9534 45.7268 52.2134C45.1247 47.4735 43.089 43.8253 41.1808 44.0702Z" fill="#FDD323"/>
<path d="M43.0993 43.463C42.2166 45.1723 44.9412 48.3407 49.1863 50.5296C53.4313 52.7235 57.5896 53.1164 58.4723 51.4021C59.3549 49.6928 56.6304 46.5243 52.3853 44.3304C48.1403 42.1415 43.9819 41.7487 43.0993 43.463Z" fill="#FDD323"/>
<path d="M37.1705 41.6825C37.1705 44.1061 39.1349 46.0756 41.5584 46.0756C43.982 46.0756 45.9514 44.1112 45.9514 41.6825C45.9514 39.259 43.9871 37.2896 41.5584 37.2896C39.1349 37.2896 37.1705 39.2539 37.1705 41.6825Z" fill="#69D8F3"/>
<path d="M115.01 358.087C132.536 358.087 145.751 334.147 145.751 302.401C145.751 300.702 143.945 299.33 141.72 299.33C139.496 299.33 137.689 300.702 137.689 302.401C137.689 331.596 125.74 351.949 115.015 351.949C104.285 351.949 92.3357 331.596 92.3357 302.401C92.3357 300.702 90.5295 299.33 88.3049 299.33C86.0803 299.33 84.2742 300.702 84.2742 302.401C84.264 334.152 97.4787 358.087 115.01 358.087Z" fill="#FDD323"/>
<path d="M115.01 348.199C132.031 348.199 145.368 328.081 145.368 302.406C145.368 300.87 143.735 299.625 141.72 299.625C139.705 299.625 138.072 300.87 138.072 302.406C138.072 326.479 126.148 342.642 115.01 342.642C103.867 342.642 91.9429 326.479 91.9429 302.406C91.9429 300.87 90.3101 299.625 88.2947 299.625C86.2793 299.625 84.6466 300.87 84.6466 302.406C84.6466 328.081 97.989 348.199 115.01 348.199Z" fill="#86CF25"/>
<path d="M115.01 343.1C131.363 343.1 144.664 325.268 144.664 303.359C144.664 301.731 143.348 300.415 141.72 300.415C140.098 300.415 138.776 301.731 138.776 303.359C138.776 322.028 128.118 337.212 115.01 337.212C101.902 337.212 91.2387 322.023 91.2387 303.359C91.2387 301.731 89.9223 300.415 88.2947 300.415C86.6722 300.415 85.3507 301.731 85.3507 303.359C85.3507 325.273 98.6573 343.1 115.01 343.1Z" fill="#F99AC2"/>
</svg>
