<svg viewBox="0 0 314 358" fill="none" xmlns="http://www.w3.org/2000/svg">
<path d="M27.6994 313.52C27.1892 314.964 33.8934 316.408 41.1947 317.847H41.2814C49.4297 319.546 58.3433 321.245 58.3433 323.025C58.3433 323.025 58.3433 323.025 58.3433 323.112C58.2566 324.638 58.2566 326.255 58.3433 327.867C58.3433 328.036 58.43 328.209 58.43 328.378C58.43 328.888 58.5168 329.311 58.5168 329.821C58.5168 330.413 58.6035 331.01 58.6852 331.602L63.3537 357.409H253.503L258.172 331.602C258.34 330.5 258.34 329.48 258.427 328.378C258.427 328.209 258.514 328.036 258.514 327.867C258.6 326.255 258.6 324.643 258.514 323.112C258.514 323.025 258.514 323.025 258.514 323.025C258.514 321.5 264.881 320.056 271.841 318.612C277.53 317.51 283.555 316.321 286.78 315.219C287.714 314.882 288.392 314.54 288.816 314.285C289.158 314.03 289.239 313.775 289.158 313.52C288.311 311.056 287.203 308.596 285.846 306.305C285.51 305.708 285.168 305.117 284.744 304.52C284.407 303.928 283.979 303.331 283.555 302.739V302.652C281.856 300.443 279.989 298.407 278.04 296.626L277.361 295.948C276.596 295.183 275.749 294.504 274.815 293.825C273.29 292.637 255.718 291.621 244.426 290.601C244.34 290.601 244.34 290.601 244.258 290.601C239.503 290.177 235.855 289.754 235.089 289.33C229.829 286.698 223.885 284.917 217.604 284.407C216.16 284.32 214.803 284.238 213.359 284.238H103.513C101.646 284.238 99.7784 284.325 97.911 284.58C92.1353 285.172 86.6198 286.871 81.7829 289.335C81.0176 289.759 77.4562 290.101 72.7009 290.524C72.1907 290.611 71.6805 290.693 71.0887 290.693C59.7974 291.713 43.5009 292.728 42.057 293.836C40.8682 294.683 39.8477 295.616 38.7457 296.637C38.0671 297.229 37.3885 297.912 36.8783 298.591C35.5211 299.866 34.419 301.224 33.3118 302.668V302.754C30.9239 305.969 28.9749 309.703 27.6994 313.52Z" fill="#00092B"/>
<path d="M251.835 91.5068L261.575 101.461C261.575 101.461 291.852 262.717 299.546 300.188C307.24 337.658 253.248 241.823 230.161 234.16C207.068 226.496 241.574 161.341 242.426 156.229C243.284 151.121 251.835 91.5068 251.835 91.5068Z" fill="#687986"/>
<path d="M63.5629 91.5068L54.4401 100.875C54.4401 100.875 23.5461 262.717 15.852 300.188C8.15784 337.658 62.1496 241.823 85.2371 234.16C108.33 226.496 73.8234 161.341 72.9713 156.229C72.1142 151.121 63.5629 91.5068 63.5629 91.5068Z" fill="#687986"/>
<path d="M157.531 256.442H159.357C210.425 256.442 252.988 217.502 257.31 166.831L261.141 121.886C266.014 64.7615 220.762 15.7139 163.189 15.7139H153.699C96.1253 15.7139 50.8788 64.7615 55.7463 121.886L59.578 166.831C63.8996 217.502 106.462 256.442 157.531 256.442Z" fill="#FFE7C7"/>
<path d="M68.6447 142.887C68.6447 142.887 54.9605 123.299 42.9856 123.299C31.0106 123.299 28.4493 143.739 28.4493 156.515C28.4493 169.291 41.2763 191.429 50.6848 191.429C60.0933 191.429 67.7875 174.398 67.7875 174.398L68.6447 142.887Z" fill="#FFE7C7"/>
<path d="M248.238 142.887C248.238 142.887 261.922 123.299 273.892 123.299C285.867 123.299 288.433 143.739 288.433 156.515C288.433 169.291 275.606 191.429 266.198 191.429C256.789 191.429 249.095 174.398 249.095 174.398L248.238 142.887Z" fill="#FFE7C7"/>
<path d="M267.642 313.489C266.616 309.673 264.973 306.06 262.922 302.724C264.907 305.994 266.55 309.673 267.642 313.489Z" fill="white"/>
<path d="M262.922 302.659C261.621 300.48 260.116 298.434 258.34 296.598C259.983 298.434 261.488 300.475 262.922 302.659Z" fill="white"/>
<path d="M255.6 293.868C253.753 292.097 224.334 290.597 222.211 289.373C224.334 290.663 253.753 292.163 255.6 293.868Z" fill="white"/>
<path d="M75.8694 316.691C76.2112 314.645 76.8286 312.604 77.5123 310.624C76.8286 312.537 76.2112 314.583 75.8694 316.691Z" fill="white"/>
<path d="M239.666 335.256C240.855 342.813 242.809 350.282 245.61 357.41H313.776C312.077 353.333 310.041 349.093 307.663 344.42C304.949 339.241 303.505 333.552 302.908 327.695C302.908 327.526 302.821 327.353 302.821 327.184V327.103C302.398 322.689 302.398 318.358 302.653 314.113C302.821 310.801 301.888 307.153 300.107 303.418C295.694 294.168 286.101 284.744 275.999 280.923C275.147 280.581 274.3 280.326 273.453 280.071H273.366C270.223 279.224 267.254 278.882 264.366 279.305C259.611 279.984 246.626 285.418 246.626 285.418C245.86 286.943 245.1 288.561 244.416 290.173C244.33 290.26 244.248 290.428 244.248 290.596C244.08 291.02 243.824 291.443 243.738 291.954C238.477 305.204 237.375 320.398 239.666 335.256Z" fill="#FFE7C7"/>
<path d="M3.0811 357.409H75.15C77.1041 350.704 78.3746 343.571 78.9716 336.444C80.3288 320.316 78.293 303.932 72.6907 290.519C72.2673 289.585 71.8438 288.651 71.4152 287.804C70.9917 286.957 70.6498 286.192 70.2264 285.427C70.2264 285.427 57.2361 279.993 52.4859 279.314C49.0062 278.804 45.2714 279.401 41.5366 280.758C40.5161 281.013 39.5008 281.437 38.5671 281.947C27.8728 286.87 18.1939 297.733 15.2244 307.412C14.6326 309.193 14.2907 310.892 14.2907 312.504V312.591C14.204 313.101 14.204 313.611 14.204 314.116C14.6275 321.499 14.2907 329.566 12.1682 336.949C11.4029 339.495 10.4691 342.041 9.19869 344.418C6.81595 349.087 4.78014 353.332 3.0811 357.409Z" fill="#FFE7C7"/>
<path d="M158.235 308.96H158.653C170.107 308.96 179.399 299.709 179.399 288.301V236.569H137.494V288.301C137.489 299.709 146.775 308.96 158.235 308.96Z" fill="#FFE7C7"/>
<path d="M217.594 283.723V284.402L220.227 339.154L221.074 357.404H246.284C244.758 351.547 243.993 344.669 245.008 337.118C245.176 335.929 245.263 334.827 245.35 333.638V333.552C246.794 319.122 245.773 303.163 244.585 292.04C244.585 291.53 244.498 291.019 244.416 290.596V290.172C243.569 282.703 242.717 277.861 242.717 277.861L217.594 283.723Z" fill="#62ABB2"/>
<path d="M69.211 357.409H94.4212L95.2681 339.327L97.9008 284.575V283.723L72.7725 277.866C72.7725 277.866 72.0938 281.687 71.4152 287.8C71.2469 288.733 71.1602 289.667 71.0785 290.688C69.8081 301.979 68.6192 318.954 70.2316 334.148C70.2316 335.169 70.3999 336.103 70.4866 337.118C71.5019 344.674 70.7366 351.552 69.211 357.409Z" fill="#62ABB2"/>
<path d="M195.103 139.054H231.452V138.876C231.452 129.095 223.492 121.171 213.67 121.171H212.885C203.068 121.171 195.103 129.1 195.103 138.876V139.054Z" fill="#002047"/>
<path d="M123.693 139.054H87.3444V138.876C87.3444 129.095 95.3038 121.171 105.126 121.171H105.911C115.733 121.171 123.693 129.1 123.693 138.876V139.054Z" fill="#002047"/>
<path d="M151.393 182.491H160.99C166.133 182.491 170.301 178.337 170.301 173.215V173.123H142.081V173.215C142.081 178.337 146.249 182.491 151.393 182.491Z" fill="#F4D1A6"/>
<path d="M62.5475 95.437C62.5475 95.437 58.7974 80.8293 43.103 77.7731C27.4086 74.7168 0.116776 84.5692 0.116776 84.5692C0.116776 84.5692 12.0559 93.7431 20.245 95.7788C28.429 97.8146 62.5475 95.437 62.5475 95.437Z" fill="#A01604"/>
<path d="M65.5272 97.3439C65.5272 97.3439 58.0524 87.6089 45.3428 90.2977C32.6332 92.9866 15.3724 108.997 15.3724 108.997C15.3724 108.997 27.2299 112.074 34.0057 111.003C40.7814 109.931 65.5272 97.3439 65.5272 97.3439Z" fill="#DB1F00"/>
<path d="M57.7821 187.286C56.5933 163.591 53.4248 100.875 53.4248 100.875C53.4248 100.875 68.3692 193.398 83.4871 208.455C98.0233 222.93 156.903 211.588 156.903 211.588C156.903 211.588 215.619 222.43 230.156 207.95C245.273 192.893 261.57 101.461 261.57 101.461C261.57 101.461 261.08 166.112 259.891 189.806C258.631 214.904 288.3 299.285 272.994 317.326C246.758 348.251 156.898 341.041 156.898 341.041C156.898 341.041 67.0375 348.251 40.8019 317.326C25.5054 299.285 59.0424 212.384 57.7821 187.286Z" fill="#8F96A8"/>
<path d="M156.903 203.071V188.591C156.903 188.591 199.665 187.739 206.507 198.811C213.349 209.883 227.033 272.053 227.033 272.053C227.033 272.053 193.68 207.327 184.271 208.179C174.863 209.031 156.903 203.071 156.903 203.071Z" fill="#A6AAB8"/>
<path d="M156.903 203.071V188.591C156.903 188.591 114.141 187.739 107.299 198.811C100.457 209.883 86.7729 272.053 86.7729 272.053C86.7729 272.053 120.126 207.327 129.535 208.179C138.943 209.031 156.903 203.071 156.903 203.071Z" fill="#A6AAB8"/>
<path d="M128.973 136.182C148.545 131.156 169.067 131.156 188.634 136.182C189.006 134.738 189.373 133.294 189.746 131.85C169.444 126.636 148.158 126.636 127.856 131.85C128.228 133.289 128.601 134.738 128.973 136.182Z" fill="#002047"/>
<path d="M217.941 184.685H218.614C238.584 184.685 255.927 170.996 260.483 151.633L264.963 132.607C267.024 123.846 260.35 115.463 251.314 115.463H189.884C177.802 115.463 169.061 126.954 172.332 138.536L176.546 153.455C181.761 171.925 198.675 184.685 217.941 184.685Z" fill="#002047"/>
<path d="M177.266 137.172L178.291 140.652L180.649 149.255L181.47 152.02C181.98 153.76 182.598 155.403 183.21 157.041C185.261 161.444 188.021 165.337 191.404 168.714C198.267 175.475 207.792 179.572 217.931 179.572H218.645C236.263 179.572 251.422 167.587 255.519 150.484L260.024 131.432C260.636 128.769 260.024 126.106 258.284 123.958C256.646 121.81 254.085 120.58 251.319 120.58H189.868C185.771 120.58 181.878 122.524 179.419 125.805C176.96 129.08 176.138 133.177 177.266 137.172Z" fill="#001223"/>
<path d="M183.205 157.046C185.256 161.449 188.016 165.342 191.399 168.72L239.538 120.58H219.67L183.205 157.046Z" fill="#63839E"/>
<path d="M178.291 140.657L180.643 149.26L209.221 120.58H198.363L178.291 140.657Z" fill="#63839E"/>
<path d="M95.9926 184.685H95.3191C75.349 184.685 58.0065 170.996 53.4502 151.633L48.9705 132.607C46.9092 123.846 53.5829 115.463 62.6189 115.463H124.05C136.132 115.463 144.872 126.954 141.601 138.536L137.387 153.455C132.177 171.925 115.264 184.685 95.9926 184.685Z" fill="#002047"/>
<path d="M54.0115 131.438L55.7513 139.122L57.8025 147.928L58.4147 150.489C58.8229 152.331 59.4403 154.178 60.2567 155.918C61.9965 160.525 64.6599 164.622 68.0427 168.005C75.0072 175.276 84.6351 179.577 95.2885 179.577H96.0079C112.906 179.577 127.861 168.209 132.468 152.025L136.668 137.172C137.795 133.177 136.974 129.08 134.514 125.805C132.055 122.529 128.269 120.58 124.065 120.58H62.6138C59.8484 120.58 57.2872 121.81 55.6494 123.958C53.9095 126.111 53.2921 128.774 54.0115 131.438Z" fill="#001223"/>
<path d="M60.2566 155.918C61.9965 160.525 64.6598 164.622 68.0426 168.005L115.463 120.585H95.5946L60.2566 155.918Z" fill="#63839E"/>
<path d="M55.7514 139.122L57.7974 147.928L85.1453 120.58H74.2878L55.7514 139.122Z" fill="#63839E"/>
<path d="M161.781 30.0314C91.6863 30.0314 71.303 43.6084 62.0067 52.0067C72.2826 20.4953 94.166 -0.418637 128.193 0.418128C148.097 0.418128 168.005 0.418128 187.909 0.418128C225.002 -0.535988 248.024 25.3272 257.116 62.1499C246.08 48.0933 220.507 30.0314 161.781 30.0314Z" fill="#A01604"/>
<path d="M258.366 68.0387C260.478 78.5339 261.59 89.7538 261.575 101.463C193.598 86.0496 123.116 85.9322 55.139 100.805C55.139 100.468 55.139 100.137 55.139 99.8C55.1237 89.8048 55.9044 80.2126 57.4146 71.151C65.4047 63.6712 94.467 42.1245 164.475 42.1245C220.135 42.1296 246.656 57.4924 258.366 68.0387Z" fill="#DD291B"/>
<path d="M161.781 30.0317C220.512 30.0317 246.08 48.0936 257.111 62.1502C257.585 64.0687 257.968 66.0585 258.366 68.0381C246.661 57.4918 220.14 42.1291 164.47 42.1291C94.462 42.1291 65.3997 63.6758 57.4097 71.1556C58.5271 64.4411 60.0424 58.0276 62.0016 52.007C71.2979 43.6087 91.6864 30.0317 161.781 30.0317Z" fill="#DB1F00"/>
<path d="M12.0816 352.23C12.1684 352.062 12.25 351.889 12.3368 351.807C17.8523 346.797 30.7557 335.169 31.266 334.745C31.7762 334.49 34.3222 333.643 36.358 333.643C38.3121 333.643 39.1591 334.49 39.5826 335.169C40.2612 336.613 39.6693 338.648 37.5468 341.618C36.358 343.399 35.2559 344.842 34.2354 346.031C35.3375 345.776 36.358 345.608 37.3784 345.608C39.756 345.608 40.7765 346.71 41.2 347.562C41.797 348.751 41.797 349.94 41.2867 351.21C40.5214 352.736 39.0775 354.098 37.3835 355.113C38.7407 355.368 39.7612 355.96 40.353 356.726C40.4398 356.981 40.6081 357.149 40.6898 357.404H37.9754C37.3784 357.149 36.4447 356.981 35.3426 356.981C34.3222 356.981 33.3885 357.067 32.7966 357.149C32.6283 357.236 32.4599 357.236 32.2048 357.317C31.6129 357.404 31.5261 357.404 31.4394 357.404C30.9292 357.404 30.5057 356.981 30.419 356.47C30.3322 355.537 31.1843 355.368 32.2864 355.2C35.0008 354.435 38.4856 352.399 39.4193 350.363C39.6745 349.684 39.6745 349.087 39.4193 348.496C39.3326 348.241 38.9958 347.649 37.3835 347.649C35.858 347.649 33.7355 348.159 31.3578 349.174C30.5109 349.94 29.8323 350.195 29.2353 350.195C28.9802 350.195 28.47 350.026 28.3016 349.858C28.0465 349.603 27.9597 349.261 28.0465 349.011C28.1332 348.669 28.3016 348.414 28.5567 348.246C28.5567 348.246 29.2353 347.904 30.2557 347.48C31.1894 346.633 32.9701 344.679 35.9447 340.521C38.154 337.296 37.8989 336.276 37.8121 336.107C37.6438 335.852 37.1335 335.684 36.3682 335.684C34.7559 335.684 32.7201 336.276 32.465 336.449C31.7864 336.96 21.0921 346.638 13.9592 353.088C13.7041 353.766 13.1939 355.379 12.5153 357.414H10.306C11.3163 354.521 12.0816 352.317 12.0816 352.23Z" fill="#8F96A8"/>
<path d="M275.571 344.76C275.06 343.49 275.06 342.301 275.657 341.112C276.081 340.265 277.101 339.158 279.479 339.158C280.499 339.158 281.515 339.326 282.535 339.581C281.601 338.392 280.499 336.949 279.311 335.168C277.188 332.198 276.591 330.157 277.275 328.719C277.698 328.04 278.55 327.188 280.499 327.188C282.535 327.188 285.081 327.953 285.591 328.29C286.188 328.714 300.194 341.449 304.521 345.352C304.607 345.439 304.689 345.607 304.776 345.775C304.776 345.862 306.73 352.311 309.189 357.403H306.98C304.944 352.903 303.332 347.898 302.903 346.622C295.77 340.173 285.076 330.494 284.484 330.071C284.147 329.816 282.107 329.224 280.494 329.224C279.729 329.224 279.224 329.31 279.05 329.647C278.964 329.816 278.627 330.836 280.918 334.061C283.887 338.219 285.673 340.173 286.607 341.02C287.627 341.444 288.306 341.785 288.306 341.785C288.561 341.954 288.729 342.209 288.816 342.551C288.903 342.806 288.816 343.143 288.561 343.316C288.392 343.571 287.882 343.74 287.627 343.74C287.03 343.74 286.352 343.484 285.505 342.719C283.127 341.699 280.923 341.194 279.479 341.194C277.867 341.194 277.525 341.791 277.443 342.041C277.106 342.632 277.188 343.229 277.443 343.908C278.377 345.944 281.857 347.985 284.403 348.745C285.591 348.913 286.525 349.087 286.438 350.02C286.352 350.531 285.928 350.954 285.418 350.954C285.331 350.954 285.249 350.954 284.571 350.867C284.402 350.781 284.229 350.781 284.147 350.699C283.469 350.612 282.535 350.531 281.515 350.531C279.816 350.531 278.545 350.872 278.122 351.464C277.867 351.888 277.867 352.566 278.208 353.418C279.142 355.878 280.754 356.985 283.132 356.985C283.724 356.985 284.489 356.898 285.086 356.73C286.275 356.306 287.122 356.051 287.122 356.051C287.632 355.883 288.224 356.138 288.398 356.648C288.484 356.903 288.484 357.158 288.398 357.414H278.464C277.617 356.648 276.938 355.633 276.341 354.189C275.744 352.577 275.831 351.301 276.509 350.286C277.106 349.52 278.035 348.929 279.479 348.673C277.78 347.648 276.336 346.286 275.571 344.76Z" fill="#8F96A8"/>
<path d="M13.0559 338.714C13.561 338.454 25.4441 332.23 27.4748 324.352C28.133 321.801 27.7044 319.362 26.1941 317.096C23.5154 313.076 20.7858 311.035 18.0765 311.02C18.0663 311.02 18.056 311.02 18.056 311.02C15.107 311.02 13.4283 313.443 13.362 313.55L15.0305 314.688C15.0407 314.673 16.1989 313.04 18.0612 313.04C18.0765 313.04 18.0816 313.04 18.0969 313.04C20.0562 313.06 22.2807 314.851 24.5257 318.219C25.7145 320.01 26.0462 321.852 25.5309 323.847C23.7247 330.847 12.2446 336.867 12.1324 336.924L13.0559 338.714Z" fill="#8F96A8"/>
<path d="M301.806 328.903L303.163 327.414L283.433 309.469L294.464 294.999L292.862 293.78L281.27 308.984C280.948 309.398 281.004 309.984 281.392 310.342L301.806 328.903Z" fill="#8F96A8"/>
</svg>
