<svg viewBox="0 0 261 400" fill="none" xmlns="http://www.w3.org/2000/svg">
<path d="M129.808 298.423H131.634C182.702 298.423 225.265 259.483 229.587 208.813L233.418 163.868C238.291 106.743 193.039 57.6904 135.466 57.6904H125.976C68.4023 57.6904 23.1558 106.738 28.0233 163.868L31.8551 208.813C36.1767 259.488 78.7394 298.423 129.808 298.423Z" fill="#FFE7C7"/>
<path d="M40.9217 184.873C40.9217 184.873 27.2376 165.286 15.2678 165.286C3.29284 165.286 0.731506 185.725 0.731506 198.501C0.731506 211.277 13.5585 233.421 22.967 233.421C32.3755 233.421 40.0697 216.389 40.0697 216.389L40.9217 184.873Z" fill="#FFE7C7"/>
<path d="M220.52 184.873C220.52 184.873 234.204 165.286 246.179 165.286C258.154 165.286 260.715 185.725 260.715 198.501C260.715 211.277 247.888 233.421 238.48 233.421C229.071 233.421 221.377 216.389 221.377 216.389L220.52 184.873Z" fill="#FFE7C7"/>
<path d="M47.2383 367.585C47.2383 368.774 47.2382 369.963 47.325 371.152C47.4117 372.427 47.6668 373.698 47.8352 375.142L47.9219 375.652L50.6363 393.903H210.821L213.877 373.616C214.045 372.514 214.045 371.494 214.045 370.391C214.127 370.223 214.127 370.05 214.127 369.881C214.214 368.182 214.214 366.657 214.127 365.126V365.039C213.958 361.728 213.448 358.503 212.601 355.447C212.433 354.937 212.265 354.427 212.091 353.922C212.091 353.835 212.004 353.835 212.004 353.753C212.004 353.585 211.918 353.498 211.918 353.416C211.918 353.33 211.831 353.33 211.831 353.33C211.744 353.075 211.744 352.819 211.662 352.651C211.326 351.717 210.984 350.784 210.56 349.937C210.56 349.937 210.56 349.937 210.56 349.85C210.137 349.003 209.713 348.151 209.285 347.304C209.285 347.304 209.285 347.304 209.285 347.217C208.775 346.365 208.351 345.518 207.841 344.753V344.671C207.499 344.161 207.162 343.738 206.82 343.227C206.229 342.294 205.632 341.447 204.866 340.595V340.508H204.78V340.421C204.269 339.742 203.759 339.146 203.254 338.554C202.407 337.62 201.473 336.686 200.54 335.839C198.672 334.14 196.636 332.615 194.514 331.339C189.08 328.114 182.886 326.247 176.263 326.247H85.2651C83.1426 326.247 81.1068 326.415 79.0659 326.839C78.7292 326.839 78.3006 326.926 77.8771 327.094C73.4637 327.941 69.387 329.727 65.6522 332.186C63.9531 333.288 62.4276 334.477 60.8969 335.834C59.2846 337.278 57.8407 338.804 56.5702 340.503C55.8916 341.268 55.2947 342.115 54.7028 342.967C52.667 345.937 51.0547 349.166 49.7792 352.646C49.6924 352.901 49.6108 353.069 49.524 353.325C49.524 353.325 49.524 353.325 49.524 353.411C48.9322 355.024 48.422 356.804 48.1669 358.672C47.4883 361.554 47.2383 364.529 47.2383 367.585Z" fill="#EB6DC4"/>
<path d="M212.555 355.478C211.53 351.662 209.887 348.054 207.836 344.712C209.821 347.983 211.458 351.662 212.555 355.478Z" fill="white"/>
<path d="M207.836 344.641C206.535 342.462 205.03 340.416 203.249 338.579C204.892 340.421 206.397 342.462 207.836 344.641Z" fill="white"/>
<path d="M200.514 335.854C198.667 334.084 196.616 332.584 194.493 331.359C196.616 332.65 198.667 334.15 200.514 335.854Z" fill="white"/>
<path d="M48.1516 358.677C48.4934 356.631 49.1108 354.59 49.7945 352.615C49.1057 354.523 48.4883 356.564 48.1516 358.677Z" fill="white"/>
<path d="M197.912 391.353C197.999 392.2 198.167 393.052 198.335 393.899H228.979C228.132 391.435 227.199 389.062 226.347 386.684C225.5 384.649 224.648 382.526 223.887 380.572C223.122 378.536 222.275 376.495 221.428 374.546C221.224 374.056 221.025 373.633 220.821 373.153C220.744 372.98 220.673 372.817 220.602 372.643C217.999 366.541 215.418 360.877 213.193 356.122C212.77 355.188 212.346 354.255 211.923 353.408C211.923 353.321 211.836 353.321 211.836 353.321C210.902 351.367 210.055 349.673 209.29 348.142C208.698 346.953 208.188 345.933 207.764 344.999C207.423 344.321 207.086 343.724 206.831 343.219C206.744 343.132 206.744 343.05 206.744 342.963C205.723 341.009 205.132 339.907 205.132 339.907L204.963 340.331C204.963 340.417 204.877 340.417 204.877 340.499V340.586C202.244 346.53 200.295 352.724 198.932 358.923C196.723 369.623 196.386 380.572 197.912 391.353Z" fill="#FFE7C7"/>
<path d="M32.3806 393.899H63.1113C66.1675 376.072 64.045 357.479 56.5753 340.504C56.5753 340.417 56.4886 340.417 56.4886 340.336L56.3202 339.912C56.3202 339.912 55.7232 341.014 54.7079 342.968C53.5191 345.259 51.7384 348.826 49.5292 353.326C49.5292 353.326 49.5292 353.326 49.5292 353.413C44.6922 363.597 37.8961 378.449 32.3806 393.899Z" fill="#FFE7C7"/>
<path d="M229.066 393.899H228.979C229.658 395.766 230.337 397.547 230.934 399.414C230.342 397.552 229.658 395.766 229.066 393.899Z" fill="#FFE7C7"/>
<path d="M197.912 391.353C198.08 392.2 198.167 393.052 198.422 393.899H228.985C228.138 391.435 227.204 389.062 226.352 386.684C225.505 384.649 224.653 382.526 223.893 380.572C223.127 378.536 222.28 376.495 221.433 374.546C221.229 374.056 221.03 373.633 220.826 373.153C220.75 372.98 220.678 372.817 220.607 372.643C218.005 366.541 215.423 360.877 213.198 356.122C212.775 355.357 212.433 354.597 212.096 353.913C212.096 353.826 212.009 353.826 212.009 353.744C211.923 353.576 211.841 353.408 211.841 353.321C210.907 351.367 210.06 349.673 209.295 348.142C208.703 346.953 208.193 345.933 207.769 344.999C207.428 344.321 207.091 343.724 206.836 343.219C206.749 343.132 206.749 343.05 206.749 342.963C205.729 341.009 205.137 339.907 205.137 339.907L204.882 340.331L204.795 340.417V340.504C202.249 346.448 200.295 352.642 198.938 358.923C196.723 369.623 196.386 380.572 197.912 391.353Z" fill="#FFE7C7"/>
<path d="M130.512 350.946H130.93C142.385 350.946 151.671 341.696 151.671 330.287V278.556H109.766V330.287C109.766 341.696 119.057 350.946 130.512 350.946Z" fill="#FFE7C7"/>
<path d="M125.925 224.477H135.522C140.665 224.477 144.834 220.324 144.834 215.201V215.109H116.613V215.201C116.608 220.324 120.782 224.477 125.925 224.477Z" fill="#F4D1A6"/>
<path d="M130.721 228.309V234.661C130.721 247.85 141.456 258.539 154.701 258.539H155.166C168.824 258.539 181.391 251.1 187.912 239.146L188.019 238.952L182.651 242.079C175.406 246.304 166.248 245.381 159.997 239.794L159.89 239.697C155.018 232.569 146.915 228.298 138.252 228.298H130.721V228.309Z" fill="#DD6446"/>
<path d="M130.721 228.309V234.661C130.721 247.85 119.986 258.539 106.74 258.539H106.276C92.6173 258.539 80.0506 251.1 73.5299 239.146L73.4228 238.952L78.7903 242.079C86.0355 246.304 95.194 245.381 101.444 239.794L101.551 239.697C106.424 232.569 114.526 228.298 123.19 228.298H130.721V228.309Z" fill="#DD6446"/>
<path d="M151.701 85.5197C151.701 85.5197 203.014 16.2519 223.54 23.6349C244.067 31.0178 229.811 52.59 236.082 70.1926C242.352 87.7953 242.924 103.689 234.372 129.241C230.403 141.103 211.713 141.68 210.428 122.996C205.295 48.6153 151.701 85.5197 151.701 85.5197Z" fill="#DD291B"/>
<path d="M93.5511 95.7373C93.5511 95.7373 75.877 95.7373 62.7643 107.661C49.6516 119.585 30.8346 171.25 30.8346 171.25C30.8346 171.25 13.1605 98.5793 71.3156 71.8946C129.471 45.2049 93.5511 95.7373 93.5511 95.7373Z" fill="#DD6446"/>
<path d="M146.441 185.763C146.344 185.349 146.267 184.967 146.175 184.563C146.293 185.063 146.425 185.62 146.512 186.012C146.492 185.931 146.461 185.849 146.441 185.763Z" fill="#160C00"/>
<path d="M116.608 172.951C125.547 168.746 135.894 168.746 144.828 172.951C145.793 170.894 146.762 168.843 147.732 166.787C136.956 161.715 124.481 161.715 113.71 166.787C114.674 168.843 115.644 170.899 116.608 172.951Z" fill="#442700"/>
<path d="M155.125 320.001L129.185 346.12L138.022 352.365L152.273 351.799L168.809 326.247L155.125 320.001Z" fill="#F99AC2"/>
<path d="M103.24 320.001L129.185 346.12L120.348 352.365L106.092 351.799L89.5561 326.247L103.24 320.001Z" fill="#F99AC2"/>
<path d="M181.952 326.837H171.681V393.901H181.952V326.837Z" fill="#DD6446"/>
<path d="M88.153 326.837H77.8822V393.901H88.153V326.837Z" fill="#DD6446"/>
<path d="M59.9122 76.4312C59.9122 76.4312 91.2704 94.6002 102.102 100.279C112.934 105.958 154.553 104.82 182.493 99.7126C210.428 94.6053 227.535 33.8531 228.673 26.4702C229.811 19.0873 205.024 6.9185 166.528 2.05608C45.0851 -13.2761 59.9122 76.4312 59.9122 76.4312Z" fill="#DD6446"/>
<path d="M173.493 101.321C173.493 101.321 186.417 94.1265 196.677 104.346C206.938 114.566 200.422 160.466 217.27 160.466C247.49 160.466 238.368 113.908 238.368 113.908C238.368 113.908 234.944 137.184 224.683 126.398C214.423 115.612 220.122 68.4878 200.739 68.4878C181.355 68.4878 173.493 101.321 173.493 101.321Z" fill="#D1543B"/>
<path d="M131.466 328.374V267.198C131.466 267.198 155.961 264.05 163.865 261.754C199.029 251.535 217.122 215.314 226.597 178.139L233.235 152.082V201.859C233.235 226.396 225.745 250.29 211.856 270.066L184.968 308.348C176.569 320.302 163.365 327.517 149.191 327.9L131.466 328.374Z" fill="#DD291B"/>
<path d="M131.466 328.374V267.198C131.466 267.198 106.97 264.05 99.0666 261.754C63.9021 251.535 45.8096 215.314 36.3348 178.139L29.6968 152.082V201.859C29.6968 226.396 37.1868 250.29 51.0751 270.066L77.9638 308.348C86.362 320.302 99.5666 327.517 113.741 327.9L131.466 328.374Z" fill="#DD291B"/>
<path d="M135.517 355.697H122.868V393.897H135.517V355.697Z" fill="#F99AC2"/>
<path d="M191.233 33.5116C181.1 38.3026 171.957 45.1294 165.059 53.9664C160.819 59.3952 157.135 65.7679 156.191 72.2579C153.671 89.5646 151.992 95.7792 151.992 95.7792C151.992 95.7792 148.13 73.0998 148.466 68.2271C148.803 63.3545 150.65 57.6452 150.65 57.6452C150.65 57.6452 138.721 64.3648 135.195 75.957C131.67 87.5493 129.986 93.7638 129.986 93.7638C129.986 93.7638 128.307 74.7784 131.16 67.3853C134.017 59.9922 135.527 53.946 135.527 53.946C135.527 53.946 122.588 58.8187 119.567 67.722C116.542 76.6254 114.021 82.845 114.021 82.845C114.021 82.845 109.654 62.5178 114.358 52.9409C119.062 43.364 124.945 33.4504 129.981 29.0829C135.022 24.7154 147.788 18.3325 147.788 18.3325C147.788 18.3325 144.762 24.0419 142.578 28.2461C140.395 32.4504 140.395 40.5119 140.395 40.5119C140.395 40.5119 144.257 34.2974 151.818 30.0931C156.227 27.6441 169.125 24.2154 169.125 24.2154C169.125 24.2154 158.191 33.0984 156.023 36.9812C152.829 42.6956 152.329 49.2469 152.329 49.2469C152.329 49.2469 158.712 42.1905 166.61 37.823C174.508 33.4555 193.157 32.6136 193.157 32.6136L191.233 33.5116Z" fill="#FFA492"/>
<path d="M34.4163 157.23C35.0949 157.143 35.7735 156.975 36.4521 156.893C57.2488 153.159 107.587 141.867 117.858 165.128C118.113 165.807 118.368 166.486 118.623 167.164C119.047 168.521 119.215 170.134 119.047 171.919C118.282 183.124 107.332 202.053 101.133 207.742C92.5612 215.635 82.6272 216.569 71.2544 216.569C52.8353 215.972 45.0238 205.62 40.7788 192.293V192.124C39.59 188.476 38.6563 184.823 37.8909 180.92C37.1256 177.185 36.447 173.363 35.8552 169.629H27.2834V157.235L34.4163 157.23ZM45.8759 178.282C46.2177 182.614 46.2994 187.196 47.0647 191.441C48.5087 199.42 55.5548 212.069 64.3817 212.492C89.7652 213.763 99.1023 211.727 107.587 187.282C107.587 187.196 107.674 187.027 107.674 186.946C107.761 186.859 107.761 186.777 107.761 186.69C107.929 186.099 108.016 185.67 108.016 185.415C108.184 185.073 108.184 184.823 108.184 184.823C111.664 169.205 110.22 161.48 92.0561 161.225C77.8821 161.057 64.6368 162.246 50.6312 164.537C43.0748 168.18 45.0289 168.011 45.8759 178.282Z" fill="#442700"/>
<path d="M142.818 167.163C143.073 166.485 143.328 165.806 143.584 165.128C151.732 146.708 185.008 149.933 208.861 154.005C216.076 155.193 222.53 156.464 227.025 157.229H234.158V169.623H225.586C224.908 173.357 224.311 177.179 223.551 180.914C222.785 184.817 221.852 188.47 220.663 192.118V192.287C216.418 205.614 208.606 215.971 190.187 216.563C178.814 216.563 168.88 215.629 160.309 207.736C154.109 202.047 143.16 183.118 142.395 171.913C142.226 170.133 142.395 168.521 142.818 167.163ZM153.262 184.904C153.262 184.99 153.262 184.99 153.349 185.072C153.349 185.072 153.349 185.159 153.349 185.24C153.349 185.327 153.349 185.327 153.436 185.409C153.436 185.409 153.436 185.496 153.436 185.577C153.523 185.832 153.604 186.174 153.691 186.679C153.691 186.766 153.691 186.848 153.778 186.934C153.778 187.021 153.865 187.19 153.865 187.271C162.355 211.721 171.692 213.757 197.075 212.481C205.902 212.058 212.948 199.409 214.392 191.429C215.157 187.184 215.239 182.603 215.581 178.271C216.428 168 218.382 168.168 210.826 164.52C196.82 162.229 183.575 161.041 169.401 161.209C151.14 161.474 149.783 169.199 153.262 184.904Z" fill="#442700"/>
<path d="M166.426 180.862C166.426 171.081 174.386 163.158 184.207 163.158H184.993C194.815 163.158 202.774 171.087 202.774 180.862V181.041H166.426V180.862Z" fill="#545D95"/>
<path d="M76.4484 163.158H77.2342C87.0559 163.158 95.0154 171.087 95.0154 180.862V181.041H58.6672V180.862C58.6672 171.081 66.6317 163.158 76.4484 163.158Z" fill="#545D95"/>
<path d="M129.185 356.905H124.624L92.9797 368.263V336.18L124.624 346.119H129.185H133.746L165.385 336.18V368.263L133.746 356.905H129.185Z" fill="#86B438"/>
<path d="M197.912 391.35C198.08 392.197 198.167 393.049 198.422 393.896H228.985C228.138 391.432 227.204 389.059 226.352 386.682C225.505 384.646 224.653 382.523 223.892 380.569C219.816 370.385 215.489 361.043 212.091 353.915C212.091 353.829 212.004 353.829 212.004 353.747C211.918 353.579 211.836 353.41 211.836 353.323C210.902 351.369 210.055 349.675 209.29 348.145C208.698 346.956 208.188 345.935 207.764 345.002C207.423 344.323 207.086 343.726 206.831 343.221C206.744 343.134 206.744 343.053 206.744 342.966C205.723 341.012 205.132 339.91 205.132 339.91L204.877 340.333L204.79 340.42V340.507C202.244 346.451 200.29 352.645 198.932 358.926C196.723 369.62 196.386 380.569 197.912 391.35Z" fill="#EB6DC4"/>
<path d="M32.3806 393.896H63.1113C66.1675 376.069 64.045 357.477 56.5753 340.502C56.5753 340.415 56.4886 340.415 56.4886 340.333L56.3202 339.91C56.3202 339.91 55.7232 341.012 54.7079 342.966C53.5191 345.257 51.7384 348.823 49.5292 353.323C49.5292 353.323 49.5292 353.323 49.5292 353.41C44.6922 363.594 37.8961 378.447 32.3806 393.896Z" fill="#EB6DC4"/>
<path d="M134.18 344.929H123.761V359.042H134.18V344.929Z" fill="#86CF25"/>
</svg>
