<svg viewBox="0 0 278 395" fill="none" xmlns="http://www.w3.org/2000/svg">
<path d="M98.1378 341.661L219.826 383.663L249.725 104.872H62.2947L32.9365 221.647C20.1707 272.434 48.4676 324.518 98.1378 341.661Z" fill="#916851"/>
<path d="M176.248 269.598H132.511V366.479H176.248V269.598Z" fill="#EFD0AB"/>
<path d="M51.7993 132.153C51.7993 135.995 52.0851 139.832 52.6565 143.817L62.2232 211.365C68.652 256.658 107.638 290.363 153.548 290.363H155.191C201.177 290.363 240.092 256.658 246.515 211.365L256.082 143.817C256.654 139.904 256.939 135.995 256.939 132.153C257.154 125.469 256.511 118.928 255.154 112.602C246.801 71.2175 209.953 39.0786 164.757 39.0786H143.981C98.7092 39.0786 62.0089 71.2175 53.5851 112.602C52.2994 118.857 51.6565 125.398 51.7993 132.153Z" fill="#EFD0AB"/>
<path d="M154.39 336.411V394.704H201.524L203.825 386.821L204.004 386.469L204.269 385.76L209.407 394.71H239.265C237.316 388.862 235.454 383.102 233.683 377.612C230.408 368.045 227.484 359.361 225.265 352.718C224.821 351.392 224.29 350.06 223.581 348.907C222.606 346.958 221.367 345.095 219.862 343.504C216.673 339.784 212.331 336.947 207.458 335.355L199.218 332.784L188.498 329.416L176.273 325.518L169.717 323.482L154.39 336.411Z" fill="#EFD0AB"/>
<path d="M72.2644 394.71H100.612L104.51 385.76L104.863 386.821L106.46 392.138L107.169 394.71H154.39V336.417L139.063 323.482L132.506 325.518L122.496 328.707L112.664 331.809L101.322 335.355C98.3113 336.33 95.4744 337.748 92.9948 339.605C88.6528 342.881 85.2853 347.402 83.5148 352.718C79.9739 362.989 76.4278 378.76 72.2644 394.71Z" fill="#EFD0AB"/>
<path d="M153.568 290.339H155.186C201.141 290.339 240.087 256.654 246.526 211.347L256.118 143.839C263.975 88.5361 220.867 39.1006 164.778 39.1006H143.971C87.8823 39.1006 44.7736 88.531 52.6311 143.839L62.2233 211.347C68.6674 256.654 107.613 290.339 153.568 290.339Z" fill="#FFE7C7"/>
<path d="M60.7844 170.25C60.7844 170.25 48.5391 151.091 39.9163 152.096C31.2936 153.101 31.9313 174.505 33.4875 187.745C35.0437 200.985 46.9829 222.864 53.7587 222.073C60.5344 221.282 64.009 202.98 64.009 202.98L60.7844 170.25Z" fill="#FFDDCA"/>
<path d="M247.97 170.25C247.97 170.25 260.215 151.091 268.838 152.096C277.466 153.101 276.823 174.505 275.267 187.745C273.71 200.985 261.771 222.864 254.995 222.073C248.22 221.282 244.745 202.98 244.745 202.98L247.97 170.25Z" fill="#FFDDCA"/>
<path d="M117.113 167.829L106.067 170.992C99.3726 172.905 92.2448 172.645 85.7139 170.237L79.178 167.829V167.64C79.178 157.436 87.4844 149.16 97.7348 149.16H98.5562C108.807 149.16 117.113 157.436 117.113 167.64V167.829Z" fill="#442700"/>
<path d="M181.166 167.829L192.213 170.992C198.907 172.905 206.035 172.645 212.565 170.237L219.101 167.829V167.64C219.101 157.436 210.795 149.16 200.545 149.16H199.723C189.478 149.16 181.166 157.436 181.166 167.64V167.829Z" fill="#442700"/>
<path d="M149.369 213.157H159.385C164.752 213.157 169.105 208.825 169.105 203.478V203.381H139.65V203.478C139.65 208.825 144.002 213.157 149.369 213.157Z" fill="#F4D1A6"/>
<path d="M153.931 37.3252V44.9684C153.931 95.3988 71.1725 132.864 49.8657 154.084L48.4626 102.185C48.4626 67.0049 79.632 37.3303 114.96 37.3303H153.931V37.3252Z" fill="#A27A61"/>
<path d="M237.235 133.904L215.815 392.439C215.815 392.439 269.792 352.57 274.578 320.855C283.971 258.567 267.613 162.961 256.944 132.154C236.01 71.6978 237.235 133.904 237.235 133.904Z" fill="#A27A61"/>
<path d="M155.119 244.306H181.207L166.742 233.546C162.176 230.153 155.216 233.03 155.124 238.704C155.124 238.75 155.124 238.791 155.124 238.837L155.119 244.306Z" fill="#DD6446"/>
<path d="M155.119 257.75H155.272C164.732 257.75 173.686 253.51 179.661 246.199L181.207 244.306H155.119V257.75Z" fill="#F48E75"/>
<path d="M155.119 244.306H129.037L143.502 233.546C148.068 230.153 155.028 233.03 155.119 238.704C155.119 238.75 155.119 238.791 155.119 238.837V244.306Z" fill="#DD6446"/>
<path d="M155.119 257.75H154.966C145.507 257.75 136.552 253.51 130.578 246.199L129.032 244.306H155.114L155.119 257.75Z" fill="#F48E75"/>
<path d="M153.931 37.3252L125.368 55.877C125.368 106.307 213.014 116.027 234.321 137.247L265.052 215.383C260.889 214.495 256.868 101.021 256.868 101.021C256.868 65.8416 228.229 37.3252 192.901 37.3252H153.931Z" fill="#A27A61"/>
<path d="M135.435 0.58252H166.676C215.31 0.58252 254.74 39.8441 254.74 88.2795V107.239H47.3707V88.2795C47.3707 39.8492 86.8007 0.58252 135.435 0.58252Z" fill="#FC5660"/>
<path d="M110.444 107.24H191.667V95.4287C191.667 73.3156 173.666 55.3916 151.461 55.3916H150.65C128.445 55.3916 110.444 73.3156 110.444 95.4287V107.24Z" fill="#A27A61"/>
<path d="M46.4778 103.688L0.0628662 112.873C0.0628662 112.873 0.659817 122.944 13.1552 123.24C25.6505 123.536 51.83 108.133 51.83 108.133L46.4778 103.688Z" fill="#00050A"/>
<path d="M258.868 86.0449H46.3553V109.893H258.868V86.0449Z" fill="#FC7089"/>
<path d="M106.194 394.709H204.8L204.269 387.8C204.269 387.8 204.182 387.356 204.004 386.474C203.647 384.877 203.116 381.78 202.407 377.616C200.723 366.897 198.509 349.268 199.218 332.788C199.218 332.701 199.218 332.701 199.218 332.61L188.85 326.497L188.498 329.421L184.156 364.417L176.273 365.034L168.033 365.743L159.793 366.453L155.543 366.81L154.39 366.723L151.288 366.458L132.506 364.861L127.011 364.417L125.327 351.039L122.491 328.712L122.225 326.497L112.659 330.482V331.809C112.837 336.681 112.745 341.641 112.393 346.605C111.24 367.866 106.898 387.8 106.898 387.8L106.454 392.142L106.194 394.709Z" fill="#F99AC2"/>
</svg>
