<svg viewBox="0 0 274 383" fill="none" xmlns="http://www.w3.org/2000/svg">
<path d="M141.981 341.599C141.981 343.65 143.588 363.192 145.282 382.289H170.977C178.564 368.457 185.075 354.717 184.539 349.186C183.559 338.033 187.661 327.502 188.998 324.558C189.177 324.022 189.355 323.757 189.355 323.757C189.355 323.757 195.335 341.604 196.493 348.472C197.208 352.309 203.009 368.636 208.805 382.289H222.28C221.744 368.192 220.494 349.365 221.479 335.354C221.479 335.262 221.479 335.175 221.479 335.175C221.479 335.089 221.571 334.997 221.571 334.997C221.571 334.461 221.571 333.925 221.663 333.39C224.071 308.675 228.887 307.246 228.887 307.246C228.887 307.246 240.842 307.246 236.117 342.936C235.224 350.166 234.689 356.855 234.51 362.921C234.331 370.325 234.597 376.84 235.132 382.284H235.847C236.204 379.07 236.918 375.412 237.99 371.218C240.041 362.829 243.521 352.125 249.235 338.829C272.078 285.291 262.44 292.164 254.052 270.214C249.858 259.152 249.858 236.575 251.465 210.431C252.715 187.675 255.215 162.159 256.996 139.138C257.174 136.102 257.439 133.158 257.618 130.214C259.582 103.177 248.965 78.105 238.52 60.5278C238.52 60.5278 238.52 60.4411 238.434 60.3493C229.331 45.0018 220.499 35.4556 220.499 35.4556C220.499 35.4556 218.448 43.216 215.055 56.3338C211.576 69.717 206.667 88.8146 200.958 110.764C198.815 119.066 196.585 127.806 194.177 136.821C192.662 142.98 190.963 149.225 189.36 155.562C178.921 196.068 167.676 239.703 158.757 274.505C158.492 275.306 158.313 276.112 158.135 276.913C156.977 281.199 155.992 285.388 154.92 289.317C153.405 295.205 152.063 300.735 150.726 305.822C150.548 306.623 150.369 307.43 150.104 308.231C147.517 318.762 145.374 327.236 143.946 333.038C142.696 338.211 141.981 341.242 141.981 341.599Z" fill="#A27A61"/>
<path d="M24.0179 351.059C28.569 358.733 31.7783 366.049 34.0131 372.651C35.0846 376.044 35.9775 379.254 36.5999 382.289H41.9522C42.3961 374.702 42.3093 365.605 41.3297 355.345C41.1511 353.115 40.8858 350.794 40.5287 348.472C35.7989 312.782 47.7585 312.782 47.7585 312.782C47.7585 312.782 51.2382 313.762 53.825 329.201V329.466C53.9118 329.823 53.9118 330.18 54.0036 330.624C54.3608 333.033 54.7179 335.711 54.9832 338.834C55.1618 340.528 55.2486 342.314 55.3404 344.186C56.2333 355.875 56.4119 370.243 56.4119 382.284H68.1011C73.8104 369.973 79.5198 357.212 80.1474 353.911C81.3056 347.043 87.2854 329.196 87.2854 329.196C87.2854 329.196 93.2652 341.599 92.1019 354.625C91.658 359.442 96.4745 370.417 102.811 382.284H131.899C133.328 365.151 134.665 348.911 134.665 347.038C134.665 346.503 133.506 341.686 131.542 333.563C129.848 327.048 127.705 318.394 125.118 308.221C124.94 307.419 124.761 306.613 124.496 305.812C123.246 300.639 121.817 295.195 120.302 289.307C119.322 285.47 118.338 281.454 117.266 277.26C116.373 274.046 115.572 270.658 114.679 267.265C113.786 263.693 112.807 260.035 111.914 256.29C109.949 248.795 107.898 241.034 105.847 233.09C105.669 232.197 105.398 231.483 105.22 230.59V230.504C105.133 230.233 105.041 229.968 104.954 229.702C98.7093 205.431 92.107 179.823 85.8568 155.552C84.2496 149.215 82.5557 142.97 80.9485 136.811C78.8055 128.245 76.5759 119.857 74.5248 111.918C68.2797 87.8249 63.106 67.5691 59.8049 54.9922C57.4833 46.0684 56.1466 40.9814 56.1466 40.9814C56.1466 40.9814 42.942 55.1707 32.2324 76.7633C32.2324 76.8552 32.2324 76.8552 32.2324 76.9419C24.1148 93.269 17.4207 113.795 19.0279 135.653C19.1146 136.99 19.2065 138.332 19.2932 139.669C20.9004 162.154 23.4005 187.497 24.9159 210.426C26.7884 238.892 27.1455 263.872 22.5943 275.74C14.2063 297.7 15.2778 336.339 24.0179 351.059Z" fill="#A27A61"/>
<path d="M135.762 278.981H137.68C191.361 278.981 236.097 238.051 240.638 184.789L244.663 137.547C249.781 77.4992 202.223 25.9463 141.706 25.9463H131.731C71.2134 25.9463 23.6505 77.5043 28.7731 137.547L32.8038 184.789C37.3448 238.051 82.0811 278.981 135.762 278.981Z" fill="#FFE7C7"/>
<path d="M42.3297 159.625C42.3297 159.625 27.9465 139.037 15.3644 139.037C2.78235 139.037 0.0832825 160.523 0.0832825 173.947C0.0832825 187.376 13.5684 210.647 23.4566 210.647C33.3447 210.647 41.4368 192.743 41.4368 192.743L42.3297 159.625Z" fill="#FFE7C7"/>
<path d="M231.112 159.625C231.112 159.625 245.495 139.037 258.082 139.037C270.669 139.037 273.363 160.523 273.363 173.947C273.363 187.376 259.878 210.647 249.99 210.647C240.102 210.647 232.01 192.743 232.01 192.743L231.112 159.625Z" fill="#FFE7C7"/>
<path d="M222.739 338.947C221.663 334.936 219.933 331.14 217.78 327.63C219.861 331.069 221.586 334.936 222.739 338.947Z" fill="white"/>
<path d="M217.78 327.559C216.412 325.268 214.831 323.12 212.958 321.187C214.683 323.12 216.264 325.268 217.78 327.559Z" fill="white"/>
<path d="M210.081 318.323C208.137 316.46 205.983 314.884 203.754 313.598C205.983 314.955 208.142 316.532 210.081 318.323Z" fill="white"/>
<path d="M49.9269 342.316C50.2841 340.167 50.9321 338.019 51.6515 335.943C50.9321 337.948 50.2892 340.096 49.9269 342.316Z" fill="white"/>
<path d="M49.8963 342.315C49.5392 343.743 52.3045 344.009 55.3404 344.187C57.4833 344.279 59.713 344.366 60.963 344.902C61.5855 345.167 62.0345 345.616 62.0345 346.152C62.0345 347.31 67.8357 367.03 68.101 368.458L66.851 382.291H195.963C193.641 359.713 191.233 338.478 189.003 324.559C187.396 314.656 185.881 308.497 184.631 308.232H88.0864C87.464 308.232 86.7497 308.232 86.1221 308.319C79.6065 308.854 73.6318 311.084 68.3663 314.477C66.5806 315.635 64.8866 316.885 63.2794 318.314C60.1569 321.079 57.4782 324.38 55.4271 328.039C54.8914 328.84 54.3556 329.733 53.9985 330.625C53.1056 332.319 52.3046 334.105 51.677 335.978C50.9678 338.034 50.2535 340.177 49.8963 342.315Z" fill="#010C2B"/>
<path d="M48.2891 349.008C48.2023 350.702 48.2023 352.401 48.2891 354.095V354.631C48.3758 355.789 48.3758 356.861 48.5544 358.024L52.3045 382.295H216.04C218.984 357.131 221.305 336.789 221.035 335.988C220.234 333.666 219.249 331.436 217.999 329.385C215.769 325.191 212.826 321.446 209.346 318.324C207.83 316.895 206.131 315.645 204.351 314.487C198.641 310.742 191.861 308.42 184.631 308.242H88.0864C87.4639 308.242 86.7496 308.242 86.122 308.328C79.8769 308.599 74.0757 310.558 68.902 313.594C66.6724 314.931 64.5294 316.538 62.5651 318.324C61.5854 319.217 60.6926 320.196 59.7078 321.181C58.1006 323.054 56.4934 325.11 55.0699 327.339C54.9832 327.431 54.9832 327.518 54.8913 327.61C54.5342 328.232 54.177 328.86 53.8199 329.482C52.2127 332.426 50.8759 335.641 49.8911 338.942C49.0034 342.136 48.4676 345.529 48.2891 349.008Z" fill="#010C2B"/>
<path d="M34.0131 372.652C32.763 375.774 31.513 378.989 30.4415 382.29H62.3865C64.259 369.887 63.8152 357.218 60.9579 344.906C59.6211 339.197 57.7435 333.482 55.4271 328.043C55.3353 327.865 55.2485 327.686 55.1567 327.507L55.0648 327.329L54.9781 326.972C54.9781 326.972 54.5342 327.773 53.8199 329.201C51.677 333.395 46.7686 343.12 41.3297 355.345C38.9214 360.697 36.4213 366.499 34.0131 372.652Z" fill="#FFDAB6"/>
<path d="M210.596 382.29H242.27C240.842 378.54 239.413 374.795 237.985 371.224C236.826 368.366 235.663 365.601 234.505 362.928C229.418 351.147 224.601 341.065 221.566 334.998C221.387 334.819 221.3 334.554 221.122 334.284C221.122 334.197 221.03 334.197 221.03 334.105V334.018C220.938 333.84 220.851 333.661 220.759 333.574C220.494 333.039 220.224 332.503 220.045 332.059C219.331 330.63 218.795 329.651 218.53 329.115C218.438 328.936 218.351 328.85 218.351 328.758C218.259 328.666 218.259 328.666 218.259 328.666L218.081 329.202C218.081 329.294 217.989 329.294 217.989 329.38C210.596 346.243 208.188 364.535 210.596 382.29Z" fill="#FFDAB6"/>
<path d="M136.501 334.187H136.94C148.981 334.187 158.742 324.467 158.742 312.472V258.092H114.694V312.472C114.694 324.467 124.46 334.187 136.501 334.187Z" fill="#FFE7C7"/>
<path d="M175.258 155.599H213.463V155.41C213.463 145.129 205.096 136.797 194.774 136.797H193.947C183.626 136.797 175.258 145.129 175.258 155.41V155.599Z" fill="#002047"/>
<path d="M100.194 155.599H61.9885V155.41C61.9885 145.129 70.3562 136.797 80.678 136.797H81.5045C91.8263 136.797 100.194 145.129 100.194 155.41V155.599Z" fill="#002047"/>
<path d="M129.312 201.254H139.399C144.808 201.254 149.191 196.892 149.191 191.504V191.407H119.526V191.504C119.521 196.887 123.904 201.254 129.312 201.254Z" fill="#F4D1A6"/>
<g opacity="0.75">
<path d="M104.99 230.407C104.99 230.407 105.909 230.948 107.516 231.596C109.123 232.121 111.414 233.228 114.169 233.912C116.924 234.698 120.134 235.356 123.578 235.78C127.016 236.3 130.69 236.377 134.359 236.504C138.027 236.377 141.701 236.285 145.14 235.764C148.578 235.331 151.793 234.678 154.543 233.892C157.298 233.203 159.589 232.111 161.196 231.586C162.803 230.943 163.722 230.402 163.722 230.402V229.682C163.722 229.682 149.038 229.504 134.359 229.325C119.674 229.504 104.995 229.682 104.995 229.682L104.99 230.407Z" fill="#F4D1A6"/>
</g>
<path d="M136.777 0.623219V47.1708C136.777 47.1708 138.399 65.0745 143.792 80.2944C149.186 95.5144 147.39 117.893 147.39 117.893C147.39 117.893 166.268 91.0346 163.569 74.0289C160.87 57.0181 159.972 47.1759 159.972 47.1759C159.972 47.1759 180.646 80.2995 172.559 94.6215C164.467 108.943 164.467 123.265 164.467 123.265C164.467 123.265 182.447 119.684 186.942 99.0961C191.437 78.5086 189.641 63.2887 189.641 63.2887C189.641 63.2887 195.932 107.153 194.136 112.525C192.34 117.898 221.106 100.887 216.611 85.6722C212.116 70.4523 212.116 122.373 213.917 140.276C215.713 158.18 223.806 187.722 223.806 187.722C223.806 187.722 221.112 155.496 227.403 134.011C233.694 112.525 232.796 200.253 219.31 223.529C205.825 246.805 207.626 246.805 207.626 260.229C207.626 273.658 216.617 281.715 216.617 281.715C216.617 281.715 211.223 265.602 219.316 252.173C227.408 238.744 235.877 228.631 239.092 215.473C255.271 149.231 240.888 83.8813 240.888 70.4523C240.878 57.0181 213.188 -4.74942 136.777 0.623219Z" fill="#C19781"/>
<path d="M136.777 0.623219V47.1708C136.777 47.1708 135.154 65.0745 129.761 80.2944C124.368 95.5144 126.164 117.893 126.164 117.893C126.164 117.893 107.286 91.0346 109.985 74.0289C112.679 57.0181 113.582 47.1759 113.582 47.1759C113.582 47.1759 92.908 80.2995 100.995 94.6215C109.087 108.943 109.087 123.265 109.087 123.265C109.087 123.265 91.1069 119.684 86.6119 99.0961C82.1168 78.5086 83.9179 63.2887 83.9179 63.2887C83.9179 63.2887 77.6269 107.153 79.4229 112.525C81.2188 117.898 52.4525 100.887 56.9476 85.6722C61.4426 70.4523 61.4426 122.373 59.6466 140.276C57.8507 158.18 49.7585 187.722 49.7585 187.722C49.7585 187.722 52.4576 155.496 46.1615 134.011C39.8704 112.525 40.7684 200.253 54.2536 223.529C67.7388 246.805 65.9377 246.805 65.9377 260.229C65.9377 273.658 56.9476 281.715 56.9476 281.715C56.9476 281.715 62.3406 265.602 54.2536 252.173C46.1615 238.744 37.6918 228.631 34.4774 215.473C18.2982 149.231 32.6814 83.8813 32.6814 70.4523C32.6763 57.0181 60.366 -4.74942 136.777 0.623219Z" fill="#C19781"/>
<path d="M112.817 231.468L136.129 233.585C136.129 233.585 120.623 239.274 121.822 245.239C123.021 251.208 120.537 256.367 113.348 256.367C106.158 256.367 103.439 251.601 101.694 248.422C93.01 232.6 112.817 231.468 112.817 231.468Z" fill="#E25C42"/>
<path d="M161.666 289.276H111.776V305.838H161.666V289.276Z" fill="#010C2B"/>
<path d="M104.24 298.451C104.24 298.451 109.199 301.584 111.434 301.584C113.669 301.584 115.48 300.079 115.48 298.227C115.48 296.374 113.669 294.869 111.434 294.869C109.199 294.874 104.24 298.451 104.24 298.451Z" fill="#CFFFF6"/>
<path d="M123.154 298.451C123.154 298.451 125.639 301.584 127.874 301.584C130.108 301.584 131.92 300.079 131.92 298.227C131.92 296.374 130.108 294.869 127.874 294.869C125.639 294.874 123.154 298.451 123.154 298.451Z" fill="#CFFFF6"/>
<path d="M168.513 298.675C168.513 298.675 163.553 301.808 161.319 301.808C159.084 301.808 157.273 300.303 157.273 298.45C157.273 296.598 159.084 295.093 161.319 295.093C163.558 295.093 168.513 298.675 168.513 298.675Z" fill="#CFFFF6"/>
<path d="M149.711 298.675C149.711 298.675 147.002 301.808 144.767 301.808C142.532 301.808 140.721 300.303 140.721 298.45C140.721 296.598 142.532 295.093 144.767 295.093C147.002 295.093 149.711 298.675 149.711 298.675Z" fill="#CFFFF6"/>
</svg>
