<svg viewBox="0 0 280 352" fill="none" xmlns="http://www.w3.org/2000/svg">
<path d="M140.165 300.835H140.614C152.9 300.835 162.86 290.916 162.86 278.681V252.425H117.914V278.681C117.919 290.916 127.879 300.835 140.165 300.835Z" fill="#F4D6B3"/>
<path d="M139.41 273.738H141.369C196.137 273.738 241.786 231.977 246.424 177.633L250.531 129.427C255.756 68.1595 207.224 15.5557 145.482 15.5557H135.303C73.5555 15.5557 25.0283 68.1595 30.2479 129.427L34.3602 177.633C38.9931 231.977 84.6427 273.738 139.41 273.738Z" fill="#FFE7C7"/>
<path d="M55.6011 133.681C64.5146 132.196 72.8414 131.267 81.0356 130.737C86.1735 134.711 90.8829 139.992 93.1789 146.921C96.1382 155.85 95.9188 166.886 94.7912 176.346C88.6124 178.611 80.6427 178.494 69.4433 177.927C62.4328 177.565 55.606 165.912 54.2386 158.355C53.6927 155.35 53.5091 152.253 53.3305 149.161C53.2387 147.615 53.1468 146.156 53.0549 144.61C52.8713 142.334 52.6008 140.605 52.4172 139.053C52.2335 137.686 52.055 136.048 52.1468 135.594C52.5091 135.227 54.4173 134.227 55.6011 133.681Z" fill="#CCEEF4"/>
<path d="M93.179 146.921C90.883 139.992 86.1787 134.711 81.0356 130.737C85.8981 130.425 90.7248 130.216 95.5719 130.216H98.9394C106.133 130.4 110.593 131.584 112.598 134.043C113.598 135.41 114.144 137.319 114.144 140.14C114.144 143.054 113.598 146.875 112.506 151.885L112.236 152.977C107.389 167.008 102.475 173.524 94.7913 176.34C95.9189 166.886 96.1382 155.855 93.179 146.921Z" fill="#B3DCE0"/>
<path d="M44.0851 151.952C44.0851 151.952 29.4111 130.946 16.5688 130.946C3.72654 130.946 0.97644 152.865 0.97644 166.57C0.97644 180.269 14.7372 204.02 24.8243 204.02C34.9165 204.02 43.1668 185.754 43.1668 185.754L44.0851 151.952Z" fill="#FFE7C7"/>
<path d="M236.699 151.952C236.699 151.952 251.373 130.946 264.215 130.946C277.058 130.946 279.808 152.865 279.808 166.57C279.808 180.269 266.047 204.02 255.96 204.02C245.873 204.02 237.617 185.754 237.617 185.754L236.699 151.952Z" fill="#FFE7C7"/>
<path d="M48.9679 351.709H230.781L229.597 325.126C229.597 323.85 225.224 319.57 223.132 316.11V316.018C222.586 315.197 222.132 314.473 221.586 313.743C221.04 313.013 220.494 312.289 219.857 311.559V311.467C219.311 310.738 218.765 310.1 218.219 309.462L216.581 307.824C216.127 307.37 215.765 306.916 215.306 306.549H215.214C214.305 305.641 213.3 304.819 212.208 303.998H212.117V303.911C211.025 303.181 209.933 302.452 208.841 301.727H208.749C202.922 298.268 196.366 296.263 189.177 296.263H91.5816C83.9334 296.263 76.7394 298.63 70.6422 302.635C68.8207 303.819 67.091 305.095 65.545 306.549C64.9072 307.095 64.2695 307.732 63.8154 308.37C62.448 309.554 61.3561 310.829 60.4479 312.192C57.4427 315.835 55.1672 320.11 53.6212 324.575C52.8916 326.667 52.2537 328.856 51.8915 331.039C51.6108 332.039 50.4271 340.509 48.9679 351.709Z" fill="#DD291B"/>
<path d="M228.158 327.615C227.056 323.523 225.296 319.65 223.097 316.068C225.224 319.574 226.984 323.523 228.158 327.615Z" fill="white"/>
<path d="M223.096 315.997C221.704 313.66 220.086 311.466 218.178 309.491C219.938 311.466 221.556 313.655 223.096 315.997Z" fill="white"/>
<path d="M215.244 306.57C213.265 304.672 211.061 303.065 208.785 301.749C211.061 303.136 213.26 304.744 215.244 306.57Z" fill="white"/>
<path d="M51.8306 331.05C52.1979 328.856 52.8561 326.667 53.5908 324.544C52.8612 326.59 52.1979 328.784 51.8306 331.05Z" fill="white"/>
<path d="M212.846 351.709H246.985C236.24 325.127 220.219 310.922 220.219 310.922L219.943 311.376L219.852 311.468V311.56C213.846 325.397 211.663 338.688 212.846 351.709Z" fill="#E2362D"/>
<path d="M34.947 351.709H69.1777C70.2696 338.688 68.0859 325.305 61.9836 311.376L61.8 310.922C61.8 310.922 61.3459 311.376 60.4326 312.197C56.3457 316.289 43.8708 329.764 34.947 351.709Z" fill="#E2362D"/>
<path d="M135.247 194.429H145.538C151.053 194.429 155.528 189.975 155.528 184.485V184.383H125.261V184.485C125.256 189.975 129.726 194.429 135.247 194.429Z" fill="#F4D1A6"/>
<path d="M129.455 231.298H151.324C163.048 231.298 172.549 226.843 172.549 221.353V221.251H108.23V221.353C108.23 226.849 117.73 231.298 129.455 231.298Z" fill="#F4D1A6"/>
<path d="M29.8498 118.548L36.4981 118.64C38.6818 118.277 41.2329 117.818 44.1463 117.272C55.9834 115.088 73.9178 111.716 90.0306 111.716C109.695 111.716 122.532 116.721 128.45 126.466C136.282 124.461 144.563 124.461 152.395 126.466C158.314 116.726 171.151 111.716 190.723 111.716C206.928 111.716 224.77 115.083 236.699 117.272C239.521 117.818 242.164 118.272 243.71 118.548H255.001V139.212H245.261C245.077 140.304 244.898 141.304 244.715 142.401C243.077 151.687 241.072 161.248 237.158 169.259C231.607 180.637 222.137 189.014 204.382 189.652H204.198C191.907 189.56 180.07 188.744 169.6 179.091C163.227 173.264 151.844 154.692 149.66 141.033C143.65 139.212 137.099 139.212 131.088 141.033C128.904 154.692 117.521 173.264 111.149 179.091C100.771 188.739 88.8418 189.56 76.6424 189.652H76.4587C58.5244 189.014 49.1464 180.55 43.5952 169.075C39.7737 161.156 37.7686 151.687 36.1308 142.492C35.9471 141.401 35.7685 140.309 35.5849 139.217H25.8447V118.553L29.8498 118.548ZM168.324 151.87L168.6 153.054C169.146 154.6 169.692 156.059 170.238 157.427C170.783 158.794 171.329 160.065 171.875 161.248C172.421 162.432 172.967 163.524 173.513 164.524C174.059 165.524 174.605 166.437 175.151 167.254C175.697 168.254 176.335 169.075 177.064 169.891C177.702 170.621 178.34 171.346 178.978 171.983C180.345 173.259 181.707 174.351 183.258 175.08C183.988 175.534 184.804 175.902 185.534 176.172C187.993 177.172 190.723 177.718 193.82 177.994C194.55 178.086 195.187 178.177 196.004 178.177C200.009 178.361 204.56 178.269 209.933 177.994C210.387 177.994 210.841 177.902 211.387 177.902C218.397 177.54 225.132 165.886 226.5 158.33C227.138 155.325 227.229 152.141 227.5 149.044C227.592 147.498 227.592 146.039 227.775 144.584C227.959 142.309 228.138 140.579 228.321 139.033C228.505 137.666 228.775 136.028 228.683 135.666C228.321 135.212 226.316 134.211 225.224 133.66C214.846 131.931 205.376 130.931 196.09 130.477C192.447 130.293 188.896 130.201 185.258 130.201H181.891C174.61 130.385 170.146 131.569 168.232 134.023C166.049 136.758 166.14 141.946 168.324 151.87ZM52.4273 139.033C52.6109 140.579 52.8814 142.309 53.065 144.584C53.1569 146.13 53.2488 147.59 53.3355 149.136C53.5192 152.233 53.6976 155.325 54.2436 158.33C55.611 165.886 62.4378 177.54 69.4483 177.902C74.9127 178.177 79.6476 178.356 83.6528 178.177C84.7447 178.177 85.8366 178.086 86.8417 177.994C87.5713 177.902 88.301 177.81 89.0255 177.723C90.7552 177.448 92.3929 177.177 93.944 176.631C94.0358 176.631 94.0359 176.631 94.1277 176.54C94.3114 176.54 94.5818 176.448 94.7655 176.264C95.041 176.264 95.2196 176.172 95.4952 175.994C95.587 175.994 95.6788 175.902 95.7706 175.902C96.4084 175.718 96.9543 175.356 97.5002 175.08C98.3217 174.626 99.1382 174.172 99.9596 173.534C100.597 173.08 101.235 172.534 101.781 171.988C102.327 171.443 102.873 170.896 103.419 170.259C104.24 169.351 104.965 168.254 105.694 167.162C106.516 165.886 107.332 164.524 108.062 163.065C108.516 162.156 108.97 161.151 109.429 160.151C110.429 157.968 111.343 155.6 112.251 152.957L112.521 151.865C113.613 146.86 114.159 143.033 114.159 140.12C114.159 137.298 113.613 135.385 112.613 134.018C110.608 131.558 106.149 130.375 98.9595 130.196H95.592C93.1327 130.196 90.7653 130.196 88.3111 130.38C85.8519 130.472 83.4844 130.563 81.0251 130.742C79.1118 130.834 77.1117 130.926 75.1984 131.196C73.0146 131.288 70.8259 131.558 68.5503 131.834C66.8206 132.018 65.091 132.201 63.3613 132.472C60.8153 132.834 58.2642 133.201 55.6213 133.655C54.4376 134.201 52.5242 135.201 52.1619 135.569C52.065 136.028 52.2487 137.666 52.4273 139.033Z" fill="#442700"/>
<path d="M208.494 146.922C206.152 139.855 201.305 134.498 196.045 130.498C205.417 130.947 214.882 131.973 225.209 133.682C226.301 134.228 228.306 135.228 228.668 135.687C228.76 136.049 228.485 137.687 228.306 139.054C228.122 140.6 227.944 142.33 227.76 144.611C227.576 146.07 227.576 147.524 227.49 149.07C227.214 152.167 227.127 155.351 226.49 158.356C225.122 165.913 218.387 177.566 211.377 177.928C210.861 177.954 210.397 177.974 209.897 177.995C211.198 168.193 211.632 156.382 208.494 146.922Z" fill="#B3DCE0"/>
<path d="M168.222 134.043C170.135 131.584 174.595 130.4 181.876 130.216H185.243C188.855 130.216 192.447 130.323 196.044 130.492C201.305 134.492 206.152 139.849 208.494 146.916C211.627 156.375 211.193 168.182 209.892 177.988C185.922 179.142 177.146 177.769 168.584 153.064L168.314 151.88C166.125 141.962 166.038 136.773 168.222 134.043Z" fill="#CCEEF4"/>
<path d="M152.727 287.248L139.777 302.054L171.457 297.085C186.651 297.748 201.733 316.147 215.045 308.83L215.504 308.58C222.076 304.968 219.438 295.003 211.928 295.095L182.626 274.655C171.186 274.788 160.247 278.65 152.727 287.248Z" fill="#E2362D"/>
<path d="M126.828 287.248L139.777 302.054L108.097 297.085C92.9031 297.748 77.8209 316.147 64.5092 308.83L64.05 308.58C57.4784 304.968 60.1163 295.003 67.6268 295.095L97.1329 274.655C108.572 274.788 119.312 278.65 126.828 287.248Z" fill="#E2362D"/>
<path d="M86.8061 29.8666C88.1327 43.7497 94.7093 75.8682 125.716 82.8429C163.625 91.3687 259.016 112.074 259.016 112.074C259.016 112.074 258.634 24.4429 219.882 12.2078C107.98 -23.1098 86.8061 29.8666 86.8061 29.8666Z" fill="#A27A61"/>
<path d="M21.7627 115.721C21.7627 115.721 63.3459 119.374 70.6829 93.8018C78.0199 68.2294 85.9691 29.8658 85.9691 29.8658C85.9691 29.8658 64.5652 18.294 49.8912 38.9988C35.2173 59.7036 21.7627 115.721 21.7627 115.721Z" fill="#A27A61"/>
<path d="M201.397 154.019H201.54C205.382 154.019 208.494 150.901 208.494 147.064V146.921C208.494 143.08 205.382 139.967 201.54 139.967H201.397C197.555 139.967 194.442 143.08 194.442 146.921V147.064C194.442 150.906 197.555 154.019 201.397 154.019Z" fill="#687986"/>
<path d="M83.5558 154.019H83.6987C87.5407 154.019 90.6581 150.901 90.6581 147.064V146.921C90.6581 143.08 87.5407 139.967 83.6987 139.967H83.5558C79.7138 139.967 76.6016 143.08 76.6016 146.921V147.064C76.5965 150.906 79.7138 154.019 83.5558 154.019Z" fill="#687986"/>
<path d="M219.249 136.818L207.3 137.956C207.3 137.956 216.974 144.217 215.265 155.594C213.555 166.972 216.974 167.544 216.974 167.544C216.974 167.544 222.096 158.441 222.096 153.319C222.096 148.201 219.249 136.818 219.249 136.818Z" fill="#FBFBFB"/>
<path d="M103.174 133.405L91.2245 134.543C91.2245 134.543 100.898 140.803 99.1891 152.181C97.4798 163.559 100.893 164.131 100.893 164.131C100.893 164.131 106.016 155.029 106.016 149.906C106.016 144.788 103.174 133.405 103.174 133.405Z" fill="#FBFBFB"/>
<path d="M119.623 297.81H115.251V351.705H119.623V297.81Z" fill="#F48E75"/>
<path d="M166.054 297.81H161.773V351.705H166.054V297.81Z" fill="#F48E75"/>
</svg>
