<svg viewBox="0 0 328 411" fill="none" xmlns="http://www.w3.org/2000/svg">
<path d="M220.23 38.0011C220.419 37.6338 220.633 37.2817 220.832 36.9194C221.021 37.4143 221.23 37.95 221.459 38.5419C221.046 38.3582 220.643 38.1542 220.23 38.0011Z" fill="#76C531"/>
<path d="M272.395 78.3496C276.559 83.1559 279.452 101.1 281.222 126.744C280.707 124.923 280.191 123.086 279.676 121.3C277.395 105.218 274.946 90.3296 272.395 78.3496Z" fill="#76C531"/>
<path d="M265.706 55.1801C257.303 36.057 249.466 26.9086 240.374 25.6739C239.935 25.6126 239.562 25.6994 239.139 25.679C238.435 24.0157 237.297 22.7248 235.97 21.6585C239.144 20.0054 242.7 18.7297 246.762 18.0205C256.221 16.296 285.166 11.2244 327.213 212.946C328.581 219.487 324.387 225.895 317.846 227.252C317.009 227.426 316.177 227.508 315.366 227.508C309.754 227.508 304.723 223.589 303.534 217.885C302.269 211.813 300.922 205.67 299.549 199.507C299.503 142.658 296.508 81.2678 284.452 67.604C278.278 60.6191 271.997 56.471 265.706 55.1801Z" fill="#76C531"/>
<path d="M79.6281 25.9243C79.1638 27.1131 75.4442 36.6645 70.3471 50.2211C67.8521 48.4965 64.4795 47.2874 60.4029 47.8588C53.7904 48.7568 47.8463 53.8947 41.8665 63.9257C61.8111 14.5872 75.5821 16.9597 81.5721 18.0261C83.6742 18.3934 85.6232 18.9343 87.4855 19.5721C84.0619 20.2558 81.0006 22.4242 79.6281 25.9243Z" fill="#76C531"/>
<path d="M104.042 43.1185C103.853 43.4756 103.149 44.8482 102.18 46.736C99.2309 47.3126 96.2562 48.1901 93.3123 49.3943C96.894 39.9603 99.2717 33.858 99.3635 33.6233C100.292 31.2405 100.159 28.7711 99.4196 26.521C103.292 30.0007 106.241 34.2508 108.496 38.8479C106.685 39.8224 105.058 41.1592 104.042 43.1185Z" fill="#76C531"/>
<path d="M10.4878 227.262C3.94673 225.905 -0.247294 219.497 1.1201 212.956C10.4112 168.393 19.0544 133.953 26.9985 107.309C20.6565 140.121 15.0288 189.562 11.2582 227.344C10.998 227.303 10.748 227.313 10.4878 227.262Z" fill="#76C531"/>
<path d="M46.8564 116.102C48.9534 104.438 51.0708 95.0091 53.1474 89.1262C54.6271 87.6364 56.0659 86.3507 57.4027 85.4629C53.7393 95.7337 50.0912 106.249 46.8564 116.102Z" fill="#76C531"/>
<path d="M34.7132 207.037C35.9684 218.154 38.0245 228.461 40.3971 237.512C40.6471 258.661 41.2389 280.539 42.1522 302.045C42.091 306.193 42.0451 310.086 42.0145 313.678C40.9175 316.602 38.1623 318.755 34.8407 318.908C34.7183 318.908 34.5856 318.918 34.4581 318.918C30.1824 318.918 26.6058 315.545 26.4068 311.224C26.1619 305.938 25.7894 297.356 25.4169 286.565C26.5445 285.034 27.417 283.294 27.5803 281.259C28.9732 264.278 31.5192 236.507 34.7132 207.037Z" fill="#78C62B"/>
<path d="M53.1475 89.1246C53.4689 88.2164 53.7904 87.3797 54.1118 86.6399C58.061 77.5273 61.0049 72.869 62.806 70.5322C61.0355 75.3691 59.2242 80.3744 57.4079 85.4613C56.0711 86.3491 54.6322 87.6348 53.1475 89.1246Z" fill="#78C62B"/>
<path d="M284.615 268.77C290.442 268.29 294.784 263.178 294.299 257.351C293.921 252.734 292.717 238.386 290.896 219.304C290.891 219.079 290.988 218.88 290.967 218.651C290.625 214.865 289.217 199.701 287.039 181.323C285.493 167.032 283.758 152.036 281.87 137.474C281.676 133.775 281.462 130.178 281.222 126.744C279.457 101.101 276.559 83.1561 272.395 78.3498C270.349 68.727 268.237 60.9717 266.099 56.0378C265.966 55.7317 265.839 55.4817 265.706 55.1807C271.997 56.4664 278.278 60.6144 284.452 67.6147C296.503 81.2733 299.498 142.668 299.549 199.517C299.585 242.881 297.906 283.602 297.217 298.455C297.018 302.781 293.447 306.149 289.166 306.149C289.044 306.149 288.911 306.138 288.784 306.138C284.334 305.929 280.89 302.154 281.1 297.71C281.549 288.051 281.931 278.291 282.248 268.525C282.753 268.596 283.212 268.811 283.737 268.811C284.023 268.806 284.324 268.79 284.615 268.77Z" fill="#78C62B"/>
<path d="M251.195 253.191C250.848 243.778 250.369 234.073 249.716 224.4C249.716 223.864 249.716 223.328 249.716 222.798C251.277 226.19 253.323 229.083 255.869 229.379C259.609 229.813 264.981 223.042 269.155 214.802C270.721 230.721 272.007 244.941 272.91 255.676C272.793 256.008 272.676 256.329 272.558 256.656C273.89 296.387 272.936 329.561 272.864 332C272.691 337.735 267.982 342.271 262.287 342.271C262.18 342.271 262.063 342.261 261.956 342.261C256.114 342.087 251.522 337.194 251.695 331.352C251.711 330.888 252.308 310.178 251.92 282.024C251.185 281.825 250.455 281.575 249.751 281.208C248.879 280.749 248.236 280.06 247.547 279.417C248.006 272.845 248.42 266.11 248.756 259.284C249.506 257.513 250.313 255.518 251.195 253.191Z" fill="#86CF25"/>
<path d="M239.139 25.6846C233.873 25.4141 229.751 27.8785 227.608 30.5419C225.087 33.6797 224.786 37.7666 226.23 41.231C228.521 42.8484 230.659 44.8127 232.654 46.9607C229.766 46.3179 226.898 45.92 224.184 45.92C223.174 45.92 222.296 46.1138 221.347 46.2006C220.98 43.5576 220.49 40.7362 219.934 37.8738C220.036 37.9095 220.133 37.9605 220.235 38.0013C220.653 38.1544 221.056 38.3635 221.465 38.5421C221.235 37.9502 221.031 37.4145 220.837 36.9196C220.067 34.9196 219.602 33.7257 219.561 33.6288C217.434 28.1796 220.128 22.0364 225.577 19.9087C229.23 18.475 233.113 19.368 235.97 21.664C237.292 22.7304 238.429 24.0161 239.139 25.6846Z" fill="#86CF25"/>
<path d="M237.409 47.6505C237.613 47.8954 237.843 48.1811 238.083 48.5025C237.042 48.1351 236.006 47.8138 234.965 47.5229C235.782 47.5893 236.593 47.778 237.409 47.6505Z" fill="#86CF25"/>
<path d="M99.3634 33.6232C99.2716 33.8579 96.8939 39.9601 93.3122 49.3941C92.1132 49.884 90.9141 50.3635 89.7457 50.9503C83.4547 54.1086 78.3371 58.3945 74.6482 63.0732C75.9391 59.6751 75.6075 55.7515 73.1686 52.7157C72.4543 51.8279 71.4593 50.9911 70.347 50.2206C75.4442 36.6691 79.1688 27.1127 79.628 25.9239C81.0005 22.4289 84.0619 20.2553 87.4906 19.5716C89.4039 19.189 91.3988 19.1482 93.3478 19.9033C96.4194 21.1023 98.4705 23.6126 99.4246 26.5209C100.159 28.7761 100.292 31.2455 99.3634 33.6232Z" fill="#86CF25"/>
<path d="M230.327 363.196C230.052 362.384 229.827 361.737 229.562 360.956C228.797 358.701 228.026 356.435 227.358 354.502C226.873 353.058 226.133 351.746 225.414 350.43C225.057 349.782 224.756 349.114 224.342 348.501C223.924 347.874 223.388 347.343 222.919 346.756C225.098 329.103 228.817 295.591 230.547 259.988C239.435 248.36 245.568 234.451 247.751 219.104L247.899 218.063C248.405 219.629 248.996 221.247 249.711 222.798C249.711 223.334 249.711 223.864 249.711 224.4C249.675 235.941 249.323 247.717 248.751 259.284C248.415 266.111 248.001 272.846 247.542 279.417C244.654 320.857 239.884 355.282 239.501 358.022C238.879 362.435 235.577 365.681 231.501 366.691C231.261 365.987 231.011 365.232 230.776 364.548C230.639 364.119 230.47 363.619 230.327 363.196Z" fill="#7AC724"/>
<path d="M194.229 57.3636C194.081 57.1646 194.015 56.9045 193.851 56.7157C194.428 52.6901 195.03 48.9603 195.642 45.4448C196.862 45.5775 198.02 45.8632 199.112 46.3939C197.489 49.1542 195.851 52.8124 194.229 57.3636Z" fill="#7AC724"/>
<path d="M206.061 336.625C207.77 321.583 209.847 300.976 211.327 278.561C218.643 273.398 225.108 267.122 230.557 259.995C228.827 295.598 225.108 329.109 222.929 346.763C221.368 344.809 219.567 343.094 217.51 341.661C216.919 341.247 216.393 340.768 215.771 340.401C214.072 339.411 212.265 338.579 210.357 337.982L206.061 336.625Z" fill="#6EBE23"/>
<path d="M194.127 57.6644C193.994 57.6236 193.862 57.5878 193.729 57.5521C193.77 57.2613 193.811 57.0011 193.857 56.7153C194.015 56.899 194.081 57.1642 194.234 57.3632C194.198 57.4602 194.163 57.5674 194.127 57.6644Z" fill="#6EBE23"/>
<path d="M192.474 288.703C199.188 286.081 205.51 282.662 211.327 278.555C209.847 300.969 207.775 321.577 206.061 336.618L205.781 336.532L203.5 335.812L201.382 335.144L197 333.761L192.775 332.429L190.494 331.71L188.596 331.113C189.892 319.113 191.3 304.52 192.474 288.703Z" fill="#62B522"/>
<path d="M188.591 331.114L181.973 329.028V317.236H180.412V292.388C184.54 291.424 188.581 290.225 192.474 288.705C191.3 304.521 189.892 319.114 188.591 331.114Z" fill="#56AD21"/>
<path d="M43.8563 249.284C42.6777 245.616 41.5042 241.748 40.3919 237.508C38.0193 228.457 35.9632 218.156 34.708 207.033C38.1979 174.792 42.4634 140.535 46.8513 116.096C50.0861 106.243 53.7342 95.7278 57.4027 85.457C59.2191 80.3752 61.0304 75.3648 62.8008 70.5279C62.9998 70.2728 63.1937 70.0227 63.3621 69.8187C66.2295 70.237 69.1685 69.5176 71.5512 67.5992C71.6532 67.5176 71.6889 67.4002 71.7858 67.3135C71.0562 68.6503 70.2807 69.9819 69.8317 71.3391C68.3725 75.7424 68.5613 79.9618 70.3726 83.5385C72.5359 87.8346 76.8013 90.7377 82.4393 91.9163L84.1588 95.3195C81.7403 98.5084 79.6586 101.922 77.9698 105.575C72.9186 116.499 76.7453 123.622 76.7861 135.25C76.235 137.29 75.6993 139.336 75.1941 141.388C75.1227 141.668 74.9493 141.888 74.8574 142.158C73.8523 148.214 72.8726 154.776 71.9287 161.541C71.5716 161.531 71.4032 161.541 71.5001 161.572C71.5665 161.592 71.7348 161.751 71.8828 161.883C71.1634 167.062 70.4746 172.343 69.8164 177.644L69.7399 177.7H69.8113C67.9133 192.976 66.2959 208.232 65.1887 220.482C64.8723 223.977 62.7549 226.768 59.913 228.36C61.0304 229.085 62.0917 229.488 63.0407 229.375C63.5458 229.314 63.9999 228.998 64.4642 228.753C62.8672 260.371 62.8264 293.464 63.1734 318.333C63.0968 330.598 63.1836 338.308 63.1836 338.599C63.2652 344.451 58.5813 349.252 52.7392 349.324C52.6882 349.334 52.6372 349.334 52.5964 349.334C46.8105 349.334 42.0858 344.686 42.0093 338.879C41.9889 337.578 41.8767 328.057 41.994 313.669C42.0246 310.077 42.0705 306.184 42.1318 302.036C42.3767 286.969 42.8665 268.56 43.8563 249.284ZM46.0146 206.043C47.1115 195.18 48.8718 179.062 51.1168 162.526C50.6729 162.48 50.2086 162.281 49.7851 162.332C41.5195 163.296 42.1318 183.802 43.6216 196.492C43.9635 199.364 44.8308 202.67 46.0146 206.043Z" fill="#86CF25"/>
<path d="M64.4744 228.757C66.9745 227.436 68.9541 223.823 70.3368 220.088C72.3879 233.482 77.3984 245.793 84.6741 256.391C83.3935 307.892 85.3374 356.66 85.3731 357.45C85.6129 363.292 81.0719 368.226 75.2248 368.476C75.0768 368.476 74.9237 368.486 74.7757 368.486C69.1327 368.486 64.4386 364.027 64.1988 358.333C64.1274 356.512 63.4999 340.771 63.1836 318.337C62.8366 293.469 62.8774 260.376 64.4744 228.757Z" fill="#7AC724"/>
<path d="M105.251 277.623C106.757 300.746 108.91 322.012 110.66 337.319L108.578 337.977C107.058 338.452 105.66 339.176 104.272 339.901C103.614 340.248 102.955 340.564 102.328 340.957C99.5676 342.712 97.2206 344.993 95.2971 347.62C94.8787 348.192 94.4092 348.717 94.0368 349.325C91.8836 332.232 87.7814 296.241 86.0059 258.184C91.3938 265.628 97.8685 272.199 105.251 277.623Z" fill="#6EBE23"/>
<path d="M105.251 277.621C111.048 281.881 117.395 285.402 124.125 288.157C125.324 304.489 126.788 319.546 128.12 331.807L127.369 332.046L124.267 333.026L119.885 334.409L116.645 335.429L114.364 336.149L110.66 337.317C108.905 322.01 106.757 300.744 105.251 277.621Z" fill="#62B522"/>
<path d="M138.508 292.649V317.237H136.947V329.028L129.65 331.329L128.12 331.809C126.783 319.543 125.324 304.491 124.125 288.159C128.742 290.052 133.548 291.552 138.508 292.649Z" fill="#56AD21"/>
<path d="M265.716 91.1605C264.727 88.8747 263.696 86.6551 262.629 84.4816C262.834 84.1499 263.145 83.8949 263.323 83.548C265.135 79.9713 265.323 75.7516 263.864 71.3484C261.283 63.5369 253.838 55.9143 243.955 50.9498C242.032 49.9906 240.062 49.1997 238.083 48.5058C237.838 48.1844 237.613 47.8987 237.409 47.6538C236.588 47.7814 235.782 47.5926 234.965 47.5263C234.19 47.312 233.424 47.1333 232.654 46.9598C230.659 44.8118 228.521 42.8475 226.23 41.2301C224.781 37.7606 225.087 33.6737 227.608 30.5409C229.751 27.8776 233.873 25.4132 239.139 25.6836C239.562 25.704 239.935 25.6173 240.374 25.6785C249.466 26.9132 257.308 36.0564 265.706 55.1846C265.839 55.4856 265.966 55.7356 266.099 56.0418C268.237 60.9756 270.349 68.7311 272.395 78.3539C274.946 90.3339 277.395 105.222 279.676 121.304C280.426 126.59 281.156 132.004 281.87 137.483C283.758 152.045 285.493 167.035 287.039 181.332C283.528 151.759 278.008 113.845 271.645 101.375C269.977 98.0943 267.987 94.5535 265.716 91.1605Z" fill="#86B438"/>
<path d="M264.145 163.761C264.002 163.837 263.859 163.909 263.716 163.995C263.038 158.164 262.339 152.347 261.624 146.617C262.492 152.077 263.334 157.832 264.145 163.761Z" fill="#86B438"/>
<path d="M269.9 213.292C270.14 215.782 270.369 218.191 270.574 220.487C271.053 225.808 275.512 229.803 280.763 229.803C281.069 229.803 281.375 229.793 281.691 229.762C287.1 229.278 291.033 224.645 290.896 219.298C292.717 238.38 293.921 252.733 294.299 257.345C294.778 263.172 290.441 268.284 284.615 268.764C284.324 268.784 284.023 268.805 283.742 268.805C283.222 268.805 282.758 268.595 282.253 268.519C277.487 267.82 273.599 264.085 273.196 259.075C273.109 257.998 273.012 256.835 272.91 255.672C272.007 244.936 270.721 230.717 269.155 214.798C269.41 214.308 269.66 213.803 269.9 213.292Z" fill="#86B438"/>
<path d="M60.4028 47.8523C64.4795 47.2808 67.847 48.49 70.3471 50.2145C71.4645 50.9849 72.4594 51.8218 73.1686 52.7096C75.6075 55.7454 75.9391 59.669 74.6483 63.0671C73.5513 64.46 72.587 65.8631 71.791 67.3173C71.6941 67.3989 71.6532 67.5213 71.5563 67.603C69.1685 69.5265 66.2347 70.2408 63.3672 69.8224C63.1989 70.0265 63.005 70.2715 62.806 70.5317C61.0049 72.8685 58.061 77.5267 54.1118 86.6393C53.7904 87.374 53.474 88.2108 53.1475 89.1241C51.0709 95.0069 48.9483 104.436 46.8564 116.1C42.4685 140.534 38.2031 174.79 34.7132 207.037C31.5192 236.507 28.9782 264.278 27.5802 281.259C27.4169 283.294 26.5445 285.034 25.4169 286.565C23.473 289.197 20.4881 290.983 17.0339 290.983C16.7482 290.983 16.4523 290.968 16.1615 290.942C10.3348 290.463 5.99275 285.351 6.47236 279.524C6.93666 273.825 8.66123 253.329 11.2583 227.338C15.0339 189.556 20.6565 140.116 26.9986 107.303C29.4732 94.5172 32.0549 84.2565 34.6723 78.2104C37.1061 72.5929 39.4888 67.909 41.8665 63.9191C47.8514 53.8881 53.7954 48.7503 60.4028 47.8523Z" fill="#86B438"/>
<path d="M140.625 54.3894C140.727 54.3792 140.834 54.3842 140.936 54.374C140.946 54.425 140.952 54.4812 140.962 54.5322C140.875 54.5424 140.783 54.5373 140.691 54.5475C140.671 54.4914 140.646 54.4456 140.625 54.3894Z" fill="#EFD0AB"/>
<path d="M71.0154 218.063L71.1634 219.104C77.332 262.519 114.65 294.795 158.682 294.795H160.233C167.167 294.795 173.907 293.907 180.412 292.392V317.24H138.508V292.652C133.548 291.555 128.742 290.061 124.125 288.168C117.395 285.407 111.047 281.892 105.251 277.632C97.8735 272.208 91.3988 265.636 86.0058 258.192C85.5721 257.59 85.0975 257.018 84.6791 256.401C77.4034 245.799 72.3931 233.492 70.342 220.099C70.592 219.395 70.8011 218.736 71.0154 218.063Z" fill="#EFD0AB"/>
<path d="M193.433 59.711C193.535 58.9865 193.632 58.2619 193.729 57.5527C193.862 57.5936 193.994 57.6293 194.127 57.665C193.897 58.3232 193.663 59.0069 193.433 59.711Z" fill="#F4DCC1"/>
<path d="M140.962 54.5332C141.028 54.9108 141.089 55.3139 141.151 55.7016C140.998 55.3037 140.844 54.9311 140.691 54.5485C140.783 54.5383 140.875 54.5434 140.962 54.5332Z" fill="#F4DCC1"/>
<path d="M211.321 278.561C205.505 282.668 199.183 286.087 192.469 288.709C188.576 290.23 184.54 291.429 180.407 292.393C173.902 293.914 167.167 294.796 160.228 294.796H158.677C114.645 294.796 77.3269 262.525 71.1583 219.105L71.0104 218.064C70.791 218.738 70.5869 219.396 70.3318 220.09C68.9491 223.824 66.9694 227.437 64.4693 228.758C63.9999 229.003 63.5509 229.325 63.0458 229.381C62.0968 229.493 61.0304 229.09 59.9182 228.365C62.7601 226.769 64.8775 223.983 65.1938 220.488C66.301 208.237 67.9184 192.982 69.8164 177.705L76.2656 177.869L76.1636 179.318L78.6484 180.119C82.0209 181.185 85.0414 182.338 88.8579 183.226C90.6334 183.757 92.4958 183.935 94.4499 183.935C96.2255 184.114 98.0879 184.114 100.042 183.849C101.996 183.583 103.859 183.405 105.455 182.782L107.854 181.981C108.741 181.803 109.716 181.359 110.43 181.007C112.216 180.313 113.971 179.44 115.742 178.624L119.971 177.415V177.236C119.971 177.068 119.925 176.915 119.92 176.751C119.915 176.644 119.895 176.542 119.89 176.44L119.925 176.573L119.987 175.731L120.65 175.695C120.65 175.695 120.706 172.767 119.655 169.195C119.619 169.021 119.609 168.843 119.573 168.669C119.129 167.338 118.594 166.093 118.063 164.766C117.267 163.526 116.466 162.368 115.578 161.215C113.624 158.996 111.318 157.133 108.568 155.888C107.149 155.358 105.461 154.649 104.129 154.378C102.71 154.2 101.909 153.934 99.9553 153.847C97.1491 153.761 94.1897 154.123 91.3682 155.087C84.7251 154.526 82.975 154.342 81.5821 152.261C80.276 150.301 82.7607 155.184 84.6843 158.889C84.1843 159.286 83.6485 159.618 83.1689 160.057C82.5312 160.695 81.9546 161.455 81.3627 162.185C77.735 161.909 73.3318 161.593 71.9287 161.552C72.8675 154.786 73.8472 148.225 74.8574 142.168C74.9493 141.898 75.1227 141.684 75.1941 141.398C75.6993 139.347 76.2351 137.301 76.7861 135.26C76.7861 135.326 76.7912 135.388 76.7912 135.454C84.6588 128.995 93.3478 123.739 102.491 119.418C104.098 124.295 109.027 127.336 114.16 126.321C115.492 126.04 116.696 125.489 117.762 124.775C119.992 128.005 123.987 129.806 128.114 129.046C132.176 128.27 135.166 125.168 136.084 121.397C137.9 122.984 140.263 123.933 142.804 123.933C143.217 123.933 143.625 123.918 144.038 123.867C147.258 123.479 149.814 121.561 151.396 119.005C153.141 120.362 155.248 121.265 157.6 121.265C157.825 121.265 158.049 121.265 158.274 121.249C160.784 121.081 162.932 119.933 164.616 118.321C165.6 118.658 166.6 118.979 167.703 118.999C167.759 118.999 167.82 118.999 167.876 118.999C169.039 118.999 170.116 118.703 171.157 118.346C172.846 119.958 175.004 121.101 177.519 121.254C177.734 121.27 177.943 121.27 178.152 121.27C180.443 121.27 182.494 120.392 184.213 119.096C185.652 122.28 188.535 124.724 192.26 125.142C192.647 125.183 193.03 125.199 193.413 125.199C196.275 125.199 198.831 123.923 200.714 121.959C202.127 124.464 204.479 126.413 207.52 127.02C211.383 127.79 215.143 126.158 217.465 123.255C219.174 125.607 221.761 127.296 224.888 127.525C229.873 127.949 232.633 125.5 234.317 122.622C242.578 126.872 250.43 131.842 257.624 137.679C257.68 138.827 257.701 139.985 257.711 141.143C257.716 141.51 257.741 141.873 257.736 142.245C257.721 146.266 257.532 150.317 256.945 154.424L254.348 172.69C257.022 169.43 260.359 165.991 263.716 163.996C263.859 163.909 264.002 163.843 264.145 163.761C266.436 180.552 268.456 198.446 269.9 213.299C269.655 213.809 269.41 214.309 269.155 214.809C264.981 223.049 259.609 229.82 255.869 229.386C253.318 229.09 251.277 226.192 249.716 222.804C249.001 221.253 248.409 219.636 247.904 218.069L247.756 219.11C245.578 234.458 239.44 248.366 230.552 259.994C225.103 267.122 218.638 273.393 211.321 278.561ZM173.57 211.477H145.35V211.569C145.35 216.692 149.518 220.845 154.661 220.845H164.259C169.402 220.845 173.57 216.692 173.57 211.569V211.477ZM171.305 240.376C166.932 237.126 160.264 239.886 160.172 245.32C160.085 239.886 153.411 237.126 149.039 240.376L135.176 250.688L136.661 252.504C142.38 259.504 150.962 263.571 160.029 263.571H160.172H160.315C169.376 263.571 177.958 259.504 183.683 252.504L185.167 250.688L171.305 240.376ZM230.062 183.221C233.878 182.333 236.899 181.18 240.272 180.114L242.756 179.313L242.654 177.864L249.175 177.7L242.241 172.726L242.221 172.481C242.001 171.236 241.557 169.863 241.124 168.527C243.338 165.904 246.894 161.746 247.409 161.577C247.874 161.424 242.093 161.838 237.547 162.179C236.955 161.455 236.379 160.69 235.741 160.052C235.266 159.613 234.725 159.281 234.225 158.883C236.149 155.179 238.634 150.296 237.327 152.256C235.94 154.337 234.19 154.516 227.546 155.082C224.73 154.118 221.766 153.761 218.965 153.842C217.01 153.929 216.214 154.194 214.791 154.373C213.459 154.638 211.77 155.348 210.352 155.883C207.602 157.128 205.291 158.99 203.336 161.21C202.449 162.363 201.653 163.516 200.852 164.761C200.321 166.093 199.785 167.338 199.341 168.664C199.306 168.833 199.295 169.011 199.26 169.185C198.209 172.756 198.265 175.69 198.265 175.69L198.928 175.726L198.989 176.568L199.025 176.435C199.02 176.542 198.994 176.639 198.994 176.746C198.989 176.91 198.944 177.068 198.944 177.231V177.41L203.173 178.619C204.944 179.435 206.699 180.308 208.485 181.001C209.194 181.359 210.173 181.803 211.061 181.976L213.459 182.777C215.056 183.4 216.924 183.578 218.873 183.843C220.827 184.109 222.689 184.109 224.465 183.93C226.419 183.935 228.286 183.757 230.062 183.221Z" fill="#F4DCC1"/>
<path d="M76.6993 172.481L76.679 172.726L69.8216 177.65C70.4798 172.349 71.1686 167.073 71.888 161.889C72.9493 162.838 75.8575 166.226 77.7964 168.527C77.3627 169.864 76.9187 171.236 76.6993 172.481Z" fill="#F4DCC1"/>
<path d="M49.785 162.333C50.2085 162.282 50.6728 162.481 51.1167 162.527C48.8717 179.063 47.1115 195.181 46.0145 206.044C44.8308 202.666 43.9634 199.365 43.6216 196.487C42.1368 183.803 41.5194 163.297 49.785 162.333Z" fill="#F4DCC1"/>
<path d="M164.259 220.844H154.661C149.518 220.844 145.35 216.691 145.35 211.568V211.477H173.57V211.568C173.57 216.691 169.402 220.844 164.259 220.844Z" fill="#DDBA94"/>
<path d="M135.176 250.687L149.039 240.376C153.411 237.126 160.085 239.886 160.172 245.32C160.258 239.886 166.932 237.126 171.305 240.376L185.167 250.687H160.172H135.176Z" fill="#56AD21"/>
<path d="M160.32 263.565H160.177H160.034C150.967 263.565 142.391 259.499 136.666 252.498L135.181 250.682H160.177H185.173L183.688 252.498C177.963 259.504 169.381 263.565 160.32 263.565Z" fill="#77C46F"/>
<path d="M229.878 397.601L236.725 390.754L240.848 394.877C240.95 395.188 241.047 395.484 241.149 395.795C241.496 396.861 241.833 397.928 242.18 398.994L236.725 404.448L229.878 397.601Z" fill="#EFD0AB"/>
<path d="M238.68 388.243C238.914 388.967 239.154 389.692 239.389 390.416L237.945 388.972L238.68 388.243Z" fill="#EFD0AB"/>
<path d="M238.23 405.949L242.914 401.265C243.93 404.444 244.92 407.587 245.889 410.704H242.991L238.23 405.949Z" fill="#EFD0AB"/>
<path d="M239.986 410.709H233.47L236.731 407.448L239.986 410.709Z" fill="#EFD0AB"/>
<path d="M219.618 390.754L226.465 397.601L219.618 404.448L215.066 399.897L213.403 396.973L219.618 390.754Z" fill="#EFD0AB"/>
<path d="M219.454 407.617L219.618 407.448L222.873 410.709H221.215L219.699 408.055L219.454 407.617Z" fill="#EFD0AB"/>
<path d="M207.199 386.411L207.255 386.202L207.025 385.942L211.194 381.768L218.398 388.972L212.316 395.054L207.281 386.197L207.199 386.411Z" fill="#EFD0AB"/>
<path d="M229.878 380.345L234.526 375.697C235.639 379.034 236.771 382.447 237.935 385.983L236.725 387.192L229.878 380.345Z" fill="#EFD0AB"/>
<path d="M202.775 373.491L209.622 380.343L205.612 384.349L201.408 379.614L199.887 376.379L202.775 373.491Z" fill="#EFD0AB"/>
<path d="M221.118 371.992L228.174 364.936L232.307 369.069C232.802 370.538 233.266 371.906 233.776 373.436L228.169 379.044L221.118 371.992Z" fill="#EFD0AB"/>
<path d="M219.595 373.493L212.748 380.34L219.595 387.188L226.443 380.34L219.595 373.493Z" fill="#EFD0AB"/>
<path d="M228.15 381.63L220.812 388.968L228.15 396.306L235.488 388.968L228.15 381.63Z" fill="#EFD0AB"/>
<path d="M228.174 398.896L235.225 405.947L230.47 410.707H225.873L221.118 405.947L228.174 398.896Z" fill="#EFD0AB"/>
<path d="M211.174 365.061L204.251 371.984L211.174 378.908L218.097 371.984L211.174 365.061Z" fill="#EFD0AB"/>
<path d="M201.27 371.993L198.928 374.34L194.765 365.487L201.27 371.993Z" fill="#EFD0AB"/>
<path d="M229.878 363.644L230.327 363.195C230.47 363.619 230.638 364.114 230.781 364.547L229.878 363.644Z" fill="#EFD0AB"/>
<path d="M229.567 360.96L228.174 362.353L220.837 355.016L225.419 350.434C226.143 351.75 226.878 353.062 227.363 354.506C228.026 356.439 228.796 358.705 229.567 360.96Z" fill="#EFD0AB"/>
<path d="M211.174 347.809L203.969 355.014L211.174 362.218L218.379 355.014L211.174 347.809Z" fill="#EFD0AB"/>
<path d="M210.347 337.977C212.26 338.574 214.066 339.405 215.76 340.395L211.194 344.962L204.27 338.038L205.775 336.533L206.056 336.619L210.347 337.977Z" fill="#EFD0AB"/>
<path d="M219.576 356.888L212.728 363.736L219.576 370.583L226.423 363.736L219.576 356.888Z" fill="#EFD0AB"/>
<path d="M224.347 348.507L219.618 353.237L212.77 346.39L217.505 341.655C219.561 343.089 221.362 344.808 222.924 346.757C223.393 347.344 223.929 347.875 224.347 348.507Z" fill="#EFD0AB"/>
<path d="M201.27 338.038L194.219 345.094L187.162 338.038L192.77 332.43L196.999 333.767L201.27 338.038Z" fill="#EFD0AB"/>
<path d="M194.219 347.682L201.556 355.019L194.219 362.356L192.469 360.606L188.897 353.004L194.219 347.682Z" fill="#EFD0AB"/>
<path d="M202.752 339.536L195.905 346.384L202.752 353.231L209.6 346.384L202.752 339.536Z" fill="#EFD0AB"/>
<path d="M202.75 356.791L195.902 363.639L202.75 370.486L209.597 363.639L202.75 356.791Z" fill="#EFD0AB"/>
<path d="M202.775 336.538L201.382 335.15L203.5 335.814L202.775 336.538Z" fill="#EFD0AB"/>
<path d="M184.162 338.037L182.596 339.609L179.81 333.69L184.162 338.037Z" fill="#EFD0AB"/>
<path d="M181.973 329.026L188.591 331.113L190.489 331.71L185.662 336.537L180.473 331.348H181.973V329.026Z" fill="#EFD0AB"/>
<path d="M185.662 339.538L192.509 346.39L187.933 350.961L183.555 341.65L185.662 339.538Z" fill="#EFD0AB"/>
<path d="M115.073 384.512L110.905 380.343L117.752 373.491L119.548 375.287L115.395 384.109L115.073 384.512Z" fill="#EFD0AB"/>
<path d="M114.221 394.284L115.9 400.315L114.145 394.361L114.221 394.284Z" fill="#EFD0AB"/>
<path d="M90.6438 397.601L83.7967 404.448L77.128 397.78C77.1841 397.601 77.2403 397.428 77.2964 397.249L83.7916 390.754L90.6438 397.601Z" fill="#EFD0AB"/>
<path d="M77.5412 410.708H73.2094L73.0716 410.57C74.1533 407.1 75.2656 403.585 76.3983 400.054L82.2965 405.952L77.5412 410.708Z" fill="#EFD0AB"/>
<path d="M99.4042 371.993L92.3478 379.049L85.5414 372.243C85.6281 371.983 85.7047 371.758 85.7914 371.498L92.3478 364.942L99.4042 371.993Z" fill="#EFD0AB"/>
<path d="M92.3276 381.625L84.9929 388.96L92.3274 396.295L99.6621 388.96L92.3276 381.625Z" fill="#EFD0AB"/>
<path d="M92.3529 398.896L99.4043 405.947L94.649 410.707H90.0519L85.2966 405.947L92.3529 398.896Z" fill="#EFD0AB"/>
<path d="M100.887 373.491L94.0394 380.338L100.887 387.186L107.735 380.338L100.887 373.491Z" fill="#EFD0AB"/>
<path d="M111.639 386.197L107.185 394.034L102.124 388.972L109.328 381.768L113.731 386.171L112.42 387.799L113.568 391.937L113.461 392.049L112.042 387.248L111.639 386.197Z" fill="#EFD0AB"/>
<path d="M87.052 410.709H80.5415L83.7968 407.448L87.052 410.709Z" fill="#EFD0AB"/>
<path d="M87.3221 366.972C87.8935 365.278 88.465 363.579 89.0008 362.002L90.6436 363.645L87.3221 366.972Z" fill="#EFD0AB"/>
<path d="M78.7453 392.805C79.378 390.866 80.0056 388.942 80.6332 387.034L82.572 388.973L78.7453 392.805Z" fill="#EFD0AB"/>
<path d="M83.7965 387.193L81.3779 384.774C82.5463 381.238 83.6842 377.815 84.7913 374.493L90.6436 380.345L83.7965 387.193Z" fill="#EFD0AB"/>
<path d="M97.7052 410.708H97.6491L97.7766 410.58L97.7052 410.708Z" fill="#EFD0AB"/>
<path d="M119.252 371.994L122.732 368.519L120.507 373.249L119.252 371.994Z" fill="#EFD0AB"/>
<path d="M100.909 404.448L94.0622 397.601L100.909 390.754L106.098 395.948L101.741 403.617L100.909 404.448Z" fill="#EFD0AB"/>
<path d="M102.323 340.956L107.751 346.384L100.904 353.232L95.2919 347.619C97.2154 344.991 99.5624 342.711 102.323 340.956Z" fill="#EFD0AB"/>
<path d="M92.3529 362.354L89.761 359.767C90.3733 357.971 91.0162 356.083 91.5571 354.507C92.1744 352.675 93.0316 350.966 94.0215 349.349L99.69 355.017L92.3529 362.354Z" fill="#EFD0AB"/>
<path d="M100.885 356.791L94.0374 363.639L100.885 370.486L107.732 363.639L100.885 356.791Z" fill="#EFD0AB"/>
<path d="M117.727 356.794L110.88 363.642L117.727 370.489L124.575 363.642L117.727 356.794Z" fill="#EFD0AB"/>
<path d="M109.307 365.066L102.384 371.989L109.307 378.913L116.231 371.989L109.307 365.066Z" fill="#EFD0AB"/>
<path d="M117.73 339.536L110.883 346.384L117.731 353.231L124.578 346.384L117.73 339.536Z" fill="#EFD0AB"/>
<path d="M133.36 338.036L126.308 345.093L119.252 338.036L124.267 333.026L127.37 332.046L133.36 338.036Z" fill="#EFD0AB"/>
<path d="M118.971 355.019L126.308 347.682L130.538 351.912L125.849 361.892L118.971 355.019Z" fill="#EFD0AB"/>
<path d="M110.655 337.318L114.359 336.149L116.252 338.037L109.328 344.961L104.267 339.899C105.655 339.175 107.053 338.451 108.573 337.976L110.655 337.318Z" fill="#EFD0AB"/>
<path d="M117.752 336.538L116.645 335.431L119.885 334.41L117.752 336.538Z" fill="#EFD0AB"/>
<path d="M109.309 347.809L102.104 355.014L109.309 362.218L116.514 355.014L109.309 347.809Z" fill="#EFD0AB"/>
<path d="M136.365 338.036L137.681 336.72L136.839 338.516L136.365 338.036Z" fill="#EFD0AB"/>
<path d="M136.946 331.348H140.054L134.865 336.537L129.65 331.327L136.946 329.026V331.348Z" fill="#EFD0AB"/>
<path d="M128.018 346.39L134.865 339.538L135.88 340.558L131.497 349.87L128.018 346.39Z" fill="#EFD0AB"/>
<path d="M242.986 410.709H239.986L236.731 407.454L233.475 410.709H230.475L235.231 405.954L228.174 398.898L221.118 405.954L225.873 410.709H222.873L219.618 407.454L219.449 407.622L215.061 399.903L219.613 404.454L226.46 397.607L219.613 390.76L213.398 396.974L212.311 395.061L218.398 388.974L211.194 381.77L207.02 385.943L207.255 386.203L207.199 386.418L200.734 410.709H118.798L115.905 400.316L114.226 394.285L114.145 394.367L113.461 392.05L113.573 391.938L112.42 387.8L113.736 386.173L109.333 381.77L102.129 388.974L107.19 394.035L106.103 395.949L100.909 390.754L94.0623 397.602L100.909 404.449L101.746 403.617L99.2257 408.056L97.7818 410.582L97.6542 410.709H94.6541L99.4094 405.954L92.3529 398.898L85.2966 405.954L90.0519 410.709H87.0519L83.7967 407.454L80.5414 410.709H77.5413L82.2966 405.954L76.3984 400.056C76.6433 399.301 76.883 398.54 77.1279 397.785L83.7967 404.454L90.6437 397.607L83.7967 390.76L77.3015 397.255C77.4596 396.77 77.6127 396.285 77.7709 395.801C78.0974 394.79 78.424 393.811 78.7505 392.806L82.5823 388.974L80.6434 387.035C80.8883 386.285 81.1383 385.514 81.3832 384.775L83.8016 387.193L90.6489 380.346L84.7966 374.494C85.0517 373.733 85.2966 372.989 85.5467 372.244L92.3529 379.05L99.4094 371.994L92.3529 364.937L85.7967 371.494C86.3223 369.927 86.8171 368.458 87.3222 366.968L90.6489 363.646L89.006 362.003C89.2764 361.207 89.5111 360.529 89.7713 359.764L92.3632 362.35L99.7002 355.013L94.0316 349.345C94.0316 349.345 94.0368 349.33 94.0419 349.319C94.4144 348.712 94.8837 348.187 95.302 347.615L100.915 353.228L107.762 346.38L102.333 340.952C102.955 340.554 103.619 340.237 104.277 339.896L109.338 344.957L116.262 338.033L114.369 336.145L116.65 335.426L117.757 336.533L119.89 334.4L124.273 333.018L119.257 338.033L126.313 345.09L133.37 338.033L127.38 332.043L128.13 331.803L129.66 331.324L134.87 336.533L140.059 331.344H140.217L137.691 336.717L136.37 338.038L136.844 338.513L135.885 340.554L134.87 339.538L128.023 346.385L131.507 349.87L130.548 351.911L126.319 347.682L118.982 355.019L125.859 361.896L122.742 368.519L119.262 371.999L120.517 373.254L119.558 375.295L117.762 373.499L110.915 380.346L115.083 384.514L115.405 384.116L114.777 385.448L115.451 386.79L149.972 399.438C146.151 401.714 141.273 401.959 137.156 399.566C135.661 398.699 134.411 397.571 133.431 396.28C133.416 396.321 133.4 396.357 133.385 396.392C134.855 398.474 136.778 400.285 139.125 401.648C144.732 404.903 151.268 404.668 156.626 401.877L159.468 402.918L162.463 401.821C170.274 405.781 179.723 403.638 185.03 396.831C185.025 396.806 185.025 396.785 185.02 396.76C181.116 401.204 174.504 402.423 169.187 399.357L203.484 386.79L204.158 385.448L201.418 379.621L205.622 384.356L209.628 380.346L202.78 373.499L199.893 376.387L198.933 374.346L201.28 371.999L194.77 365.488L192.474 360.605L194.224 362.355L201.561 355.019L194.224 347.682L188.902 353.003L187.943 350.962L192.52 346.385L185.673 339.538L183.565 341.646L182.606 339.605L184.173 338.038L179.82 333.686L178.718 331.344H180.479L185.667 336.533L190.494 331.706L192.775 332.426L187.168 338.033L194.224 345.09L201.28 338.033L197.005 333.758L201.388 335.14L202.78 336.533L203.505 335.809L205.786 336.528L204.28 338.033L211.204 344.957L215.771 340.39C216.393 340.753 216.924 341.237 217.51 341.651L212.776 346.385L219.623 353.233L224.353 348.503C224.761 349.115 225.067 349.784 225.424 350.432L220.842 355.013L228.179 362.35L229.572 360.958C229.837 361.733 230.062 362.386 230.337 363.197L229.889 363.646L230.792 364.55C231.021 365.233 231.276 365.988 231.516 366.692C231.781 367.473 232.047 368.269 232.317 369.075L228.184 364.942L221.128 371.999L228.184 379.055L233.792 373.448C234.031 374.172 234.297 374.963 234.542 375.698L229.894 380.346L236.741 387.193L237.95 385.984C238.195 386.729 238.445 387.494 238.69 388.244L237.96 388.974L239.404 390.418C239.894 391.908 240.379 393.377 240.863 394.882L236.741 390.76L229.894 397.607L236.741 404.454L242.195 399C242.44 399.755 242.685 400.515 242.925 401.27L238.241 405.954L242.986 410.709ZM85.016 388.974L92.3529 396.311L99.69 388.974L92.3529 381.637L85.016 388.974ZM94.0623 380.346L100.909 387.193L107.757 380.346L100.909 373.499L94.0623 380.346ZM94.0623 363.646L100.909 370.493L107.757 363.646L100.909 356.799L94.0623 363.646ZM102.124 355.019L109.328 362.223L116.532 355.019L109.328 347.814L102.124 355.019ZM124.599 346.391L117.752 339.544L110.905 346.391L117.752 353.238L124.599 346.391ZM124.599 363.646L117.752 356.799L110.905 363.646L117.752 370.493L124.599 363.646ZM116.252 371.994L109.328 365.07L102.404 371.994L109.328 378.917L116.252 371.994ZM211.194 378.917L218.118 371.994L211.194 365.07L204.27 371.994L211.194 378.917ZM195.928 363.646L202.775 370.493L209.622 363.646L202.775 356.799L195.928 363.646ZM202.775 339.538L195.928 346.385L202.775 353.233L209.622 346.385L202.775 339.538ZM211.194 347.814L203.99 355.019L211.194 362.223L218.398 355.019L211.194 347.814ZM226.465 363.646L219.618 356.799L212.771 363.646L219.618 370.493L226.465 363.646ZM219.618 373.494L212.771 380.341L219.618 387.188L226.465 380.341L219.618 373.494ZM235.511 388.974L228.174 381.637L220.837 388.974L228.174 396.311L235.511 388.974Z" fill="#000916"/>
<path d="M73.0309 410.708C73.0462 410.662 73.0615 410.616 73.0717 410.57L73.2095 410.708H73.0309Z" fill="#000916"/>
<path d="M188.367 111.641C188.443 110.391 188.545 109.101 188.627 107.84C204.576 110.335 220.082 115.295 234.317 122.616C232.633 125.494 229.873 127.943 224.888 127.52C221.761 127.285 219.174 125.601 217.465 123.249C215.143 126.157 211.383 127.785 207.52 127.014C204.479 126.407 202.127 124.458 200.714 121.953C198.831 123.917 196.275 125.193 193.413 125.193C193.03 125.193 192.647 125.178 192.26 125.137C188.535 124.719 185.652 122.275 184.213 119.091C186.525 117.346 188.178 114.759 188.367 111.641Z" fill="#86CF25"/>
<path d="M261.624 146.611C262.339 152.341 263.038 158.157 263.716 163.989C260.359 165.989 257.022 169.428 254.348 172.683L256.945 154.417C257.527 150.31 257.721 146.259 257.736 142.238C258.201 143.539 258.69 144.871 259.114 146.121C258.68 144.534 258.216 142.871 257.711 141.141C257.701 139.983 257.68 138.825 257.624 137.677C257.828 137.84 258.048 137.978 258.252 138.141C258.252 126.391 260.808 116.574 255.731 105.584C254.042 101.936 251.961 98.5175 249.542 95.3337L251.262 91.9305C256.435 90.8489 260.339 88.2212 262.635 84.4863C263.701 86.6599 264.731 88.8844 265.721 91.1651C267.987 94.5581 269.982 98.094 271.65 101.365C278.018 113.834 283.533 151.754 287.044 181.321C289.222 199.695 290.635 214.863 290.972 218.649C290.993 218.874 290.896 219.078 290.901 219.302C291.038 224.649 287.105 229.282 281.696 229.767C281.38 229.803 281.074 229.808 280.768 229.808C275.518 229.808 271.058 225.813 270.579 220.491C270.369 218.195 270.145 215.787 269.905 213.297C268.466 198.45 266.446 180.551 264.15 163.759C263.334 157.831 262.492 152.075 261.624 146.611Z" fill="#86CF25"/>
<path d="M192.79 64.6447C193.005 62.9864 193.214 61.318 193.433 59.7159C193.668 59.0118 193.897 58.3281 194.132 57.6699C194.168 57.573 194.198 57.4659 194.234 57.3689C195.857 52.8177 197.494 49.1595 199.117 46.4043C198.02 45.8737 196.867 45.5828 195.647 45.4553C195.979 43.5521 196.316 41.6694 196.653 39.9499C197.209 39.4958 197.668 38.9448 198.331 38.6029C198.561 38.4856 198.811 38.501 199.045 38.3989C200.433 44.593 201.597 51.9811 202.148 59.1191C202.331 61.5222 203.423 63.5732 204.928 65.2212L203.923 67.2061C200.285 66.1907 196.571 65.3386 192.79 64.6447Z" fill="#86CF25"/>
<path d="M206.168 54.8889C204.663 57.8584 204.347 61.282 205.092 64.8791L204.923 65.2108C203.418 63.5627 202.326 61.5116 202.142 59.1084C201.597 51.9653 200.433 44.5824 199.04 38.3883C198.688 36.8066 198.326 35.2504 197.949 33.8575C197.51 35.6841 197.081 37.771 196.653 39.9394C196.311 41.6589 195.979 43.5364 195.647 45.4446C195.035 48.955 194.433 52.6899 193.857 56.7155C193.816 57.0012 193.77 57.2615 193.729 57.5523C193.627 58.2666 193.53 58.986 193.433 59.7105C193.214 61.3126 193.005 62.986 192.79 64.6392C188.234 63.8024 183.591 63.1902 178.907 62.8076L179.565 24.0459C185.259 5.91261 191.372 5.33097 195.51 4.95851C199.693 4.53502 203.841 5.92288 207.306 8.83625C213.934 14.4487 217.73 26.5512 219.939 37.8679C220.495 40.7354 220.985 43.5517 221.352 46.1947C214.22 46.8682 208.704 49.8581 206.168 54.8889Z" fill="#86B438"/>
<path d="M178.121 108.923L178.162 106.52C181.667 106.831 185.152 107.295 188.627 107.841C188.54 109.106 188.443 110.397 188.367 111.642C188.178 114.755 186.525 117.341 184.213 119.086C182.494 120.382 180.443 121.26 178.152 121.26C177.943 121.26 177.739 121.26 177.519 121.245C175.004 121.092 172.846 119.949 171.157 118.336C175.126 116.979 178.045 113.357 178.121 108.923Z" fill="#86B438"/>
<path d="M109.522 45.9205C107.165 45.9205 104.685 46.252 102.185 46.7418C103.149 44.854 103.859 43.4816 104.047 43.1244C105.063 41.1652 106.695 39.8284 108.502 38.8538C110.741 37.6446 113.277 37.2823 115.828 37.8793C116.048 37.8027 116.277 37.7721 116.497 37.7007C115.731 40.7467 115.15 43.6754 114.675 46.4357C113.042 46.1398 111.354 45.9205 109.522 45.9205Z" fill="#86CF25"/>
<path d="M129.426 66.4809C131.717 64.8023 133.349 62.2715 133.62 59.2153C134.038 54.4753 134.87 49.5312 135.865 45.0464C137.436 47.4189 139.028 50.4498 140.62 54.3887C140.64 54.4448 140.666 54.4906 140.686 54.5467C140.839 54.9294 140.993 55.2968 141.146 55.6999C141.605 58.4704 142.054 61.3532 142.487 64.3686C138.161 65.1084 133.916 66.0523 129.778 67.1951L129.426 66.4809Z" fill="#86CF25"/>
<path d="M147.396 111.689C147.595 114.729 149.176 117.27 151.406 119.005C149.824 121.561 147.268 123.48 144.049 123.867C143.635 123.919 143.227 123.934 142.814 123.934C140.278 123.934 137.911 122.985 136.094 121.398C135.171 125.169 132.186 128.271 128.125 129.046C123.997 129.807 120.007 128.005 117.772 124.776C116.706 125.49 115.507 126.041 114.17 126.322C109.037 127.342 104.109 124.296 102.501 119.418C116.441 112.831 131.533 108.678 147.044 106.928C147.161 108.515 147.294 110.122 147.396 111.689Z" fill="#86CF25"/>
<path d="M142.498 64.3694C142.064 61.3489 141.615 58.4661 141.156 55.7007C141.089 55.318 141.028 54.9149 140.967 54.5323C140.957 54.4812 140.952 54.4251 140.941 54.3741C139.87 48.083 138.753 42.5013 137.62 38.2256C136.997 40.2461 136.416 42.5931 135.87 45.0422C134.87 49.527 134.038 54.4761 133.625 59.2109C133.354 62.2672 131.722 64.7979 129.431 66.4766L128.62 64.8694C129.364 61.2774 129.048 57.8487 127.543 54.8792C125.283 50.3943 120.686 47.4912 114.68 46.4197C115.15 43.6645 115.731 40.7307 116.502 37.6847C118.706 28.9089 122.247 19.7759 127.967 14.99C131.553 11.9899 135.758 10.5614 140.227 11.0002C145.013 11.4339 152.452 12.1481 158.84 38.5725L158.432 62.5376C153.049 62.854 147.722 63.4765 142.498 64.3694Z" fill="#86B438"/>
<path d="M147.396 111.689C147.294 110.127 147.161 108.515 147.044 106.928C150.58 106.53 154.121 106.224 157.682 106.071L157.641 108.576C157.559 113.133 160.529 116.919 164.621 118.311C162.942 119.924 160.789 121.077 158.279 121.24C158.054 121.255 157.83 121.255 157.605 121.255C155.253 121.255 153.146 120.352 151.401 118.995C149.177 117.266 147.595 114.73 147.396 111.689Z" fill="#86B438"/>
<path d="M158.427 62.5478L158.835 38.5825L159.304 10.949C159.396 5.29571 163.988 1.01498 169.718 0.882324C175.371 0.974164 179.882 5.64262 179.78 11.2959L179.565 24.0413L178.907 62.8028C172.111 62.2518 165.243 62.16 158.427 62.5478Z" fill="#86CF25"/>
<path d="M157.641 108.576L157.682 106.07C164.498 105.78 171.34 105.917 178.157 106.519L178.116 108.923C178.045 113.356 175.121 116.974 171.157 118.331C170.116 118.688 169.039 118.984 167.876 118.984C167.82 118.984 167.759 118.984 167.703 118.984C166.606 118.964 165.606 118.642 164.616 118.306C160.529 116.918 157.565 113.132 157.641 108.576Z" fill="#86CF25"/>
<path d="M198.964 77.0067C194.341 86.1601 196.683 96.6299 204.199 100.395L224.73 110.681C232.246 114.447 242.088 110.079 246.71 100.926L249.537 95.3288C251.955 98.5177 254.037 101.931 255.726 105.579C260.803 116.564 258.246 126.386 258.246 138.136C258.047 137.973 257.823 137.835 257.619 137.672C250.425 131.84 242.573 126.866 234.312 122.615C220.077 115.294 204.571 110.334 188.622 107.839C185.147 107.293 181.662 106.829 178.157 106.518C171.345 105.916 164.498 105.778 157.682 106.069C154.12 106.222 150.574 106.528 147.044 106.926C131.533 108.676 116.435 112.824 102.501 119.416C93.358 123.738 84.6689 128.993 76.8013 135.453C76.8013 135.386 76.7962 135.325 76.7962 135.259C76.7503 123.631 72.9287 116.508 77.9799 105.584C79.6687 101.936 81.7505 98.5177 84.169 95.3288L87.0007 100.931C91.6233 110.084 101.465 114.452 108.981 110.687L129.512 100.4C137.028 96.6349 139.37 86.1652 134.747 77.0118L129.788 67.2002C133.926 66.0573 138.171 65.1135 142.497 64.3737C147.727 63.4757 153.054 62.8582 158.427 62.552C165.243 62.1643 172.111 62.2562 178.902 62.8124C183.591 63.2001 188.229 63.8072 192.785 64.644C196.571 65.3379 200.28 66.19 203.918 67.2002L198.964 77.0067Z" fill="#687986"/>
<path d="M225.531 87.4825C232.021 90.7275 239.037 92.5132 245.308 92.5132C247.425 92.5132 249.415 92.304 251.262 91.9214L249.542 95.3245L246.716 100.922C242.093 110.075 232.251 114.443 224.735 110.677L204.204 100.391C196.688 96.6256 194.347 86.1558 198.969 77.0024L203.928 67.1908L204.934 65.2062L205.102 64.8745C205.255 65.6092 205.388 66.3388 205.633 67.0837C208.204 74.9003 215.648 82.5231 225.531 87.4825Z" fill="#00092B"/>
<path d="M249.333 63.697L236.771 68.0288C237.164 68.4421 237.445 68.8861 237.572 69.3146C237.7 69.733 237.69 70.1361 237.511 70.4831L255.43 79.6569C256.583 77.4068 256.655 74.7893 255.879 72.08C256.129 72.6259 256.522 73.172 256.701 73.7179C257.522 76.2078 257.481 78.3659 256.583 80.1466C254.481 84.3202 247.119 85.6928 238.935 84.1009L235.093 71.3198C234.547 71.2433 233.955 71.0596 233.384 70.7688C232.807 70.4729 232.317 70.1054 231.934 69.7024L219.332 74.0496C216.194 71.1056 213.837 67.886 212.791 64.7175C211.969 62.2277 212.01 60.0694 212.908 58.2938C213.373 57.3703 214.138 56.6101 215.041 55.9417C214.383 56.5999 213.704 57.2428 213.276 58.0744L231.195 67.2482C231.373 66.9013 231.695 66.6615 232.108 66.5186C232.531 66.3706 233.057 66.3401 233.618 66.4166L229.914 54.105C233.435 54.7734 237.072 55.9571 240.578 57.7123C243.904 59.3756 246.807 61.4623 249.333 63.697ZM235.001 67.5952C233.838 66.9982 232.603 67.085 232.246 67.784C231.888 68.483 232.542 69.5341 233.705 70.131C234.868 70.728 236.103 70.6411 236.46 69.9421C236.817 69.2431 236.164 68.1921 235.001 67.5952Z" fill="#000916"/>
<path d="M233.705 70.1292C232.542 69.5322 231.889 68.4812 232.246 67.7822C232.603 67.0832 233.838 66.9964 235.001 67.5933C236.164 68.1903 236.817 69.2413 236.46 69.9403C236.103 70.6393 234.868 70.7261 233.705 70.1292Z" fill="#FDD323"/>
<path d="M255.43 79.6561L237.511 70.4823C237.69 70.1354 237.7 69.7323 237.572 69.3139C237.445 68.8853 237.164 68.4414 236.771 68.0281L249.333 63.6963C252.313 66.329 254.553 69.1863 255.879 72.0844C256.655 74.7886 256.583 77.4061 255.43 79.6561Z" fill="#FDD323"/>
<path d="M233.378 70.7616C233.955 71.0575 234.542 71.2361 235.088 71.3126L238.93 84.0937C235.624 83.4509 232.205 82.3742 228.914 80.7211C225.23 78.8741 222.001 76.5526 219.322 74.0424L231.924 69.6953C232.312 70.0984 232.802 70.4657 233.378 70.7616Z" fill="#FDD323"/>
<path d="M232.103 66.513C231.69 66.6558 231.368 66.9008 231.19 67.2426L213.271 58.0688C213.699 57.2371 214.378 56.5942 215.036 55.9361C217.128 54.3748 220.25 53.4717 224.184 53.4717C226.016 53.4717 227.95 53.7269 229.914 54.0993L233.618 66.411C233.047 66.3344 232.526 66.365 232.103 66.513Z" fill="#FDD323"/>
<path d="M238.083 48.5077C240.062 49.2067 242.037 49.9924 243.955 50.9517C253.838 55.911 261.282 63.5388 263.864 71.3503C265.323 75.7535 265.135 79.9731 263.323 83.5498C263.145 83.9018 262.833 84.1518 262.629 84.4834C260.333 88.2182 256.435 90.846 251.257 91.9276C249.41 92.3154 247.42 92.5195 245.302 92.5195C239.032 92.5195 232.016 90.7337 225.526 87.4887C215.643 82.5294 208.199 74.9015 205.617 67.09C205.372 66.345 205.24 65.6155 205.086 64.8808C204.342 61.2888 204.658 57.8601 206.163 54.8906C208.699 49.8598 214.214 46.8699 221.342 46.2015C222.291 46.1147 223.169 45.9209 224.179 45.9209C226.893 45.9209 229.756 46.3188 232.649 46.9616C233.419 47.1351 234.184 47.3138 234.96 47.5281C236.006 47.8138 237.047 48.1403 238.083 48.5077ZM229.914 54.0997C227.955 53.7273 226.016 53.4721 224.184 53.4721C220.255 53.4721 217.128 54.3752 215.036 55.9365C214.133 56.61 213.367 57.3702 212.903 58.2886C212.005 60.0693 211.964 62.2275 212.786 64.7123C213.832 67.8808 216.184 71.0952 219.327 74.0443C222.006 76.5546 225.23 78.8812 228.919 80.7231C232.21 82.3711 235.628 83.4528 238.935 84.0957C247.119 85.6927 254.481 84.3151 256.583 80.1415C257.481 78.3608 257.522 76.2025 256.701 73.7127C256.522 73.1667 256.129 72.6207 255.879 72.0748C254.553 69.1767 252.313 66.3247 249.333 63.6868C246.807 61.452 243.904 59.3703 240.573 57.7019C237.072 55.9518 233.435 54.7681 229.914 54.0997Z" fill="#687986"/>
<path d="M134.742 77.0075C139.365 86.1609 137.023 96.6308 129.507 100.396L108.976 110.682C101.461 114.448 91.6182 110.08 86.9956 100.927L84.1639 95.3245L82.4445 91.9214C84.2915 92.3091 86.2813 92.5132 88.3987 92.5132C94.6693 92.5132 101.685 90.7275 108.175 87.4825C118.058 82.5231 125.502 74.8952 128.084 67.0837C128.329 66.3388 128.461 65.6092 128.615 64.8745L129.426 66.4817L129.788 67.196L134.742 77.0075Z" fill="#00092B"/>
<path d="M114.374 74.0496L101.772 69.7024C101.389 70.1003 100.899 70.4729 100.323 70.7688C99.7462 71.0647 99.1594 71.2433 98.6135 71.3198L94.7664 84.1009C86.5825 85.6979 79.2199 84.3202 77.1178 80.1466C76.2198 78.3659 76.179 76.2078 77.0005 73.7179C77.179 73.172 77.5719 72.6259 77.8219 72.08C77.0464 74.7893 77.1179 77.4068 78.271 79.6569L96.1899 70.4831C96.0113 70.1361 96.0063 69.733 96.1287 69.3146C96.2563 68.8861 96.5368 68.4421 96.9297 68.0288L84.3681 63.697C86.8937 61.4623 89.7968 59.3807 93.1286 57.7123C96.6287 55.9571 100.267 54.7734 103.787 54.105L100.088 66.4166C100.654 66.3401 101.175 66.3757 101.598 66.5186C102.012 66.6615 102.333 66.9064 102.512 67.2482L120.431 58.0744C120.002 57.2428 119.323 56.5999 118.665 55.9417C119.568 56.6152 120.329 57.3754 120.798 58.2938C121.696 60.0745 121.737 62.2328 120.915 64.7175C119.869 67.886 117.517 71.1005 114.374 74.0496ZM98.7054 67.5952C97.5421 68.1921 96.8889 69.2431 97.2461 69.9421C97.6032 70.6411 98.838 70.728 100.001 70.131C101.165 69.5341 101.818 68.483 101.46 67.784C101.103 67.085 99.8687 67.0033 98.7054 67.5952Z" fill="#000916"/>
<path d="M100.001 70.1292C98.8379 70.7261 97.6031 70.6393 97.246 69.9403C96.8888 69.2413 97.542 68.1903 98.7053 67.5933C99.8686 66.9964 101.103 67.0832 101.46 67.7822C101.818 68.4812 101.165 69.5322 100.001 70.1292Z" fill="#FDD323"/>
<path d="M96.1287 69.3139C96.0011 69.7323 96.0113 70.1354 96.1899 70.4823L78.2709 79.6561C77.1178 77.4061 77.0463 74.7885 77.8218 72.0793C79.1484 69.1863 81.3884 66.329 84.3681 63.6963L96.9296 68.0281C96.5368 68.4414 96.2613 68.8853 96.1287 69.3139Z" fill="#FDD323"/>
<path d="M100.328 70.7616C100.904 70.4657 101.394 70.0984 101.777 69.6953L114.379 74.0424C111.706 76.5526 108.476 78.8792 104.792 80.7211C101.501 82.3691 98.0827 83.4509 94.7765 84.0937L98.6236 71.3126C99.1644 71.2412 99.7512 71.0575 100.328 70.7616Z" fill="#FDD323"/>
<path d="M102.517 67.2426C102.338 66.8957 102.017 66.6558 101.603 66.513C101.18 66.365 100.654 66.3344 100.093 66.411L103.792 54.0993C105.751 53.7269 107.69 53.4717 109.522 53.4717C113.451 53.4717 116.578 54.3748 118.67 55.9361C119.329 56.5942 120.007 57.2371 120.436 58.0688L102.517 67.2426Z" fill="#FDD323"/>
<path d="M108.175 87.4831C101.685 90.7281 94.6693 92.5139 88.3987 92.5139C86.2812 92.5139 84.2914 92.3098 82.4444 91.922C76.8116 90.7434 72.5461 87.8403 70.3776 83.5442C68.5663 79.9675 68.3776 75.748 69.8369 71.3448C70.2858 69.9876 71.0614 68.6559 71.791 67.3192C72.5869 65.865 73.5461 64.4619 74.6482 63.069C78.3371 58.3902 83.4546 54.1043 89.7457 50.946C90.9141 50.3593 92.1182 49.8797 93.3122 49.3899C96.2561 48.1909 99.2308 47.3082 102.18 46.7317C104.685 46.2419 107.16 45.9102 109.517 45.9102C111.348 45.9102 113.037 46.1347 114.67 46.4204C120.681 47.4868 125.272 50.395 127.533 54.8798C129.038 57.8493 129.354 61.273 128.609 64.87C128.456 65.6048 128.324 66.3344 128.079 67.0794C125.502 74.9011 118.058 82.5238 108.175 87.4831ZM120.798 58.2933C120.334 57.3698 119.568 56.6095 118.665 55.9411C116.573 54.3799 113.451 53.4768 109.517 53.4768C107.685 53.4768 105.751 53.732 103.787 54.1044C100.267 54.7728 96.6286 55.9565 93.1284 57.7117C89.7967 59.3801 86.8936 61.4668 84.368 63.6965C81.3883 66.3292 79.1483 69.1865 77.8218 72.0794C77.5718 72.6254 77.1789 73.1714 77.0003 73.7173C76.184 76.2072 76.2197 78.3653 77.1177 80.146C79.2198 84.3196 86.5824 85.6923 94.7663 84.1004C98.0726 83.4575 101.496 82.3809 104.782 80.7277C108.466 78.8807 111.695 76.5593 114.369 74.049C117.512 71.105 119.864 67.8855 120.91 64.717C121.737 62.2271 121.696 60.0739 120.798 58.2933Z" fill="#687986"/>
<path d="M136.946 329.027V317.235H138.508H180.412H181.973V329.027V331.348H180.473H178.713L179.815 333.69L182.596 339.609L183.555 341.65L187.933 350.966L188.892 353.007L192.464 360.609L194.76 365.492L198.923 374.344L199.882 376.385L201.403 379.62L204.143 385.447L203.469 386.789L169.172 399.356C169.162 399.351 169.147 399.345 169.147 399.345C167.213 398.223 165.687 396.662 164.621 394.861C165.728 394.508 166.815 394.039 167.861 393.432C174.198 389.774 177.147 382.498 175.606 375.712C177.734 375.727 179.887 376.278 181.861 377.421C187.045 380.431 189.29 386.549 187.622 392.049C187.647 392.044 187.678 392.044 187.703 392.044C190.816 383.845 187.642 374.365 179.81 369.819C179.157 369.441 178.489 369.11 177.815 368.824C178.682 361.788 175.381 354.589 168.866 350.808C166.723 349.563 164.432 348.813 162.121 348.507L162.116 348.517C163.473 348.777 164.81 349.267 166.07 349.997C172.106 353.502 174.167 361.232 170.687 367.278C167.667 364.523 163.728 363.043 159.713 363.038C156.947 363.033 154.141 363.727 151.569 365.211C150.534 365.808 149.59 366.507 148.743 367.278C146.559 363.482 146.406 358.655 148.763 354.594C150.661 351.323 153.799 349.221 157.238 348.532L157.228 348.517C151.86 349.262 146.875 352.374 143.947 357.425C141.86 361.023 141.146 365.038 141.63 368.87C137.916 370.319 134.65 372.987 132.497 376.702C129.742 381.457 129.375 386.942 131.023 391.763C131.099 391.774 131.181 391.789 131.252 391.804C130.436 388.682 130.803 385.248 132.548 382.238C134.946 378.105 139.324 375.834 143.783 375.931C142.977 379.732 143.513 383.835 145.61 387.462C147.681 391.054 150.911 393.554 154.554 394.769C154.518 394.83 154.488 394.896 154.452 394.958C153.33 396.891 151.753 398.361 149.962 399.427L115.441 386.779L114.767 385.437L115.395 384.105L119.543 375.283L120.502 373.242L122.726 368.513L125.844 361.89L130.538 351.91L131.497 349.869L135.875 340.553L136.834 338.512L137.676 336.716L140.202 331.343H140.043H136.936V329.027H136.946Z" fill="#00092B"/>
<path d="M164.555 382.029C164.886 381.452 165.259 380.916 165.667 380.411C167.192 378.523 169.187 377.166 171.381 376.411C171.703 377.712 171.805 379.039 171.693 380.345C171.381 383.993 169.422 387.437 166.131 389.529C165.988 389.621 165.845 389.708 165.697 389.794C164.861 390.274 163.988 390.646 163.106 390.912C162.677 388.794 162.779 386.565 163.478 384.437C163.743 383.621 164.1 382.809 164.555 382.029Z" fill="#00092B"/>
<path d="M159.718 373.614C158.86 373.614 157.998 373.538 157.141 373.359C155.845 373.089 154.569 372.614 153.36 371.915C152.646 371.502 151.988 371.022 151.386 370.502C152.049 369.884 152.789 369.328 153.605 368.854C153.768 368.757 153.937 368.67 154.1 368.583C155.891 367.655 157.815 367.231 159.713 367.246C161.447 367.257 163.162 367.634 164.728 368.359C165.907 368.905 167.009 369.645 167.973 370.563C166.162 372.124 163.963 373.119 161.646 373.481C161.014 373.573 160.366 373.614 159.718 373.614Z" fill="#00092B"/>
<path d="M157.809 376.136C158.411 375.79 159.07 375.647 159.717 375.657C160.962 375.682 162.167 376.325 162.835 377.483C163.85 379.244 163.248 381.494 161.488 382.509C160.927 382.831 160.32 382.973 159.717 382.984C158.427 383.009 157.156 382.361 156.467 381.162C155.452 379.407 156.054 377.157 157.809 376.136Z" fill="#00092B"/>
<path d="M159.718 400.187C160.284 400.616 160.881 401.019 161.514 401.381C161.82 401.56 162.146 401.662 162.457 401.82L159.462 402.917L156.62 401.876C157.651 401.34 158.718 400.866 159.641 400.131C159.661 400.152 159.692 400.167 159.718 400.187Z" fill="#00092B"/>
<path d="M149.187 385.371C148.248 383.744 147.727 381.984 147.6 380.223C147.513 379.04 147.6 377.856 147.855 376.713C148.539 376.963 149.207 377.274 149.86 377.652C151.156 378.402 152.269 379.351 153.182 380.432C154.161 381.596 154.917 382.917 155.422 384.32C156.162 386.387 156.371 388.637 155.973 390.846C154.855 390.489 153.789 389.969 152.809 389.3C151.365 388.305 150.115 386.989 149.187 385.371Z" fill="#00092B"/>
<path d="M154.452 394.967C154.488 394.906 154.518 394.839 154.554 394.778C150.911 393.564 147.681 391.064 145.61 387.472C143.513 383.839 142.977 379.737 143.783 375.941C139.324 375.844 134.946 378.114 132.548 382.247C130.803 385.257 130.436 388.691 131.252 391.814C131.176 391.793 131.099 391.783 131.023 391.773C129.375 386.951 129.742 381.466 132.497 376.711C134.655 372.997 137.921 370.328 141.63 368.879C141.14 365.047 141.86 361.032 143.947 357.435C146.875 352.379 151.86 349.271 157.228 348.526L157.238 348.542C153.799 349.23 150.661 351.328 148.763 354.603C146.411 358.665 146.564 363.486 148.743 367.287C149.59 366.517 150.534 365.818 151.569 365.221C154.141 363.736 156.947 363.042 159.713 363.047C163.728 363.052 167.667 364.532 170.687 367.287C174.167 361.241 172.106 353.511 166.07 350.006C164.81 349.276 163.473 348.787 162.116 348.526L162.121 348.516C164.432 348.822 166.723 349.577 168.866 350.817C175.381 354.598 178.677 361.797 177.815 368.833C178.489 369.124 179.157 369.451 179.81 369.828C187.642 374.374 190.816 383.854 187.703 392.053C187.678 392.053 187.647 392.054 187.622 392.059C189.29 386.558 187.045 380.441 181.861 377.431C179.887 376.288 177.734 375.736 175.606 375.721C177.147 382.502 174.198 389.783 167.861 393.441C166.815 394.043 165.728 394.518 164.621 394.87C165.687 396.671 167.213 398.227 169.147 399.355C169.157 399.36 169.172 399.365 169.172 399.365C174.488 402.431 181.101 401.217 185.004 396.768C185.004 396.793 185.009 396.814 185.014 396.839C179.713 403.646 170.259 405.783 162.447 401.829C162.136 401.671 161.809 401.569 161.503 401.39C160.871 401.023 160.279 400.62 159.707 400.197C159.682 400.176 159.651 400.156 159.626 400.135C158.702 400.87 157.636 401.345 156.605 401.88C151.253 404.671 144.712 404.906 139.105 401.651C136.758 400.288 134.834 398.477 133.365 396.395C133.38 396.355 133.395 396.319 133.411 396.283C134.395 397.579 135.645 398.702 137.135 399.569C141.253 401.962 146.13 401.717 149.952 399.441C151.753 398.37 153.335 396.901 154.452 394.967ZM164.733 368.354C163.167 367.629 161.452 367.252 159.718 367.241C157.82 367.226 155.896 367.649 154.105 368.578C153.937 368.665 153.773 368.752 153.61 368.849C152.794 369.323 152.054 369.879 151.391 370.497C151.993 371.022 152.651 371.497 153.365 371.91C154.575 372.609 155.85 373.088 157.146 373.354C158.003 373.532 158.865 373.609 159.723 373.609C160.371 373.609 161.019 373.568 161.656 373.471C163.968 373.114 166.172 372.114 167.983 370.553C167.014 369.639 165.912 368.899 164.733 368.354ZM163.1 390.911C163.988 390.645 164.856 390.278 165.692 389.793C165.84 389.706 165.983 389.615 166.126 389.528C169.417 387.441 171.376 383.992 171.687 380.344C171.8 379.038 171.698 377.711 171.376 376.41C169.182 377.165 167.187 378.522 165.662 380.41C165.259 380.91 164.886 381.451 164.549 382.028C164.095 382.808 163.738 383.614 163.468 384.441C162.774 386.569 162.672 388.798 163.1 390.911ZM159.718 382.987C160.32 382.977 160.932 382.834 161.488 382.512C163.248 381.497 163.85 379.247 162.835 377.487C162.167 376.328 160.962 375.685 159.718 375.66C159.07 375.65 158.411 375.793 157.809 376.14C156.049 377.155 155.447 379.405 156.462 381.165C157.156 382.364 158.427 383.012 159.718 382.987ZM155.416 384.319C154.911 382.915 154.161 381.594 153.177 380.431C152.263 379.349 151.151 378.4 149.855 377.65C149.202 377.272 148.534 376.961 147.85 376.711C147.595 377.854 147.508 379.038 147.595 380.221C147.722 381.982 148.243 383.742 149.181 385.37C150.115 386.987 151.365 388.303 152.804 389.293C153.784 389.967 154.85 390.482 155.967 390.839C156.36 388.635 156.156 386.385 155.416 384.319Z" fill="#86CF25"/>
<path d="M84.4188 177.699L89.8885 179.715C96.1438 182.021 102.981 182.271 109.389 180.439L115.741 178.623C113.971 179.439 112.216 180.311 110.43 181.005C109.721 181.363 108.741 181.806 107.853 181.98L105.455 182.781C103.858 183.404 101.991 183.582 100.042 183.847C98.0877 184.113 96.2254 184.113 94.4498 183.934C92.4957 183.934 90.6333 183.755 88.8577 183.225C85.0413 182.337 82.0208 181.184 78.6482 180.118L76.1635 179.317L76.2655 177.868L79.8269 177.954L84.4188 177.699Z" fill="#56AD21"/>
<path d="M81.3731 162.178C81.965 161.454 82.5415 160.689 83.1793 160.051C83.6538 159.612 84.1946 159.28 84.6947 158.882C85.7406 160.898 86.6335 162.587 86.6335 162.587C86.6335 162.587 84.2457 162.393 81.3731 162.178Z" fill="#56AD21"/>
<path d="M77.7964 168.526C78.8117 169.73 79.5719 170.648 79.5719 170.648L76.679 172.725L76.6994 172.48C76.9187 171.235 77.3627 169.863 77.7964 168.526Z" fill="#56AD21"/>
<path d="M119.93 176.74L119.925 176.744L119.93 176.74Z" fill="#56AD21"/>
<path d="M103.767 156.284C98.2765 155.657 94.3734 155.33 91.3733 155.08C94.1948 154.116 97.1542 153.759 99.9604 153.84C101.915 153.927 102.71 154.192 104.134 154.371C105.466 154.636 107.154 155.346 108.573 155.881C111.323 157.126 113.634 158.989 115.583 161.208C116.471 162.361 117.272 163.514 118.068 164.759C118.599 166.091 119.135 167.336 119.578 168.662C119.614 168.836 119.624 169.015 119.66 169.188C118.129 164.019 114.201 157.473 103.767 156.284Z" fill="#56AD21"/>
<path d="M119.987 175.726L119.925 176.567L119.89 176.435C119.879 176.2 119.839 175.971 119.818 175.741L119.987 175.726Z" fill="#56AD21"/>
<path d="M86.6283 162.582C86.6283 162.582 85.7405 160.898 84.6895 158.877C82.7659 155.173 80.2811 150.29 81.5873 152.25C82.9751 154.331 84.7252 154.51 91.3734 155.076C94.3735 155.331 98.2766 155.653 103.767 156.28C114.201 157.474 118.129 164.015 119.655 169.184C120.706 172.756 120.65 175.684 120.65 175.684L119.987 175.72L119.818 175.73C119.043 166.663 111.497 159.52 102.19 159.52H101.404C91.5877 159.52 83.623 167.449 83.623 177.225V177.404L84.4139 177.694L79.8168 177.949L76.2555 177.863L69.8063 177.7H69.7349L69.8114 177.643L76.6687 172.72L79.5617 170.643C79.5617 170.643 78.8015 169.73 77.7862 168.521C75.8473 166.22 72.939 162.832 71.8778 161.883C71.7298 161.75 71.5615 161.592 71.4951 161.571C71.4033 161.541 71.5666 161.531 71.9237 161.541C73.3268 161.582 77.73 161.898 81.3576 162.174C84.2455 162.393 86.6283 162.582 86.6283 162.582Z" fill="#00092B"/>
<path d="M89.8886 179.714L84.419 177.699L83.6281 177.408V177.229C83.6281 167.448 91.5877 159.524 101.409 159.524H102.195C111.502 159.524 119.048 166.668 119.823 175.734C119.844 175.969 119.885 176.193 119.895 176.428C119.9 176.535 119.925 176.632 119.925 176.739C119.93 176.908 119.976 177.061 119.976 177.224V177.403L115.747 178.612L109.394 180.428C102.981 182.27 96.144 182.02 89.8886 179.714Z" fill="#CCEEF4"/>
<path d="M234.23 158.882C234.731 159.28 235.266 159.612 235.746 160.051C236.384 160.689 236.96 161.449 237.552 162.178C234.679 162.393 232.297 162.581 232.297 162.581C232.297 162.581 233.179 160.898 234.23 158.882Z" fill="#56AD21"/>
<path d="M241.124 168.526C241.557 169.863 242.001 171.235 242.221 172.48L242.241 172.725L239.348 170.648C239.348 170.648 240.108 169.735 241.124 168.526Z" fill="#56AD21"/>
<path d="M199.265 169.184C199.301 169.011 199.311 168.832 199.346 168.663C199.79 167.332 200.321 166.087 200.857 164.76C201.658 163.521 202.454 162.362 203.342 161.209C205.296 158.99 207.602 157.127 210.357 155.883C211.776 155.352 213.464 154.643 214.796 154.372C216.214 154.194 217.015 153.928 218.97 153.842C221.776 153.755 224.735 154.117 227.552 155.081C224.551 155.337 220.648 155.658 215.158 156.286C204.719 157.474 200.79 164.015 199.265 169.184Z" fill="#56AD21"/>
<path d="M199.025 176.435L198.989 176.567L198.928 175.726L199.091 175.736C199.076 175.971 199.035 176.195 199.025 176.435Z" fill="#56AD21"/>
<path d="M198.989 176.74L198.994 176.744L198.989 176.74Z" fill="#56AD21"/>
<path d="M213.459 182.776L211.061 181.975C210.174 181.796 209.199 181.353 208.485 181C206.699 180.307 204.944 179.434 203.173 178.618L209.526 180.434C215.939 182.271 222.771 182.016 229.026 179.71L234.496 177.694L239.093 177.949L242.654 177.863L242.756 179.312L240.272 180.113C236.899 181.179 233.878 182.332 230.062 183.22C228.286 183.751 226.424 183.929 224.47 183.929C222.694 184.108 220.832 184.108 218.878 183.842C216.924 183.577 215.056 183.399 213.459 182.776Z" fill="#56AD21"/>
<path d="M234.501 177.7L235.292 177.409V177.23C235.292 167.449 227.332 159.525 217.511 159.525H216.725C207.418 159.525 199.872 166.669 199.097 175.735L198.933 175.725L198.27 175.689C198.27 175.689 198.214 172.756 199.265 169.184C200.791 164.015 204.719 157.474 215.153 156.28C220.643 155.653 224.547 155.326 227.547 155.076C234.19 154.515 235.94 154.331 237.328 152.25C238.634 150.29 236.149 155.173 234.225 158.877C233.179 160.893 232.287 162.582 232.287 162.582C232.287 162.582 234.675 162.393 237.542 162.179C242.088 161.837 247.869 161.423 247.404 161.577C246.884 161.75 243.328 165.903 241.119 168.526C240.103 169.73 239.343 170.648 239.343 170.648L242.236 172.725L249.17 177.7L242.649 177.863L239.088 177.949L234.501 177.7Z" fill="#00092B"/>
<path d="M216.725 159.524H217.51C227.332 159.524 235.292 167.453 235.292 177.229V177.408L234.501 177.699L229.031 179.714C222.776 182.02 215.944 182.27 209.53 180.438L203.178 178.622L198.949 177.413V177.234C198.949 177.066 198.994 176.913 199 176.75C199.005 176.642 199.025 176.545 199.03 176.438C199.04 176.204 199.081 175.974 199.102 175.739C199.872 166.668 207.418 159.524 216.725 159.524Z" fill="#CCEEF4"/>
</svg>
