<svg viewBox="0 0 281 383" fill="none" xmlns="http://www.w3.org/2000/svg">
<path d="M143.022 36.3516H152.696C211.392 36.3516 257.521 86.3534 252.557 144.595L248.649 190.418C244.246 242.078 200.851 281.774 148.788 281.774H146.926C94.8626 281.774 51.4682 242.078 47.065 190.418L43.1566 144.595C38.1973 86.3534 84.3264 36.3516 143.022 36.3516Z" fill="#BC714B"/>
<path d="M56.3101 166.009C56.3101 166.009 42.3607 146.039 30.1562 146.039C17.9517 146.039 15.3341 166.877 15.3341 179.897C15.3341 192.923 28.4112 215.496 38.0034 215.496C47.5956 215.496 55.4428 198.133 55.4428 198.133L56.3101 166.009Z" fill="#BC714B"/>
<path d="M239.403 166.009C239.403 166.009 253.353 146.039 265.557 146.039C277.762 146.039 280.379 166.877 280.379 179.897C280.379 192.923 267.302 215.496 257.71 215.496C248.118 215.496 240.271 198.133 240.271 198.133L239.403 166.009Z" fill="#BC714B"/>
<path d="M231.286 339.935C230.24 336.047 228.566 332.363 226.474 328.96C228.495 332.292 230.173 336.042 231.286 339.935Z" fill="white"/>
<path d="M226.474 328.889C225.148 326.664 223.612 324.582 221.801 322.705C223.474 324.582 225.01 326.669 226.474 328.889Z" fill="white"/>
<path d="M219.01 319.93C217.127 318.123 215.035 316.598 212.872 315.348C215.035 316.664 217.127 318.195 219.01 319.93Z" fill="white"/>
<path d="M63.6779 343.201C64.0248 341.119 64.6524 339.032 65.3514 337.017C64.6524 338.961 64.0248 341.043 63.6779 343.201Z" fill="white"/>
<path d="M65.1882 337.409C65.275 337.149 65.3617 337.062 65.3617 336.975C67.6985 330.312 71.5914 324.424 76.612 319.929C78.1682 318.546 79.8163 317.332 81.5459 316.209C87.342 312.403 94.179 310.153 101.45 310.153H106.705H194.218H199.479C206.749 310.153 213.586 312.403 219.382 316.209C221.112 317.337 222.76 318.546 224.316 319.929C229.337 324.429 233.23 330.312 235.567 336.975C235.567 337.062 235.653 337.149 235.74 337.409C237.296 340.781 248.72 362.593 258.935 382.411H220.791H80.1377H41.9934C52.2081 362.593 63.632 340.781 65.1882 337.409Z" fill="#DD291B"/>
<path d="M147.645 335.311H148.074C159.753 335.311 169.222 325.882 169.222 314.254V261.512H126.501V314.254C126.496 325.882 135.966 335.311 147.645 335.311Z" fill="#BC714B"/>
<path d="M185.233 162.1H222.286V161.916C222.286 151.946 214.168 143.864 204.158 143.864H203.356C193.346 143.864 185.228 151.946 185.228 161.916V162.1H185.233Z" fill="#002047"/>
<path d="M112.435 162.1H75.3822V161.916C75.3822 151.946 83.4948 143.864 93.5104 143.864H94.3114C104.322 143.864 112.44 151.946 112.44 161.916V162.1H112.435Z" fill="#002047"/>
<path d="M140.675 206.383H150.456C155.701 206.383 159.952 202.149 159.952 196.929V196.832H131.18V196.929C131.18 202.149 135.43 206.383 140.675 206.383Z" fill="#A85B39"/>
<g opacity="0.75">
<path d="M117.083 234.655C117.083 234.655 117.971 235.181 119.532 235.808C121.088 236.318 123.313 237.395 125.986 238.053C128.655 238.819 131.772 239.451 135.109 239.865C138.446 240.37 142.007 240.446 145.569 240.569C149.13 240.441 152.691 240.354 156.028 239.854C159.365 239.431 162.482 238.803 165.151 238.038C167.819 237.375 170.049 236.308 171.605 235.803C173.161 235.176 174.054 234.655 174.054 234.655V233.961C174.054 233.961 159.814 233.788 145.573 233.614C131.333 233.788 117.093 233.961 117.093 233.961V234.655H117.083Z" fill="#F4D1A6"/>
</g>
<path d="M132.629 3.93652H163.145C210.657 3.93652 249.169 42.29 249.169 89.6029V108.124H46.6056V89.6029C46.6056 42.29 85.1222 3.93652 132.629 3.93652Z" fill="#010C2B"/>
<path d="M132.604 0.411621H163.156C212.484 0.411621 252.638 40.4794 252.638 89.6342V111.615H43.1208V89.6342C43.1208 40.4845 83.2753 0.411621 132.604 0.411621ZM245.715 104.609V89.6392C245.715 44.2907 208.673 7.42204 163.156 7.42204H132.604C87.0816 7.42204 50.1313 44.2907 50.1313 89.6392V104.609H245.715Z" fill="#00050A"/>
<path d="M108.22 108.125H187.56V96.5885C187.56 74.9908 169.977 57.48 148.288 57.48H147.492C125.802 57.48 108.22 74.9908 108.22 96.5885V108.125Z" fill="#BC714B"/>
<path d="M209.065 104.365H92.8163V110.732H209.065V104.365Z" fill="#00050A"/>
<path d="M45.7333 104.651L0.39502 113.621C0.39502 113.621 0.976578 123.463 13.1811 123.749C25.3856 124.039 50.963 108.988 50.963 108.988L45.7333 104.651Z" fill="#00050A"/>
<path d="M100.077 200.711C111.052 200.711 121.251 194.787 126.695 185.251L136.68 167.74C141.405 159.454 142.022 149.653 138.38 140.841C133.517 129.08 122.394 121.646 109.955 121.646H72.7547C61.836 121.646 51.662 127.524 46.2128 136.989L45.0699 138.968C40.1106 147.571 39.631 158.092 43.7944 167.102L51.0804 182.899C56.0704 193.72 66.9943 200.705 78.9028 200.705H100.077V200.711Z" fill="#F6C252"/>
<path d="M132.384 143.321L132.277 143.061C128.537 134.025 119.72 128.132 109.95 128.132H72.7547C64.1115 128.132 56.1315 132.744 51.8201 140.229L50.6823 142.204C46.7638 148.995 46.3914 157.271 49.6773 164.393L56.9633 180.185C60.9124 188.741 69.479 194.226 78.9028 194.226H100.077C108.756 194.226 116.761 189.578 121.062 182.037L131.042 164.526C134.741 158.046 135.241 150.219 132.384 143.321Z" fill="#00092B"/>
<path d="M200.468 200.711C189.493 200.711 179.294 194.787 173.85 185.251L163.87 167.74C159.145 159.454 158.528 149.653 162.171 140.841C167.034 129.08 178.156 121.646 190.595 121.646H227.796C238.715 121.646 248.888 127.524 254.338 136.989L255.481 138.968C260.44 147.571 260.919 158.092 256.756 167.102L249.47 182.899C244.48 193.72 233.556 200.705 221.648 200.705H200.468V200.711Z" fill="#F6C252"/>
<path d="M168.161 143.321L168.268 143.061C172.008 134.025 180.825 128.132 190.596 128.132H227.796C236.434 128.132 244.414 132.744 248.73 140.229L249.868 142.204C253.787 148.995 254.159 157.271 250.873 164.393L243.587 180.185C239.638 188.741 231.072 194.226 221.648 194.226H200.474C191.795 194.226 183.789 189.578 179.488 182.037L169.503 164.526C165.804 158.046 165.304 150.219 168.161 143.321Z" fill="#00092B"/>
<path d="M209.147 145.049H231.204C233.51 145.049 235.388 143.177 235.388 140.865V140.779C235.388 138.467 233.515 136.59 231.204 136.59H209.147C206.836 136.59 204.963 138.462 204.963 140.779V140.865C204.963 143.177 206.836 145.049 209.147 145.049Z" fill="#D2F4FF"/>
<path d="M93.7196 145.049H115.777C118.088 145.049 119.96 143.177 119.96 140.865V140.779C119.96 138.467 118.088 136.59 115.777 136.59H93.7196C91.4134 136.59 89.5409 138.462 89.5409 140.779V140.865C89.5409 143.177 91.4134 145.049 93.7196 145.049Z" fill="#D2F4FF"/>
<path d="M164.013 150.499H136.777V156.668H164.013V150.499Z" fill="#F6C252"/>
<path d="M119.588 316.694C119.588 316.694 119.858 317.745 120.18 318.802C120.496 319.853 120.817 320.904 120.817 320.904C121.368 322.674 120.807 324.725 119.527 325.685C119.46 325.491 119.389 325.287 119.317 325.077C119.032 324.215 118.761 323.383 118.726 323.281C119.032 322.934 119.159 322.373 118.996 321.858C118.996 321.858 118.669 320.776 118.343 319.7C118.016 318.618 117.731 317.531 117.731 317.531C117.583 317.001 117.195 316.689 116.777 316.705C116.766 316.633 116.777 316.567 116.756 316.495C116.756 316.495 116.532 315.557 116.307 314.618C116.276 314.49 116.251 314.363 116.225 314.235C117.695 313.929 119.113 314.934 119.588 316.694Z" fill="#F7941E"/>
<path d="M114.302 317.541C114.322 317.612 114.358 317.663 114.384 317.734C114.042 318.051 113.868 318.643 114.032 319.209C114.032 319.209 114.332 320.372 114.679 321.505C115.021 322.638 115.363 323.776 115.363 323.776C115.532 324.316 115.93 324.617 116.338 324.582C116.373 324.689 116.654 325.541 116.945 326.429C117.016 326.643 117.093 326.852 117.159 327.051C115.751 327.648 114.159 326.694 113.542 324.73C113.542 324.73 113.19 323.571 112.838 322.408C112.486 321.25 112.174 320.046 112.174 320.046C111.623 318.005 112.358 315.842 113.736 315.143C113.766 315.28 113.792 315.418 113.827 315.556C114.052 316.561 114.302 317.541 114.302 317.541Z" fill="#F7941E"/>
<path d="M124.093 330.227C124.093 330.227 124.501 331.242 124.904 332.257C125.323 333.268 125.741 334.273 125.741 334.273C126.46 335.957 126.078 338.084 124.894 339.227C124.807 339.043 124.721 338.85 124.634 338.656C124.277 337.839 123.93 337.053 123.884 336.957C124.154 336.569 124.231 335.987 124.027 335.497C124.027 335.497 123.598 334.472 123.17 333.446C122.756 332.411 122.343 331.375 122.343 331.375C122.149 330.865 121.721 330.62 121.307 330.711C121.287 330.645 121.292 330.574 121.266 330.507C121.266 330.507 120.93 329.609 120.598 328.711C120.552 328.584 120.511 328.467 120.465 328.344C121.858 327.711 123.425 328.502 124.093 330.227Z" fill="#F7941E"/>
<path d="M118.945 331.996C118.97 332.063 119.016 332.109 119.047 332.17C118.741 332.542 118.639 333.144 118.843 333.68C118.843 333.68 119.271 334.757 119.7 335.828C120.144 336.895 120.588 337.961 120.588 337.961C120.802 338.471 121.226 338.706 121.629 338.609C121.675 338.706 122.027 339.512 122.399 340.349C122.491 340.548 122.583 340.747 122.67 340.936C121.323 341.742 119.659 341.027 118.879 339.186C118.879 339.186 118.424 338.099 117.975 337.017C117.542 335.925 117.103 334.828 117.103 334.828C116.373 332.951 116.863 330.767 118.128 329.772C118.174 329.9 118.215 330.022 118.266 330.149C118.603 331.073 118.945 331.996 118.945 331.996Z" fill="#F7941E"/>
<path d="M124.991 345.741C124.726 346.16 124.68 346.772 124.935 347.272C124.935 347.272 125.445 348.292 125.991 349.282C126.527 350.282 127.083 351.267 127.083 351.267C127.353 351.736 127.797 351.9 128.185 351.736C128.236 351.828 128.665 352.583 129.134 353.333C129.246 353.517 129.359 353.701 129.466 353.869C128.221 354.91 126.471 354.497 125.501 352.772C125.501 352.772 124.93 351.762 124.384 350.741C123.823 349.726 123.302 348.685 123.302 348.685C122.384 346.925 122.695 344.66 123.863 343.491L124.869 345.588C124.904 345.649 124.955 345.685 124.991 345.741Z" fill="#F7941E"/>
<path d="M129.828 343.032C129.828 343.032 130.303 343.991 130.813 344.905C131.308 345.833 131.823 346.741 131.823 346.741C132.685 348.272 132.532 350.41 131.481 351.762C131.379 351.594 131.272 351.42 131.165 351.247C130.711 350.527 130.297 349.798 130.251 349.706C130.481 349.272 130.501 348.685 130.246 348.247C130.246 348.247 129.716 347.313 129.211 346.359C128.69 345.42 128.2 344.44 128.2 344.44C127.955 343.966 127.512 343.792 127.109 343.95C127.083 343.889 127.078 343.818 127.047 343.757L126.073 341.721C127.404 340.889 129.001 341.456 129.828 343.032Z" fill="#F7941E"/>
<path d="M132.221 358.047C132.262 358.103 132.313 358.128 132.354 358.179C132.144 358.649 132.175 359.281 132.502 359.715C132.502 359.715 133.175 360.593 133.843 361.47C134.548 362.312 135.252 363.159 135.252 363.159C135.599 363.552 136.073 363.583 136.425 363.317C136.491 363.394 137.042 364.016 137.655 364.608C137.803 364.751 137.951 364.889 138.094 365.026C137.089 366.455 135.262 366.547 133.956 365.067C133.956 365.067 133.221 364.185 132.486 363.307C131.787 362.394 131.088 361.48 131.088 361.48C129.925 359.894 129.92 357.593 130.94 356.189C131.012 356.297 131.078 356.404 131.155 356.511C131.69 357.281 132.221 358.047 132.221 358.047Z" fill="#F7941E"/>
<path d="M136.747 354.425C136.747 354.425 137.338 355.2 137.93 355.976C138.542 356.705 139.15 357.44 139.15 357.44C140.18 358.614 140.379 360.69 139.634 362.333C139.507 362.211 139.369 362.078 139.236 361.95C138.675 361.405 138.155 360.818 138.094 360.751C138.247 360.267 138.165 359.705 137.854 359.353C137.854 359.353 137.211 358.583 136.568 357.818C135.951 357.006 135.328 356.2 135.328 356.2C135.027 355.802 134.573 355.726 134.206 355.966C134.175 355.909 134.16 355.838 134.119 355.787C134.119 355.787 133.609 355.052 133.103 354.318C133.037 354.21 132.971 354.113 132.904 354.011C134.119 352.909 135.772 353.088 136.747 354.425Z" fill="#F7941E"/>
<path d="M117.011 322.317L117.037 322.307C117.695 321.97 118.44 322.388 118.715 323.251L118.726 323.286C118.761 323.388 119.032 324.22 119.317 325.082C119.389 325.286 119.46 325.491 119.527 325.69C119.756 326.358 119.945 326.904 119.945 326.904C119.945 326.904 120.19 327.582 120.465 328.343C120.511 328.465 120.552 328.588 120.598 328.71C120.935 329.608 121.267 330.506 121.267 330.506C121.292 330.572 121.292 330.644 121.307 330.71C121.522 331.501 121.282 332.389 120.705 332.771L120.68 332.787C120.098 333.174 119.409 332.879 119.047 332.164C119.016 332.103 118.97 332.062 118.945 331.991C118.945 331.991 118.603 331.067 118.256 330.149C118.21 330.021 118.164 329.894 118.118 329.771C117.838 328.986 117.588 328.297 117.588 328.297C117.588 328.297 117.394 327.735 117.159 327.052C117.088 326.853 117.016 326.639 116.945 326.429C116.654 325.542 116.373 324.69 116.338 324.582L116.327 324.541C116.042 323.654 116.353 322.654 117.011 322.317Z" fill="#FFC176"/>
<path d="M122.093 336.257L122.113 336.242C122.736 335.803 123.511 336.114 123.863 336.925L123.879 336.961C123.919 337.058 124.266 337.844 124.629 338.66C124.715 338.854 124.807 339.048 124.889 339.232C125.175 339.859 125.414 340.375 125.414 340.375L126.062 341.722L127.037 343.757C127.067 343.819 127.078 343.89 127.098 343.951C127.384 344.696 127.231 345.609 126.69 346.084L126.67 346.104C126.129 346.579 125.414 346.395 124.986 345.742C124.95 345.686 124.899 345.65 124.868 345.589L123.863 343.492L123.2 342.109C123.2 342.109 122.96 341.579 122.664 340.936C122.578 340.747 122.486 340.548 122.394 340.349C122.026 339.512 121.669 338.706 121.623 338.609L121.608 338.573C121.251 337.737 121.47 336.696 122.093 336.257Z" fill="#FFC176"/>
<path d="M128.42 349.307C128.996 348.772 129.807 348.935 130.231 349.675L130.246 349.71C130.297 349.797 130.705 350.527 131.16 351.251C131.267 351.425 131.374 351.598 131.476 351.767C131.828 352.333 132.114 352.797 132.114 352.797C132.114 352.797 132.481 353.364 132.899 354.001C132.966 354.103 133.032 354.206 133.098 354.308C133.609 355.042 134.114 355.777 134.114 355.777C134.149 355.833 134.165 355.899 134.2 355.956C134.563 356.634 134.542 357.558 134.078 358.15L134.058 358.175C133.593 358.772 132.853 358.757 132.348 358.19C132.308 358.144 132.251 358.119 132.216 358.058C132.216 358.058 131.68 357.287 131.149 356.522C131.078 356.415 131.012 356.308 130.935 356.2C130.501 355.537 130.119 354.95 130.119 354.95C130.119 354.95 129.823 354.471 129.455 353.879C129.348 353.705 129.236 353.527 129.124 353.343C128.654 352.593 128.226 351.838 128.175 351.746L128.154 351.71C127.71 350.94 127.818 349.879 128.394 349.338L128.42 349.307Z" fill="#FFC176"/>
<path d="M141.752 368.069C141.808 368.11 141.864 368.11 141.915 368.135C141.838 368.681 142.048 369.263 142.507 369.523C142.507 369.523 142.731 369.656 143.073 369.86C143.41 370.079 143.879 370.314 144.359 370.523C145.298 371.008 146.303 371.294 146.303 371.294C146.782 371.457 147.226 371.212 147.441 370.753C147.533 370.768 148.293 370.911 149.078 371.054C149.267 371.064 149.451 371.069 149.635 371.074C149.517 371.957 149.155 372.794 148.538 373.273C147.839 373.835 146.818 374.131 145.839 373.763C145.839 373.763 144.726 373.437 143.701 372.911C143.17 372.676 142.66 372.416 142.298 372.187C141.925 371.967 141.68 371.819 141.68 371.819C139.986 370.784 139.389 368.493 140.053 366.768C140.144 366.85 140.236 366.926 140.333 367.008C141.022 367.569 141.752 368.069 141.752 368.069Z" fill="#F7941E"/>
<path d="M145.007 362.608C145.007 362.705 147.721 364.021 147.721 363.883C148.334 364.128 148.818 364.582 149.191 365.363C149.507 366.052 149.757 366.827 149.783 367.72C149.625 367.715 149.461 367.71 149.298 367.705C148.635 367.582 147.992 367.465 147.915 367.45C147.869 366.934 147.614 366.475 147.247 366.353C147.226 366.496 144.15 365.011 144.17 364.909C143.798 364.705 143.369 364.843 143.084 365.23C143.043 365.189 143.012 365.133 142.966 365.098C142.966 365.098 142.313 364.649 141.685 364.149C141.599 364.077 141.517 364.006 141.43 363.934C142.349 362.444 143.89 361.934 145.007 362.608Z" fill="#F7941E"/>
<path d="M136.236 360.894L136.257 360.869C136.731 360.19 137.532 360.15 138.073 360.716L138.099 360.741C138.16 360.813 138.675 361.4 139.242 361.94C139.379 362.073 139.512 362.201 139.639 362.323C140.078 362.747 140.441 363.093 140.441 363.093C140.441 363.093 140.905 363.486 141.43 363.935C141.512 364.007 141.599 364.073 141.685 364.15C142.318 364.65 142.966 365.099 142.966 365.099C143.012 365.134 143.043 365.191 143.084 365.231C143.579 365.711 143.808 366.527 143.543 367.323L143.532 367.354C143.277 368.109 142.553 368.471 141.915 368.14C141.859 368.109 141.803 368.109 141.752 368.073C141.752 368.073 141.027 367.573 140.328 367.017C140.231 366.935 140.14 366.859 140.048 366.777C139.471 366.287 138.966 365.859 138.966 365.859C138.966 365.859 138.578 365.486 138.099 365.027C137.956 364.889 137.813 364.752 137.66 364.609C137.048 364.017 136.497 363.395 136.43 363.318L136.405 363.292C135.818 362.67 135.762 361.573 136.236 360.894Z" fill="#FFC176"/>
<path d="M153.972 363.891C153.972 364.029 156.691 362.717 156.686 362.62C157.804 361.947 159.345 362.457 160.263 363.952C160.13 364.064 159.992 364.182 159.85 364.304C159.242 364.743 158.656 365.166 158.589 365.217C158.304 364.855 157.88 364.728 157.523 364.927C157.543 365.029 154.462 366.508 154.446 366.365C154.069 366.493 153.814 366.967 153.778 367.493C153.727 367.498 153.676 367.478 153.625 367.488C153.625 367.488 152.926 367.641 152.212 367.722C152.11 367.728 152.013 367.728 151.911 367.733C151.936 366.84 152.186 366.064 152.508 365.376C152.88 364.59 153.365 364.136 153.972 363.891Z" fill="#F7941E"/>
<path d="M154.074 370.793C154.135 370.778 154.181 370.732 154.237 370.711C154.436 371.201 154.89 371.471 155.385 371.303C155.385 371.303 156.39 371.017 157.329 370.533C157.809 370.323 158.283 370.084 158.615 369.869C158.957 369.665 159.186 369.533 159.186 369.533C159.63 369.283 159.844 368.721 159.783 368.191C159.865 368.135 160.513 367.66 161.186 367.175C161.345 367.043 161.498 366.915 161.646 366.788C162.309 368.512 161.712 370.798 160.018 371.839C160.018 371.839 159.768 371.987 159.401 372.206C159.038 372.441 158.523 372.696 157.997 372.931C156.972 373.456 155.86 373.778 155.86 373.778C154.875 374.145 153.854 373.844 153.16 373.288C152.543 372.803 152.181 371.972 152.063 371.084C152.176 371.079 152.288 371.079 152.4 371.074C153.232 370.982 154.074 370.793 154.074 370.793Z" fill="#F7941E"/>
<path d="M165.13 363.47C165.176 363.419 165.202 363.353 165.237 363.296C165.59 363.592 166.079 363.572 166.437 363.169C166.437 363.169 167.141 362.327 167.845 361.48C168.518 360.602 169.187 359.725 169.187 359.725C169.508 359.301 169.544 358.694 169.355 358.225C169.411 358.138 169.901 357.444 170.406 356.725C170.523 356.546 170.641 356.368 170.753 356.199C171.774 357.602 171.763 359.903 170.605 361.49C170.605 361.49 169.906 362.404 169.207 363.317C168.472 364.2 167.738 365.077 167.738 365.077C166.431 366.557 164.605 366.465 163.6 365.036C163.692 364.95 163.778 364.868 163.87 364.776C164.533 364.169 165.13 363.47 165.13 363.47Z" fill="#F7941E"/>
<path d="M162.544 357.445C162.544 357.445 163.156 356.71 163.763 355.981C164.355 355.205 164.947 354.43 164.947 354.43C165.921 353.093 167.574 352.919 168.789 354.001C168.681 354.164 168.574 354.333 168.462 354.501C167.983 355.19 167.518 355.853 167.462 355.935C167.095 355.715 166.656 355.807 166.365 356.195C166.365 356.195 165.748 357.006 165.13 357.812C164.487 358.583 163.845 359.348 163.845 359.348C163.523 359.71 163.452 360.292 163.62 360.782C163.574 360.818 163.523 360.833 163.477 360.879C163.477 360.879 162.916 361.537 162.304 362.093C162.222 362.175 162.14 362.251 162.059 362.328C161.314 360.695 161.508 358.619 162.544 357.445Z" fill="#F7941E"/>
<path d="M173.411 351.92C173.447 351.859 173.457 351.787 173.483 351.721C173.875 351.905 174.34 351.751 174.615 351.267C174.615 351.267 175.171 350.287 175.707 349.282C176.253 348.292 176.763 347.272 176.763 347.272C177.013 346.787 176.978 346.19 176.728 345.772C176.774 345.675 177.161 344.889 177.559 344.078C177.651 343.879 177.748 343.685 177.835 343.496C179.003 344.67 179.309 346.93 178.391 348.685C178.391 348.685 177.87 349.726 177.309 350.741C176.763 351.762 176.192 352.772 176.192 352.772C175.222 354.496 173.472 354.91 172.233 353.869C172.299 353.757 172.365 353.649 172.432 353.537C172.937 352.746 173.411 351.92 173.411 351.92Z" fill="#F7941E"/>
<path d="M169.875 346.752C169.875 346.752 170.391 345.844 170.885 344.915C171.396 343.997 171.87 343.043 171.87 343.043C172.697 341.466 174.299 340.9 175.636 341.736C175.549 341.92 175.457 342.109 175.365 342.303C174.978 343.094 174.6 343.859 174.554 343.951C174.161 343.818 173.733 343.997 173.493 344.456C173.493 344.456 173.008 345.43 172.483 346.374C171.972 347.328 171.442 348.262 171.442 348.262C171.181 348.716 171.207 349.318 171.457 349.752C171.416 349.803 171.37 349.834 171.334 349.89C171.334 349.89 170.88 350.691 170.396 351.456C170.329 351.563 170.268 351.665 170.202 351.773C169.166 350.42 169.013 348.283 169.875 346.752Z" fill="#F7941E"/>
<path d="M179.988 338.813C180.019 338.747 180.019 338.675 180.044 338.609C180.452 338.726 180.896 338.497 181.116 337.971C181.116 337.971 181.56 336.905 182.003 335.838C182.432 334.762 182.861 333.69 182.861 333.69C183.06 333.17 182.968 332.583 182.682 332.206L183.575 329.777C184.85 330.772 185.34 332.961 184.606 334.838C184.606 334.838 184.172 335.93 183.733 337.027C183.279 338.114 182.83 339.196 182.83 339.196C182.044 341.038 180.386 341.747 179.039 340.946C179.095 340.823 179.151 340.706 179.207 340.583C179.595 339.701 179.988 338.813 179.988 338.813Z" fill="#F7941E"/>
<path d="M175.957 334.282C175.957 334.282 176.375 333.277 176.794 332.267C177.202 331.252 177.605 330.236 177.605 330.236C178.273 328.517 179.835 327.726 181.228 328.348L180.355 330.711C179.957 330.639 179.544 330.889 179.355 331.384C179.355 331.384 178.942 332.42 178.529 333.456C178.1 334.481 177.677 335.507 177.677 335.507C177.467 336.012 177.549 336.604 177.84 336.991C177.809 337.048 177.763 337.088 177.733 337.155C177.733 337.155 177.35 338.022 176.967 338.89C176.911 339.007 176.86 339.124 176.804 339.236C175.62 338.099 175.238 335.971 175.957 334.282Z" fill="#F7941E"/>
<path d="M180.886 320.914C180.886 320.914 181.202 319.863 181.524 318.807C181.84 317.756 182.115 316.705 182.115 316.705C182.59 314.945 184.008 313.935 185.473 314.251C185.432 314.435 185.386 314.639 185.33 314.879C185.141 315.761 184.911 316.613 184.886 316.715C184.483 316.715 184.11 317.027 183.962 317.542C183.962 317.542 183.677 318.634 183.35 319.71C183.024 320.792 182.697 321.869 182.697 321.869C182.534 322.394 182.672 322.976 182.998 323.318C182.973 323.379 182.927 323.425 182.906 323.496C182.906 323.496 182.605 324.415 182.304 325.328C182.258 325.455 182.217 325.578 182.177 325.7C180.896 324.736 180.335 322.685 180.886 320.914Z" fill="#F7941E"/>
<path d="M185.294 324.795C185.315 324.724 185.315 324.652 185.33 324.581C185.748 324.637 186.167 324.341 186.335 323.785C186.335 323.785 186.677 322.652 187.019 321.515C187.361 320.382 187.667 319.219 187.667 319.219C187.82 318.668 187.667 318.091 187.34 317.77C187.371 317.662 187.606 316.775 187.81 315.826C187.861 315.622 187.912 315.392 187.963 315.157C189.34 315.861 190.07 318.02 189.519 320.06C189.519 320.06 189.203 321.265 188.856 322.423C188.503 323.581 188.151 324.744 188.151 324.744C187.539 326.709 185.947 327.658 184.539 327.066C184.585 326.938 184.626 326.816 184.672 326.683C184.983 325.734 185.294 324.795 185.294 324.795Z" fill="#F7941E"/>
<path d="M113.093 308.919C113.098 308.888 113.103 308.862 113.103 308.862C113.123 308.551 113.22 308.23 113.383 307.944C113.531 307.669 113.69 307.464 113.919 307.342C114.343 307.092 114.684 307.25 114.919 307.607L114.935 307.633C115.149 307.964 115.302 308.408 115.445 308.663C115.501 308.771 115.577 308.924 115.618 309.031C115.649 309.123 115.659 309.23 115.654 309.398C115.654 309.398 115.649 309.439 115.644 309.475C115.633 309.536 115.623 309.633 115.623 309.811C115.633 310.107 115.618 310.49 115.679 310.944C115.71 311.363 115.782 311.806 115.838 312.148C115.838 312.158 115.843 312.174 115.843 312.174C115.894 312.516 115.935 312.745 115.935 312.745C115.935 312.745 116.062 313.444 116.236 314.235C116.261 314.363 116.287 314.49 116.317 314.618C116.542 315.557 116.766 316.495 116.766 316.495C116.781 316.567 116.776 316.633 116.787 316.705C116.904 317.516 116.588 318.347 115.975 318.628L115.95 318.638C115.338 318.919 114.669 318.516 114.389 317.725C114.363 317.659 114.322 317.608 114.307 317.531C114.307 317.531 114.052 316.551 113.832 315.541C113.802 315.398 113.771 315.266 113.741 315.128C113.557 314.276 113.414 313.51 113.414 313.51C113.414 313.51 113.373 313.245 113.307 312.842C113.271 312.628 113.23 312.368 113.195 312.087C113.164 311.852 113.133 311.602 113.113 311.337C113.042 310.791 113.042 310.158 113.036 309.699C113.036 309.332 113.072 309.031 113.093 308.919Z" fill="#FFC176"/>
<path d="M158.564 365.228L158.589 365.207C158.661 365.156 159.247 364.733 159.849 364.294C159.992 364.177 160.13 364.054 160.263 363.942C160.717 363.554 161.094 363.238 161.094 363.238C161.094 363.238 161.549 362.819 162.059 362.33C162.14 362.253 162.222 362.176 162.304 362.095C162.916 361.539 163.477 360.881 163.477 360.881C163.518 360.835 163.574 360.819 163.62 360.784C164.151 360.35 164.865 360.426 165.299 361.049L165.314 361.074C165.758 361.707 165.707 362.656 165.243 363.294C165.202 363.35 165.181 363.416 165.135 363.467C165.135 363.467 164.538 364.166 163.875 364.774C163.783 364.865 163.697 364.947 163.605 365.034C163.059 365.564 162.559 366.013 162.559 366.013C162.559 366.013 162.151 366.36 161.65 366.779C161.503 366.906 161.349 367.034 161.191 367.166C160.518 367.656 159.87 368.126 159.788 368.182L159.758 368.202C159.069 368.667 158.252 368.294 157.977 367.462L157.967 367.432C157.686 366.585 157.962 365.641 158.564 365.228Z" fill="#FCCE65"/>
<path d="M167.462 355.939C167.518 355.858 167.982 355.195 168.462 354.506C168.574 354.337 168.681 354.164 168.789 354.006C169.151 353.455 169.447 353.001 169.447 353.001C169.447 353.001 169.814 352.434 170.212 351.776C170.273 351.669 170.34 351.567 170.406 351.46C170.891 350.689 171.345 349.893 171.345 349.893C171.38 349.837 171.426 349.801 171.467 349.756C171.911 349.159 172.625 349.036 173.156 349.531L173.176 349.552C173.702 350.046 173.814 350.98 173.482 351.73C173.457 351.797 173.447 351.868 173.411 351.929C173.411 351.929 172.937 352.756 172.437 353.557C172.37 353.669 172.304 353.776 172.238 353.888C171.819 354.567 171.442 355.159 171.442 355.159C171.442 355.159 171.135 355.628 170.758 356.205C170.646 356.373 170.528 356.552 170.411 356.73C169.906 357.45 169.421 358.149 169.36 358.23L169.34 358.261C168.845 358.986 167.993 359.006 167.493 358.368L167.472 358.343C166.967 357.69 166.972 356.664 167.441 355.975L167.462 355.939Z" fill="#FCCE65"/>
<path d="M174.564 343.945C174.61 343.853 174.983 343.088 175.376 342.297C175.468 342.103 175.559 341.914 175.646 341.73C175.942 341.108 176.187 340.598 176.187 340.598C176.187 340.598 176.483 339.96 176.815 339.236C176.871 339.118 176.922 339.006 176.978 338.889C177.36 338.021 177.743 337.154 177.743 337.154C177.774 337.093 177.82 337.052 177.85 336.991C178.238 336.322 178.922 336.067 179.498 336.475L179.524 336.491C180.09 336.894 180.31 337.807 180.055 338.598C180.034 338.664 180.029 338.741 179.998 338.802C179.998 338.802 179.605 339.69 179.213 340.577C179.156 340.7 179.1 340.817 179.044 340.94C178.702 341.679 178.401 342.338 178.401 342.338C178.401 342.338 178.151 342.858 177.85 343.496C177.764 343.685 177.667 343.879 177.575 344.078C177.177 344.889 176.789 345.675 176.743 345.771L176.728 345.807C176.32 346.608 175.508 346.838 174.927 346.317L174.906 346.302C174.32 345.787 174.166 344.741 174.564 343.97V343.945Z" fill="#FCCE65"/>
<path d="M180.355 330.71L181.228 328.347L181.672 327.148C181.672 327.148 181.906 326.47 182.177 325.699C182.218 325.577 182.264 325.455 182.304 325.327C182.605 324.409 182.907 323.495 182.907 323.495C182.927 323.429 182.973 323.383 182.998 323.317C183.32 322.592 183.978 322.24 184.585 322.556L184.611 322.572C185.213 322.883 185.509 323.761 185.325 324.587C185.31 324.659 185.315 324.73 185.289 324.801C185.289 324.801 184.978 325.745 184.667 326.689C184.621 326.817 184.58 326.944 184.534 327.072C184.264 327.858 184.019 328.557 184.019 328.557L183.565 329.786L182.672 332.215L182.656 332.256C182.33 333.113 181.549 333.465 180.917 333.042L180.891 333.026C180.264 332.608 180.019 331.593 180.335 330.761L180.355 330.71Z" fill="#FCCE65"/>
<path d="M184.876 316.755C184.876 316.755 184.886 316.724 184.886 316.714C184.911 316.612 185.136 315.76 185.33 314.877C185.386 314.643 185.432 314.439 185.473 314.25C185.61 313.627 185.661 313.286 185.677 313.245C185.677 313.245 185.774 312.729 185.85 312.163C185.86 312.071 185.876 311.985 185.886 311.898C185.973 311.229 185.937 310.551 185.937 310.551C185.942 310.357 185.983 310.092 186.049 309.801C186.187 309.204 186.457 308.479 186.911 307.842L186.932 307.811C187.36 307.183 188.177 307.326 188.432 308.265C188.452 308.347 188.498 308.393 188.508 308.484C188.508 308.484 188.575 308.775 188.59 309.245C188.646 309.699 188.636 310.331 188.595 310.974C188.595 311.153 188.57 311.326 188.549 311.505C188.503 311.964 188.432 312.413 188.396 312.76C188.34 313.26 188.274 313.556 188.274 313.556C188.274 313.51 188.131 314.357 187.962 315.158C187.911 315.393 187.86 315.628 187.809 315.827C187.605 316.776 187.371 317.663 187.34 317.77L187.33 317.811C187.105 318.74 186.345 319.214 185.687 318.903L185.661 318.893C184.993 318.577 184.661 317.628 184.876 316.755Z" fill="#FCCE65"/>
<path d="M151.91 367.726C152.012 367.721 152.109 367.721 152.211 367.716C152.926 367.634 153.624 367.481 153.624 367.481C153.676 367.471 153.727 367.486 153.778 367.486C154.375 367.45 154.956 367.915 155.13 368.746L155.135 368.777C155.303 369.578 154.915 370.44 154.237 370.706C154.181 370.731 154.135 370.777 154.074 370.787C154.074 370.787 153.237 370.971 152.4 371.063C152.283 371.068 152.175 371.068 152.063 371.073C152.007 371.073 151.946 371.078 151.895 371.078C151.431 371.093 151.038 371.109 150.859 371.114V367.752C151.033 367.752 151.446 367.741 151.91 367.726Z" fill="#FCCE65"/>
<path d="M146.364 368.71L146.37 368.679C146.569 367.792 147.247 367.256 147.885 367.45L147.916 367.455C147.992 367.47 148.635 367.587 149.298 367.71C149.462 367.715 149.63 367.72 149.783 367.725C150.314 367.746 150.747 367.761 150.747 367.761C150.747 367.761 150.793 367.761 150.849 367.756V371.118C150.783 371.118 150.732 371.123 150.732 371.123C150.732 371.123 150.324 371.108 149.798 371.088C149.737 371.088 149.686 371.083 149.625 371.083C149.446 371.077 149.258 371.067 149.069 371.062C148.283 370.919 147.523 370.781 147.431 370.761L147.395 370.756C146.63 370.521 146.171 369.588 146.364 368.71Z" fill="#FFC176"/>
<path d="M128.899 208.392L146.594 206.367V304.896L116.414 306.513C101.654 307.304 89.2551 295.548 89.2551 280.772V280.497V260.695C89.2551 250.067 93.7706 239.939 101.679 232.837L128.899 208.392Z" fill="#5B251E"/>
<path d="M163.467 207.571L191.539 232.837C199.427 239.934 203.933 250.052 203.933 260.665V280.492V280.768C203.933 295.549 191.529 307.304 176.774 306.508L146.594 304.891V206.362L163.467 207.571Z" fill="#5B251E"/>
<path d="M146.711 242.756C148.972 242.756 150.997 241.751 152.38 240.164C155.727 237.725 159.916 236.755 163.947 237.858L181.835 242.756H181.845L171.59 253.802C169.681 255.858 167.227 257.338 164.503 258.011C159.727 259.195 153.166 259.782 146.594 259.782V242.751C146.63 242.751 146.671 242.756 146.711 242.756Z" fill="#CC7571"/>
<path d="M129.236 237.852C133.267 236.75 137.451 237.724 140.803 240.158C142.185 241.745 144.211 242.75 146.471 242.75C146.512 242.75 146.553 242.745 146.589 242.745V259.776C140.022 259.776 133.461 259.189 128.68 258.006C125.955 257.332 123.501 255.852 121.593 253.796L111.337 242.75H111.343L129.236 237.852Z" fill="#CC7571"/>
<path d="M138.915 224.199C138.956 224.199 138.997 224.204 139.032 224.209C139.073 224.209 139.114 224.199 139.15 224.199C142.885 224.199 145.971 226.929 146.589 230.516V240.98V242.751C146.548 242.751 146.507 242.756 146.471 242.756C144.211 242.756 142.185 241.751 140.803 240.164C137.456 237.725 133.267 236.756 129.236 237.858L111.343 242.756H111.337C111.337 242.756 136.389 224.199 138.915 224.199Z" fill="#AF5E56"/>
<path d="M154.033 224.199C154.074 224.199 154.114 224.209 154.15 224.209C154.191 224.204 154.232 224.199 154.267 224.199C156.793 224.199 181.84 242.751 181.84 242.751H181.83L163.941 237.853C159.911 236.751 155.727 237.725 152.375 240.159C150.992 241.746 148.966 242.751 146.706 242.751C146.665 242.751 146.624 242.746 146.589 242.746V240.975V230.511C147.206 226.929 150.298 224.199 154.033 224.199Z" fill="#AF5E56"/>
</svg>
