<svg viewBox="0 0 376 383" fill="none" xmlns="http://www.w3.org/2000/svg">
<path d="M295.067 143.665C295.067 143.665 308.272 123.006 317.578 124.088C326.884 125.17 326.191 148.257 324.512 162.538C322.833 176.819 309.955 200.417 302.649 199.565C295.343 198.713 291.592 178.973 291.592 178.973L295.067 143.665Z" fill="#FFDDCA"/>
<path d="M94.8304 73.1641L94.9275 75.2661L95.0245 75.9346L95.3102 80.9041L95.407 82.3378L95.5959 86.0625L95.7898 88.7411V89.6952L96.0755 93.9964L96.1723 95.1444L96.4581 100.497L103.244 216.215V216.409C103.244 216.506 103.244 216.506 103.244 216.506L111.556 357.741L112.989 382.012H142.133H144.235H246.193L246.096 382.297L246.382 382.012H278.776L279.633 367.389L289.092 206.281C289.092 206.281 289.092 206.281 289.092 206.184L295.302 100.497L295.588 95.1444L295.685 93.9964L295.97 89.6952V88.7411L296.164 86.0625L296.353 82.3378L296.45 82.1491V80.9041L296.833 75.2661L296.93 73.1641H94.8304Z" fill="#DD6446"/>
<path d="M217.702 250.827H170.532V355.321H217.702V250.827Z" fill="#EFD0AB"/>
<path d="M194.115 322.952V382.005H246.193L246.479 380.954L247.53 377.321L247.912 376.081L251.259 382.005H284.419C282.888 377.035 281.266 372.066 279.643 367.382C278.112 362.795 276.679 358.305 275.25 354.193C273.531 349.034 271.903 344.447 270.566 340.432C267.51 331.544 260.438 324.666 251.361 321.799L239.417 318.074L239.131 317.977L225.468 313.676L217.728 311.191L210.656 308.992L194.115 322.952Z" fill="#EFD0AB"/>
<path d="M193.247 273.196H194.992C244.56 273.196 286.567 236.868 293.511 187.994L303.858 115.18C312.333 55.5297 265.836 2.21143 205.339 2.21143H182.9C122.403 2.21143 75.906 55.5297 84.3808 115.18L94.7281 187.994C101.672 236.868 143.679 273.196 193.247 273.196Z" fill="#FFE7C7"/>
<path d="M83.4778 102.578C83.4778 106.721 83.7839 110.859 84.4013 115.155L94.723 188.015C101.657 236.869 143.704 273.222 193.226 273.222H194.997C244.596 273.222 286.567 236.869 293.501 188.015L303.822 115.155C304.44 110.935 304.746 106.716 304.746 102.578C304.975 95.3686 304.287 88.3122 302.822 81.4855C293.812 36.8512 254.07 2.18164 205.319 2.18164H182.905C134.077 2.18164 94.4934 36.8461 85.4012 81.4855C84.0185 88.2357 83.3247 95.2921 83.4778 102.578Z" fill="#FFE7C7"/>
<path d="M93.1719 143.665C93.1719 143.665 79.9672 123.006 70.6608 124.088C61.3594 125.17 62.0484 148.257 63.727 162.538C65.4056 176.819 78.2835 200.417 85.5899 199.565C92.8963 198.713 96.6465 178.973 96.6465 178.973L93.1719 143.665Z" fill="#FFDDCA"/>
<path d="M234.31 141.058H275.224V140.859C275.224 129.853 266.265 120.93 255.208 120.93H254.326C243.269 120.93 234.31 129.853 234.31 140.859V141.058Z" fill="#002047"/>
<path d="M153.924 141.058H113.01V140.859C113.01 129.853 121.969 120.93 133.026 120.93H133.913C144.965 120.93 153.929 129.853 153.929 140.859V141.058H153.924Z" fill="#002047"/>
<path d="M188.716 189.953H199.517C205.308 189.953 210.002 185.279 210.002 179.514V179.407H178.231V179.514C178.236 185.279 182.93 189.953 188.716 189.953Z" fill="#F4D1A6"/>
<path d="M193.635 0.293146V8.53326C193.635 62.923 230.335 71.9488 253.321 94.8374L304.664 95.1997C300.169 94.2404 304.664 68.9946 304.664 68.9946C304.664 31.0494 273.775 0.288086 235.672 0.288086L193.635 0.293146Z" fill="#F5A579"/>
<path d="M193.635 0.293146V8.53326C193.635 62.923 156.935 71.9488 133.949 94.8374L82.6055 95.1997C87.1005 94.2404 82.6055 68.9946 82.6055 68.9946C82.6055 31.0494 113.494 0.288086 151.598 0.288086L193.635 0.293146Z" fill="#F5A579"/>
<path d="M10.7404 382.007H114.994L113.754 351.618L108.785 226.44L106.111 158.402L105.54 145.692L105.06 133.365L104.58 120.37L103.912 104.507C103.912 104.507 103.912 102.976 103.912 100.491C103.912 98.9608 103.815 97.0526 103.718 95.0423C103.718 94.6597 103.718 94.277 103.621 93.9913C103.621 92.5576 103.524 91.1239 103.427 89.6901C103.33 89.4044 103.33 89.0217 103.33 88.736C103.234 87.8737 103.137 86.9196 103.045 86.0573C102.851 84.8175 102.662 83.4756 102.473 82.3327L102.188 80.899C101.616 78.4142 100.948 76.409 99.8967 75.261C98.8456 73.8273 97.4119 73.5416 95.5955 75.261C95.4068 75.4549 95.2129 75.6437 95.0241 75.9294C93.973 76.9805 92.825 78.6081 91.5851 80.899C91.2994 81.3786 91.1056 81.8531 90.8198 82.3327C90.2484 83.4807 89.6718 84.6236 89.0034 86.0573C88.6207 86.9196 88.238 87.7767 87.8553 88.736C87.6665 89.0217 87.5697 89.4044 87.4728 89.6901C86.9013 91.0269 86.3247 92.4606 85.7533 93.9913C85.5645 94.374 85.3706 94.8536 85.2737 95.2311C84.7022 96.7618 84.1256 98.3843 83.4572 100.104C83.4572 100.201 83.4573 100.293 83.3604 100.389C83.3604 100.389 83.3604 100.389 83.3604 100.486C83.0746 101.155 82.8808 101.823 82.5951 102.589C80.6817 108.227 77.7224 115.681 73.9978 124.569C70.8447 132.406 67.023 141.289 62.8188 150.942C49.7265 180.755 32.8127 217.832 16.9499 251.757C-2.44877 293.427 -4.07133 340.153 10.7404 382.007Z" fill="#F5A579"/>
<path d="M194.92 223.547H223.054L207.451 211.944C202.528 208.281 195.022 211.388 194.92 217.511C194.92 217.557 194.92 217.603 194.92 217.654V223.547Z" fill="#FC5660"/>
<path d="M194.92 238.048H195.084C205.288 238.048 214.947 233.471 221.386 225.594L223.054 223.553H194.92V238.048Z" fill="#FF7885"/>
<path d="M194.921 223.547H166.787L182.39 211.944C187.313 208.281 194.819 211.388 194.921 217.511C194.921 217.557 194.921 217.603 194.921 217.654V223.547Z" fill="#FC5660"/>
<path d="M194.921 238.048H194.757C184.553 238.048 174.894 233.471 168.455 225.594L166.787 223.553H194.921V238.048Z" fill="#FF7885"/>
<path d="M102.662 382.005H136.49L140.311 376.081L140.791 377.321L141.556 379.903L141.939 381.24L142.128 382.005H144.23H194.109V322.952L177.578 309.002L170.506 311.201L162.001 313.88H161.904L145.184 319.135L144.613 319.324L136.873 321.809C127.796 324.676 120.724 331.554 117.668 340.539C116.52 343.978 115.183 347.708 113.749 351.621C113.081 353.626 112.316 355.637 111.55 357.739C108.591 366.045 105.438 374.648 102.662 382.005Z" fill="#EFD0AB"/>
<path d="M147.271 368.57C152.266 355.59 152.174 341.064 146.817 327.809L143.546 319.819L160.884 312.829L193.834 344.784L226.335 312.829L243.672 319.819L240.494 327.809C235.136 341.064 235.044 355.585 239.948 368.57H147.271Z" fill="#FC7089"/>
<path d="M140.026 382.006H142.128L144.087 382.143L144.225 382.006H246.183L246.086 382.291L246.371 382.006H247.137C247.04 381.812 246.851 381.72 246.851 381.526C246.754 381.337 246.565 381.143 246.468 380.955C246.183 380.572 245.897 380.189 245.606 379.807C244.458 378.087 243.407 376.271 242.642 374.454C242.453 374.072 242.162 373.689 242.07 373.403H145.271C144.123 375.602 142.883 377.802 141.546 379.904C141.077 380.572 140.505 381.337 140.026 382.006Z" fill="#F769B6"/>
<path d="M145.271 373.381C146.087 371.835 146.725 370.203 147.266 368.57H239.953C240.499 370.203 241.223 371.835 242.04 373.381H145.271Z" fill="#F99AC2"/>
<path d="M230.733 328.983C231.711 328.983 232.504 328.191 232.504 327.213C232.504 326.235 231.711 325.442 230.733 325.442C229.756 325.442 228.963 326.235 228.963 327.213C228.963 328.191 229.756 328.983 230.733 328.983Z" fill="#F99AC2"/>
<path d="M232.789 340.117C233.767 340.117 234.56 339.324 234.56 338.347C234.56 337.369 233.767 336.576 232.789 336.576C231.812 336.576 231.019 337.369 231.019 338.347C231.019 339.324 231.812 340.117 232.789 340.117Z" fill="#F99AC2"/>
<path d="M221.585 337.137C222.563 337.137 223.355 336.345 223.355 335.367C223.355 334.389 222.563 333.596 221.585 333.596C220.607 333.596 219.814 334.389 219.814 335.367C219.814 336.345 220.607 337.137 221.585 337.137Z" fill="#F99AC2"/>
<path d="M225.84 348.204C226.818 348.204 227.611 347.411 227.611 346.433C227.611 345.455 226.818 344.663 225.84 344.663C224.862 344.663 224.07 345.455 224.07 346.433C224.07 347.411 224.862 348.204 225.84 348.204Z" fill="#F99AC2"/>
<path d="M227.897 359.337C228.874 359.337 229.667 358.545 229.667 357.567C229.667 356.589 228.874 355.796 227.897 355.796C226.919 355.796 226.126 356.589 226.126 357.567C226.126 358.545 226.919 359.337 227.897 359.337Z" fill="#F99AC2"/>
<path d="M216.692 356.358C217.669 356.358 218.462 355.565 218.462 354.587C218.462 353.61 217.669 352.817 216.692 352.817C215.714 352.817 214.921 353.61 214.921 354.587C214.921 355.565 215.714 356.358 216.692 356.358Z" fill="#F99AC2"/>
<path d="M207.401 348.204C208.378 348.204 209.171 347.411 209.171 346.433C209.171 345.455 208.378 344.663 207.401 344.663C206.423 344.663 205.63 345.455 205.63 346.433C205.63 347.411 206.423 348.204 207.401 348.204Z" fill="#F99AC2"/>
<path d="M209.457 359.337C210.435 359.337 211.227 358.545 211.227 357.567C211.227 356.589 210.435 355.796 209.457 355.796C208.479 355.796 207.686 356.589 207.686 357.567C207.686 358.545 208.479 359.337 209.457 359.337Z" fill="#F99AC2"/>
<path d="M198.252 356.358C199.23 356.358 200.023 355.565 200.023 354.587C200.023 353.61 199.23 352.817 198.252 352.817C197.275 352.817 196.482 353.61 196.482 354.587C196.482 355.565 197.275 356.358 198.252 356.358Z" fill="#F99AC2"/>
<path d="M184.706 348.204C185.684 348.204 186.476 347.411 186.476 346.433C186.476 345.455 185.684 344.663 184.706 344.663C183.728 344.663 182.936 345.455 182.936 346.433C182.936 347.411 183.728 348.204 184.706 348.204Z" fill="#F99AC2"/>
<path d="M186.762 359.337C187.74 359.337 188.533 358.545 188.533 357.567C188.533 356.589 187.74 355.796 186.762 355.796C185.784 355.796 184.992 356.589 184.992 357.567C184.992 358.545 185.784 359.337 186.762 359.337Z" fill="#F99AC2"/>
<path d="M213.217 341.397C213.217 342.376 214.008 343.172 214.993 343.172C215.972 343.172 216.763 342.376 216.763 341.397C216.763 340.417 215.967 339.621 214.993 339.621C214.008 339.621 213.217 340.417 213.217 341.397Z" fill="#F99AC2"/>
<path d="M169.67 333.024C170.648 333.024 171.44 332.232 171.44 331.254C171.44 330.276 170.648 329.483 169.67 329.483C168.692 329.483 167.899 330.276 167.899 331.254C167.899 332.232 168.692 333.024 169.67 333.024Z" fill="#F99AC2"/>
<path d="M169.956 342.393C169.956 343.372 170.747 344.168 171.731 344.168C172.711 344.168 173.502 343.372 173.502 342.393C173.502 341.413 172.706 340.617 171.731 340.617C170.747 340.617 169.956 341.413 169.956 342.393Z" fill="#F99AC2"/>
<path d="M160.522 341.183C161.499 341.183 162.292 340.39 162.292 339.412C162.292 338.434 161.499 337.642 160.522 337.642C159.544 337.642 158.751 338.434 158.751 339.412C158.751 340.39 159.544 341.183 160.522 341.183Z" fill="#F99AC2"/>
<path d="M159.455 318.984C160.433 318.984 161.225 318.191 161.225 317.213C161.225 316.235 160.433 315.443 159.455 315.443C158.477 315.443 157.684 316.235 157.684 317.213C157.684 318.191 158.477 318.984 159.455 318.984Z" fill="#F99AC2"/>
<path d="M161.511 330.117C162.489 330.117 163.282 329.324 163.282 328.346C163.282 327.368 162.489 326.576 161.511 326.576C160.534 326.576 159.741 327.368 159.741 328.346C159.741 329.324 160.534 330.117 161.511 330.117Z" fill="#F99AC2"/>
<path d="M150.307 327.143C151.285 327.143 152.077 326.35 152.077 325.372C152.077 324.394 151.285 323.602 150.307 323.602C149.329 323.602 148.536 324.394 148.536 325.372C148.536 326.35 149.329 327.143 150.307 327.143Z" fill="#F99AC2"/>
<path d="M164.282 348.776C164.282 349.755 165.073 350.551 166.057 350.551C167.037 350.551 167.828 349.755 167.828 348.776C167.828 347.796 167.032 347 166.057 347C165.073 347 164.282 347.796 164.282 348.776Z" fill="#F99AC2"/>
<path d="M168.108 361.68C169.086 361.68 169.879 360.887 169.879 359.909C169.879 358.931 169.086 358.139 168.108 358.139C167.131 358.139 166.338 358.931 166.338 359.909C166.338 360.887 167.131 361.68 168.108 361.68Z" fill="#F99AC2"/>
<path d="M156.904 358.7C157.882 358.7 158.674 357.907 158.674 356.93C158.674 355.952 157.882 355.159 156.904 355.159C155.926 355.159 155.133 355.952 155.133 356.93C155.133 357.907 155.926 358.7 156.904 358.7Z" fill="#F99AC2"/>
<path d="M246.188 382.005L246.091 382.291L246.376 382.005L246.856 381.526C246.759 381.337 246.57 381.143 246.473 380.954C246.188 380.572 245.902 380.189 245.611 379.806L243.412 382.005H246.188Z" fill="#F99AC2"/>
<path d="M232.05 382.006H235.106L242.652 374.454C242.463 374.072 242.173 373.689 242.081 373.403H240.647L232.05 382.006Z" fill="#F99AC2"/>
<path d="M220.677 382.006H223.733L232.335 373.403H229.279L220.677 382.006Z" fill="#F99AC2"/>
<path d="M217.906 373.403L209.304 382.006H212.365L220.963 373.403H217.906Z" fill="#F99AC2"/>
<path d="M198.028 382.006H200.992L209.595 373.403H206.63L198.028 382.006Z" fill="#F99AC2"/>
<path d="M186.66 382.006H189.62L198.222 373.403H195.258L186.66 382.006Z" fill="#F99AC2"/>
<path d="M175.287 382.006H178.344L186.946 373.403H183.89L175.287 382.006Z" fill="#F99AC2"/>
<path d="M172.517 373.403L163.915 382.006H166.976L175.573 373.403H172.517Z" fill="#F99AC2"/>
<path d="M152.639 382.006H155.603L164.205 373.403H161.241L152.639 382.006Z" fill="#F99AC2"/>
<path d="M141.174 382.006H142.128L144.092 382.143L152.833 373.403H149.868L141.939 381.24L141.174 382.006Z" fill="#F99AC2"/>
<path d="M360.952 382.006C375.667 342.826 381.208 301.07 369.937 262.176C358.758 223.572 340.217 182.193 325.41 149.896C321.206 140.625 317.287 132.125 313.945 124.671C309.93 115.686 306.777 108.236 304.771 102.69V102.593C304.486 101.828 304.292 101.16 304.006 100.491C303.338 98.578 302.766 96.8585 302.093 95.236C301.996 94.8534 301.807 94.3738 301.613 93.9962C301.042 92.4655 300.465 91.0318 299.894 89.695C299.797 89.4093 299.705 89.0266 299.511 88.7409C299.128 87.7868 298.746 86.9246 298.363 86.0623C297.695 84.6286 297.123 83.4805 296.547 82.3376C296.547 82.2407 296.547 82.2407 296.45 82.1489V82.0519C296.164 81.6692 295.97 81.2866 295.781 80.9039C294.251 78.1334 292.914 76.317 291.771 75.2659C289.955 73.5465 288.521 73.8322 287.47 75.2659C286.419 76.4139 285.75 78.4191 285.179 80.9039C285.082 81.3835 284.985 81.858 284.893 82.3376C284.699 83.4856 284.51 84.8224 284.322 86.0623C284.225 86.9246 284.133 87.8786 284.036 88.7409C284.036 89.0266 284.036 89.4093 283.939 89.695C283.842 91.1287 283.745 92.5625 283.745 93.9962C283.648 94.2819 283.648 94.6646 283.648 95.0473C283.551 97.0525 283.454 98.9658 283.454 100.496C283.454 102.981 283.454 104.512 283.454 104.512L283.072 117.318L282.689 126.778L281.924 151.815L281.638 160.891L279.439 226.445L275.235 354.204L274.372 382.012H360.952V382.006Z" fill="#F5A579"/>
<path d="M247.53 377.323L247.912 376.083L251.259 382.006H284.419C282.888 377.037 281.265 372.067 279.643 367.383C278.112 362.797 276.679 358.307 275.25 354.194C273.531 349.036 271.903 344.449 270.566 340.433C267.51 331.545 260.438 324.668 251.361 321.8L247.53 377.323Z" fill="#EFD0AB"/>
<g opacity="0.45">
<path d="M104.657 138.134C104.657 156.773 119.831 171.88 138.546 171.88C157.261 171.88 172.435 156.773 172.435 138.134C172.435 119.496 157.261 104.388 138.546 104.388C119.826 104.388 104.657 119.496 104.657 138.134Z" fill="#CB99FF"/>
</g>
<g opacity="0.45">
<path d="M216.972 138.134C216.972 156.773 232.141 171.88 250.861 171.88C269.576 171.88 284.745 156.773 284.745 138.134C284.745 119.496 269.576 104.388 250.861 104.388C232.141 104.388 216.972 119.496 216.972 138.134Z" fill="#CB99FF"/>
</g>
<g opacity="0.75">
<path d="M214.084 127.251C218.1 113.587 229.565 103.169 243.8 100.495C246.091 100.015 248.484 99.8267 250.871 99.8267C253.259 99.8267 255.647 100.021 257.943 100.495C268.454 102.408 277.439 108.715 283.077 117.312C286.995 123.333 289.286 130.501 289.286 138.144C289.286 146.65 286.516 154.487 281.643 160.885C274.76 170.248 263.489 176.365 250.871 176.365C229.656 176.365 212.457 159.262 212.457 138.144V137.379C212.554 133.843 213.033 130.501 214.084 127.251ZM250.871 167.385C267.02 167.385 280.209 154.196 280.209 138.144C280.209 121.996 267.02 108.903 250.871 108.903C234.723 108.903 221.539 121.996 221.539 138.144C221.539 154.196 234.723 167.385 250.871 167.385Z" fill="#7A1B86"/>
</g>
<g opacity="0.75">
<path d="M104.576 120.367C109.928 110.143 119.77 102.688 131.429 100.489C133.725 100.01 136.113 99.8208 138.5 99.8208C140.888 99.8208 143.276 100.015 145.572 100.489C159.904 103.163 171.466 113.679 175.481 127.434C176.435 130.684 177.012 134.123 177.012 137.659V138.139C177.012 159.257 159.715 176.359 138.505 176.359C124.842 176.359 112.8 169.191 106.111 158.394C102.193 152.471 100.091 145.588 100.091 138.139C100.086 131.74 101.708 125.72 104.576 120.367ZM138.5 167.384C154.746 167.384 167.93 154.195 167.93 138.144C167.93 121.995 154.741 108.903 138.5 108.903C122.352 108.903 109.163 121.995 109.163 138.144C109.163 154.195 122.352 167.384 138.5 167.384Z" fill="#7A1B86"/>
</g>
<path d="M309.241 89.6992H80.8759V100.48H309.241V89.6992Z" fill="#AE2B92"/>
<path d="M309.241 86.0815H80.8759V93.9543H309.241V86.0815Z" fill="#EB6DC4"/>
<path d="M309.241 80.9019H80.8759V88.7746H309.241V80.9019Z" fill="#545D95"/>
<path d="M309.241 75.229H80.8759V82.3211H309.241V75.229Z" fill="#AE2B92"/>
<g opacity="0.75">
<path d="M176.002 138.583C186.099 128.465 203.737 128.465 213.835 138.583L220.253 132.164C206.722 118.633 183.114 118.633 169.583 132.164L176.002 138.583Z" fill="#7A1B86"/>
</g>
<g opacity="0.75">
<path d="M272.474 136.17C272.474 136.17 272.627 135.721 272.791 134.945C272.826 134.149 273.388 133.109 273.148 131.695C272.933 130.308 272.867 128.435 272.02 126.853C271.444 125.093 270.112 123.639 268.913 122.103C267.377 120.904 265.928 119.562 264.163 118.991C262.556 118.129 260.785 118.108 259.418 117.884C258.04 117.634 256.816 118.18 256.05 118.22C255.265 118.384 254.836 118.542 254.836 118.542C254.836 118.542 255.27 118.787 255.989 119.103C256.703 119.424 257.714 119.766 258.795 120.363C259.897 120.935 261.107 121.583 262.249 122.501C263.494 123.236 264.535 124.353 265.699 125.312C266.653 126.471 267.78 127.511 268.51 128.756C269.444 129.925 270.051 131.037 270.627 132.114C271.234 133.16 271.587 134.354 271.908 135.037C272.229 135.762 272.474 136.17 272.474 136.17Z" fill="#FBFBFB"/>
</g>
<g opacity="0.75">
<path d="M155.526 136.17C155.526 136.17 155.679 135.721 155.842 134.945C155.878 134.149 156.439 133.109 156.2 131.695C155.985 130.308 155.919 128.435 155.072 126.853C154.495 125.093 153.164 123.639 151.965 122.103C150.429 120.904 148.98 119.562 147.215 118.991C145.607 118.129 143.837 118.108 142.47 117.884C141.092 117.634 139.867 118.18 139.102 118.22C138.316 118.384 137.893 118.542 137.893 118.542C137.893 118.542 138.327 118.787 139.046 119.103C139.76 119.424 140.77 119.766 141.852 120.363C142.954 120.935 144.163 121.583 145.306 122.501C146.551 123.236 147.592 124.353 148.755 125.312C149.71 126.471 150.837 127.511 151.567 128.756C152.5 129.925 153.108 131.037 153.684 132.114C154.291 133.16 154.643 134.354 154.965 135.037C155.286 135.762 155.526 136.17 155.526 136.17Z" fill="#FBFBFB"/>
</g>
</svg>
