<svg viewBox="0 0 235 397" fill="none" xmlns="http://www.w3.org/2000/svg">
<path d="M96.766 296.156V338.03C96.4904 336.004 96.3374 334.274 96.2711 332.983L96.3374 331.325C96.3374 331.325 96.2353 331.315 96.2047 331.315C96.2047 331.172 96.1996 330.902 96.1996 330.902C96.1996 330.902 95.771 331.039 95.1588 331.228C95.0108 331.218 94.8577 331.208 94.6792 331.192C91.6893 330.978 84.99 330.647 77.7041 331.172C71.8365 331.596 65.6526 332.601 60.7239 334.688C58.1217 335.79 55.8461 337.167 54.2185 338.958C53.9226 339.28 53.6318 339.693 53.3409 340.045C50.0755 343.979 46.8662 349.724 43.7488 356.765C43.713 356.852 43.6722 356.933 43.6314 357.02C41.3966 362.102 39.2078 367.816 37.0904 373.995C35.5291 378.546 34.0035 383.307 32.5239 388.256L31.9218 388.251L31.8453 387.669L35.274 244.031C46.0907 270.206 69.0456 289.681 96.766 296.156Z" fill="#DD291B"/>
<path d="M162.585 331.757C156.36 330.874 150.13 330.68 145.61 330.706C141.625 330.726 138.961 330.899 138.961 330.899C138.961 330.899 138.936 332.93 138.676 335.655V296.158C158.105 291.628 175.213 280.765 187.422 265.632L181.371 338.685C180.815 338.17 180.228 337.68 179.57 337.231C175.279 334.308 168.983 332.665 162.585 331.757Z" fill="#DD291B"/>
<path d="M96.766 296.158C103.266 297.678 110.001 298.561 116.925 298.561H118.496C125.43 298.561 132.165 297.678 138.671 296.158V335.654C138.13 341.379 136.477 350.461 131.257 352.19L117.573 357.298L103.889 352.19C99.363 350.69 97.5313 343.624 96.7609 338.032V296.158H96.766Z" fill="#EFD0AB"/>
<path d="M37.4629 153.121C40.1772 151.167 43.1518 149.131 46.2897 147.008C95.6945 133.426 147.987 134.018 197.137 148.707L195.861 163.733C191.703 161.014 181.687 155.84 167.508 157.789C148.579 160.254 150.615 182.239 150.615 182.239V183.173C150.615 183.173 179.815 194.801 192.718 183.683C193.31 183.173 193.907 182.239 194.417 181.306L187.458 265.599C175.233 280.794 158.084 291.662 138.65 296.162C132.196 297.687 125.405 298.539 118.532 298.539H116.92C110.042 298.539 103.251 297.692 96.8017 296.162C69.0456 289.712 46.1264 270.186 35.2587 244.043L37.4629 153.121ZM131.859 215.261H103.593V215.348C103.593 220.44 107.751 224.598 112.93 224.598H122.522C127.701 224.598 131.859 220.44 131.859 215.348V215.261ZM94.9292 256.257C100.618 263.217 109.19 267.293 118.272 267.293H118.614C127.614 267.293 136.186 263.217 141.956 256.257L143.4 254.39L129.563 244.119C125.15 240.894 118.527 243.609 118.44 249.043C118.353 243.609 111.649 240.894 107.317 244.119L93.3985 254.39L94.9292 256.257ZM42.7232 183.678C55.6268 194.801 84.8268 183.168 84.8268 183.168V182.234C84.8268 182.234 86.8626 160.249 67.9333 157.784C48.9173 155.238 37.4578 165.341 37.4578 165.341C37.4578 165.341 38.5649 180.117 42.7232 183.678Z" fill="#FFE7C7"/>
<path d="M1.88505 200.235C0.395197 187.546 -0.217069 167.04 8.04853 166.076C10.6609 165.77 13.6099 167.489 16.4366 169.857C16.4927 186.48 18.2836 208.96 20.0438 233.022C13.4263 231.298 3.28305 212.129 1.88505 200.235Z" fill="#FFDDCA"/>
<path d="M220.061 168.984C222.556 167.086 225.107 165.81 227.393 166.075C235.659 167.04 235.046 187.546 233.557 200.235C232.531 208.97 226.791 221.623 221.194 228.414C221.913 205.914 221.653 185.015 220.061 168.984Z" fill="#FFDDCA"/>
<path d="M67.9384 157.79C86.8676 160.254 84.8319 182.24 84.8319 182.24V183.173C84.8319 183.173 55.6319 194.801 42.7283 183.684C38.57 180.117 37.4628 165.346 37.4628 165.346C37.4628 165.346 48.9224 155.244 67.9384 157.79ZM44.509 181.133L50.7898 183.423C57.0707 185.801 63.8617 186.056 70.316 184.189L80.8419 181.133V180.964C80.8419 171.204 72.9488 163.305 63.1015 163.305H62.3362C52.4889 163.305 44.509 171.198 44.509 180.964V181.133Z" fill="#2B0101"/>
<path d="M50.7949 183.46L44.5345 181.154V180.976C44.5345 171.195 52.494 163.271 62.3157 163.271H63.1015C72.9182 163.271 80.8827 171.2 80.8827 180.976V181.154L70.3007 184.185C63.8872 186.022 57.0554 185.767 50.7949 183.46Z" fill="#A6AAB8"/>
<path d="M167.513 157.789C181.687 155.835 191.708 161.014 195.866 163.733L194.422 181.305C193.912 182.239 193.32 183.173 192.723 183.683C179.82 194.806 150.62 183.173 150.62 183.173V182.239C150.62 182.239 148.579 160.249 167.513 157.789ZM154.523 181.132L165.136 184.188C171.585 186.056 178.376 185.8 184.662 183.423L190.943 181.132V180.964C190.943 171.203 182.963 163.305 173.116 163.305H172.35C162.503 163.305 154.523 171.198 154.523 180.964V181.132Z" fill="#2B0101"/>
<path d="M165.146 184.185L154.564 181.154V180.976C154.564 171.195 162.523 163.271 172.345 163.271H173.131C182.953 163.271 190.912 171.2 190.912 180.976V181.154L184.652 183.46C178.386 185.767 171.554 186.022 165.146 184.185Z" fill="#A6AAB8"/>
<path d="M122.517 224.587H112.92C107.777 224.587 103.608 220.434 103.608 215.311V215.219H131.828V215.311C131.834 220.434 127.66 224.587 122.517 224.587Z" fill="#F4D1A6"/>
<path d="M21.6562 98.3282C24.2583 90.3229 28.4932 83.0726 33.9423 76.8989C31.5749 82.6185 29.2228 88.4605 26.886 94.4352C25.0236 95.5016 23.2991 96.8537 21.6562 98.3282Z" fill="#000916"/>
<path d="M37.524 149.498C40.4323 148.594 43.3661 147.778 46.2947 146.977C43.1467 149.115 40.2078 151.161 37.4373 153.13L37.524 149.498Z" fill="#000916"/>
<path d="M192.555 357.02C189.376 349.805 186.08 343.943 182.708 340.045C182.55 339.861 182.391 339.636 182.233 339.463C181.978 339.182 181.652 338.953 181.366 338.688L187.417 265.634L194.407 181.264L195.856 163.763L197.106 148.691C204.214 150.813 211.25 153.227 218.209 155.936C218.949 159.798 219.576 164.12 220.061 168.982C221.653 185.014 221.913 205.912 221.194 228.413C220.051 264.19 216.469 303.87 211.938 333.917C210.091 346.147 203.999 358.612 197.392 369.184C197.111 368.408 196.831 367.658 196.545 366.898C195.239 363.387 193.907 360.086 192.555 357.02Z" fill="#F48E75"/>
<path d="M20.0592 233.003C22.6919 269.591 25.3246 309.827 21.5031 338.435C18.4468 361.778 22.0133 381.982 26.4267 396.411H30.1616C30.6718 394.544 31.182 392.763 31.6871 390.978C31.8555 390.554 31.9422 390.131 32.1106 389.702L31.9422 388.258L31.8555 387.661L35.2536 244.028L37.4628 153.112L37.5496 149.464C30.5901 151.673 23.7123 154.132 16.9213 156.847C16.5794 160.582 16.4111 164.995 16.4111 169.837C16.4927 186.48 18.2785 208.976 20.0592 233.003Z" fill="#DD6446"/>
<path d="M118.435 249.191C118.435 249.15 118.435 249.104 118.435 249.063C118.522 243.629 125.196 240.869 129.568 244.119L143.431 254.425H118.435V249.191Z" fill="#3A0144"/>
<path d="M118.578 267.314H118.435V254.431H143.431L141.946 256.247C136.227 263.247 127.64 267.314 118.578 267.314Z" fill="#430251"/>
<path d="M93.4393 254.43L107.302 244.124C111.675 240.874 118.343 243.634 118.435 249.068C118.435 249.109 118.435 249.149 118.435 249.195V254.435H93.4393V254.43Z" fill="#3A0144"/>
<path d="M118.435 267.314H118.292C109.226 267.314 100.644 263.247 94.9241 256.247L93.4393 254.431H118.435V267.314Z" fill="#430251"/>
<path d="M31.3759 92.4048C29.8299 92.9201 28.3349 93.614 26.8859 94.4355C29.2227 88.4608 31.5749 82.6187 33.9423 76.8991C35.6413 72.7969 37.3353 68.6897 39.0445 64.7048C39.3557 11.259 58.5707 0.370924 115.869 0.743386C117.389 0.743386 118.91 0.743386 120.43 0.743386C177.728 0.325004 203.8 11.1723 204.03 65.8835C207.183 75.746 210.306 85.925 213.403 96.3743C211.112 94.6804 208.663 93.2671 206.066 92.3997C149.4 73.3633 88.036 73.3633 31.3759 92.4048Z" fill="#001938"/>
<path d="M197.111 148.693C147.951 134.019 95.6996 133.448 46.2948 146.979C43.361 147.78 40.4323 148.596 37.5241 149.499C30.5646 151.657 23.6919 154.158 16.8805 156.882C14.5283 157.826 12.1558 158.714 9.8241 159.724C9.8241 147.423 9.8241 135.121 9.8241 122.82C9.8241 114.187 14.6202 104.651 21.6562 98.3342C23.2991 96.8596 25.0236 95.5024 26.8859 94.4412C28.3349 93.6197 29.8299 92.9258 31.3759 92.4105C88.0361 73.369 149.4 73.369 206.061 92.4105C208.663 93.2779 211.107 94.6912 213.398 96.3851C221.735 102.533 227.612 113.243 227.612 122.82C227.612 135.121 227.612 147.423 227.612 159.724C224.505 158.377 221.352 157.163 218.209 155.938C211.255 153.229 204.219 150.811 197.111 148.693Z" fill="#000916"/>
<path d="M117.598 357.276V396.41H141.538V396.068L141.37 390.976L140.691 374.001L140.012 357.026L139.334 340.051L138.992 330.882C138.992 330.882 138.905 332.918 138.655 335.637C138.145 341.408 136.446 350.49 131.267 352.189L117.598 357.276Z" fill="#000916"/>
<path d="M96.1996 330.899C96.1996 330.899 96.2047 331.169 96.2047 331.312C96.0772 331.297 95.7353 331.271 95.1537 331.226C95.771 331.042 96.1996 330.899 96.1996 330.899Z" fill="#000916"/>
<path d="M93.7403 396.41H117.593V357.276L103.924 352.184C99.3375 350.658 97.5568 343.612 96.7915 338.01C96.4547 335.974 96.368 334.275 96.2812 333L96.0261 340.046L95.3475 357.021L94.6689 373.572V373.996L93.9903 390.971L93.7403 396.41Z" fill="#000916"/>
<path d="M162.585 340.046H145.609V330.709C150.13 330.684 156.365 330.878 162.585 331.76V340.046Z" fill="#000916"/>
<path d="M145.61 340.046H139.318L138.956 330.903C138.956 330.903 141.625 330.73 145.604 330.709L145.61 340.046Z" fill="#B0243F"/>
<path d="M162.59 340.047H145.609V357.028H162.59V340.047Z" fill="#B0243F"/>
<path d="M145.61 357.023H139.987L139.318 340.047H145.61V357.023Z" fill="#F64A5A"/>
<path d="M162.59 357.021H145.609V374.001H162.59V357.021Z" fill="#000916"/>
<path d="M145.61 374.001H140.655L139.987 357.021H145.61V374.001Z" fill="#B0243F"/>
<path d="M162.59 374.001H145.609V390.981H162.59V374.001Z" fill="#B0243F"/>
<path d="M145.61 390.976H141.324L140.655 374.001H145.61V390.976Z" fill="#F64A5A"/>
<path d="M162.59 390.978H145.609V396.411H162.59V390.978Z" fill="#000916"/>
<path d="M141.364 390.978L141.533 396.07V396.411H145.61V390.978H141.364Z" fill="#B0243F"/>
<path d="M179.565 340.046V337.229C180.223 337.678 180.81 338.173 181.366 338.684C181.652 338.944 181.978 339.179 182.233 339.459C182.391 339.633 182.55 339.862 182.708 340.041L179.565 340.046Z" fill="#000916"/>
<path d="M162.585 340.047V331.761C168.983 332.664 175.279 334.312 179.56 337.235V340.052H162.585V340.047Z" fill="#B0243F"/>
<path d="M179.565 357.023V340.047H182.708C186.08 343.945 189.376 349.813 192.555 357.023H179.565Z" fill="#B0243F"/>
<path d="M179.565 340.047H162.585V357.028H179.565V340.047Z" fill="#F64A5A"/>
<path d="M179.565 374V357.025H192.555C193.907 360.092 195.239 363.388 196.54 366.898V374.006H179.565V374Z" fill="#000916"/>
<path d="M179.565 357.021H162.585V374.001H179.565V357.021Z" fill="#B0243F"/>
<path d="M196.545 374.001H179.565V390.981H196.545V374.001Z" fill="#B0243F"/>
<path d="M179.565 374.001H162.585V390.981H179.565V374.001Z" fill="#F64A5A"/>
<path d="M196.545 390.978H179.565V396.411H196.545V390.978Z" fill="#000916"/>
<path d="M179.565 390.978H162.585V396.411H179.565V390.978Z" fill="#B0243F"/>
<path d="M196.54 366.894C196.821 367.654 197.106 368.404 197.387 369.179C197.953 370.746 198.509 372.363 199.066 373.996H196.54V366.894Z" fill="#B0243F"/>
<path d="M196.54 390.976V374.001H199.066C200.887 379.369 202.657 385.063 204.362 390.976H196.54Z" fill="#F64A5A"/>
<path d="M196.54 390.978V396.411H205.877C205.367 394.544 204.857 392.763 204.351 390.978H196.54Z" fill="#B0243F"/>
<path d="M60.7187 340.046H53.3307C53.6266 339.694 53.9175 339.28 54.2083 338.959C55.8359 337.168 58.1115 335.791 60.7136 334.688L60.7187 340.046Z" fill="#000916"/>
<path d="M60.7187 340.047V357.023H43.7437V356.767C46.8611 349.726 50.0704 343.981 53.3358 340.047H60.7187Z" fill="#B0243F"/>
<path d="M43.6263 357.021C43.6671 356.935 43.7028 356.853 43.7437 356.766V357.021H43.6263Z" fill="#F64A5A"/>
<path d="M60.7238 357.021H43.7437V374.001H60.7238V357.021Z" fill="#000916"/>
<path d="M37.0852 374C39.2026 367.822 41.3915 362.102 43.6263 357.025H43.7436V374H37.0852Z" fill="#B0243F"/>
<path d="M60.7238 374.001H43.7437V390.981H60.7238V374.001Z" fill="#B0243F"/>
<path d="M37.0853 374.001H43.7437V390.976H31.7228C31.8504 390.542 31.9729 390.104 32.1004 389.675C32.2382 389.206 32.381 388.731 32.5188 388.262C34.0035 383.313 35.5291 378.547 37.0853 374.001Z" fill="#F64A5A"/>
<path d="M60.7238 390.978H43.7437V396.411H60.7238V390.978Z" fill="#000916"/>
<path d="M30.1615 396.411H43.7436V390.978H31.6922C31.1819 392.758 30.6717 394.544 30.1615 396.411Z" fill="#B0243F"/>
<path d="M94.6792 340.046H77.7041V331.173C84.9901 330.648 91.6944 330.979 94.6792 331.194V340.046Z" fill="#000916"/>
<path d="M77.699 340.046H60.7188V334.688C65.6424 332.602 71.8263 331.596 77.699 331.173V340.046Z" fill="#B0243F"/>
<path d="M94.6791 340.047H77.699V357.028H94.6791V340.047Z" fill="#B0243F"/>
<path d="M77.699 340.047H60.7188V357.028H77.699V340.047Z" fill="#F64A5A"/>
<path d="M94.6791 357.021V373.582L94.6587 374.001H77.699V357.021H94.6791Z" fill="#000916"/>
<path d="M77.699 357.021H60.7188V374.001H77.699V357.021Z" fill="#B0243F"/>
<path d="M77.699 374.001H94.6587L93.9903 390.976H77.699V374.001Z" fill="#B0243F"/>
<path d="M77.699 374.001H60.7188V390.981H77.699V374.001Z" fill="#F64A5A"/>
<path d="M77.699 390.978V396.411H93.7403L93.9954 390.978H77.699Z" fill="#000916"/>
<path d="M77.699 390.978H60.7188V396.411H77.699V390.978Z" fill="#B0243F"/>
<path d="M94.6791 331.193C94.8577 331.208 95.0057 331.218 95.1587 331.229C95.7353 331.275 96.0771 331.305 96.2098 331.315C96.2455 331.32 96.3425 331.326 96.3425 331.326L96.2761 332.984L96.0006 340.04H94.6791V331.193Z" fill="#B0243F"/>
<path d="M94.6791 340.047H95.9955L95.3271 357.023H94.6791V340.047Z" fill="#F64A5A"/>
<path d="M95.3271 357.021L94.6791 373.582V357.021H95.3271Z" fill="#B0243F"/>
</svg>
