<svg viewBox="0 0 261 354" fill="none" xmlns="http://www.w3.org/2000/svg">
<path d="M225.019 65.2798H45.4255V332.692H225.019V65.2798Z" fill="#000516"/>
<path d="M149.322 81.833L198.997 262.396L209.885 131.11C193.273 118.283 169.726 100.783 149.322 81.833Z" fill="#00092B"/>
<path d="M218.095 352.419C216.993 349.021 215.886 345.541 214.784 342.148C214.697 341.98 214.615 341.811 214.615 341.725C214.529 341.47 214.447 341.301 214.447 341.133C213.513 338.245 212.58 335.444 211.646 332.729C209.61 326.53 207.569 320.505 205.788 315.157C204.942 312.693 204.176 310.402 203.411 308.198C202.732 306.244 202.135 304.463 201.543 302.764C201.457 302.509 201.375 302.254 201.207 302.086V301.999C198.406 294.361 192.293 288.585 184.482 286.126L157.404 277.554L154.603 276.707L153.669 276.452L148.404 274.753L133.123 287.656V287.478L118.438 275.085L113.683 276.61L112.663 276.865L109.948 277.712L82.2738 286.457C74.294 289.003 67.9264 295.116 65.212 303.096C62.5793 310.821 59.0128 321.346 55.278 332.724C53.1555 339.174 50.9462 345.796 48.9104 352.419C48.492 353.689 218.437 353.608 218.095 352.419Z" fill="#FFDDCA"/>
<path d="M75.3145 352.418L85.3302 334.759L85.7537 335.78L87.4527 341.55L90.5956 352.418H176.078L179.471 341.04L181.084 335.438L181.425 334.417L191.696 352.418H75.3145Z" fill="#FFDDCA"/>
<path d="M154.608 223.118H112.703V315.948H154.608V223.118Z" fill="#FFDDCA"/>
<path d="M132.883 242.99H134.434C178.466 242.99 215.784 210.719 221.952 167.299L231.146 102.613C238.677 49.6212 197.37 2.25732 143.628 2.25732H123.694C69.9519 2.25732 28.6443 49.6212 36.1752 102.613L45.3643 167.299C51.5329 210.719 88.8505 242.99 132.883 242.99Z" fill="#FFE7C7"/>
<path d="M35.369 91.4191C35.369 95.0978 35.6445 98.7765 36.1904 102.593L45.3591 167.32C51.5175 210.719 88.8708 243.011 132.862 243.011H134.434C178.491 243.011 215.784 210.719 221.937 167.32L231.105 102.593C231.651 98.8479 231.927 95.0978 231.927 91.4191C232.131 85.0158 231.514 78.7451 230.218 72.6837C222.212 33.0292 186.91 2.2373 143.602 2.2373H123.693C80.3195 2.2373 45.1499 33.0343 37.0782 72.6837C35.8485 78.6788 35.2312 84.9494 35.369 91.4191Z" fill="#FFF5E9"/>
<path d="M43.9815 127.92C43.9815 127.92 32.2516 109.567 23.986 110.526C15.7204 111.49 16.3326 131.996 17.8224 144.685C19.3123 157.375 30.7515 178.335 37.2466 177.579C43.7418 176.824 47.0684 159.288 47.0684 159.288L43.9815 127.92Z" fill="#FFDDCA"/>
<path d="M223.335 127.92C223.335 127.92 235.065 109.567 243.33 110.526C251.596 111.49 250.984 131.996 249.494 144.685C248.004 157.375 236.565 178.335 230.07 177.579C223.575 176.824 220.248 159.288 220.248 159.288L223.335 127.92Z" fill="#FFDDCA"/>
<path d="M128.857 169.039H138.454C143.597 169.039 147.766 164.886 147.766 159.763V159.671H119.546V159.763C119.546 164.886 123.714 169.039 128.857 169.039Z" fill="#F4D1A6"/>
<path d="M133.23 0.558105V7.8798C133.23 56.1978 60.7169 87.7092 40.2978 108.042C40.2978 108.042 35.3078 73.2699 34.5935 61.5909C32.5373 27.9468 62.0333 0.558105 95.8865 0.558105H133.23Z" fill="#00092B"/>
<path d="M53.9564 171.808L55.931 332.243L0.954483 348.774C0.954483 348.774 31.2311 329.957 37.4456 282.914C45.2316 223.974 23.5013 80.7287 32.0271 56.1104C52.0788 -1.82019 53.9564 171.808 53.9564 171.808Z" fill="#00092B"/>
<path d="M133.23 7.88037C133.23 56.1984 60.7168 87.7097 40.2977 108.042L133.23 7.88037Z" fill="#00092B"/>
<path d="M133.23 7.88037C133.23 7.88037 132.674 10.0488 131.893 13.8653C131.663 15.8245 130.888 18.0491 129.847 20.4369C129.377 21.6309 128.872 22.9064 128.347 24.2483C127.648 25.5341 126.918 26.8912 126.153 28.2995C124.765 31.1771 122.739 34.0037 120.597 36.9732C118.688 40.0754 115.709 42.7285 113.29 45.8817C110.423 48.7237 107.616 51.7544 104.428 54.581C101.325 57.4791 98.0855 60.3312 94.6619 63.015C88.0443 68.6274 80.9778 73.796 74.4163 78.7911C67.8243 83.7351 61.6097 88.3883 56.431 92.6079C51.1859 96.7458 47.1602 100.705 44.3387 103.399C41.6754 106.323 40.2977 108.052 40.2977 108.052C40.2977 108.052 42.1294 106.802 45.3336 104.613C48.5633 102.481 53.3594 99.7765 59.0637 96.4192C64.7935 93.0875 71.4672 89.1639 78.4726 84.6229C85.5086 80.1329 92.8047 74.9389 99.7846 69.2397C103.264 66.3875 106.601 63.3313 109.8 60.2139C113.106 57.2291 115.811 53.6575 118.663 50.5043C121.142 46.9787 123.857 43.851 125.617 40.2591C127.632 36.8559 129.311 33.5292 130.352 30.2026C130.918 28.5699 131.587 27.08 131.985 25.5494C132.26 23.9779 132.52 22.4829 132.765 21.0849C133.321 18.3093 133.612 15.9725 133.449 14.0234C133.378 10.1151 133.23 7.88037 133.23 7.88037Z" fill="#DD291B"/>
<path d="M32.0272 56.107C52.084 -1.81857 45.8032 171.698 45.8032 171.698L32.0272 56.107Z" fill="#00092B"/>
<path d="M134.367 198.883H159.363L145.5 188.571C141.128 185.321 134.459 188.081 134.367 193.515C134.367 193.556 134.367 193.597 134.367 193.643V198.883Z" fill="#420000"/>
<path d="M134.367 211.765H134.51C143.577 211.765 152.159 207.698 157.878 200.698L159.363 198.882H134.367V211.765Z" fill="#700707"/>
<path d="M134.368 198.883H109.372L123.234 188.571C127.607 185.321 134.276 188.081 134.368 193.515C134.368 193.556 134.368 193.597 134.368 193.643V198.883Z" fill="#420000"/>
<path d="M134.368 211.765H134.225C125.158 211.765 116.576 207.698 110.856 200.698L109.372 198.882H134.368V211.765Z" fill="#700707"/>
<g opacity="0.75">
<path d="M126.245 299.616C127.347 298.258 128.878 297.325 130.571 296.901C131.337 296.646 132.097 296.564 132.862 296.564C133.883 296.564 134.817 296.733 135.663 297.075C137.276 297.585 138.72 298.687 139.74 300.044C140.842 301.488 141.521 303.269 141.521 305.223C141.521 308.024 138.888 312.693 136.766 315.917C136 317.019 135.408 317.953 134.898 318.632C134.643 318.973 134.475 319.31 134.306 319.479L132.949 321.346L132.862 321.514L132.694 321.346L131.337 319.479C131.337 319.479 131.337 319.479 131.25 319.392C130.908 318.8 129.974 317.524 128.959 315.912C126.837 312.687 124.122 308.019 124.122 305.218C124.122 303.095 124.888 301.146 126.245 299.616ZM132.867 315.065C135.245 311.499 137.791 306.998 137.791 305.218C137.791 303.264 136.602 301.57 134.99 300.804C134.311 300.468 133.633 300.294 132.867 300.294C132.189 300.294 131.765 300.381 131.168 300.718H130.913C129.133 301.396 127.857 303.177 127.857 305.218C127.862 307.004 130.408 311.499 132.867 315.065Z" fill="#365375"/>
<path d="M133.087 337.729C134.112 337.729 134.949 336.897 134.949 335.866V318.345C134.949 317.32 134.118 316.483 133.087 316.483C132.056 316.483 131.225 317.315 131.225 318.345V335.866C131.225 336.897 132.056 337.729 133.087 337.729Z" fill="#365375"/>
<path d="M126.245 325.075H139.684C140.715 325.075 141.546 324.244 141.546 323.213C141.546 322.187 140.715 321.351 139.684 321.351H126.245C125.214 321.351 124.383 322.182 124.383 323.213C124.383 324.244 125.214 325.075 126.245 325.075Z" fill="#365375"/>
</g>
<g opacity="0.75">
<path d="M133.653 300.907C146.786 300.907 157.465 289.249 157.465 274.916C157.465 273.891 156.634 273.054 155.603 273.054C154.577 273.054 153.741 273.886 153.741 274.916C153.741 287.198 144.73 297.188 133.648 297.188C122.571 297.188 113.561 287.198 113.561 274.916C113.561 273.891 112.729 273.054 111.698 273.054C110.668 273.054 109.836 273.886 109.836 274.916C109.846 289.249 120.525 300.907 133.653 300.907Z" fill="#365375"/>
</g>
<path d="M133.633 351.141V352.417H178.114L180.747 342.483L179.476 341.039L173.874 334.671C173.195 333.992 172.517 333.314 171.838 332.717C169.037 330.171 165.812 328.385 162.333 327.37C154.776 325.16 147.138 327.625 141.791 332.717C138.567 335.773 136.189 339.845 135.169 344.345L133.633 351.141Z" fill="#000916"/>
<path d="M86.6055 342.482L89.2382 352.416H133.633V351.141L132.107 344.35C131.087 339.85 128.709 335.778 125.571 332.722C120.224 327.63 112.581 325.165 105.03 327.375C101.55 328.395 98.3253 330.176 95.5242 332.722C94.8456 333.314 94.167 333.997 93.4884 334.676L87.4626 341.554L86.6055 342.482Z" fill="#000916"/>
<path d="M125.53 1.51286C127.709 15.3042 132.306 36.9988 140.291 49.0911C141.016 50.137 141.74 51.1881 142.551 52.0759C152.389 63.7702 191.017 81.832 211.906 106.915C220.779 117.558 226.422 129.497 225.213 142.804C225.213 143.043 225.131 143.288 225.131 143.528C222.064 177.157 211.018 252.399 206.018 287.722C204.89 295.304 204.161 300.947 203.758 304.095C201.094 325.871 210.13 337.964 216.58 343.612L221.58 344.26L260.933 348.775C260.933 348.775 224.422 329.637 227.871 278.375C230.881 233.618 239.162 168.697 236.983 125.956L235.315 72.9185C235.315 39.2081 204.589 0.339355 170.802 0.339355L126.985 0.553648L125.53 1.51286Z" fill="#00092B"/>
<path d="M225.207 142.797L225.059 143.522C223.054 151.92 221.539 160.349 219.758 168.757L215.294 194.054C212.334 210.912 209.982 227.831 207.646 244.75C205.482 261.7 203.406 278.624 201.793 295.691L201.191 302.084L201.043 303.681L200.992 305.497L200.931 308.706C200.793 310.793 200.951 313.043 201.252 315.344C201.426 317.625 201.737 319.855 202.4 321.998C203.39 326.345 205.411 330.416 207.691 334.146C210.115 337.815 213.059 341.116 216.585 343.606C213.641 340.463 211.396 336.83 209.554 333.115C207.911 329.294 206.589 325.34 206.263 321.222C205.88 319.197 205.737 317.186 205.773 315.181C205.666 313.212 205.676 311.196 206.003 309.018L206.339 305.824L206.487 304.441L206.773 302.864L207.921 296.548C210.982 279.726 213.273 262.725 215.646 245.77C217.799 228.78 219.947 211.79 221.483 194.733L223.763 169.166C224.228 160.619 224.962 152.099 225.202 143.537V143.527L225.207 142.797Z" fill="#DD291B"/>
<path d="M125.53 1.51221C125.53 1.51221 125.689 4.36945 126.163 9.33902C126.357 11.8238 126.755 14.8239 127.357 18.2832C127.995 21.7221 128.286 25.7324 129.617 29.8754C130.944 34.0287 131.526 38.7482 134.005 43.3249C135.087 45.6668 136.194 48.07 137.327 50.5292C138.301 52.1773 138.863 52.8151 139.689 54.009C141.108 55.6111 141.689 56.0499 142.74 57.1417C144.49 59.0653 146.807 60.8408 149.128 62.647C151.455 64.5399 153.761 66.2186 156.077 67.7544C160.705 70.9126 165.404 74.127 170.104 77.3363C174.726 80.5456 179.512 83.5712 183.885 86.903C188.313 90.1837 192.742 93.2961 196.645 96.735C200.804 99.9341 204.242 103.516 207.671 106.822C211.054 109.965 213.962 113.817 216.263 116.965C218.493 120.389 220.503 123.629 221.723 126.751C223.065 129.823 223.917 132.69 224.289 135.093C224.789 137.497 224.983 139.425 225.044 140.757C225.151 142.094 225.208 142.808 225.208 142.808C225.024 142.808 226.009 140.017 225.85 134.925C225.861 132.384 225.463 129.267 224.57 125.807C223.82 122.282 222.258 118.501 220.217 114.567C217.947 110.552 215.671 106.669 212.187 102.847C208.886 99.0769 205.518 94.888 201.339 91.4134C197.375 87.6479 193.089 84.0407 188.523 80.6579C184.048 77.1373 179.272 73.9893 174.604 70.6626C169.869 67.5401 165.129 64.4175 160.465 61.346C158.113 59.7949 155.868 58.2999 153.848 56.8458C151.756 55.3968 149.649 54.0345 147.7 52.0956L145.067 49.7231C144.368 48.7894 143.189 47.4781 142.863 46.9271C141.679 44.8097 140.521 42.7433 139.393 40.7279C136.852 36.8502 135.73 32.3041 134 28.5132C132.322 24.661 131.424 20.8904 130.255 17.6505C129.138 14.3953 128.265 11.4922 127.684 9.06349C126.388 4.24189 125.53 1.51221 125.53 1.51221Z" fill="#DD291B"/>
<path d="M216.579 343.6C219.886 346.585 222.549 347.794 222.549 347.794L221.58 344.243L216.579 343.6Z" fill="#00092B"/>
<path d="M98.0855 125.603L87.5035 128.634C81.09 130.471 74.2581 130.215 68.0028 127.909L61.7424 125.603V125.424C61.7424 115.644 69.7018 107.72 79.5236 107.72H80.3094C90.1261 107.72 98.0906 115.649 98.0906 125.424V125.603H98.0855Z" fill="#002047"/>
<path d="M58.4208 125.594L58.7627 121.772C59.0178 120.415 59.528 118.803 59.9515 117.359C60.5485 116.083 61.2271 114.894 61.9873 113.624C62.8343 112.522 63.768 111.415 64.7017 110.399C66.8242 108.532 68.86 107.001 71.4927 106.072C71.6611 105.986 71.8346 105.986 71.9162 105.986C74.4623 105.052 77.3501 104.715 79.8961 104.797C81.6768 104.884 82.4421 105.139 83.7177 105.307C84.9933 105.562 86.4321 106.154 87.7944 106.664C90.2536 107.853 92.3762 109.552 94.1619 111.501C94.9273 112.522 95.6875 113.624 96.3712 114.644C96.7947 115.92 97.3917 117.022 97.7284 118.211C97.9835 119.486 98.2386 120.757 98.3253 121.946L98.0702 125.425L97.1365 122.201C96.713 121.099 96.1161 120.078 95.6926 119.144L93.8252 116.43L91.4476 114.221C89.7485 112.945 87.8811 111.93 85.932 111.333C84.9983 111.165 84.3197 110.909 83.2176 110.736C82.1156 110.736 80.5033 110.649 79.9063 110.649C78.1256 110.818 76.595 111.073 75.0694 111.67C74.7275 111.751 74.4775 111.925 74.1357 112.006C72.4367 112.772 70.8244 113.874 69.3805 115.231L67.5997 117.44C67.1762 118.287 66.6661 119.139 66.2426 119.986L65.3956 122.364L65.3089 123.466C64.4619 123.124 63.6098 122.787 62.8496 122.532L65.0589 125.589L65.3089 123.466C67.3447 124.318 69.3039 125.247 71.1713 125.757C71.2581 125.757 71.3396 125.844 71.4264 125.844C72.7019 126.354 74.0592 126.691 75.5031 126.864C76.947 127.201 78.391 127.456 79.7482 127.374C81.1054 127.543 82.5492 127.629 84.1615 127.374L86.5392 127.119C87.3045 127.119 87.8148 127.038 88.7434 126.864C91.7996 126.354 94.9426 125.93 98.0805 125.589C95.2793 127.032 92.3914 128.303 89.5087 129.492C88.8301 129.747 87.8964 130.17 87.131 130.425L84.9218 131.104C83.4779 131.614 81.7788 131.869 79.9982 132.038C78.2991 132.293 76.6052 132.293 74.9061 132.124C73.2071 132.124 71.5132 131.956 69.8141 131.446C67.86 131.022 66.1661 130.512 64.5538 130.002C63.2833 129.578 62.0077 129.068 60.6505 128.645C60.4821 128.645 60.3955 128.645 60.3087 128.558L58.2729 127.966V127.543L58.4208 125.594Z" fill="#231F20"/>
<path d="M76.0082 108.27C76.0082 108.27 72.7785 101.673 62.9057 110.791C56.3544 116.837 49.8032 116.337 49.8032 116.337C49.8032 116.337 50.8134 128.94 69.712 130.955L76.0082 108.27Z" fill="#231F20"/>
<path d="M169.226 125.605L179.808 128.636C186.221 130.473 193.053 130.218 199.309 127.912L205.569 125.605V125.427C205.569 115.646 197.61 107.722 187.788 107.722H187.002C177.185 107.722 169.221 115.651 169.221 125.427V125.605H169.226Z" fill="#002047"/>
<path d="M201.12 119.992C200.696 119.145 200.099 118.293 199.763 117.446L197.895 115.237C196.538 113.88 194.926 112.773 193.14 112.012C192.885 111.926 192.548 111.757 192.206 111.676C190.762 111.079 189.15 110.829 187.369 110.655C186.777 110.655 185.16 110.742 184.145 110.742C183.976 110.742 183.803 110.829 183.634 110.829C182.787 110.997 182.191 111.171 181.344 111.339C179.476 111.931 177.609 112.951 175.91 114.227L173.532 116.436L171.578 119.15C171.154 120.084 170.557 121.105 170.134 122.207L169.2 125.431L168.945 121.952C169.114 120.763 169.369 119.487 169.537 118.217C169.96 117.028 170.471 115.926 170.981 114.65C171.66 113.63 172.425 112.528 173.19 111.507C174.802 109.727 176.583 108.196 178.879 107.094C179.048 106.926 179.303 106.757 179.558 106.67C180.828 106.16 182.359 105.568 183.548 105.313C184.905 105.145 185.67 104.89 187.369 104.803C189.915 104.716 192.803 105.058 195.349 105.992C195.436 105.992 195.604 105.992 195.773 106.079C198.405 107.012 200.528 108.538 202.65 110.405C203.584 111.426 204.431 112.528 205.365 113.63C206.043 114.905 206.722 116.089 207.319 117.365C207.829 118.809 208.253 120.421 208.508 121.778L208.85 125.6L209.018 127.635V127.977L207.064 128.569C206.977 128.656 206.809 128.656 206.722 128.656H206.635C205.36 129.166 204.089 129.503 202.814 130.013C202.645 130.1 202.39 130.1 202.222 130.182C200.778 130.605 199.166 131.115 197.467 131.457C195.854 131.967 194.155 132.136 192.456 132.136C190.757 132.304 189.063 132.304 187.277 132.049C185.578 131.881 183.884 131.625 182.441 131.115L180.15 130.437C179.471 130.181 178.451 129.758 177.859 129.503C174.971 128.314 172.088 127.044 169.2 125.6C172.425 125.942 175.481 126.365 178.624 126.875C179.471 127.044 179.981 127.13 180.833 127.13L183.211 127.385C184.823 127.641 186.267 127.554 187.624 127.385C188.982 127.472 190.425 127.217 191.783 126.875C193.227 126.707 194.584 126.365 195.941 125.855C196.028 125.855 196.109 125.768 196.196 125.768C197.64 125.345 199.166 124.666 200.696 124.069C201.12 123.814 201.63 123.646 202.053 123.477L202.309 125.258V125.6L202.395 125.431L204.431 122.543C203.666 122.799 202.906 123.14 202.053 123.477L201.885 122.375L201.12 119.992Z" fill="#231F20"/>
<path d="M191.303 108.273C191.303 108.273 194.528 101.676 204.406 110.793C210.957 116.839 217.508 116.339 217.508 116.339C217.508 116.339 216.498 128.942 197.599 130.957L191.303 108.273Z" fill="#231F20"/>
</svg>
