<svg viewBox="0 0 253 396" fill="none" xmlns="http://www.w3.org/2000/svg">
<path d="M125.558 56.7665L126.298 36.3423H135.364C189.535 36.3423 233.444 80.0683 233.444 134.014V228.528C233.444 281.575 206.979 331.159 162.824 360.838L162.11 361.318L127.339 302.714L125.558 56.7665Z" fill="#000319"/>
<path d="M125.558 56.7665L124.818 36.3423H115.752C61.5813 36.3423 17.6716 80.0683 17.6716 134.014V228.528C17.6716 281.575 44.1367 331.159 88.2913 360.838L89.0057 361.318L123.783 302.714L125.558 56.7665Z" fill="#000319"/>
<path d="M39.9019 393.444H70.6988L75.5663 385.918L76.0103 386.979L76.8062 389.811L77.9543 393.439H124.772L124.859 385.296V384.852L125.39 336.615L110.961 324.401L110.078 323.691L103.527 325.727L101.225 326.436L100.43 326.702L97.9498 327.498L95.4701 328.294L92.9037 329.09L80.9543 332.896L73.0764 335.284L72.3673 335.549C69.4489 336.437 66.7906 337.85 64.4027 339.621C64.0507 339.799 63.7853 340.064 63.52 340.238C59.4485 343.514 56.3513 347.85 54.5809 352.891C50.596 364.397 45.1112 379.622 40.5957 391.48C40.4324 392.204 40.1672 392.821 39.9019 393.444Z" fill="#FFE7C7"/>
<path d="M172.927 393.443L173.988 389.994L174.876 386.984L175.228 385.923L180.095 393.449H210.898C206.382 381.326 200.366 365.126 196.208 352.911C194.524 347.957 191.428 343.62 187.448 340.431C185.06 338.482 182.228 336.89 179.218 335.829C178.953 335.742 178.687 335.651 178.422 335.564L170.544 333.084L157.885 329.099L155.319 328.303L152.839 327.507L149.65 326.533L148.855 326.268L147.263 325.737L140.711 323.701L140.094 324.232L125.405 336.625L124.874 384.862V385.305L124.787 393.449H166.029C166.473 393.714 167.003 393.979 167.442 394.423C169.473 396.275 172.927 393.443 172.927 393.443Z" fill="#FFE7C7"/>
<path d="M163.008 48.4669C163.008 48.4669 197.545 13.6595 216.684 5.78678C235.822 -2.08595 252.052 0.812116 252.052 0.812116C252.052 0.812116 253.716 88.6571 215.02 82.4426C176.325 76.2281 163.422 50.1251 163.422 50.1251L163.008 48.4669Z" fill="#DD6446"/>
<path d="M187.56 70.0124C187.56 70.0124 197.545 38.9348 212.944 25.6741C226.556 13.9492 246.236 6.1377 246.236 6.1377C246.236 6.1377 247.685 82.4925 214.046 77.0892L187.56 70.0124Z" fill="#EFBFCE"/>
<path d="M89.7711 48.4669C89.7711 48.4669 55.2342 13.6595 36.0957 5.78678C16.9573 -2.08595 0.727099 0.812116 0.727099 0.812116C0.727099 0.812116 -0.936247 88.6571 37.759 82.4426C76.4594 76.2281 89.3578 50.1251 89.3578 50.1251L89.7711 48.4669Z" fill="#F37543"/>
<path d="M65.2191 70.0124C65.2191 70.0124 55.234 38.9348 39.8355 25.6741C26.2228 13.9492 6.54854 6.1377 6.54854 6.1377C6.54854 6.1377 5.09962 82.4925 38.7386 77.0892L65.2191 70.0124Z" fill="#EFBFCE"/>
<path d="M147.258 269.889H103.537V393.439H147.258V269.889Z" fill="#EFD0AB"/>
<path d="M124.604 290.587H126.222C172.131 290.587 211.036 256.938 217.47 211.671L227.052 144.23C234.904 88.983 191.836 39.5986 135.804 39.5986H115.022C58.9896 39.5986 15.9217 88.9779 23.774 144.23L33.3559 211.671C39.7898 256.938 78.6943 290.587 124.604 290.587Z" fill="#FFE7C7"/>
<path d="M22.9371 132.562C22.9371 136.398 23.2228 140.235 23.7942 144.21L33.3508 211.692C39.7694 256.938 78.7196 290.608 124.584 290.608H126.227C172.162 290.608 211.041 256.938 217.459 211.692L227.021 144.21C227.592 140.302 227.878 136.398 227.878 132.562C228.092 125.883 227.45 119.352 226.092 113.03C217.745 71.6869 180.938 39.5786 135.788 39.5786H115.032C69.8062 39.5786 33.1416 71.6869 24.728 113.03C23.4371 119.275 22.7942 125.811 22.9371 132.562Z" fill="#FFF1E1"/>
<path d="M31.9172 170.614C31.9172 170.614 19.6872 151.476 11.0695 152.481C2.45185 153.486 3.08961 174.865 4.64579 188.095C6.20197 201.325 18.1258 223.178 24.8965 222.387C31.6671 221.596 35.1366 203.315 35.1366 203.315L31.9172 170.614Z" fill="#FFDDCA"/>
<path d="M218.908 170.614C218.908 170.614 231.138 151.476 239.756 152.481C248.373 153.486 247.736 174.865 246.18 188.095C244.623 201.325 232.699 223.178 225.929 222.387C219.158 221.596 215.689 203.315 215.689 203.315L218.908 170.614Z" fill="#FFDDCA"/>
<path d="M162.636 168.201H200.53V168.013C200.53 157.818 192.229 149.553 181.994 149.553H181.172C170.932 149.553 162.636 157.818 162.636 168.013V168.201Z" fill="#002047"/>
<path d="M88.1843 168.201H50.29V168.013C50.29 157.818 58.5915 149.553 68.8265 149.553H69.6479C79.8881 149.553 88.1843 157.818 88.1843 168.013V168.201Z" fill="#002047"/>
<path d="M120.41 213.489H130.415C135.778 213.489 140.125 209.163 140.125 203.821V203.724H110.701V203.821C110.701 209.157 115.048 213.489 120.41 213.489Z" fill="#F4D1A6"/>
<path d="M126.155 244.602H152.212L137.757 233.852C133.196 230.459 126.242 233.337 126.15 239.005C126.15 239.051 126.15 239.092 126.15 239.138V244.602H126.155Z" fill="#FF945F"/>
<path d="M126.155 258.031H126.308C135.758 258.031 144.707 253.791 150.671 246.494L152.217 244.602H126.16V258.031H126.155Z" fill="#F47A45"/>
<path d="M126.155 244.602H100.098L114.552 233.852C119.114 230.459 126.068 233.337 126.16 239.005C126.16 239.051 126.16 239.092 126.16 239.138V244.602H126.155Z" fill="#FF945F"/>
<path d="M126.155 258.031H126.002C116.553 258.031 107.603 253.791 101.639 246.494L100.093 244.602H126.15V258.031H126.155Z" fill="#F47A45"/>
<path d="M172.927 393.443H176.555C175.667 392.382 174.784 391.229 173.989 389.994C173.106 388.754 172.31 387.428 171.509 386.009C170.978 384.948 170.448 383.887 170.004 382.82C168.856 380.519 167.968 378.131 167.259 375.652C167.259 375.565 167.172 375.473 167.172 375.386C166.376 372.907 165.845 370.253 165.488 367.687C165.488 367.6 165.488 367.6 165.488 367.508C165.223 366.09 165.131 364.59 165.131 363.085V362.82C164.953 361.666 164.953 360.432 165.044 359.279C165.044 359.013 165.131 358.835 165.131 358.569V358.304C165.131 357.952 165.131 357.508 165.218 357.151C165.218 357.151 165.305 357.151 165.218 357.064C165.396 351.666 166.636 346.355 168.759 341.135L171.769 333.788L170.529 333.079L150.437 321.573L150.171 321.395L149.375 320.951C149.375 320.951 149.197 322.986 148.845 326.262C148.579 329.094 148.135 332.813 147.605 336.885C147.518 337.768 147.34 338.655 147.253 339.538C146.013 349.273 144.156 360.069 142.033 364.054C138.314 371.223 127.431 382.642 125.038 385.029C125.038 385.116 124.951 385.116 124.859 385.208V385.295C124.773 385.382 124.681 385.473 124.681 385.473V393.438H166.014C166.458 393.703 166.988 393.969 167.427 394.412C169.473 396.275 172.927 393.443 172.927 393.443Z" fill="#F48E75"/>
<path d="M74.1533 393.444H124.691V385.479C124.691 385.479 111.415 372.117 107.165 364.06C105.838 361.494 104.598 356.182 103.537 350.167C103.006 346.804 102.476 343.177 101.945 339.636V339.549C101.236 334.682 100.792 330.079 100.44 326.717C100.353 325.656 100.261 324.681 100.175 323.885L99.292 324.237L98.3176 324.681L91.6794 327.778L91.4143 327.865L80.9699 332.911L79.0209 333.799L82.0312 341.146C83.8017 345.483 84.9496 349.907 85.3935 354.422C85.3068 354.509 85.3935 354.509 85.3935 354.509C85.5721 355.662 85.6589 356.81 85.6589 357.958V358.31C85.7456 358.489 85.7456 358.754 85.7456 359.019C85.9242 360.346 85.9242 361.672 85.7456 363.004V363.356C85.6588 364.774 85.567 366.188 85.3017 367.514C84.9445 370.259 84.414 372.913 83.5313 375.658C83.5313 375.744 83.4445 375.923 83.4445 376.01C82.9139 377.959 82.2965 379.729 81.4087 381.5C81.2301 381.943 81.0567 382.382 80.8782 382.826C80.7914 382.913 80.6128 383.091 80.6128 383.27C80.2608 384.066 79.9036 384.775 79.4648 385.571C79.0209 386.367 78.4902 387.255 77.9596 388.051C77.9596 388.138 77.9596 388.138 77.9596 388.138C77.6075 388.755 77.2503 389.291 76.8116 389.821C76.0105 391.056 75.2146 392.291 74.1533 393.444Z" fill="#F48E75"/>
<path d="M157.615 57.5522L126.298 36.3423H135.365C189.535 36.3423 233.445 80.0683 233.445 134.014V228.528C233.445 281.575 206.979 331.159 162.825 360.838L162.11 361.318L162.564 360.731C191.749 323.118 207.586 276.927 207.586 229.395V151.581C207.592 113.932 188.877 78.7213 157.615 57.5522Z" fill="#000319"/>
<path d="M94.9805 57.5522L126.298 36.3423H117.226C63.0559 36.3423 19.1462 80.0683 19.1462 134.014V228.528C19.1462 281.575 45.6113 331.159 89.766 360.838L90.4803 361.318L90.0263 360.731C60.8416 323.118 45.0094 276.927 45.0094 229.395V151.581C45.0043 113.932 63.7191 78.7213 94.9805 57.5522Z" fill="#000319"/>
<path d="M37.1416 143.785H213.689V123.371C213.689 75.3077 174.56 36.3472 126.298 36.3472H124.533C76.2655 36.3472 37.1416 75.3077 37.1416 123.371V143.785Z" fill="#040A28"/>
<path d="M109.062 200.61C109.062 204.37 125.41 209.192 125.41 209.192C125.41 209.192 141.757 204.37 141.757 200.61C141.757 196.85 134.441 193.804 125.41 193.804C116.384 193.799 109.062 196.85 109.062 200.61Z" fill="#442700"/>
<path d="M160.534 393.444H166.019C162.656 391.408 160.534 393.444 160.534 393.444Z" fill="#FFEDE9"/>
<path d="M125.487 385.479V393.443H160.534C160.534 393.443 161.682 387.071 166.993 387.78C172.213 388.397 172.391 390.168 172.391 390.168C172.391 390.168 172.213 388.132 171.509 386.01C170.978 384.948 170.447 383.887 170.003 382.821C169.121 381.673 167.968 380.872 166.463 380.872C161.86 380.872 160.621 382.198 160.355 382.555C160.534 382.025 162.212 377.866 166.815 375.831C166.993 375.744 167.167 375.744 167.259 375.652C167.524 375.565 167.789 375.473 167.968 375.387C171.509 373.973 173.101 374.678 173.544 374.856C173.192 374.147 170.09 368.575 166.289 367.687C166.024 367.601 165.845 367.509 165.493 367.509H165.406C161.865 367.422 159.478 369.458 158.947 369.897C159.034 369.453 160.626 365.295 163.462 363.789C164.085 363.524 164.61 363.259 165.146 363.08C165.412 362.902 165.677 362.902 165.942 362.815C167.891 362.019 169.57 361.662 169.57 361.662C169.57 361.662 168.157 359.626 165.942 358.565C165.677 358.478 165.412 358.299 165.146 358.299C164.968 358.213 164.794 358.121 164.529 358.121C163.554 357.856 162.493 357.856 161.345 358.121C161.08 358.208 160.728 358.299 160.462 358.473C157.717 359.447 156.212 360.774 156.212 360.774C156.212 360.774 156.212 356.881 158.069 354.401C158.6 353.605 159.309 352.896 160.284 352.544C163.559 351.218 158.87 351.126 156.391 351.57C155.773 351.656 155.329 351.835 155.151 352.013C154.176 352.809 152.763 353.427 152.763 353.427C152.763 353.427 153.294 350.947 154.799 348.911C155.243 348.115 155.952 347.406 156.748 346.962C159.758 345.279 160.998 344.396 160.998 344.396C160.998 344.396 156.748 341.743 154.625 343.6C152.59 345.457 155.6 338.288 158.345 337.579C160.998 336.783 162.86 336.339 162.86 336.339C162.86 336.339 160.559 332.181 157.462 333.421C155.248 334.395 156.753 331.12 157.906 329.084C158.35 328.288 158.702 327.671 158.702 327.671L155.34 328.288L153.304 328.64L152.86 327.487L150.472 321.558L150.207 320.941C150.207 320.941 150.207 321.119 150.207 321.385C150.12 322.181 149.942 324.038 149.676 326.518C149.324 329.615 148.88 333.686 148.35 338.023V338.11C147.993 340.59 147.64 343.156 147.288 345.631C146.049 353.417 144.543 360.856 142.865 364.039C138.676 372.111 125.487 385.479 125.487 385.479Z" fill="#FFEDE9"/>
<path d="M84.8628 393.444H90.3477C90.3477 393.444 88.1384 391.408 84.8628 393.444Z" fill="#FFEDE9"/>
<path d="M78.7553 388.131C78.6686 388.927 78.5767 389.55 78.5767 389.902C78.842 389.371 79.9034 388.218 83.8882 387.779C89.1078 387.07 90.3476 393.443 90.3476 393.443H125.487V385.478C125.487 385.478 125.308 385.3 125.043 385.034C124.956 384.948 124.956 384.948 124.864 384.856C122.298 382.203 111.675 371.136 107.96 364.059C106.277 360.875 104.777 353.263 103.537 345.298C103.185 342.997 102.92 340.696 102.649 338.395C102.032 333.879 101.588 329.543 101.236 326.446C101.149 325.471 101.057 324.588 100.97 323.879C100.705 322.022 100.618 320.956 100.618 320.956L99.2917 324.231L99.1131 324.675L97.9653 327.507L97.5213 328.66L95.4855 328.308L92.4752 327.777L92.1231 327.69C92.1231 327.69 92.1231 327.777 92.2098 327.869C92.3884 328.134 92.6538 328.578 92.9191 329.109C94.0671 331.145 95.7508 334.42 93.5365 333.446C90.3476 332.206 87.9598 336.364 87.9598 336.364C87.9598 336.364 89.8169 336.808 92.5619 337.604C95.3069 338.313 98.3121 345.482 96.1896 343.625C94.067 341.768 89.8169 344.421 89.8169 344.421C89.8169 344.421 91.0568 345.308 94.0671 346.987C94.9498 347.518 95.6589 348.314 96.1896 349.201C97.6029 351.151 98.0468 353.452 98.0468 353.452C98.0468 353.452 96.8069 352.834 95.6589 352.038C95.4803 351.86 95.2151 351.773 94.7712 351.686C92.4701 351.156 87.1587 351.156 90.521 352.574C91.5823 353.018 92.3782 353.727 93.0007 354.697C94.6844 357.176 94.6845 360.804 94.6845 360.804C94.6845 360.804 93.1793 359.564 90.6996 358.59C90.3425 358.411 89.9036 358.324 89.5465 358.146C89.0158 357.967 88.3986 357.967 87.9547 357.967C87.424 357.88 86.8933 357.967 86.4494 358.054C86.2709 358.054 86.1841 358.141 86.0055 358.232C85.9188 358.232 85.7402 358.232 85.6535 358.319C85.4749 358.319 85.2097 358.406 85.0362 358.498C82.6484 359.651 81.23 361.682 81.23 361.682C81.23 361.682 83.2657 362.125 85.7453 363.008C86.0106 363.095 86.276 363.273 86.5413 363.36C86.8985 363.539 87.072 363.625 87.4292 363.804C90.3476 365.309 91.8527 369.467 91.9445 369.911C91.4139 369.467 89.3782 367.697 86.1025 367.524H85.3065C81.235 367.789 77.6941 374.075 77.2502 374.871C77.7809 374.692 79.5513 373.988 83.5362 375.667C83.6229 375.667 83.8015 375.753 83.9801 375.845C84.0668 375.845 84.1585 375.932 84.2452 376.024C88.4036 377.973 90.1741 381.514 90.3527 382.397C89.9088 381.866 88.4036 380.891 84.4238 380.891C83.6279 380.891 82.9187 381.157 82.2095 381.509C81.6789 381.861 81.235 382.305 80.8829 382.835C80.7962 382.922 80.6176 383.101 80.6176 383.279C80.2655 384.075 79.9085 384.784 79.4697 385.58C79.1176 386.468 78.939 387.351 78.7605 388.06C78.7553 388.131 78.7553 388.131 78.7553 388.131Z" fill="#FFEDE9"/>
<path d="M196.52 186.594C196.668 186.584 193.816 187.227 190.219 188.65C186.57 190.043 181.892 192.242 177.596 194.997C175.478 196.431 173.3 197.712 171.529 199.324C169.748 200.895 167.917 202.1 166.702 203.579C164.156 206.304 162.462 208.115 162.462 208.115C162.462 208.115 164.488 206.712 167.524 204.605C168.947 203.467 170.998 202.671 172.963 201.564C174.912 200.421 177.243 199.661 179.453 198.768C183.943 197.089 188.601 196.028 192.071 195.492C195.586 194.921 197.637 194.941 197.775 194.9L196.52 186.594Z" fill="#F26761"/>
<path d="M203.765 206.925C203.903 206.971 201.03 206.445 197.163 206.343C193.259 206.195 188.096 206.384 183.06 207.236C180.55 207.726 178.045 208.047 175.784 208.838C173.524 209.588 171.371 209.976 169.677 210.859C166.269 212.364 163.993 213.369 163.993 213.369C163.993 213.369 166.406 212.869 170.024 212.124C171.779 211.634 173.978 211.706 176.218 211.461C178.458 211.175 180.902 211.389 183.285 211.435C188.076 211.649 192.775 212.501 196.178 213.374C199.632 214.226 201.515 215.053 201.658 215.068L203.765 206.925Z" fill="#F26761"/>
<path d="M202.459 228.467C202.566 228.564 200.132 226.957 196.612 225.345C193.081 223.682 188.254 221.824 183.29 220.636C180.79 220.1 178.361 219.416 175.968 219.253C173.595 219.054 171.463 218.569 169.56 218.717C165.835 218.768 163.35 218.799 163.35 218.799C163.35 218.799 165.763 219.289 169.386 220.023C171.192 220.263 173.187 221.192 175.345 221.845C177.519 222.462 179.682 223.615 181.861 224.59C186.183 226.666 190.172 229.294 192.958 231.427C195.8 233.565 197.208 235.065 197.331 235.136L202.459 228.467Z" fill="#F26761"/>
<path d="M52.8768 194.905C53.0146 194.946 55.0656 194.926 58.581 195.497C62.0505 196.028 66.709 197.089 71.1989 198.773C73.4133 199.666 75.7399 200.426 77.689 201.569C79.6533 202.671 81.7043 203.467 83.1278 204.61C86.1637 206.717 88.1893 208.12 88.1893 208.12C88.1893 208.12 86.4903 206.304 83.9493 203.584C82.735 202.11 80.9083 200.905 79.1226 199.329C77.3521 197.717 75.1786 196.436 73.0561 195.002C68.76 192.242 64.0812 190.048 60.4332 188.655C56.831 187.231 53.984 186.589 54.132 186.599L52.8768 194.905Z" fill="#F26761"/>
<path d="M48.9939 215.064C49.1368 215.049 51.0195 214.222 54.4737 213.37C57.8769 212.498 62.5761 211.646 67.3619 211.431C69.7498 211.385 72.1887 211.171 74.4286 211.457C76.6684 211.702 78.8674 211.63 80.6226 212.12C84.2401 212.865 86.6535 213.365 86.6535 213.365C86.6535 213.365 84.3778 212.36 80.9695 210.855C79.2756 209.972 77.1225 209.584 74.8622 208.834C72.6019 208.043 70.0968 207.722 67.5865 207.232C62.5506 206.38 57.3871 206.196 53.489 206.339C49.6164 206.441 46.749 206.967 46.8867 206.921L48.9939 215.064Z" fill="#F26761"/>
<path d="M53.326 235.136C53.4484 235.064 54.8566 233.569 57.7037 231.427C60.4895 229.289 64.4795 226.666 68.8011 224.59C70.9797 223.615 73.138 222.457 75.3115 221.845C77.4698 221.191 79.4596 220.263 81.2709 220.023C84.8935 219.288 87.3068 218.799 87.3068 218.799C87.3068 218.799 84.8221 218.768 81.0975 218.717C79.1892 218.569 77.0564 219.059 74.689 219.253C72.2961 219.416 69.8725 220.1 67.3673 220.635C62.4029 221.824 57.5813 223.681 54.0455 225.345C50.5249 226.957 48.0912 228.564 48.1983 228.467L53.326 235.136Z" fill="#F26761"/>
</svg>
