<svg viewBox="0 0 306 395" fill="none" xmlns="http://www.w3.org/2000/svg">
<path d="M81.1081 384.185C82.6235 384.185 84.1592 383.767 85.5419 382.899C89.4298 380.445 90.5932 375.307 88.1441 371.419C88.042 371.256 75.8017 350.965 70.577 305.917C67.9086 282.916 76.317 206.812 76.4038 206.046C76.9089 201.48 73.6231 197.362 69.0516 196.852C64.4698 196.352 60.3675 199.633 59.8522 204.204C59.495 207.414 51.1529 282.973 54.0357 307.836C59.74 357.138 73.4751 379.379 74.0516 380.303C75.6435 382.803 78.3478 384.185 81.1081 384.185Z" fill="#1C0F00"/>
<path d="M101.497 372.175C103.134 372.175 104.793 371.695 106.242 370.685C110.017 368.062 110.951 362.873 108.323 359.103C108.15 358.848 89.7002 331.612 84.4806 286.534C82.3122 267.798 92.537 214.011 96.6596 194.872C97.6239 190.377 94.7667 185.954 90.2717 184.979C85.7562 183.989 81.353 186.877 80.3836 191.367C79.756 194.286 65.0156 263.171 67.9443 288.447C73.6792 337.939 93.8023 367.379 94.6595 368.603C96.2718 370.93 98.8639 372.175 101.497 372.175Z" fill="#1C0F00"/>
<path d="M125.594 365.256C127.487 365.256 129.385 364.613 130.952 363.302C134.467 360.337 134.911 355.087 131.957 351.572C131.768 351.347 111.686 326.749 106.517 282.151C104.359 263.487 116.038 207.944 120.712 188.117C121.768 183.642 119.002 179.162 114.528 178.106C110.033 177.03 105.568 179.826 104.517 184.29C103.803 187.316 87.0472 258.691 89.9861 284.064C95.7669 333.969 118.278 361.169 119.227 362.302C120.875 364.251 123.222 365.256 125.594 365.256Z" fill="#1C0F00"/>
<path d="M155.09 390.455C158.555 390.455 161.973 388.884 164.208 385.894C167.973 380.863 166.943 373.73 161.912 369.965C161.596 369.73 127.809 343.658 119.201 296.88C116.109 280.007 132.411 227.118 143.411 197.739C145.621 191.851 142.636 185.29 136.748 183.091C130.88 180.897 124.309 183.856 122.099 189.754C118.962 198.137 91.5728 272.431 96.8229 300.993C107.089 356.821 146.605 386.935 148.279 388.19C150.325 389.72 152.718 390.455 155.09 390.455Z" fill="#1C0F00"/>
<path d="M174.009 388.455C177.474 388.455 180.892 386.884 183.127 383.894C186.893 378.863 185.862 371.73 180.831 367.965C180.515 367.725 146.723 341.658 138.12 294.88C135.018 278.002 151.32 225.118 162.33 195.739C164.54 189.851 161.555 183.29 155.667 181.091C149.799 178.897 143.228 181.856 141.018 187.754C137.881 196.127 110.487 270.431 115.742 298.993C126.003 354.821 165.524 384.94 167.198 386.19C169.249 387.715 171.637 388.455 174.009 388.455Z" fill="#1C0F00"/>
<path d="M44.02 380.016C44.3313 380.016 44.6476 380.001 44.9639 379.96C49.5304 379.45 52.8111 375.332 52.306 370.761C52.2601 370.342 47.6987 328.024 57.4746 282.783C62.6635 258.757 73.3731 147.074 73.8323 142.339C74.271 137.757 70.9139 133.696 66.3423 133.257C61.6941 132.788 57.6991 136.176 57.2603 140.747C57.1532 141.901 46.1885 256.19 41.1985 279.262C30.8308 327.274 35.5605 370.791 35.7595 372.618C36.2442 376.878 39.8413 380.016 44.02 380.016Z" fill="#1C0F00"/>
<path d="M232.782 384.17C235.537 384.17 238.231 382.803 239.807 380.298C240.389 379.374 254.124 357.134 259.828 307.831C262.706 282.968 254.369 207.409 254.012 204.2C253.507 199.633 249.394 196.358 244.818 196.847C240.251 197.358 236.96 201.47 237.465 206.042C237.552 206.802 245.956 282.917 243.292 305.912C238.073 350.96 225.822 371.251 225.7 371.445C223.297 375.349 224.48 380.476 228.368 382.9C229.751 383.757 231.282 384.17 232.782 384.17Z" fill="#1C0F00"/>
<path d="M212.383 372.174C215.016 372.174 217.602 370.929 219.215 368.603C220.072 367.378 240.195 337.938 245.935 288.447C248.869 263.17 234.123 194.285 233.496 191.367C232.526 186.882 228.133 183.994 223.603 184.979C219.108 185.948 216.25 190.377 217.215 194.872C221.337 214.021 231.567 267.803 229.394 286.534C224.164 331.612 205.719 358.847 205.531 359.118C202.928 362.899 203.872 368.077 207.648 370.695C209.097 371.69 210.75 372.174 212.383 372.174Z" fill="#1C0F00"/>
<path d="M190.984 386.1C193.551 386.1 196.097 385.018 197.883 382.896C198.913 381.666 223.343 352.134 229.624 297.974C232.812 270.432 214.623 192.955 213.847 189.669C212.705 184.822 207.873 181.776 202.98 182.955C198.122 184.103 195.117 188.965 196.265 193.822C201.342 215.344 214.016 275.637 211.674 295.898C206.056 344.313 184.265 371.012 184.045 371.278C180.856 375.11 181.362 380.799 185.178 383.998C186.872 385.411 188.933 386.1 190.984 386.1Z" fill="#1C0F00"/>
<path d="M158.794 390.456C161.162 390.456 163.55 389.716 165.59 388.191C167.264 386.941 206.786 356.822 217.046 300.994C222.307 272.437 194.918 198.138 191.78 189.755C189.581 183.867 183.02 180.867 177.132 183.092C171.244 185.296 168.259 191.852 170.468 197.74C181.469 227.109 197.77 280.003 194.668 296.881C186.066 343.659 152.274 369.721 151.927 369.986C146.932 373.772 145.921 380.9 149.697 385.905C151.937 388.885 155.345 390.456 158.794 390.456Z" fill="#1C0F00"/>
<path d="M139.87 388.456C142.238 388.456 144.631 387.716 146.677 386.191C148.35 384.936 187.867 354.822 198.132 298.994C203.383 270.437 175.994 196.138 172.856 187.755C170.647 181.862 164.085 178.867 158.208 181.092C152.32 183.291 149.335 189.852 151.544 195.74C162.544 225.119 178.846 278.008 175.754 294.882C167.08 342.031 133.38 367.711 133.043 367.966C128.013 371.731 126.982 378.864 130.747 383.895C132.987 386.88 136.401 388.456 139.87 388.456Z" fill="#1C0F00"/>
<path d="M269.849 380.017C274.028 380.017 277.625 376.884 278.11 372.634C278.314 370.802 283.049 327.285 272.681 279.274C267.65 256.002 257.655 187.255 257.563 186.566C256.895 182.02 252.68 178.892 248.129 179.52C243.573 180.178 240.42 184.403 241.083 188.954C241.501 191.806 251.257 258.962 256.405 282.794C266.206 328.163 261.614 370.348 261.568 370.767C261.058 375.333 264.339 379.456 268.905 379.976C269.217 380.007 269.533 380.017 269.849 380.017Z" fill="#1C0F00"/>
<path d="M158.141 354.036H158.509C168.616 354.036 176.81 345.878 176.81 335.811V290.172H139.84V335.811C139.84 345.878 148.034 354.036 158.141 354.036Z" fill="#EFD897"/>
<path d="M230.521 358.03C229.618 354.663 228.169 351.479 226.358 348.535C228.103 351.418 229.552 354.668 230.521 358.03Z" fill="white"/>
<path d="M226.353 348.474C225.205 346.551 223.878 344.749 222.307 343.127C223.761 344.749 225.088 346.551 226.353 348.474Z" fill="white"/>
<path d="M219.894 340.719C218.266 339.158 216.455 337.836 214.582 336.754C216.455 337.897 218.266 339.219 219.894 340.719Z" fill="white"/>
<path d="M85.4753 360.858C85.7764 359.052 86.3223 357.251 86.9244 355.511C86.3223 357.19 85.7815 358.996 85.4753 360.858Z" fill="white"/>
<path d="M217.005 383.849C217.23 387.37 217.756 390.891 218.506 394.411H245.915C245.389 392.911 244.864 391.34 244.267 389.845C243.517 387.824 242.767 385.875 242.022 383.855C241.573 382.584 241.047 381.385 240.598 380.11C240.45 379.885 240.374 379.66 240.297 379.436C238.649 375.466 237.001 371.574 235.43 368.053C234.608 366.257 233.858 364.461 233.032 362.736C232.955 362.588 232.884 362.512 232.884 362.435C232.287 361.236 231.761 360.114 231.312 359.063V358.986C231.236 358.838 231.164 358.685 231.088 358.537C230.715 357.787 230.414 357.114 230.113 356.44C230.037 356.292 229.965 356.063 229.889 355.915C229.215 354.639 228.69 353.517 228.164 352.471C227.863 351.874 227.567 351.348 227.343 350.823C226.97 350.149 226.669 349.547 226.368 348.95C226.144 348.425 225.919 347.976 225.695 347.603C225.618 347.527 225.618 347.455 225.618 347.379C225.542 347.302 225.541 347.231 225.47 347.231V347.154C225.322 346.93 225.246 346.705 225.169 346.557C224.868 345.96 224.644 345.511 224.419 345.134C224.419 345.057 224.343 345.057 224.343 344.986C224.118 344.46 223.97 344.236 223.97 344.236L223.746 344.685L223.669 344.761V344.838C220.077 353.149 217.904 361.838 217.154 370.599C216.705 375.012 216.633 379.431 217.005 383.849Z" fill="#EFD897"/>
<path d="M70.7453 394.411H98.2309C98.9044 390.891 99.4299 387.37 99.6544 383.849C99.9554 379.88 99.9554 375.91 99.6544 371.941C98.9809 362.731 96.736 353.517 92.9145 344.833C92.9145 344.756 92.8379 344.756 92.8379 344.685L92.6899 344.236C92.6899 344.236 92.6899 344.312 92.6133 344.384C92.3888 344.761 91.8634 345.807 91.0419 347.379C91.0419 347.455 90.9653 347.527 90.9653 347.603C90.3684 348.654 89.7664 349.925 89.0163 351.496C88.4908 352.471 87.9653 353.593 87.3683 354.792C87.2918 354.94 87.2204 355.093 87.0673 355.318C87.0673 355.394 86.9907 355.466 86.9907 355.542C86.9142 355.619 86.9142 355.767 86.7662 355.915C86.7662 355.915 86.7662 355.915 86.7662 355.991V356.068C86.7662 356.144 86.6897 356.144 86.6897 356.216C85.7918 358.088 84.8172 360.109 83.8426 362.282C81.8222 366.701 79.6486 371.645 77.4037 376.961C76.7302 378.609 76.0567 380.257 75.3832 381.977C75.1587 382.574 74.8577 383.247 74.6332 383.849C73.2913 387.299 72.0209 390.814 70.7453 394.411Z" fill="#EFD897"/>
<path d="M217.005 383.849C217.23 387.37 217.756 390.891 218.506 394.411H245.915C245.389 392.911 244.864 391.34 244.267 389.845C243.517 387.824 242.767 385.875 242.022 383.855C241.573 382.584 241.047 381.385 240.598 380.11C240.45 379.885 240.374 379.66 240.297 379.436C238.649 375.466 237.001 371.574 235.43 368.053C234.608 366.257 233.858 364.461 233.032 362.736C232.955 362.588 232.884 362.512 232.884 362.435C232.287 361.236 231.761 360.114 231.312 359.063V358.986C231.236 358.838 231.164 358.685 231.088 358.537C230.715 357.787 230.414 357.114 230.113 356.44C230.037 356.292 229.965 356.063 229.889 355.915C229.215 354.639 228.69 353.517 228.164 352.471C227.863 351.874 227.567 351.348 227.343 350.823C226.97 350.149 226.669 349.547 226.368 348.95C226.144 348.425 225.919 347.976 225.695 347.603C225.618 347.527 225.618 347.455 225.618 347.379C225.542 347.302 225.541 347.231 225.47 347.231V347.154C225.322 346.93 225.246 346.705 225.169 346.557C224.868 345.96 224.644 345.511 224.419 345.134C224.419 345.057 224.343 345.057 224.343 344.986C224.118 344.46 223.97 344.236 223.97 344.236L223.746 344.685L223.669 344.761V344.838C220.077 353.149 217.904 361.838 217.154 370.599C216.705 375.012 216.633 379.431 217.005 383.849Z" fill="#EFD897"/>
<path d="M223.74 344.806C224.343 345.587 224.95 346.368 225.49 347.148C224.526 345.286 223.98 344.266 223.98 344.266L223.797 344.684C223.802 344.75 223.74 344.75 223.74 344.806Z" fill="#CCFDFF"/>
<path d="M74.6435 383.85C73.2965 387.294 72.0209 390.815 70.7505 394.412H245.915C245.389 392.912 244.864 391.34 244.267 389.845C243.517 387.825 242.767 385.876 242.022 383.855H74.6435V383.85Z" fill="#2B6232"/>
<path d="M91.3173 346.974C91.802 346.255 92.3429 345.531 92.9449 344.811C92.9449 344.75 92.8837 344.75 92.8837 344.694L92.7051 344.275C92.7051 344.275 92.2204 345.229 91.3173 346.974Z" fill="#CCFDFF"/>
<path d="M226.399 348.474C226.098 348.056 225.797 347.571 225.496 347.153C226.521 349.255 228.154 352.444 230.083 356.408C229.118 353.643 227.848 350.939 226.399 348.536V348.474Z" fill="#CCFDFF"/>
<path d="M86.7866 356.046C88.7203 352.137 90.2868 349.015 91.3124 346.969C89.5011 349.556 88.0519 352.438 86.9652 355.505C86.909 355.688 86.8478 355.867 86.7866 356.046Z" fill="#CCFDFF"/>
<path d="M74.6536 383.818H242.027C237.981 373.419 233.578 363.802 230.134 356.592C230.072 356.531 230.072 356.47 230.072 356.414C228.144 352.449 226.511 349.26 225.486 347.158C224.94 346.378 224.337 345.597 223.735 344.816C223.312 344.214 222.832 343.673 222.348 343.133C221.562 342.291 220.776 341.449 219.934 340.729C218.307 339.229 216.495 337.903 214.623 336.765C209.852 333.882 204.362 332.26 198.505 332.26H118.227C111.89 332.26 105.976 334.183 100.966 337.49C99.4556 338.454 98.0678 339.53 96.7412 340.735C95.3534 341.995 94.083 343.377 92.9401 344.821C92.338 345.541 91.7921 346.265 91.3125 346.985C90.2869 349.026 88.7153 352.153 86.7867 356.062C83.3478 363.261 78.8221 373.118 74.6536 383.818Z" fill="#2B6232"/>
<path d="M226.399 348.474C226.098 348.056 225.797 347.571 225.496 347.153C226.521 349.255 228.154 352.444 230.083 356.408C229.118 353.643 227.848 350.939 226.399 348.536V348.474Z" fill="#CCFDFF"/>
<path d="M223.802 344.689C223.802 344.75 223.74 344.75 223.74 344.806C224.343 345.587 224.95 346.368 225.49 347.148C224.526 345.286 223.98 344.266 223.98 344.266L223.802 344.689Z" fill="#CCFDFF"/>
<path d="M92.7051 344.271C92.7051 344.271 92.2204 345.23 91.3173 346.975C91.802 346.255 92.3429 345.531 92.9449 344.811C92.9449 344.75 92.8837 344.75 92.8837 344.694L92.7051 344.271Z" fill="#CCFDFF"/>
<path d="M86.7866 356.046C88.7203 352.137 90.2868 349.015 91.3124 346.969C89.5011 349.556 88.0519 352.438 86.9652 355.505C86.909 355.688 86.8478 355.867 86.7866 356.046Z" fill="#CCFDFF"/>
<path d="M157.519 307.703H159.131C204.184 307.703 241.731 273.35 245.542 228.649L248.925 189C253.221 138.6 213.301 95.333 162.514 95.333H154.141C103.349 95.333 63.4288 138.605 67.7299 189L71.1127 228.649C74.9189 273.35 112.466 307.703 157.519 307.703Z" fill="#FCEAB1"/>
<path d="M189.826 204.143H221.894V203.985C221.894 195.357 189.826 195.357 189.826 203.985V204.143Z" fill="#000516"/>
<path d="M95.7666 204.143H127.834V203.985C127.834 195.357 95.7666 195.357 95.7666 203.985V204.143Z" fill="#000516"/>
<path d="M154.09 242.465H162.555C167.09 242.465 170.769 238.801 170.769 234.281V234.199H145.87V234.281C145.875 238.801 149.554 242.465 154.09 242.465Z" fill="#F4D1A6"/>
<path d="M172.193 208.312C172.106 207.944 172.04 207.608 171.958 207.25C172.065 207.694 172.178 208.184 172.259 208.531C172.239 208.455 172.208 208.388 172.193 208.312Z" fill="#160C00"/>
<path d="M79.1028 198.009C79.1028 198.009 67.031 180.728 56.4694 180.728C45.9078 180.728 43.6423 198.759 43.6423 210.03C43.6423 221.3 54.9591 240.832 63.2604 240.832C71.5617 240.832 78.3477 225.806 78.3477 225.806L79.1028 198.009Z" fill="#EFD897"/>
<path d="M237.547 198.009C237.547 198.009 249.619 180.728 260.181 180.728C270.742 180.728 273.008 198.759 273.008 210.03C273.008 221.3 261.691 240.832 253.39 240.832C245.088 240.832 238.302 225.806 238.302 225.806L237.547 198.009Z" fill="#EFD897"/>
<path d="M159.279 252.99L159.06 257.617C159.06 257.617 179.178 258.617 182.698 260.123C186.219 261.628 194.265 267.133 194.265 267.133C194.265 267.133 192.755 253.607 177.668 250.602C172.06 249.484 168.121 248.714 165.386 248.188C162.305 247.591 159.427 249.862 159.279 252.99Z" fill="#000516"/>
<path d="M158.835 252.99L159.055 257.617C159.055 257.617 138.937 258.617 135.416 260.123C131.896 261.628 123.849 267.133 123.849 267.133C123.849 267.133 125.36 253.607 140.447 250.602C146.054 249.484 149.993 248.714 152.728 248.188C155.815 247.591 158.687 249.862 158.835 252.99Z" fill="#000516"/>
<path d="M81.4496 320.735C82.965 320.735 84.5007 320.317 85.8834 319.449C89.7713 316.995 90.9347 311.857 88.4856 307.969C88.3836 307.806 76.1434 287.514 70.9187 242.472C68.2502 219.476 76.6535 143.356 76.7403 142.596C77.2454 138.019 73.9596 133.912 69.388 133.402C64.8113 132.897 60.7041 136.183 60.1887 140.754C59.8316 143.963 51.4996 219.527 54.3824 244.39C60.0867 293.688 73.8219 315.929 74.3984 316.852C75.9852 319.357 78.6893 320.735 81.4496 320.735Z" fill="#2D1803"/>
<path d="M101.838 308.739C103.476 308.739 105.134 308.259 106.583 307.249C110.359 304.627 111.293 299.438 108.665 295.667C108.492 295.412 90.042 268.176 84.8225 223.093C82.654 204.358 92.8788 150.58 97.0014 131.437C97.9658 126.942 95.1084 122.518 90.6134 121.549C86.0877 120.584 81.6947 123.447 80.7202 127.937C80.0926 130.855 65.3524 199.73 68.281 225.012C74.0159 274.513 94.1391 303.948 94.9962 305.173C96.6187 307.489 99.2056 308.739 101.838 308.739Z" fill="#3F2309"/>
<path d="M123.288 317.234C125.344 317.234 127.405 316.54 129.104 315.112C132.921 311.892 133.406 306.188 130.196 302.382C129.992 302.142 108.19 275.447 102.578 227.022C100.231 206.756 112.905 146.463 117.987 124.947C119.135 120.089 116.129 115.222 111.272 114.079C106.379 112.911 101.552 115.946 100.404 120.794C99.6288 124.079 81.4395 201.562 84.6284 229.098C90.9041 283.274 115.339 312.795 116.369 314.02C118.16 316.147 120.716 317.234 123.288 317.234Z" fill="#512E11"/>
<path d="M242.864 339.835C245.854 339.835 248.782 338.35 250.492 335.631C251.119 334.631 266.023 310.487 272.227 256.97C275.35 229.984 266.303 147.961 265.916 144.481C265.365 139.522 260.915 135.96 255.931 136.501C250.971 137.057 247.405 141.517 247.951 146.486C248.048 147.313 257.165 229.933 254.278 254.893C248.604 303.788 235.313 325.819 235.185 326.038C232.573 330.263 233.864 335.83 238.083 338.462C239.573 339.386 241.231 339.835 242.864 339.835Z" fill="#2D1803"/>
<path d="M220.71 326.816C223.567 326.816 226.378 325.464 228.134 322.938C229.062 321.606 250.91 289.656 257.13 235.93C260.319 208.49 244.318 133.717 243.634 130.549C242.583 125.676 237.813 122.579 232.899 123.615C228.022 124.666 224.919 129.472 225.965 134.35C230.44 155.136 241.537 213.516 239.18 233.848C233.476 283.11 213.495 312.331 213.296 312.621C210.444 316.718 211.46 322.346 215.557 325.193C217.133 326.295 218.934 326.816 220.71 326.816Z" fill="#3F2309"/>
<path d="M194.571 319.3C197.133 319.3 199.684 318.218 201.47 316.096C202.5 314.866 226.935 285.344 233.21 231.174C236.404 203.632 218.21 126.155 217.434 122.869C216.291 118.012 211.46 114.971 206.567 116.155C201.709 117.303 198.704 122.165 199.852 127.022C204.934 148.549 217.608 208.832 215.261 229.098C209.653 277.513 187.852 304.212 187.632 304.478C184.448 308.304 184.948 313.999 188.765 317.198C190.464 318.611 192.525 319.3 194.571 319.3Z" fill="#512E11"/>
<path d="M46.7905 34.7123C106.088 -8.19736 204.123 -14.1058 258.599 34.748C337.168 103.363 299.585 146.226 270.921 164.579C269.722 165.242 265.747 163.671 260.058 160.916C260.344 160.997 260.619 161.084 260.854 161.13C263.875 162.426 265.946 163.028 266.696 162.589C292.161 146.124 319.826 106.327 252.186 50.7537C200.225 7.77258 109.226 12.783 53.0866 50.7996C-16.0026 96.5666 17.6109 143.18 43.5608 159.451C44.1067 159.758 45.3261 159.574 47.0507 159.043C47.1272 159.048 47.219 159.048 47.3058 159.048C43.775 160.416 41.3515 161.043 40.428 160.559C11.126 142.369 -34.7175 91.0256 46.7905 34.7123Z" fill="#2B6232"/>
<path d="M245.777 66.7914C196.112 28.9788 112.134 33.1881 58.9896 66.975C1.78353 103.145 24.3405 144.391 46.5198 158.932C46.6474 159.009 46.8361 159.034 47.0504 159.05C45.3258 159.58 44.1014 159.769 43.5605 159.458C17.6208 143.187 -15.9978 96.573 53.0863 50.806C109.231 12.7894 200.229 7.78409 252.185 50.7601C319.825 106.334 292.166 146.131 266.696 162.596C265.941 163.035 263.874 162.433 260.854 161.137C261.517 161.274 262.027 161.29 262.293 161.121C284.135 146.376 302.662 110.329 245.777 66.7914Z" fill="#B02125"/>
<path d="M46.52 158.926C24.3407 144.385 1.78374 103.133 58.9899 66.9689C112.129 33.1871 196.117 28.9778 245.777 66.7852C302.662 110.322 284.141 146.37 262.298 161.115C262.033 161.284 261.528 161.268 260.859 161.13C260.625 161.079 260.344 161.003 260.063 160.916C258.818 160.544 257.15 159.855 255.129 158.916C256.594 159.462 257.66 159.722 258.038 159.457C275.947 146.283 286.141 114.603 239.955 82.0868C192.224 48.7897 115.145 52.249 64.6533 82.3725C18.7894 109.782 31.4786 145.109 49.6272 158.11C49.8313 158.248 50.2395 158.248 50.7701 158.161C49.2599 158.707 48.0813 159.028 47.3109 159.054C47.2241 159.059 47.1323 159.054 47.0557 159.049C46.8414 159.028 46.6476 159.003 46.52 158.926Z" fill="#F5C737"/>
<path d="M49.6272 158.111C31.4735 145.11 18.7894 109.783 64.6533 82.3735C115.145 52.25 192.224 48.7958 239.955 82.0878C286.146 114.604 275.952 146.284 258.038 159.458C257.655 159.723 256.594 159.468 255.129 158.917C254.109 158.54 252.925 158.029 251.491 157.356C252.716 157.835 253.558 158.029 253.828 157.805C267.599 146.075 269.946 119.354 234.608 96.9251C188.346 67.7608 118.196 70.4854 69.9442 97.3077C35.1623 116.666 38.8564 145.651 52.7855 157.238C52.9181 157.346 53.1783 157.361 53.5406 157.305C52.4028 157.733 51.4487 158.04 50.765 158.157C50.2395 158.249 49.8313 158.249 49.6272 158.111Z" fill="#2B6232"/>
<path d="M52.7855 157.243C38.8513 145.655 35.1624 116.67 69.9442 97.3119C118.191 70.4895 188.341 67.7598 234.608 96.9292C269.946 119.359 267.599 146.074 253.828 157.809C253.553 158.033 252.716 157.84 251.491 157.36C247.644 155.875 248.66 156.635 249.67 156.069C255.568 142.956 253.956 124.599 229.766 111.277C184.316 86.3115 121.37 88.2044 74.827 111.751C51.0456 123.777 50.0201 143.14 55.9999 156.237C56.2142 156.35 56.9081 156.135 57.8877 155.742C55.9693 156.579 54.4284 157.176 53.5508 157.304C53.1834 157.36 52.9181 157.35 52.7855 157.243Z" fill="#B02125"/>
<path d="M59.2806 154.529C59.2806 154.473 59.2755 154.421 59.2755 154.365C58.9183 142.37 66.5768 130.262 79.2762 125.007C125.14 105.935 179.474 105.762 225.506 124.461C238.251 129.625 245.986 141.61 245.619 153.534C245.619 153.585 245.614 153.641 245.614 153.697C238.016 149.238 248.67 156.605 249.65 156.049C255.568 142.987 253.966 124.584 229.766 111.292C184.326 86.2864 121.37 88.21 74.8169 111.726C51.0201 123.783 49.9945 143.12 56.0151 156.253C56.1376 156.289 67.8676 149.386 59.2806 154.529Z" fill="#F5C737"/>
<path d="M96.9248 137.467C93.1492 138.676 89.4143 140.007 85.7101 141.477C76.6843 145.053 67.8779 149.339 59.2756 154.539C59.2756 154.472 59.2704 154.411 59.2704 154.35C58.9184 142.38 66.5616 130.252 79.2559 125.022C125.11 105.955 179.499 105.782 225.521 124.476C238.262 129.604 245.981 141.62 245.619 153.513C245.614 153.574 245.614 153.641 245.614 153.702C238.047 149.227 230.333 145.421 222.439 142.191C219.286 140.9 216.113 139.706 212.909 138.609C179.515 127.175 142.988 125.747 108.777 134.125C104.792 135.099 100.843 136.211 96.9248 137.467Z" fill="#2B6232"/>
<path d="M44.6934 172.484C108.185 112.859 207.087 112.859 270.579 172.484C270.579 166.703 270.579 160.922 270.579 155.141C207.087 95.5167 108.185 95.5167 44.6934 155.141C44.6934 160.922 44.6934 166.703 44.6934 172.484Z" fill="#2B6232"/>
</svg>
