<svg width="1468" height="788" viewBox="0 0 1468 788" fill="none" xmlns="http://www.w3.org/2000/svg">
<rect width="1468" height="788" rx="394" fill="#7B732E"/>
<path fill-rule="evenodd" clip-rule="evenodd" d="M715 0V96H745V0H1074C1098.59 0 1122.66 2.25293 1146 6.56348V107H1176V13.3308C1344.16 58.2742 1468 211.675 1468 394C1468 576.325 1344.16 729.726 1176 774.669V681H1146V781.437C1122.66 785.747 1098.59 788 1074 788H745V692H715V788H394C368.354 788 343.28 785.55 319 780.871V681H289V773.854C122.373 727.897 0 575.239 0 394C0 212.76 122.373 60.1028 289 14.1455V107H319V7.12964C343.28 2.45044 368.354 0 394 0H715Z" fill="#4B1C1C"/>
<rect x="88" y="90" width="1297" height="606" rx="303" fill="#672425"/>
<rect x="118" y="116" width="1236" height="556" rx="278" fill="#3C8746"/>
</svg>
